STARTFONT 2.1
FONT -dislin-complex-medium-r-normal--19-14-100-100-p-120-iso8859-1
SIZE 14 100 100
FONTBOUNDINGBOX 18 21 -1 -4
STARTPROPERTIES 9
POINT_SIZE 14
PIXEL_SIZE 19
RESOLUTION_X 100
RESOLUTION_Y 100
FONT_ASCENT 11
FONT_DESCENT 3
AVERAGE_WIDTH 120
SPACING "P"
_XMBDFED_INFO "Edited with xmbdfed 4.5."
ENDPROPERTIES
CHARS 235
STARTCHAR char32
ENCODING 32
SWIDTH 360 0
DWIDTH 7 0
BBX 0 0 0 0
BITMAP
ENDCHAR
STARTCHAR char33
ENCODING 33
SWIDTH 102 0
DWIDTH 2 0
BBX 2 13 0 0
BITMAP
C0
C0
C0
C0
C0
C0
80
80
00
00
00
C0
C0
ENDCHAR
STARTCHAR char34
ENCODING 34
SWIDTH 308 0
DWIDTH 6 0
BBX 6 4 0 9
BITMAP
CC
CC
88
88
ENDCHAR
STARTCHAR char35
ENCODING 35
SWIDTH 462 0
DWIDTH 9 0
BBX 9 10 0 2
BITMAP
0900
0900
1200
7F80
1200
2400
FF00
2400
4800
4800
ENDCHAR
STARTCHAR char83
ENCODING 36
SWIDTH 462 0
DWIDTH 9 0
BBX 9 17 0 -2
BITMAP
1400
1400
3E80
7580
D480
D400
D400
7400
1E00
1780
1580
1580
9580
D700
BE00
1400
1400
ENDCHAR
STARTCHAR char37
ENCODING 37
SWIDTH 565 0
DWIDTH 11 0
BBX 11 12 0 0
BITMAP
7060
DFA0
8840
D880
7100
0200
0400
09C0
1360
2220
4360
81C0
ENDCHAR
STARTCHAR char38
ENCODING 38
SWIDTH 617 0
DWIDTH 12 0
BBX 12 13 0 0
BITMAP
1800
2400
2400
2400
1800
3820
6C50
C680
C300
C380
C4D0
CC60
7800
ENDCHAR
STARTCHAR char39
ENCODING 39
SWIDTH 102 0
DWIDTH 2 0
BBX 2 4 0 9
BITMAP
C0
C0
80
80
ENDCHAR
STARTCHAR char40
ENCODING 40
SWIDTH 257 0
DWIDTH 5 0
BBX 5 17 0 -2
BITMAP
08
10
30
20
60
40
C0
C0
C0
C0
C0
40
60
20
30
10
08
ENDCHAR
STARTCHAR char41
ENCODING 41
SWIDTH 257 0
DWIDTH 5 0
BBX 5 17 0 -2
BITMAP
80
40
60
20
30
10
18
18
18
18
18
10
30
20
60
40
80
ENDCHAR
STARTCHAR char42
ENCODING 42
SWIDTH 360 0
DWIDTH 7 0
BBX 7 7 0 3
BITMAP
10
92
D6
38
D6
92
10
ENDCHAR
STARTCHAR char43
ENCODING 43
SWIDTH 462 0
DWIDTH 9 0
BBX 9 9 0 2
BITMAP
0800
0800
0800
0800
FF80
0800
0800
0800
0800
ENDCHAR
STARTCHAR char44
ENCODING 44
SWIDTH 102 0
DWIDTH 2 0
BBX 2 5 0 -3
BITMAP
C0
C0
40
40
80
ENDCHAR
STARTCHAR char45
ENCODING 45
SWIDTH 462 0
DWIDTH 9 0
BBX 9 1 0 6
BITMAP
FF80
ENDCHAR
STARTCHAR char46
ENCODING 46
SWIDTH 102 0
DWIDTH 2 0
BBX 2 2 0 0
BITMAP
C0
C0
ENDCHAR
STARTCHAR char47
ENCODING 47
SWIDTH 462 0
DWIDTH 9 0
BBX 9 18 0 -3
BITMAP
0080
0080
0100
0100
0200
0200
0400
0400
0800
0800
1000
1000
2000
2000
4000
4000
8000
8000
ENDCHAR
STARTCHAR char48
ENCODING 48
SWIDTH 411 0
DWIDTH 8 0
BBX 8 13 0 0
BITMAP
3C
66
C3
C3
C3
C3
C3
C3
C3
C3
C3
66
3C
ENDCHAR
STARTCHAR char49
ENCODING 49
SWIDTH 308 0
DWIDTH 6 0
BBX 6 13 0 0
BITMAP
30
70
B0
30
30
30
30
30
30
30
30
30
FC
ENDCHAR
STARTCHAR char50
ENCODING 50
SWIDTH 462 0
DWIDTH 9 0
BBX 9 13 0 0
BITMAP
3E00
4700
8300
0300
0300
0600
0600
0C00
1800
3000
6080
FF00
BF00
ENDCHAR
STARTCHAR char51
ENCODING 51
SWIDTH 411 0
DWIDTH 8 0
BBX 8 13 0 0
BITMAP
3C
7E
86
06
04
08
1E
07
03
03
C3
C6
7C
ENDCHAR
STARTCHAR char52
ENCODING 52
SWIDTH 514 0
DWIDTH 10 0
BBX 10 13 0 0
BITMAP
0200
0600
0E00
1600
2600
4600
8600
FFC0
0600
0600
0600
0600
1F80
ENDCHAR
STARTCHAR char53
ENCODING 53
SWIDTH 411 0
DWIDTH 8 0
BBX 8 13 0 0
BITMAP
3F
7C
40
40
80
BC
C2
03
03
03
C3
C6
7C
ENDCHAR
STARTCHAR char54
ENCODING 54
SWIDTH 360 0
DWIDTH 7 0
BBX 7 13 0 0
BITMAP
0C
30
30
60
60
FC
C6
C6
C6
C6
C6
6C
38
ENDCHAR
STARTCHAR char55
ENCODING 55
SWIDTH 411 0
DWIDTH 8 0
BBX 8 13 0 0
BITMAP
7F
7F
82
02
06
04
0C
08
18
30
30
60
60
ENDCHAR
STARTCHAR char56
ENCODING 56
SWIDTH 360 0
DWIDTH 7 0
BBX 7 13 0 0
BITMAP
38
44
C6
C6
E4
78
3C
4C
C6
C6
C6
44
38
ENDCHAR
STARTCHAR char57
ENCODING 57
SWIDTH 360 0
DWIDTH 7 0
BBX 7 13 0 0
BITMAP
38
6C
C6
C6
C6
C6
C6
7E
0C
0C
18
18
60
ENDCHAR
STARTCHAR char58
ENCODING 58
SWIDTH 102 0
DWIDTH 2 0
BBX 2 7 0 2
BITMAP
C0
C0
00
00
00
C0
C0
ENDCHAR
STARTCHAR char59
ENCODING 59
SWIDTH 102 0
DWIDTH 2 0
BBX 2 11 0 -3
BITMAP
C0
C0
00
00
00
00
C0
C0
40
40
80
ENDCHAR
STARTCHAR char60
ENCODING 60
SWIDTH 462 0
DWIDTH 9 0
BBX 9 9 0 1
BITMAP
0180
0600
1800
6000
8000
6000
1800
0600
0180
ENDCHAR
STARTCHAR char61
ENCODING 61
SWIDTH 514 0
DWIDTH 10 0
BBX 10 4 0 4
BITMAP
FFC0
0000
0000
FFC0
ENDCHAR
STARTCHAR char62
ENCODING 62
SWIDTH 462 0
DWIDTH 9 0
BBX 9 9 0 1
BITMAP
C000
3000
0C00
0300
0080
0300
0C00
3000
C000
ENDCHAR
STARTCHAR char63
ENCODING 63
SWIDTH 360 0
DWIDTH 7 0
BBX 7 13 0 0
BITMAP
7C
86
C6
C6
0C
18
18
18
18
00
00
18
18
ENDCHAR
STARTCHAR char64
ENCODING 64
SWIDTH 565 0
DWIDTH 11 0
BBX 11 13 0 0
BITMAP
1F00
2080
4040
8020
8D20
9320
9320
93C0
8C00
8020
4040
2080
1F00
ENDCHAR
STARTCHAR char101
ENCODING 65
SWIDTH 565 0
DWIDTH 11 0
BBX 11 13 0 0
BITMAP
0400
0E00
0E00
1B00
1300
1300
3180
2180
3F80
6180
40C0
40C0
E1E0
ENDCHAR
STARTCHAR char102
ENCODING 66
SWIDTH 462 0
DWIDTH 9 0
BBX 9 13 0 0
BITMAP
FE00
6300
6180
6180
6180
6300
7E00
6300
6180
6180
6180
6300
FE00
ENDCHAR
STARTCHAR char103
ENCODING 67
SWIDTH 514 0
DWIDTH 10 0
BBX 10 13 0 0
BITMAP
1F40
30C0
6040
C000
C000
C000
C000
C000
C000
C000
6040
3080
1F00
ENDCHAR
STARTCHAR char104
ENCODING 68
SWIDTH 514 0
DWIDTH 10 0
BBX 10 13 0 0
BITMAP
FE00
6300
6180
60C0
60C0
60C0
60C0
60C0
60C0
60C0
6180
6300
FE00
ENDCHAR
STARTCHAR char105
ENCODING 69
SWIDTH 514 0
DWIDTH 10 0
BBX 10 13 0 0
BITMAP
FFC0
60C0
6040
6000
6000
6200
7E00
6200
6000
6000
6040
60C0
FFC0
ENDCHAR
STARTCHAR char106
ENCODING 70
SWIDTH 514 0
DWIDTH 10 0
BBX 10 13 0 0
BITMAP
FFC0
60C0
6040
6000
6000
6200
7E00
6200
6000
6000
6000
6000
F000
ENDCHAR
STARTCHAR char103
ENCODING 71
SWIDTH 514 0
DWIDTH 10 0
BBX 10 13 0 0
BITMAP
1E80
3180
6080
C000
C000
C000
C000
C3C0
C180
C180
6180
3180
1E80
ENDCHAR
STARTCHAR char108
ENCODING 72
SWIDTH 617 0
DWIDTH 12 0
BBX 12 13 0 0
BITMAP
F0F0
6060
6060
6060
6060
6060
7FE0
6060
6060
6060
6060
6060
F0F0
ENDCHAR
STARTCHAR char109
ENCODING 73
SWIDTH 205 0
DWIDTH 4 0
BBX 4 13 0 0
BITMAP
F0
60
60
60
60
60
60
60
60
60
60
60
F0
ENDCHAR
STARTCHAR char74
ENCODING 74
SWIDTH 360 0
DWIDTH 7 0
BBX 7 13 0 0
BITMAP
1E
0C
0C
0C
0C
0C
0C
0C
0C
8C
8C
58
30
ENDCHAR
STARTCHAR char75
ENCODING 75
SWIDTH 617 0
DWIDTH 12 0
BBX 12 13 0 0
BITMAP
F0F0
6040
6080
6100
6200
6400
6C00
7600
6300
6180
60C0
6060
F0F0
ENDCHAR
STARTCHAR char76
ENCODING 76
SWIDTH 514 0
DWIDTH 10 0
BBX 10 13 0 0
BITMAP
F000
6000
6000
6000
6000
6000
6000
6000
6000
6040
6040
60C0
FFC0
ENDCHAR
STARTCHAR char113
ENCODING 77
SWIDTH 720 0
DWIDTH 14 0
BBX 14 13 0 0
BITMAP
E01C
7018
7038
5838
5858
4C58
4C98
4698
4718
4318
4218
4018
E03C
ENDCHAR
STARTCHAR char78
ENCODING 78
SWIDTH 668 0
DWIDTH 13 0
BBX 13 13 0 0
BITMAP
E038
6010
7010
7810
5C10
4E10
4710
4390
41D0
40F0
4070
4030
E010
ENDCHAR
STARTCHAR char79
ENCODING 79
SWIDTH 565 0
DWIDTH 11 0
BBX 11 13 0 0
BITMAP
1F00
3180
60C0
C060
C060
C060
C060
C060
C060
C060
60C0
3180
1F00
ENDCHAR
STARTCHAR char80
ENCODING 80
SWIDTH 462 0
DWIDTH 9 0
BBX 9 13 0 0
BITMAP
FF00
6380
6180
6180
6180
6300
7E00
6000
6000
6000
6000
6000
F000
ENDCHAR
STARTCHAR char79
ENCODING 81
SWIDTH 565 0
DWIDTH 11 0
BBX 11 15 0 -2
BITMAP
1F00
3180
60C0
C060
C060
C060
C060
C060
C060
C060
60C0
3180
1F00
0700
0180
ENDCHAR
STARTCHAR char80
ENCODING 82
SWIDTH 514 0
DWIDTH 10 0
BBX 10 13 0 0
BITMAP
FF00
6380
6180
6180
6180
6300
7E00
6300
6300
6180
6180
60C0
F0C0
ENDCHAR
STARTCHAR char83
ENCODING 83
SWIDTH 462 0
DWIDTH 9 0
BBX 9 13 0 0
BITMAP
3E80
6180
C080
C000
C000
7000
1E00
0700
0180
0180
8180
C300
BE00
ENDCHAR
STARTCHAR char84
ENCODING 84
SWIDTH 514 0
DWIDTH 10 0
BBX 10 13 0 0
BITMAP
FFC0
CCC0
8C40
8C40
0C00
0C00
0C00
0C00
0C00
0C00
0C00
0C00
3F00
ENDCHAR
STARTCHAR char85
ENCODING 85
SWIDTH 565 0
DWIDTH 11 0
BBX 11 13 0 0
BITMAP
F0E0
6040
6040
6040
6040
6040
6040
6040
6040
6040
6040
3080
1F00
ENDCHAR
STARTCHAR char86
ENCODING 86
SWIDTH 668 0
DWIDTH 13 0
BBX 13 13 0 0
BITMAP
F038
6010
6020
3020
3020
1840
1840
0C40
0C80
0680
0680
0300
0300
ENDCHAR
STARTCHAR char86
ENCODING 87
SWIDTH 874 0
DWIDTH 17 0
BBX 17 13 0 0
BITMAP
F0C380
60C100
60C100
60C100
316200
316200
316200
1A3400
1A3400
1A3400
0C1800
0C1800
0C1800
ENDCHAR
STARTCHAR char88
ENCODING 88
SWIDTH 668 0
DWIDTH 13 0
BBX 13 13 0 0
BITMAP
F070
6020
3040
1880
0D00
0700
0200
0700
0980
10C0
2060
4030
E078
ENDCHAR
STARTCHAR char89
ENCODING 89
SWIDTH 617 0
DWIDTH 12 0
BBX 12 13 0 0
BITMAP
F070
6020
3040
1840
0C80
0680
0300
0300
0300
0300
0300
0300
0780
ENDCHAR
STARTCHAR char90
ENCODING 90
SWIDTH 565 0
DWIDTH 11 0
BBX 11 13 0 0
BITMAP
FFE0
C060
80C0
0180
0300
0600
0C00
1800
3000
6000
C020
C060
FFE0
ENDCHAR
STARTCHAR char91
ENCODING 91
SWIDTH 257 0
DWIDTH 5 0
BBX 5 17 0 -3
BITMAP
F8
C0
C0
C0
C0
C0
C0
C0
C0
C0
C0
C0
C0
C0
C0
C0
F8
ENDCHAR
STARTCHAR char92
ENCODING 92
SWIDTH 514 0
DWIDTH 10 0
BBX 9 18 0 -3
BITMAP
8000
8000
4000
4000
2000
2000
1000
1000
0800
0800
0400
0400
0200
0200
0100
0100
0080
0080
ENDCHAR
STARTCHAR char93
ENCODING 93
SWIDTH 257 0
DWIDTH 5 0
BBX 5 17 0 -3
BITMAP
F8
18
18
18
18
18
18
18
18
18
18
18
18
18
18
18
F8
ENDCHAR
STARTCHAR char94
ENCODING 94
SWIDTH 462 0
DWIDTH 9 0
BBX 9 7 0 6
BITMAP
0800
1C00
1400
3600
2200
6300
C180
ENDCHAR
STARTCHAR char95
ENCODING 95
SWIDTH 565 0
DWIDTH 11 0
BBX 11 1 0 -2
BITMAP
FFE0
ENDCHAR
STARTCHAR char96
ENCODING 96
SWIDTH 102 0
DWIDTH 2 0
BBX 2 4 0 9
BITMAP
C0
C0
40
40
ENDCHAR
STARTCHAR char97
ENCODING 97
SWIDTH 462 0
DWIDTH 9 0
BBX 9 9 0 0
BITMAP
3C00
C200
0300
0300
3F00
E300
C300
E700
3980
ENDCHAR
STARTCHAR char98
ENCODING 98
SWIDTH 462 0
DWIDTH 9 0
BBX 9 13 0 0
BITMAP
E000
6000
6000
6000
6600
6900
7180
6180
6180
6180
7180
6B00
6600
ENDCHAR
STARTCHAR char99
ENCODING 99
SWIDTH 360 0
DWIDTH 7 0
BBX 7 9 0 0
BITMAP
38
66
C6
C0
C0
C0
C2
64
38
ENDCHAR
STARTCHAR char100
ENCODING 100
SWIDTH 462 0
DWIDTH 9 0
BBX 9 13 0 0
BITMAP
0700
0300
0300
0300
3300
6B00
C700
C300
C300
C300
C700
6B00
3380
ENDCHAR
STARTCHAR char99
ENCODING 101
SWIDTH 360 0
DWIDTH 7 0
BBX 7 9 0 0
BITMAP
3C
66
C6
FE
C0
C0
C6
64
38
ENDCHAR
STARTCHAR char102
ENCODING 102
SWIDTH 360 0
DWIDTH 7 0
BBX 6 13 0 0
BITMAP
38
64
60
60
F0
60
60
60
60
60
60
60
F0
ENDCHAR
STARTCHAR char111
ENCODING 103
SWIDTH 360 0
DWIDTH 7 0
BBX 7 13 0 -4
BITMAP
38
6C
C6
C6
C6
C6
C6
6E
3E
06
86
CC
78
ENDCHAR
STARTCHAR char104
ENCODING 104
SWIDTH 514 0
DWIDTH 10 0
BBX 10 13 0 0
BITMAP
E000
6000
6000
6000
6E00
7300
6180
6180
6180
6180
6180
6180
F3C0
ENDCHAR
STARTCHAR char105
ENCODING 105
SWIDTH 205 0
DWIDTH 4 0
BBX 4 13 0 0
BITMAP
60
60
00
00
E0
60
60
60
60
60
60
60
F0
ENDCHAR
STARTCHAR char106
ENCODING 106
SWIDTH 257 0
DWIDTH 5 0
BBX 5 17 0 -4
BITMAP
18
18
00
00
00
18
18
18
18
18
18
18
18
18
18
B0
60
ENDCHAR
STARTCHAR char107
ENCODING 107
SWIDTH 514 0
DWIDTH 10 0
BBX 10 13 0 0
BITMAP
E000
6000
6000
6000
6700
6200
6400
6800
7C00
6600
6300
6180
F1C0
ENDCHAR
STARTCHAR char108
ENCODING 108
SWIDTH 205 0
DWIDTH 4 0
BBX 4 13 0 0
BITMAP
E0
60
60
60
60
60
60
60
60
60
60
60
F0
ENDCHAR
STARTCHAR char104
ENCODING 109
SWIDTH 822 0
DWIDTH 16 0
BBX 16 9 0 0
BITMAP
EE38
734C
6186
6186
6186
6186
6186
6186
F3CF
ENDCHAR
STARTCHAR char104
ENCODING 110
SWIDTH 514 0
DWIDTH 10 0
BBX 10 9 0 0
BITMAP
EE00
7300
6180
6180
6180
6180
6180
6180
F3C0
ENDCHAR
STARTCHAR char111
ENCODING 111
SWIDTH 411 0
DWIDTH 8 0
BBX 8 9 0 0
BITMAP
3C
66
C3
C3
C3
C3
C3
66
3C
ENDCHAR
STARTCHAR char112
ENCODING 112
SWIDTH 462 0
DWIDTH 9 0
BBX 9 13 0 -4
BITMAP
E600
6B00
7180
6180
6180
6180
7180
6B00
6600
6000
6000
6000
F000
ENDCHAR
STARTCHAR char113
ENCODING 113
SWIDTH 462 0
DWIDTH 9 0
BBX 9 13 0 -4
BITMAP
3300
6B00
C700
C300
C300
C300
C700
6B00
3300
0300
0300
0300
0780
ENDCHAR
STARTCHAR char114
ENCODING 114
SWIDTH 411 0
DWIDTH 8 0
BBX 8 9 0 0
BITMAP
E6
6B
73
60
60
60
60
60
F0
ENDCHAR
STARTCHAR char115
ENCODING 115
SWIDTH 360 0
DWIDTH 7 0
BBX 7 9 0 0
BITMAP
7C
C6
C0
E0
78
1C
06
C6
7C
ENDCHAR
STARTCHAR char116
ENCODING 116
SWIDTH 360 0
DWIDTH 7 0
BBX 7 13 0 0
BITMAP
30
30
30
30
FC
30
30
30
30
30
30
32
1C
ENDCHAR
STARTCHAR char117
ENCODING 117
SWIDTH 514 0
DWIDTH 10 0
BBX 10 9 0 0
BITMAP
E380
6180
6180
6180
6180
6180
6180
3380
1DC0
ENDCHAR
STARTCHAR char118
ENCODING 118
SWIDTH 514 0
DWIDTH 10 0
BBX 10 9 0 0
BITMAP
F1C0
6080
6080
3100
3100
1A00
1A00
0C00
0C00
ENDCHAR
STARTCHAR char118
ENCODING 119
SWIDTH 668 0
DWIDTH 13 0
BBX 13 9 0 0
BITMAP
F338
6310
6310
6310
35A0
35A0
35A0
18C0
18C0
ENDCHAR
STARTCHAR char120
ENCODING 120
SWIDTH 514 0
DWIDTH 10 0
BBX 10 9 0 0
BITMAP
F1C0
6080
3300
1C00
0E00
3700
6300
8180
E3C0
ENDCHAR
STARTCHAR char121
ENCODING 121
SWIDTH 514 0
DWIDTH 10 0
BBX 10 13 0 -4
BITMAP
F1C0
6080
6080
3100
3100
1A00
1A00
0C00
0C00
0800
0800
9000
6000
ENDCHAR
STARTCHAR char122
ENCODING 122
SWIDTH 411 0
DWIDTH 8 0
BBX 8 9 0 0
BITMAP
FF
83
06
0C
18
30
60
C1
FF
ENDCHAR
STARTCHAR char123
ENCODING 123
SWIDTH 205 0
DWIDTH 4 0
BBX 4 17 0 -2
BITMAP
30
60
60
60
60
30
30
60
C0
60
30
30
60
60
60
60
30
ENDCHAR
STARTCHAR char124
ENCODING 124
SWIDTH 51 0
DWIDTH 1 0
BBX 1 17 0 -2
BITMAP
80
80
80
80
80
80
80
80
80
80
80
80
80
80
80
80
80
ENDCHAR
STARTCHAR char125
ENCODING 125
SWIDTH 205 0
DWIDTH 4 0
BBX 4 17 0 -2
BITMAP
C0
60
60
60
60
C0
C0
60
30
60
C0
C0
60
60
60
60
C0
ENDCHAR
STARTCHAR char126
ENCODING 126
SWIDTH 668 0
DWIDTH 13 0
BBX 13 5 0 4
BITMAP
3808
7C08
C718
81F0
80E0
ENDCHAR
STARTCHAR char161
ENCODING 161
SWIDTH 102 0
DWIDTH 2 0
BBX 2 13 0 0
BITMAP
C0
C0
00
00
00
40
40
C0
C0
C0
C0
C0
C0
ENDCHAR
STARTCHAR char103
ENCODING 164
SWIDTH 462 0
DWIDTH 9 0
BBX 9 13 0 0
BITMAP
0F00
1880
3000
6000
6000
FC00
6000
FC00
6000
6000
3000
1880
0F00
ENDCHAR
STARTCHAR char99
ENCODING 169
SWIDTH 617 0
DWIDTH 12 0
BBX 12 13 0 0
BITMAP
1F80
2040
4E20
9990
B190
B010
B010
B010
B090
9910
4E20
2040
1F80
ENDCHAR
STARTCHAR char191
ENCODING 191
SWIDTH 360 0
DWIDTH 7 0
BBX 7 13 0 0
BITMAP
30
30
00
00
30
30
30
30
60
C6
C6
C2
7C
ENDCHAR
STARTCHAR char101
ENCODING 192
SWIDTH 565 0
DWIDTH 11 0
BBX 11 17 0 0
BITMAP
3000
1800
0400
0000
0400
0E00
0E00
1B00
1300
1300
3180
2180
3F80
6180
40C0
40C0
E1E0
ENDCHAR
STARTCHAR char101
ENCODING 193
SWIDTH 565 0
DWIDTH 11 0
BBX 11 17 0 0
BITMAP
0180
0300
0400
0000
0400
0E00
0E00
1B00
1300
1300
3180
2180
3F80
6180
40C0
40C0
E1E0
ENDCHAR
STARTCHAR char101
ENCODING 194
SWIDTH 565 0
DWIDTH 11 0
BBX 11 17 0 0
BITMAP
0400
0E00
1100
0000
0400
0E00
0E00
1B00
1300
1300
3180
2180
3F80
6180
40C0
40C0
E1E0
ENDCHAR
STARTCHAR char101
ENCODING 195
SWIDTH 565 0
DWIDTH 11 0
BBX 11 16 0 0
BITMAP
0E80
1700
0000
0400
0E00
0E00
1B00
1300
1300
3180
2180
3F80
6180
40C0
40C0
E1E0
ENDCHAR
STARTCHAR char101
ENCODING 196
SWIDTH 565 0
DWIDTH 11 0
BBX 11 16 0 0
BITMAP
1B00
1B00
0000
0400
0E00
0E00
1B00
1300
1300
3180
2180
3F80
6180
40C0
40C0
E1E0
ENDCHAR
STARTCHAR char101
ENCODING 197
SWIDTH 565 0
DWIDTH 11 0
BBX 11 17 0 0
BITMAP
0400
0A00
0400
0000
0400
0E00
0E00
1B00
1300
1300
3180
2180
3F80
6180
40C0
40C0
E1E0
ENDCHAR
STARTCHAR char101
ENCODING 198
SWIDTH 617 0
DWIDTH 12 0
BBX 12 13 0 0
BITMAP
1FF0
0E30
0E10
0E00
1600
1640
3FC0
2640
2600
4600
4610
6630
E7F0
ENDCHAR
STARTCHAR char103
ENCODING 199
SWIDTH 462 0
DWIDTH 9 0
BBX 9 17 0 -4
BITMAP
1E80
3180
6080
C000
C000
C000
C000
C000
C000
C000
6080
3100
1E00
0400
0200
1100
0E00
ENDCHAR
STARTCHAR char105
ENCODING 200
SWIDTH 514 0
DWIDTH 10 0
BBX 10 17 0 0
BITMAP
3000
1800
0400
0000
FFC0
60C0
6040
6000
6000
6200
7E00
6200
6000
6000
6040
60C0
FFC0
ENDCHAR
STARTCHAR char105
ENCODING 201
SWIDTH 514 0
DWIDTH 10 0
BBX 10 17 0 0
BITMAP
0300
0600
0800
0000
FFC0
60C0
6040
6000
6000
6200
7E00
6200
6000
6000
6040
60C0
FFC0
ENDCHAR
STARTCHAR char105
ENCODING 202
SWIDTH 514 0
DWIDTH 10 0
BBX 10 17 0 0
BITMAP
0800
1C00
2200
0000
FFC0
60C0
6040
6000
6000
6200
7E00
6200
6000
6000
6040
60C0
FFC0
ENDCHAR
STARTCHAR char105
ENCODING 203
SWIDTH 514 0
DWIDTH 10 0
BBX 10 16 0 0
BITMAP
3300
3300
0000
FFC0
60C0
6040
6000
6000
6200
7E00
6200
6000
6000
6040
60C0
FFC0
ENDCHAR
STARTCHAR char109
ENCODING 204
SWIDTH 205 0
DWIDTH 4 0
BBX 5 17 -1 0
BITMAP
C0
60
10
00
78
30
30
30
30
30
30
30
30
30
30
30
78
ENDCHAR
STARTCHAR char109
ENCODING 205
SWIDTH 257 0
DWIDTH 5 0
BBX 5 17 0 0
BITMAP
18
30
40
00
F0
60
60
60
60
60
60
60
60
60
60
60
F0
ENDCHAR
STARTCHAR char109
ENCODING 206
SWIDTH 308 0
DWIDTH 6 0
BBX 6 17 0 0
BITMAP
30
78
84
00
78
30
30
30
30
30
30
30
30
30
30
30
78
ENDCHAR
STARTCHAR char109
ENCODING 207
SWIDTH 257 0
DWIDTH 5 0
BBX 6 16 0 0
BITMAP
CC
CC
00
78
30
30
30
30
30
30
30
30
30
30
30
78
ENDCHAR
STARTCHAR char104
ENCODING 208
SWIDTH 514 0
DWIDTH 10 0
BBX 10 13 0 0
BITMAP
FE00
6300
6180
60C0
60C0
60C0
F8C0
60C0
60C0
60C0
6180
6300
FE00
ENDCHAR
STARTCHAR char78
ENCODING 209
SWIDTH 668 0
DWIDTH 13 0
BBX 13 16 0 0
BITMAP
0E80
1700
0000
E038
6010
7010
7810
5C10
4E10
4710
4390
41D0
40F0
4070
4030
E010
ENDCHAR
STARTCHAR char79
ENCODING 210
SWIDTH 565 0
DWIDTH 11 0
BBX 11 17 0 0
BITMAP
3000
1800
0400
0000
1F00
3180
60C0
C060
C060
C060
C060
C060
C060
C060
60C0
3180
1F00
ENDCHAR
STARTCHAR char79
ENCODING 211
SWIDTH 565 0
DWIDTH 11 0
BBX 11 17 0 0
BITMAP
0180
0300
0400
0000
1F00
3180
60C0
C060
C060
C060
C060
C060
C060
C060
60C0
3180
1F00
ENDCHAR
STARTCHAR char79
ENCODING 212
SWIDTH 565 0
DWIDTH 11 0
BBX 11 17 0 0
BITMAP
0400
0E00
1100
0000
1F00
3180
60C0
C060
C060
C060
C060
C060
C060
C060
60C0
3180
1F00
ENDCHAR
STARTCHAR char79
ENCODING 213
SWIDTH 565 0
DWIDTH 11 0
BBX 11 16 0 0
BITMAP
0E80
1700
0000
1F00
3180
60C0
C060
C060
C060
C060
C060
C060
C060
60C0
3180
1F00
ENDCHAR
STARTCHAR char79
ENCODING 214
SWIDTH 565 0
DWIDTH 11 0
BBX 11 16 0 0
BITMAP
1B00
1B00
0000
1F00
3180
60C0
C060
C060
C060
C060
C060
C060
C060
60C0
3180
1F00
ENDCHAR
STARTCHAR char79
ENCODING 216
SWIDTH 617 0
DWIDTH 12 0
BBX 12 15 0 -1
BITMAP
0010
1F20
31C0
60C0
C0E0
C160
C260
C460
C460
C860
D060
70C0
3180
5F00
8000
ENDCHAR
STARTCHAR char85
ENCODING 217
SWIDTH 565 0
DWIDTH 11 0
BBX 11 17 0 0
BITMAP
3000
1800
0400
0000
F0E0
6040
6040
6040
6040
6040
6040
6040
6040
6040
6040
3080
1F00
ENDCHAR
STARTCHAR char85
ENCODING 218
SWIDTH 565 0
DWIDTH 11 0
BBX 11 17 0 0
BITMAP
0180
0300
0400
0000
F0E0
6040
6040
6040
6040
6040
6040
6040
6040
6040
6040
3080
1F00
ENDCHAR
STARTCHAR char85
ENCODING 219
SWIDTH 565 0
DWIDTH 11 0
BBX 11 17 0 0
BITMAP
0400
0E00
1100
0000
F0E0
6040
6040
6040
6040
6040
6040
6040
6040
6040
6040
3080
1F00
ENDCHAR
STARTCHAR char85
ENCODING 220
SWIDTH 565 0
DWIDTH 11 0
BBX 11 16 0 0
BITMAP
1980
1980
0000
F0E0
6040
6040
6040
6040
6040
6040
6040
6040
6040
6040
3080
1F00
ENDCHAR
STARTCHAR char89
ENCODING 221
SWIDTH 617 0
DWIDTH 12 0
BBX 12 17 0 0
BITMAP
00C0
0180
0200
0000
F070
6020
3040
1840
0C80
0680
0300
0300
0300
0300
0300
0300
0780
ENDCHAR
STARTCHAR char80
ENCODING 222
SWIDTH 462 0
DWIDTH 9 0
BBX 9 13 0 0
BITMAP
F000
6000
6000
7E00
6300
6180
6180
6180
6300
7E00
6000
6000
F000
ENDCHAR
STARTCHAR char223
ENCODING 223
SWIDTH 411 0
DWIDTH 8 0
BBX 8 13 0 0
BITMAP
1C
26
66
66
66
66
6C
62
63
63
62
62
EC
ENDCHAR
STARTCHAR char97
ENCODING 224
SWIDTH 462 0
DWIDTH 9 0
BBX 9 13 0 0
BITMAP
6000
3000
0800
0000
3C00
C200
0300
0300
3F00
E300
C300
E700
3980
ENDCHAR
STARTCHAR char97
ENCODING 225
SWIDTH 462 0
DWIDTH 9 0
BBX 9 13 0 0
BITMAP
0600
0C00
1000
0000
3C00
C200
0300
0300
3F00
E300
C300
E700
3980
ENDCHAR
STARTCHAR char97
ENCODING 226
SWIDTH 462 0
DWIDTH 9 0
BBX 9 13 0 0
BITMAP
1000
3800
4400
0000
3C00
C200
0300
0300
3F00
E300
C300
E700
3980
ENDCHAR
STARTCHAR char97
ENCODING 227
SWIDTH 462 0
DWIDTH 9 0
BBX 9 12 0 0
BITMAP
3A00
5C00
0000
3C00
C200
0300
0300
3F00
E300
C300
E700
3980
ENDCHAR
STARTCHAR char97
ENCODING 228
SWIDTH 462 0
DWIDTH 9 0
BBX 9 12 0 0
BITMAP
3600
3600
0000
3C00
C200
0300
0300
3F00
E300
C300
E700
3980
ENDCHAR
STARTCHAR char97
ENCODING 229
SWIDTH 462 0
DWIDTH 9 0
BBX 9 14 0 0
BITMAP
1800
2400
2400
1800
0000
3C00
C200
0300
0300
3F00
E300
C300
E700
3980
ENDCHAR
STARTCHAR char97
ENCODING 230
SWIDTH 565 0
DWIDTH 11 0
BBX 11 9 0 0
BITMAP
3FC0
C660
0C60
3FE0
EC00
CC20
CC60
4C40
3380
ENDCHAR
STARTCHAR char99
ENCODING 231
SWIDTH 360 0
DWIDTH 7 0
BBX 7 12 0 -3
BITMAP
38
66
C6
C0
C0
C0
C2
64
38
10
48
30
ENDCHAR
STARTCHAR char99
ENCODING 232
SWIDTH 360 0
DWIDTH 7 0
BBX 7 13 0 0
BITMAP
60
30
08
00
3C
66
C6
FE
C0
C0
C6
64
38
ENDCHAR
STARTCHAR char99
ENCODING 233
SWIDTH 360 0
DWIDTH 7 0
BBX 7 13 0 0
BITMAP
06
0C
10
00
3C
66
C6
FE
C0
C0
C6
64
38
ENDCHAR
STARTCHAR char99
ENCODING 234
SWIDTH 360 0
DWIDTH 7 0
BBX 7 13 0 0
BITMAP
10
38
44
00
3C
66
C6
FE
C0
C0
C6
64
38
ENDCHAR
STARTCHAR char99
ENCODING 235
SWIDTH 360 0
DWIDTH 7 0
BBX 7 12 0 0
BITMAP
66
66
00
3C
66
C6
FE
C0
C0
C6
64
38
ENDCHAR
STARTCHAR char105
ENCODING 236
SWIDTH 257 0
DWIDTH 5 0
BBX 5 13 0 0
BITMAP
C0
60
10
00
70
30
30
30
30
30
30
30
78
ENDCHAR
STARTCHAR char105
ENCODING 237
SWIDTH 205 0
DWIDTH 4 0
BBX 4 13 0 0
BITMAP
30
60
80
00
E0
60
60
60
60
60
60
60
F0
ENDCHAR
STARTCHAR char105
ENCODING 238
SWIDTH 257 0
DWIDTH 5 0
BBX 5 13 0 0
BITMAP
20
70
88
00
70
30
30
30
30
30
30
30
78
ENDCHAR
STARTCHAR char105
ENCODING 239
SWIDTH 257 0
DWIDTH 5 0
BBX 5 12 0 0
BITMAP
D8
D8
00
70
30
30
30
30
30
30
30
78
ENDCHAR
STARTCHAR char100
ENCODING 240
SWIDTH 462 0
DWIDTH 9 0
BBX 9 13 0 0
BITMAP
0700
0300
0F80
0300
3300
6B00
C700
C300
C300
C300
C700
6B00
3380
ENDCHAR
STARTCHAR char104
ENCODING 241
SWIDTH 514 0
DWIDTH 10 0
BBX 10 12 0 0
BITMAP
1D00
2E00
0000
EE00
7300
6180
6180
6180
6180
6180
6180
F3C0
ENDCHAR
STARTCHAR char111
ENCODING 242
SWIDTH 411 0
DWIDTH 8 0
BBX 8 13 0 0
BITMAP
60
30
08
00
3C
66
C3
C3
C3
C3
C3
66
3C
ENDCHAR
STARTCHAR char111
ENCODING 243
SWIDTH 411 0
DWIDTH 8 0
BBX 8 13 0 0
BITMAP
06
0C
10
00
3C
66
C3
C3
C3
C3
C3
66
3C
ENDCHAR
STARTCHAR char111
ENCODING 244
SWIDTH 411 0
DWIDTH 8 0
BBX 8 13 0 0
BITMAP
10
38
44
00
3C
66
C3
C3
C3
C3
C3
66
3C
ENDCHAR
STARTCHAR char111
ENCODING 245
SWIDTH 411 0
DWIDTH 8 0
BBX 8 12 0 0
BITMAP
3A
5C
00
3C
66
C3
C3
C3
C3
C3
66
3C
ENDCHAR
STARTCHAR char111
ENCODING 246
SWIDTH 411 0
DWIDTH 8 0
BBX 8 12 0 0
BITMAP
66
66
00
3C
66
C3
C3
C3
C3
C3
66
3C
ENDCHAR
STARTCHAR char111
ENCODING 248
SWIDTH 462 0
DWIDTH 9 0
BBX 9 9 0 0
BITMAP
3C80
6700
C300
C700
CB00
D300
E300
6600
BC00
ENDCHAR
STARTCHAR char117
ENCODING 249
SWIDTH 514 0
DWIDTH 10 0
BBX 10 13 0 0
BITMAP
6000
3000
0800
0000
E380
6180
6180
6180
6180
6180
6180
3380
1DC0
ENDCHAR
STARTCHAR char117
ENCODING 250
SWIDTH 514 0
DWIDTH 10 0
BBX 10 13 0 0
BITMAP
0300
0600
0800
0000
E380
6180
6180
6180
6180
6180
6180
3380
1DC0
ENDCHAR
STARTCHAR char117
ENCODING 251
SWIDTH 514 0
DWIDTH 10 0
BBX 10 13 0 0
BITMAP
0800
1C00
2200
0000
E380
6180
6180
6180
6180
6180
6180
3380
1DC0
ENDCHAR
STARTCHAR char117
ENCODING 252
SWIDTH 514 0
DWIDTH 10 0
BBX 10 12 0 0
BITMAP
3300
3300
0000
E380
6180
6180
6180
6180
6180
6180
3380
1DC0
ENDCHAR
STARTCHAR char121
ENCODING 253
SWIDTH 514 0
DWIDTH 10 0
BBX 10 17 0 -4
BITMAP
0180
0300
0400
0000
F1C0
6080
6080
3100
3100
1A00
1A00
0C00
0C00
0800
0800
9000
6000
ENDCHAR
STARTCHAR char112
ENCODING 254
SWIDTH 462 0
DWIDTH 9 0
BBX 9 16 0 -4
BITMAP
F000
6000
6000
6600
6B00
7180
6180
6180
6180
7180
6B00
6600
6000
6000
6000
F000
ENDCHAR
STARTCHAR char121
ENCODING 255
SWIDTH 514 0
DWIDTH 10 0
BBX 10 16 0 -4
BITMAP
1B00
1B00
0000
F1C0
6080
6080
3100
3100
1A00
1A00
0C00
0C00
0800
0800
9000
6000
ENDCHAR
STARTCHAR char101
ENCODING 258
SWIDTH 565 0
DWIDTH 11 0
BBX 11 16 0 0
BITMAP
1100
0E00
0000
0400
0E00
0E00
1B00
1300
1300
3180
2180
3F80
6180
40C0
40C0
E1E0
ENDCHAR
STARTCHAR char97
ENCODING 259
SWIDTH 462 0
DWIDTH 9 0
BBX 9 12 0 0
BITMAP
2200
1C00
0000
3C00
C200
0300
0300
3F00
E300
C300
E700
3980
ENDCHAR
STARTCHAR char101
ENCODING 260
SWIDTH 565 0
DWIDTH 11 0
BBX 11 16 0 -3
BITMAP
0400
0E00
0E00
1B00
1300
1300
3180
2180
3F80
6180
40C0
40C0
E1E0
0200
0200
0180
ENDCHAR
STARTCHAR char97
ENCODING 261
SWIDTH 462 0
DWIDTH 9 0
BBX 9 12 0 -3
BITMAP
3C00
C200
0300
0300
3F00
E300
C300
E700
3980
0800
0800
0600
ENDCHAR
STARTCHAR char103
ENCODING 262
SWIDTH 514 0
DWIDTH 10 0
BBX 10 17 0 0
BITMAP
0180
0300
0400
0000
1F40
30C0
6040
C000
C000
C000
C000
C000
C000
C000
6040
3080
1F00
ENDCHAR
STARTCHAR char99
ENCODING 263
SWIDTH 360 0
DWIDTH 7 0
BBX 7 13 0 0
BITMAP
06
0C
10
00
38
66
C6
C0
C0
C0
C2
64
38
ENDCHAR
STARTCHAR char103
ENCODING 264
SWIDTH 514 0
DWIDTH 10 0
BBX 10 17 0 0
BITMAP
0400
0E00
1100
0000
1F40
30C0
6040
C000
C000
C000
C000
C000
C000
C000
6040
3080
1F00
ENDCHAR
STARTCHAR char99
ENCODING 265
SWIDTH 360 0
DWIDTH 7 0
BBX 7 13 0 0
BITMAP
10
38
44
00
38
66
C6
C0
C0
C0
C2
64
38
ENDCHAR
STARTCHAR char103
ENCODING 266
SWIDTH 514 0
DWIDTH 10 0
BBX 10 16 0 0
BITMAP
0600
0600
0000
1F40
30C0
6040
C000
C000
C000
C000
C000
C000
C000
6040
3080
1F00
ENDCHAR
STARTCHAR char99
ENCODING 267
SWIDTH 360 0
DWIDTH 7 0
BBX 7 12 0 0
BITMAP
18
18
00
38
66
C6
C0
C0
C0
C2
64
38
ENDCHAR
STARTCHAR char103
ENCODING 268
SWIDTH 514 0
DWIDTH 10 0
BBX 10 17 0 0
BITMAP
1100
0E00
0400
0000
1F40
30C0
6040
C000
C000
C000
C000
C000
C000
C000
6040
3080
1F00
ENDCHAR
STARTCHAR char99
ENCODING 269
SWIDTH 360 0
DWIDTH 7 0
BBX 7 13 0 0
BITMAP
44
38
10
00
38
66
C6
C0
C0
C0
C2
64
38
ENDCHAR
STARTCHAR char104
ENCODING 270
SWIDTH 514 0
DWIDTH 10 0
BBX 10 17 0 0
BITMAP
2200
1C00
0800
0000
FE00
6300
6180
60C0
60C0
60C0
60C0
60C0
60C0
60C0
6180
6300
FE00
ENDCHAR
STARTCHAR char100
ENCODING 271
SWIDTH 462 0
DWIDTH 9 0
BBX 9 17 0 0
BITMAP
2200
1C00
0800
0000
0700
0300
0300
0300
3300
6B00
C700
C300
C300
C300
C700
6B00
3380
ENDCHAR
STARTCHAR char104
ENCODING 272
SWIDTH 514 0
DWIDTH 10 0
BBX 10 13 0 0
BITMAP
FE00
6300
6180
60C0
60C0
60C0
F8C0
60C0
60C0
60C0
6180
6300
FE00
ENDCHAR
STARTCHAR char100
ENCODING 273
SWIDTH 462 0
DWIDTH 9 0
BBX 9 13 0 0
BITMAP
0700
0300
0F80
0300
3300
6B00
C700
C300
C300
C300
C700
6B00
3380
ENDCHAR
STARTCHAR char105
ENCODING 280
SWIDTH 514 0
DWIDTH 10 0
BBX 10 16 0 -3
BITMAP
FFC0
60C0
6040
6000
6000
6200
7E00
6200
6000
6000
6040
60C0
FFC0
0400
0400
0300
ENDCHAR
STARTCHAR char99
ENCODING 281
SWIDTH 360 0
DWIDTH 7 0
BBX 7 12 0 -3
BITMAP
3C
66
C6
FE
C0
C0
C6
64
38
10
10
0C
ENDCHAR
STARTCHAR char105
ENCODING 282
SWIDTH 514 0
DWIDTH 10 0
BBX 10 17 0 0
BITMAP
2200
1C00
0800
0000
FFC0
60C0
6040
6000
6000
6200
7E00
6200
6000
6000
6040
60C0
FFC0
ENDCHAR
STARTCHAR char99
ENCODING 283
SWIDTH 360 0
DWIDTH 7 0
BBX 7 13 0 0
BITMAP
44
38
10
00
3C
66
C6
FE
C0
C0
C6
64
38
ENDCHAR
STARTCHAR char103
ENCODING 284
SWIDTH 514 0
DWIDTH 10 0
BBX 10 17 0 0
BITMAP
0400
0E00
1100
0000
1E80
3180
6080
C000
C000
C000
C000
C3C0
C180
C180
6180
3180
1E80
ENDCHAR
STARTCHAR char111
ENCODING 285
SWIDTH 360 0
DWIDTH 7 0
BBX 7 17 0 -4
BITMAP
10
38
44
00
38
6C
C6
C6
C6
C6
C6
6E
3E
06
86
CC
78
ENDCHAR
STARTCHAR char103
ENCODING 286
SWIDTH 514 0
DWIDTH 10 0
BBX 10 17 0 0
BITMAP
4100
2200
1C00
0000
1E80
3180
6080
C000
C000
C000
C000
C3C0
C180
C180
6180
3180
1E80
ENDCHAR
STARTCHAR char111
ENCODING 287
SWIDTH 360 0
DWIDTH 7 0
BBX 7 17 0 -4
BITMAP
82
44
38
00
38
6C
C6
C6
C6
C6
C6
6E
3E
06
86
CC
78
ENDCHAR
STARTCHAR char103
ENCODING 288
SWIDTH 514 0
DWIDTH 10 0
BBX 10 16 0 0
BITMAP
0C00
0C00
0000
1E80
3180
6080
C000
C000
C000
C000
C3C0
C180
C180
6180
3180
1E80
ENDCHAR
STARTCHAR char111
ENCODING 289
SWIDTH 360 0
DWIDTH 7 0
BBX 7 16 0 -4
BITMAP
18
18
00
38
6C
C6
C6
C6
C6
C6
6E
3E
06
86
CC
78
ENDCHAR
STARTCHAR char108
ENCODING 292
SWIDTH 617 0
DWIDTH 12 0
BBX 12 17 0 0
BITMAP
0400
0E00
1100
0000
F0F0
6060
6060
6060
6060
6060
7FE0
6060
6060
6060
6060
6060
F0F0
ENDCHAR
STARTCHAR char104
ENCODING 293
SWIDTH 514 0
DWIDTH 10 0
BBX 10 17 0 0
BITMAP
0800
1C00
2200
0000
E000
6000
6000
6000
6E00
7300
6180
6180
6180
6180
6180
6180
F3C0
ENDCHAR
STARTCHAR char108
ENCODING 294
SWIDTH 617 0
DWIDTH 12 0
BBX 12 13 0 0
BITMAP
F0F0
6060
6060
FFF0
6060
6060
7FE0
6060
6060
6060
6060
6060
F0F0
ENDCHAR
STARTCHAR char104
ENCODING 295
SWIDTH 514 0
DWIDTH 10 0
BBX 10 13 0 0
BITMAP
E000
6000
FE00
6000
6E00
7300
6180
6180
6180
6180
6180
6180
F3C0
ENDCHAR
STARTCHAR char109
ENCODING 304
SWIDTH 205 0
DWIDTH 4 0
BBX 4 16 0 0
BITMAP
60
60
00
F0
60
60
60
60
60
60
60
60
60
60
60
F0
ENDCHAR
STARTCHAR char105
ENCODING 305
SWIDTH 205 0
DWIDTH 4 0
BBX 4 9 0 0
BITMAP
E0
60
60
60
60
60
60
60
F0
ENDCHAR
STARTCHAR char74
ENCODING 308
SWIDTH 360 0
DWIDTH 7 0
BBX 7 17 0 0
BITMAP
08
1C
22
00
1E
0C
0C
0C
0C
0C
0C
0C
0C
8C
8C
58
30
ENDCHAR
STARTCHAR char106
ENCODING 309
SWIDTH 308 0
DWIDTH 6 0
BBX 6 16 0 -4
BITMAP
10
38
44
00
18
18
18
18
18
18
18
18
18
18
B0
60
ENDCHAR
STARTCHAR char76
ENCODING 313
SWIDTH 514 0
DWIDTH 10 0
BBX 10 17 0 0
BITMAP
1800
3000
4000
0000
F000
6000
6000
6000
6000
6000
6000
6000
6000
6040
6040
60C0
FFC0
ENDCHAR
STARTCHAR char108
ENCODING 314
SWIDTH 257 0
DWIDTH 5 0
BBX 5 17 0 0
BITMAP
18
30
40
00
E0
60
60
60
60
60
60
60
60
60
60
60
F0
ENDCHAR
STARTCHAR char76
ENCODING 317
SWIDTH 514 0
DWIDTH 10 0
BBX 10 13 0 0
BITMAP
F0C0
60C0
6040
6040
6080
6000
6000
6000
6000
6040
6040
60C0
FFC0
ENDCHAR
STARTCHAR char108
ENCODING 318
SWIDTH 360 0
DWIDTH 7 0
BBX 7 13 0 0
BITMAP
E6
66
62
62
64
60
60
60
60
60
60
60
F0
ENDCHAR
STARTCHAR char76
ENCODING 321
SWIDTH 514 0
DWIDTH 10 0
BBX 10 13 0 0
BITMAP
F000
6000
6000
6000
6800
7000
6000
E000
6000
6040
6040
60C0
FFC0
ENDCHAR
STARTCHAR char108
ENCODING 322
SWIDTH 257 0
DWIDTH 5 0
BBX 5 13 0 0
BITMAP
E0
60
60
60
68
70
60
E0
60
60
60
60
F0
ENDCHAR
STARTCHAR char78
ENCODING 323
SWIDTH 668 0
DWIDTH 13 0
BBX 13 17 0 0
BITMAP
00C0
0180
0200
0000
E038
6010
7010
7810
5C10
4E10
4710
4390
41D0
40F0
4070
4030
E010
ENDCHAR
STARTCHAR char104
ENCODING 324
SWIDTH 514 0
DWIDTH 10 0
BBX 10 13 0 0
BITMAP
0300
0600
0800
0000
EE00
7300
6180
6180
6180
6180
6180
6180
F3C0
ENDCHAR
STARTCHAR char78
ENCODING 327
SWIDTH 668 0
DWIDTH 13 0
BBX 13 17 0 0
BITMAP
0880
0700
0200
0000
E038
6010
7010
7810
5C10
4E10
4710
4390
41D0
40F0
4070
4030
E010
ENDCHAR
STARTCHAR char104
ENCODING 328
SWIDTH 514 0
DWIDTH 10 0
BBX 10 13 0 0
BITMAP
2200
1C00
0800
0000
EE00
7300
6180
6180
6180
6180
6180
6180
F3C0
ENDCHAR
STARTCHAR char79
ENCODING 336
SWIDTH 565 0
DWIDTH 11 0
BBX 11 17 0 0
BITMAP
0660
0CC0
1100
0000
1F00
3180
60C0
C060
C060
C060
C060
C060
C060
C060
60C0
3180
1F00
ENDCHAR
STARTCHAR char111
ENCODING 337
SWIDTH 462 0
DWIDTH 9 0
BBX 9 13 0 0
BITMAP
1980
3300
4400
0000
3C00
6600
C300
C300
C300
C300
C300
6600
3C00
ENDCHAR
STARTCHAR char80
ENCODING 340
SWIDTH 514 0
DWIDTH 10 0
BBX 10 17 0 0
BITMAP
0300
0600
0800
0000
FF00
6380
6180
6180
6180
6300
7E00
6300
6300
6180
6180
60C0
F0C0
ENDCHAR
STARTCHAR char114
ENCODING 341
SWIDTH 411 0
DWIDTH 8 0
BBX 8 13 0 0
BITMAP
0C
18
20
00
E6
6B
73
60
60
60
60
60
F0
ENDCHAR
STARTCHAR char80
ENCODING 344
SWIDTH 514 0
DWIDTH 10 0
BBX 10 17 0 0
BITMAP
2200
1C00
0800
0000
FF00
6380
6180
6180
6180
6300
7E00
6300
6300
6180
6180
60C0
F0C0
ENDCHAR
STARTCHAR char114
ENCODING 345
SWIDTH 411 0
DWIDTH 8 0
BBX 8 13 0 0
BITMAP
22
1C
08
00
E6
6B
73
60
60
60
60
60
F0
ENDCHAR
STARTCHAR char83
ENCODING 346
SWIDTH 462 0
DWIDTH 9 0
BBX 9 17 0 0
BITMAP
0380
0600
0800
0000
3E80
6180
C080
C000
C000
7000
1E00
0700
0180
0180
8180
C300
BE00
ENDCHAR
STARTCHAR char115
ENCODING 347
SWIDTH 360 0
DWIDTH 7 0
BBX 7 13 0 0
BITMAP
06
0C
10
00
7C
C6
C0
E0
78
1C
06
C6
7C
ENDCHAR
STARTCHAR char83
ENCODING 348
SWIDTH 462 0
DWIDTH 9 0
BBX 9 17 0 0
BITMAP
0800
1C00
2200
0000
3E80
6180
C080
C000
C000
7000
1E00
0700
0180
0180
8180
C300
BE00
ENDCHAR
STARTCHAR char115
ENCODING 349
SWIDTH 360 0
DWIDTH 7 0
BBX 7 13 0 0
BITMAP
10
38
44
00
7C
C6
C0
E0
78
1C
06
C6
7C
ENDCHAR
STARTCHAR char83
ENCODING 350
SWIDTH 462 0
DWIDTH 9 0
BBX 9 17 0 -4
BITMAP
3E80
6180
C080
C000
C000
7000
1E00
0700
0180
0180
8180
C300
BE00
0800
0400
2400
1800
ENDCHAR
STARTCHAR char115
ENCODING 351
SWIDTH 360 0
DWIDTH 7 0
BBX 7 13 0 -4
BITMAP
7C
C6
C0
E0
78
1C
06
C6
7C
10
08
48
30
ENDCHAR
STARTCHAR char83
ENCODING 352
SWIDTH 462 0
DWIDTH 9 0
BBX 9 17 0 0
BITMAP
2200
1C00
0800
0000
3E80
6180
C080
C000
C000
7000
1E00
0700
0180
0180
8180
C300
BE00
ENDCHAR
STARTCHAR char115
ENCODING 353
SWIDTH 360 0
DWIDTH 7 0
BBX 7 13 0 0
BITMAP
44
38
10
00
7C
C6
C0
E0
78
1C
06
C6
7C
ENDCHAR
STARTCHAR char84
ENCODING 354
SWIDTH 514 0
DWIDTH 10 0
BBX 10 17 0 -4
BITMAP
FFC0
CCC0
8C40
8C40
0C00
0C00
0C00
0C00
0C00
0C00
0C00
0C00
3F00
0400
0200
1200
0C00
ENDCHAR
STARTCHAR char116
ENCODING 355
SWIDTH 360 0
DWIDTH 7 0
BBX 7 17 0 -4
BITMAP
30
30
30
30
FC
30
30
30
30
30
30
32
1C
10
08
48
30
ENDCHAR
STARTCHAR char84
ENCODING 356
SWIDTH 514 0
DWIDTH 10 0
BBX 10 17 0 0
BITMAP
2200
1C00
0800
0000
FFC0
CCC0
8C40
8C40
0C00
0C00
0C00
0C00
0C00
0C00
0C00
0C00
3F00
ENDCHAR
STARTCHAR char116
ENCODING 357
SWIDTH 360 0
DWIDTH 7 0
BBX 7 17 0 0
BITMAP
88
70
20
00
30
30
30
30
FC
30
30
30
30
30
30
32
1C
ENDCHAR
STARTCHAR char85
ENCODING 364
SWIDTH 565 0
DWIDTH 11 0
BBX 11 17 0 0
BITMAP
2080
1100
0E00
0000
F0E0
6040
6040
6040
6040
6040
6040
6040
6040
6040
6040
3080
1F00
ENDCHAR
STARTCHAR char117
ENCODING 365
SWIDTH 514 0
DWIDTH 10 0
BBX 10 13 0 0
BITMAP
4100
2200
1C00
0000
E380
6180
6180
6180
6180
6180
6180
3380
1DC0
ENDCHAR
STARTCHAR char85
ENCODING 366
SWIDTH 565 0
DWIDTH 11 0
BBX 11 17 0 0
BITMAP
0600
0900
0600
0000
F0E0
6040
6040
6040
6040
6040
6040
6040
6040
6040
6040
3080
1F00
ENDCHAR
STARTCHAR char117
ENCODING 367
SWIDTH 514 0
DWIDTH 10 0
BBX 10 13 0 0
BITMAP
0C00
1200
0C00
0000
E380
6180
6180
6180
6180
6180
6180
3380
1DC0
ENDCHAR
STARTCHAR char85
ENCODING 368
SWIDTH 565 0
DWIDTH 11 0
BBX 11 17 0 0
BITMAP
0C60
18C0
2100
0000
F0E0
6040
6040
6040
6040
6040
6040
6040
6040
6040
6040
3080
1F00
ENDCHAR
STARTCHAR char117
ENCODING 369
SWIDTH 514 0
DWIDTH 10 0
BBX 10 13 0 0
BITMAP
0CC0
1980
2200
0000
E380
6180
6180
6180
6180
6180
6180
3380
1DC0
ENDCHAR
STARTCHAR char90
ENCODING 377
SWIDTH 565 0
DWIDTH 11 0
BBX 11 17 0 0
BITMAP
0180
0300
0400
0000
FFE0
C060
80C0
0180
0300
0600
0C00
1800
3000
6000
C020
C060
FFE0
ENDCHAR
STARTCHAR char122
ENCODING 378
SWIDTH 411 0
DWIDTH 8 0
BBX 8 13 0 0
BITMAP
06
0C
10
00
FF
83
06
0C
18
30
60
C1
FF
ENDCHAR
STARTCHAR char90
ENCODING 379
SWIDTH 565 0
DWIDTH 11 0
BBX 11 16 0 0
BITMAP
0600
0600
0000
FFE0
C060
80C0
0180
0300
0600
0C00
1800
3000
6000
C020
C060
FFE0
ENDCHAR
STARTCHAR char122
ENCODING 380
SWIDTH 411 0
DWIDTH 8 0
BBX 8 12 0 0
BITMAP
18
18
00
FF
83
06
0C
18
30
60
C1
FF
ENDCHAR
STARTCHAR char90
ENCODING 381
SWIDTH 565 0
DWIDTH 11 0
BBX 11 17 0 0
BITMAP
1100
0E00
0400
0000
FFE0
C060
80C0
0180
0300
0600
0C00
1800
3000
6000
C020
C060
FFE0
ENDCHAR
STARTCHAR char122
ENCODING 382
SWIDTH 411 0
DWIDTH 8 0
BBX 8 13 0 0
BITMAP
44
38
10
00
FF
83
06
0C
18
30
60
C1
FF
ENDCHAR
ENDFONT
