STARTFONT 2.1
FONT -dislin-complex-medium-r-normal--14-100-100-100-p-90-iso8859-1
SIZE 10 100 100
FONTBOUNDINGBOX 15 17 -1 -4
STARTPROPERTIES 9
POINT_SIZE 10
PIXEL_SIZE 14
RESOLUTION_X 100
RESOLUTION_Y 100
FONT_ASCENT 11
FONT_DESCENT 3
AVERAGE_WIDTH 90
SPACING "P"
_XMBDFED_INFO "Edited with xmbdfed 4.5."
ENDPROPERTIES
CHARS 235
STARTCHAR char32
ENCODING 32
SWIDTH 360 0
DWIDTH 5 0
BBX 0 0 0 0
BITMAP
ENDCHAR
STARTCHAR char33
ENCODING 33
SWIDTH 144 0
DWIDTH 2 0
BBX 2 9 0 0
BITMAP
C0
C0
C0
C0
80
80
00
C0
C0
ENDCHAR
STARTCHAR char34
ENCODING 34
SWIDTH 432 0
DWIDTH 6 0
BBX 6 4 0 5
BITMAP
CC
CC
88
88
ENDCHAR
STARTCHAR char35
ENCODING 35
SWIDTH 576 0
DWIDTH 8 0
BBX 8 8 0 1
BITMAP
12
12
7F
24
24
FE
48
48
ENDCHAR
STARTCHAR char83
ENCODING 36
SWIDTH 504 0
DWIDTH 7 0
BBX 7 13 0 -2
BITMAP
28
28
7A
EE
EA
68
38
2C
AE
EE
BC
28
28
ENDCHAR
STARTCHAR char37
ENCODING 37
SWIDTH 648 0
DWIDTH 9 0
BBX 9 9 0 0
BITMAP
7980
9700
9200
6400
0800
1300
2480
4480
8300
ENDCHAR
STARTCHAR char38
ENCODING 38
SWIDTH 720 0
DWIDTH 10 0
BBX 10 9 0 0
BITMAP
1800
2400
2400
1880
1940
6E00
C600
CB40
7180
ENDCHAR
STARTCHAR char39
ENCODING 39
SWIDTH 144 0
DWIDTH 2 0
BBX 2 4 0 5
BITMAP
C0
C0
80
80
ENDCHAR
STARTCHAR char40
ENCODING 40
SWIDTH 288 0
DWIDTH 4 0
BBX 4 13 0 -2
BITMAP
10
20
60
40
C0
C0
C0
C0
C0
40
60
20
10
ENDCHAR
STARTCHAR char41
ENCODING 41
SWIDTH 360 0
DWIDTH 5 0
BBX 4 13 0 -2
BITMAP
80
40
60
20
30
30
30
30
30
20
60
40
80
ENDCHAR
STARTCHAR char42
ENCODING 42
SWIDTH 504 0
DWIDTH 7 0
BBX 7 7 0 1
BITMAP
10
92
54
38
54
92
10
ENDCHAR
STARTCHAR char43
ENCODING 43
SWIDTH 576 0
DWIDTH 8 0
BBX 7 7 0 1
BITMAP
10
10
10
FE
10
10
10
ENDCHAR
STARTCHAR char44
ENCODING 44
SWIDTH 144 0
DWIDTH 2 0
BBX 2 5 0 -3
BITMAP
C0
C0
40
40
80
ENDCHAR
STARTCHAR char45
ENCODING 45
SWIDTH 504 0
DWIDTH 7 0
BBX 7 1 0 4
BITMAP
FE
ENDCHAR
STARTCHAR char46
ENCODING 46
SWIDTH 144 0
DWIDTH 2 0
BBX 2 2 0 0
BITMAP
C0
C0
ENDCHAR
STARTCHAR char47
ENCODING 47
SWIDTH 576 0
DWIDTH 8 0
BBX 7 14 0 -2
BITMAP
02
02
04
04
08
08
10
10
20
20
40
40
80
80
ENDCHAR
STARTCHAR char48
ENCODING 48
SWIDTH 432 0
DWIDTH 6 0
BBX 6 9 0 0
BITMAP
30
48
CC
CC
CC
CC
CC
48
30
ENDCHAR
STARTCHAR char49
ENCODING 49
SWIDTH 432 0
DWIDTH 6 0
BBX 6 9 0 0
BITMAP
30
70
B0
30
30
30
30
30
FC
ENDCHAR
STARTCHAR char50
ENCODING 50
SWIDTH 432 0
DWIDTH 6 0
BBX 6 9 0 0
BITMAP
78
FC
8C
0C
08
10
24
7C
BC
ENDCHAR
STARTCHAR char51
ENCODING 51
SWIDTH 432 0
DWIDTH 6 0
BBX 6 9 0 0
BITMAP
78
FC
8C
0C
18
0C
CC
CC
78
ENDCHAR
STARTCHAR char52
ENCODING 52
SWIDTH 576 0
DWIDTH 8 0
BBX 8 9 0 0
BITMAP
04
0C
1C
2C
4C
FF
0C
0C
3F
ENDCHAR
STARTCHAR char53
ENCODING 53
SWIDTH 504 0
DWIDTH 7 0
BBX 7 9 0 0
BITMAP
7E
78
C0
F8
0C
0C
CC
CC
78
ENDCHAR
STARTCHAR char54
ENCODING 54
SWIDTH 432 0
DWIDTH 6 0
BBX 6 9 0 0
BITMAP
18
30
60
60
F8
CC
CC
48
30
ENDCHAR
STARTCHAR char55
ENCODING 55
SWIDTH 504 0
DWIDTH 7 0
BBX 7 9 0 0
BITMAP
7E
7E
84
04
0C
08
18
30
30
ENDCHAR
STARTCHAR char56
ENCODING 56
SWIDTH 432 0
DWIDTH 6 0
BBX 6 9 0 0
BITMAP
78
CC
C4
E4
78
BC
8C
CC
78
ENDCHAR
STARTCHAR char57
ENCODING 57
SWIDTH 504 0
DWIDTH 7 0
BBX 6 9 0 0
BITMAP
30
48
CC
CC
7C
18
18
30
60
ENDCHAR
STARTCHAR char58
ENCODING 58
SWIDTH 144 0
DWIDTH 2 0
BBX 2 6 0 1
BITMAP
C0
C0
00
00
C0
C0
ENDCHAR
STARTCHAR char59
ENCODING 59
SWIDTH 144 0
DWIDTH 2 0
BBX 2 9 0 -3
BITMAP
C0
C0
00
00
C0
C0
40
40
80
ENDCHAR
STARTCHAR char60
ENCODING 60
SWIDTH 504 0
DWIDTH 7 0
BBX 7 7 0 1
BITMAP
06
18
60
80
60
18
06
ENDCHAR
STARTCHAR char61
ENCODING 61
SWIDTH 576 0
DWIDTH 8 0
BBX 8 4 0 3
BITMAP
FF
00
00
FF
ENDCHAR
STARTCHAR char62
ENCODING 62
SWIDTH 648 0
DWIDTH 9 0
BBX 7 7 0 1
BITMAP
C0
30
0C
02
0C
30
C0
ENDCHAR
STARTCHAR char63
ENCODING 63
SWIDTH 432 0
DWIDTH 6 0
BBX 6 9 0 0
BITMAP
78
CC
CC
18
30
30
00
30
30
ENDCHAR
STARTCHAR char64
ENCODING 64
SWIDTH 792 0
DWIDTH 11 0
BBX 11 11 0 0
BITMAP
1F00
2080
4040
8D20
9320
9320
93C0
8C00
4020
20C0
1F00
ENDCHAR
STARTCHAR char101
ENCODING 65
SWIDTH 648 0
DWIDTH 9 0
BBX 9 9 0 0
BITMAP
0800
1C00
1C00
3600
2600
3E00
6300
4300
E780
ENDCHAR
STARTCHAR char102
ENCODING 66
SWIDTH 576 0
DWIDTH 8 0
BBX 8 9 0 0
BITMAP
FE
63
63
66
7C
66
63
63
FE
ENDCHAR
STARTCHAR char103
ENCODING 67
SWIDTH 504 0
DWIDTH 7 0
BBX 7 9 0 0
BITMAP
3A
66
C2
C0
C0
C0
C2
64
38
ENDCHAR
STARTCHAR char104
ENCODING 68
SWIDTH 576 0
DWIDTH 8 0
BBX 8 9 0 0
BITMAP
FC
66
63
63
63
63
63
66
FC
ENDCHAR
STARTCHAR char105
ENCODING 69
SWIDTH 576 0
DWIDTH 8 0
BBX 8 9 0 0
BITMAP
FF
61
60
64
7C
64
60
61
FF
ENDCHAR
STARTCHAR char106
ENCODING 70
SWIDTH 576 0
DWIDTH 8 0
BBX 8 9 0 0
BITMAP
FF
61
60
64
7C
64
60
60
F0
ENDCHAR
STARTCHAR char103
ENCODING 71
SWIDTH 576 0
DWIDTH 8 0
BBX 8 9 0 0
BITMAP
3A
66
C2
C0
C0
CF
C6
66
3A
ENDCHAR
STARTCHAR char108
ENCODING 72
SWIDTH 720 0
DWIDTH 10 0
BBX 10 9 0 0
BITMAP
F3C0
6180
6180
6180
7F80
6180
6180
6180
F3C0
ENDCHAR
STARTCHAR char109
ENCODING 73
SWIDTH 288 0
DWIDTH 4 0
BBX 4 9 0 0
BITMAP
F0
60
60
60
60
60
60
60
F0
ENDCHAR
STARTCHAR char74
ENCODING 74
SWIDTH 432 0
DWIDTH 6 0
BBX 6 9 0 0
BITMAP
3C
18
18
18
18
18
18
98
70
ENDCHAR
STARTCHAR char75
ENCODING 75
SWIDTH 720 0
DWIDTH 10 0
BBX 10 9 0 0
BITMAP
F3C0
6100
6200
6400
6C00
7600
6300
6180
F3C0
ENDCHAR
STARTCHAR char76
ENCODING 76
SWIDTH 576 0
DWIDTH 8 0
BBX 8 9 0 0
BITMAP
F0
60
60
60
60
61
61
63
FF
ENDCHAR
STARTCHAR char113
ENCODING 77
SWIDTH 864 0
DWIDTH 12 0
BBX 12 9 0 0
BITMAP
E070
7060
70E0
58E0
5960
4D60
4E60
4660
E4F0
ENDCHAR
STARTCHAR char78
ENCODING 78
SWIDTH 720 0
DWIDTH 10 0
BBX 10 9 0 0
BITMAP
C1C0
6080
7080
5880
4C80
4680
4380
4180
E080
ENDCHAR
STARTCHAR char79
ENCODING 79
SWIDTH 576 0
DWIDTH 8 0
BBX 8 9 0 0
BITMAP
3C
66
C3
C3
C3
C3
C3
66
3C
ENDCHAR
STARTCHAR char80
ENCODING 80
SWIDTH 576 0
DWIDTH 8 0
BBX 8 9 0 0
BITMAP
FE
63
63
63
7E
60
60
60
F0
ENDCHAR
STARTCHAR char79
ENCODING 81
SWIDTH 576 0
DWIDTH 8 0
BBX 8 11 0 -2
BITMAP
3C
66
C3
C3
C3
C3
C3
66
3C
18
0C
ENDCHAR
STARTCHAR char80
ENCODING 82
SWIDTH 576 0
DWIDTH 8 0
BBX 8 9 0 0
BITMAP
FE
63
63
63
7E
66
66
63
F3
ENDCHAR
STARTCHAR char83
ENCODING 83
SWIDTH 504 0
DWIDTH 7 0
BBX 7 9 0 0
BITMAP
7A
C6
C2
60
38
0C
86
C6
BC
ENDCHAR
STARTCHAR char84
ENCODING 84
SWIDTH 576 0
DWIDTH 8 0
BBX 8 9 0 0
BITMAP
FF
99
99
18
18
18
18
18
7E
ENDCHAR
STARTCHAR char85
ENCODING 85
SWIDTH 648 0
DWIDTH 9 0
BBX 9 9 0 0
BITMAP
F380
6100
6100
6100
6100
6100
6100
3200
1C00
ENDCHAR
STARTCHAR char86
ENCODING 86
SWIDTH 720 0
DWIDTH 10 0
BBX 10 9 0 0
BITMAP
F1C0
6080
6100
3100
3200
1A00
1A00
0C00
0C00
ENDCHAR
STARTCHAR char86
ENCODING 87
SWIDTH 936 0
DWIDTH 13 0
BBX 13 9 0 0
BITMAP
F338
6310
6310
35A0
35A0
35A0
18C0
18C0
18C0
ENDCHAR
STARTCHAR char88
ENCODING 88
SWIDTH 648 0
DWIDTH 9 0
BBX 9 9 0 0
BITMAP
F380
6100
3200
1C00
0800
1C00
2600
4300
E780
ENDCHAR
STARTCHAR char89
ENCODING 89
SWIDTH 648 0
DWIDTH 9 0
BBX 9 9 0 0
BITMAP
F380
6100
3200
1C00
0C00
0C00
0C00
0C00
1E00
ENDCHAR
STARTCHAR char90
ENCODING 90
SWIDTH 648 0
DWIDTH 9 0
BBX 9 9 0 0
BITMAP
FF80
8300
8600
0C00
1800
3000
6080
C080
FF80
ENDCHAR
STARTCHAR char91
ENCODING 91
SWIDTH 288 0
DWIDTH 4 0
BBX 4 13 0 -2
BITMAP
F0
C0
C0
C0
C0
C0
C0
C0
C0
C0
C0
C0
F0
ENDCHAR
STARTCHAR char92
ENCODING 92
SWIDTH 504 0
DWIDTH 7 0
BBX 7 14 0 -2
BITMAP
80
80
40
40
20
20
10
10
08
08
04
04
02
02
ENDCHAR
STARTCHAR char93
ENCODING 93
SWIDTH 288 0
DWIDTH 4 0
BBX 4 13 0 -2
BITMAP
F0
30
30
30
30
30
30
30
30
30
30
30
F0
ENDCHAR
STARTCHAR char94
ENCODING 94
SWIDTH 576 0
DWIDTH 8 0
BBX 7 6 0 3
BITMAP
10
38
28
6C
44
C6
ENDCHAR
STARTCHAR char95
ENCODING 95
SWIDTH 648 0
DWIDTH 9 0
BBX 9 1 0 -2
BITMAP
FF80
ENDCHAR
STARTCHAR char96
ENCODING 96
SWIDTH 144 0
DWIDTH 2 0
BBX 2 4 0 5
BITMAP
C0
C0
40
40
ENDCHAR
STARTCHAR char97
ENCODING 97
SWIDTH 576 0
DWIDTH 8 0
BBX 8 6 0 0
BITMAP
7C
C6
3E
C6
C6
7B
ENDCHAR
STARTCHAR char98
ENCODING 98
SWIDTH 576 0
DWIDTH 8 0
BBX 8 9 0 0
BITMAP
E0
60
60
6E
73
63
63
73
6E
ENDCHAR
STARTCHAR char99
ENCODING 99
SWIDTH 432 0
DWIDTH 6 0
BBX 6 6 0 0
BITMAP
78
CC
C0
C0
C4
78
ENDCHAR
STARTCHAR char100
ENCODING 100
SWIDTH 576 0
DWIDTH 8 0
BBX 8 9 0 0
BITMAP
0E
06
06
76
CE
C6
C6
CE
77
ENDCHAR
STARTCHAR char99
ENCODING 101
SWIDTH 432 0
DWIDTH 6 0
BBX 6 6 0 0
BITMAP
78
C4
FC
C0
C4
78
ENDCHAR
STARTCHAR char102
ENCODING 102
SWIDTH 360 0
DWIDTH 5 0
BBX 5 9 0 0
BITMAP
30
68
60
F0
60
60
60
60
F0
ENDCHAR
STARTCHAR char111
ENCODING 103
SWIDTH 432 0
DWIDTH 6 0
BBX 6 9 0 -3
BITMAP
78
CC
CC
CC
CC
7C
0C
8C
78
ENDCHAR
STARTCHAR char104
ENCODING 104
SWIDTH 648 0
DWIDTH 9 0
BBX 9 9 0 0
BITMAP
E000
6000
6000
6E00
7300
6300
6300
6300
F780
ENDCHAR
STARTCHAR char105
ENCODING 105
SWIDTH 288 0
DWIDTH 4 0
BBX 4 9 0 0
BITMAP
60
60
00
E0
60
60
60
60
F0
ENDCHAR
STARTCHAR char106
ENCODING 106
SWIDTH 288 0
DWIDTH 4 0
BBX 4 13 0 -4
BITMAP
30
30
00
30
30
30
30
30
30
30
30
B0
60
ENDCHAR
STARTCHAR char107
ENCODING 107
SWIDTH 504 0
DWIDTH 7 0
BBX 7 9 0 0
BITMAP
E0
60
60
66
64
68
78
64
F6
ENDCHAR
STARTCHAR char108
ENCODING 108
SWIDTH 288 0
DWIDTH 4 0
BBX 4 9 0 0
BITMAP
E0
60
60
60
60
60
60
60
F0
ENDCHAR
STARTCHAR char104
ENCODING 109
SWIDTH 1008 0
DWIDTH 14 0
BBX 14 6 0 0
BITMAP
EC60
76B0
6318
6318
6318
F7BC
ENDCHAR
STARTCHAR char104
ENCODING 110
SWIDTH 576 0
DWIDTH 8 0
BBX 8 6 0 0
BITMAP
EC
72
62
62
62
F7
ENDCHAR
STARTCHAR char111
ENCODING 111
SWIDTH 432 0
DWIDTH 6 0
BBX 6 6 0 0
BITMAP
78
CC
CC
CC
CC
78
ENDCHAR
STARTCHAR char112
ENCODING 112
SWIDTH 576 0
DWIDTH 8 0
BBX 8 9 0 -3
BITMAP
EE
73
63
63
73
6E
60
60
F0
ENDCHAR
STARTCHAR char113
ENCODING 113
SWIDTH 576 0
DWIDTH 8 0
BBX 8 9 0 -3
BITMAP
76
CE
C6
C6
CE
76
06
06
0F
ENDCHAR
STARTCHAR char114
ENCODING 114
SWIDTH 504 0
DWIDTH 7 0
BBX 7 6 0 0
BITMAP
E6
6A
70
60
60
F0
ENDCHAR
STARTCHAR char115
ENCODING 115
SWIDTH 432 0
DWIDTH 6 0
BBX 6 6 0 0
BITMAP
78
C4
F0
3C
8C
78
ENDCHAR
STARTCHAR char116
ENCODING 116
SWIDTH 432 0
DWIDTH 6 0
BBX 6 9 0 0
BITMAP
30
30
30
FC
30
30
30
34
18
ENDCHAR
STARTCHAR char117
ENCODING 117
SWIDTH 648 0
DWIDTH 9 0
BBX 9 6 0 0
BITMAP
E700
6300
6300
6300
6700
3B80
ENDCHAR
STARTCHAR char118
ENCODING 118
SWIDTH 576 0
DWIDTH 8 0
BBX 8 6 0 0
BITMAP
F7
62
34
34
18
18
ENDCHAR
STARTCHAR char118
ENCODING 119
SWIDTH 792 0
DWIDTH 11 0
BBX 11 6 0 0
BITMAP
F6E0
6640
6640
3B80
3B80
3B80
ENDCHAR
STARTCHAR char120
ENCODING 120
SWIDTH 504 0
DWIDTH 7 0
BBX 7 6 0 0
BITMAP
E6
64
38
38
4C
CE
ENDCHAR
STARTCHAR char118
ENCODING 121
SWIDTH 576 0
DWIDTH 8 0
BBX 8 9 0 -3
BITMAP
F7
62
34
34
18
18
10
90
60
ENDCHAR
STARTCHAR char122
ENCODING 122
SWIDTH 432 0
DWIDTH 6 0
BBX 6 6 0 0
BITMAP
FC
88
10
20
44
FC
ENDCHAR
STARTCHAR char123
ENCODING 123
SWIDTH 288 0
DWIDTH 4 0
BBX 4 15 0 -3
BITMAP
10
20
60
60
30
30
60
C0
60
30
30
60
60
20
10
ENDCHAR
STARTCHAR char124
ENCODING 124
SWIDTH 72 0
DWIDTH 1 0
BBX 1 13 0 -2
BITMAP
80
80
80
80
80
80
80
80
80
80
80
80
80
ENDCHAR
STARTCHAR char125
ENCODING 125
SWIDTH 288 0
DWIDTH 4 0
BBX 4 15 0 -3
BITMAP
80
40
60
60
C0
C0
60
30
60
C0
C0
60
60
40
80
ENDCHAR
STARTCHAR char126
ENCODING 126
SWIDTH 576 0
DWIDTH 8 0
BBX 8 4 0 2
BITMAP
31
79
9E
8C
ENDCHAR
STARTCHAR char161
ENCODING 161
SWIDTH 144 0
DWIDTH 2 0
BBX 2 9 0 0
BITMAP
C0
C0
00
40
40
C0
C0
C0
C0
ENDCHAR
STARTCHAR char103
ENCODING 164
SWIDTH 504 0
DWIDTH 7 0
BBX 7 9 0 0
BITMAP
1C
32
60
F8
60
F8
60
32
1C
ENDCHAR
STARTCHAR char99
ENCODING 169
SWIDTH 720 0
DWIDTH 10 0
BBX 10 10 0 0
BITMAP
3F00
4080
9E40
B340
B040
B040
B140
9E40
4080
3F00
ENDCHAR
STARTCHAR char191
ENCODING 191
SWIDTH 432 0
DWIDTH 6 0
BBX 6 9 0 0
BITMAP
30
30
00
30
30
60
CC
CC
78
ENDCHAR
STARTCHAR char101
ENCODING 192
SWIDTH 648 0
DWIDTH 9 0
BBX 9 13 0 0
BITMAP
6000
3000
0800
0000
0800
1C00
1C00
3600
2600
3E00
6300
4300
E780
ENDCHAR
STARTCHAR char101
ENCODING 193
SWIDTH 648 0
DWIDTH 9 0
BBX 9 13 0 0
BITMAP
0300
0600
0800
0000
0800
1C00
1C00
3600
2600
3E00
6300
4300
E780
ENDCHAR
STARTCHAR char101
ENCODING 194
SWIDTH 648 0
DWIDTH 9 0
BBX 9 13 0 0
BITMAP
0800
1C00
2200
0000
0800
1C00
1C00
3600
2600
3E00
6300
4300
E780
ENDCHAR
STARTCHAR char101
ENCODING 195
SWIDTH 648 0
DWIDTH 9 0
BBX 9 12 0 0
BITMAP
1D00
2E00
0000
0800
1C00
1C00
3600
2600
3E00
6300
4300
E780
ENDCHAR
STARTCHAR char101
ENCODING 196
SWIDTH 648 0
DWIDTH 9 0
BBX 9 12 0 0
BITMAP
3600
3600
0000
0800
1C00
1C00
3600
2600
3E00
6300
4300
E780
ENDCHAR
STARTCHAR char101
ENCODING 197
SWIDTH 648 0
DWIDTH 9 0
BBX 9 13 0 0
BITMAP
0800
1400
0800
0000
0800
1C00
1C00
3600
2600
3E00
6300
4300
E780
ENDCHAR
STARTCHAR char101
ENCODING 198
SWIDTH 648 0
DWIDTH 9 0
BBX 9 9 0 0
BITMAP
0F80
1880
1800
3900
3F00
2900
6800
4880
EF80
ENDCHAR
STARTCHAR char103
ENCODING 199
SWIDTH 504 0
DWIDTH 7 0
BBX 7 12 0 -3
BITMAP
3A
66
C2
C0
C0
C0
C2
64
38
10
48
30
ENDCHAR
STARTCHAR char105
ENCODING 200
SWIDTH 576 0
DWIDTH 8 0
BBX 8 13 0 0
BITMAP
60
30
08
00
FF
61
60
64
7C
64
60
61
FF
ENDCHAR
STARTCHAR char105
ENCODING 201
SWIDTH 576 0
DWIDTH 8 0
BBX 8 13 0 0
BITMAP
06
0C
10
00
FF
61
60
64
7C
64
60
61
FF
ENDCHAR
STARTCHAR char105
ENCODING 202
SWIDTH 576 0
DWIDTH 8 0
BBX 8 13 0 0
BITMAP
08
1C
22
00
FF
61
60
64
7C
64
60
61
FF
ENDCHAR
STARTCHAR char105
ENCODING 203
SWIDTH 576 0
DWIDTH 8 0
BBX 8 12 0 0
BITMAP
66
66
00
FF
61
60
64
7C
64
60
61
FF
ENDCHAR
STARTCHAR char109
ENCODING 204
SWIDTH 288 0
DWIDTH 4 0
BBX 5 13 -1 0
BITMAP
C0
60
10
00
78
30
30
30
30
30
30
30
78
ENDCHAR
STARTCHAR char109
ENCODING 205
SWIDTH 360 0
DWIDTH 5 0
BBX 5 13 0 0
BITMAP
18
30
40
00
F0
60
60
60
60
60
60
60
F0
ENDCHAR
STARTCHAR char109
ENCODING 206
SWIDTH 432 0
DWIDTH 6 0
BBX 6 13 0 0
BITMAP
30
78
84
00
78
30
30
30
30
30
30
30
78
ENDCHAR
STARTCHAR char109
ENCODING 207
SWIDTH 360 0
DWIDTH 5 0
BBX 6 12 0 0
BITMAP
CC
CC
00
78
30
30
30
30
30
30
30
78
ENDCHAR
STARTCHAR char104
ENCODING 208
SWIDTH 576 0
DWIDTH 8 0
BBX 8 9 0 0
BITMAP
FC
66
63
63
F3
63
63
66
FC
ENDCHAR
STARTCHAR char78
ENCODING 209
SWIDTH 720 0
DWIDTH 10 0
BBX 10 12 0 0
BITMAP
1D00
2E00
0000
C1C0
6080
7080
5880
4C80
4680
4380
4180
E080
ENDCHAR
STARTCHAR char79
ENCODING 210
SWIDTH 576 0
DWIDTH 8 0
BBX 8 13 0 0
BITMAP
60
30
08
00
3C
66
C3
C3
C3
C3
C3
66
3C
ENDCHAR
STARTCHAR char79
ENCODING 211
SWIDTH 576 0
DWIDTH 8 0
BBX 8 13 0 0
BITMAP
06
0C
10
00
3C
66
C3
C3
C3
C3
C3
66
3C
ENDCHAR
STARTCHAR char79
ENCODING 212
SWIDTH 576 0
DWIDTH 8 0
BBX 8 13 0 0
BITMAP
10
38
44
00
3C
66
C3
C3
C3
C3
C3
66
3C
ENDCHAR
STARTCHAR char79
ENCODING 213
SWIDTH 576 0
DWIDTH 8 0
BBX 8 12 0 0
BITMAP
3A
5C
00
3C
66
C3
C3
C3
C3
C3
66
3C
ENDCHAR
STARTCHAR char79
ENCODING 214
SWIDTH 576 0
DWIDTH 8 0
BBX 8 12 0 0
BITMAP
66
66
00
3C
66
C3
C3
C3
C3
C3
66
3C
ENDCHAR
STARTCHAR char79
ENCODING 216
SWIDTH 648 0
DWIDTH 9 0
BBX 9 9 0 0
BITMAP
3C80
6700
C300
C700
CB00
D300
E300
6600
BC00
ENDCHAR
STARTCHAR char85
ENCODING 217
SWIDTH 648 0
DWIDTH 9 0
BBX 9 13 0 0
BITMAP
6000
3000
0800
0000
F380
6100
6100
6100
6100
6100
6100
3200
1C00
ENDCHAR
STARTCHAR char85
ENCODING 218
SWIDTH 648 0
DWIDTH 9 0
BBX 9 13 0 0
BITMAP
0300
0600
0800
0000
F380
6100
6100
6100
6100
6100
6100
3200
1C00
ENDCHAR
STARTCHAR char85
ENCODING 219
SWIDTH 648 0
DWIDTH 9 0
BBX 9 13 0 0
BITMAP
0800
1C00
2200
0000
F380
6100
6100
6100
6100
6100
6100
3200
1C00
ENDCHAR
STARTCHAR char85
ENCODING 220
SWIDTH 648 0
DWIDTH 9 0
BBX 9 12 0 0
BITMAP
3300
3300
0000
F380
6100
6100
6100
6100
6100
6100
3200
1C00
ENDCHAR
STARTCHAR char89
ENCODING 221
SWIDTH 648 0
DWIDTH 9 0
BBX 9 13 0 0
BITMAP
0300
0600
0800
0000
F380
6100
3200
1C00
0C00
0C00
0C00
0C00
1E00
ENDCHAR
STARTCHAR char80
ENCODING 222
SWIDTH 576 0
DWIDTH 8 0
BBX 8 9 0 0
BITMAP
F0
60
7E
63
63
63
7E
60
F0
ENDCHAR
STARTCHAR char223
ENCODING 223
SWIDTH 504 0
DWIDTH 7 0
BBX 7 9 0 0
BITMAP
38
6C
6C
6C
78
64
66
66
EC
ENDCHAR
STARTCHAR char97
ENCODING 224
SWIDTH 576 0
DWIDTH 8 0
BBX 8 10 0 0
BITMAP
C0
60
10
00
7C
C6
3E
C6
C6
7B
ENDCHAR
STARTCHAR char97
ENCODING 225
SWIDTH 576 0
DWIDTH 8 0
BBX 8 10 0 0
BITMAP
06
0C
10
00
7C
C6
3E
C6
C6
7B
ENDCHAR
STARTCHAR char97
ENCODING 226
SWIDTH 576 0
DWIDTH 8 0
BBX 8 10 0 0
BITMAP
10
38
44
00
7C
C6
3E
C6
C6
7B
ENDCHAR
STARTCHAR char97
ENCODING 227
SWIDTH 576 0
DWIDTH 8 0
BBX 8 9 0 0
BITMAP
3A
5C
00
7C
C6
3E
C6
C6
7B
ENDCHAR
STARTCHAR char97
ENCODING 228
SWIDTH 576 0
DWIDTH 8 0
BBX 8 9 0 0
BITMAP
66
66
00
7C
C6
3E
C6
C6
7B
ENDCHAR
STARTCHAR char97
ENCODING 229
SWIDTH 576 0
DWIDTH 8 0
BBX 8 10 0 0
BITMAP
18
24
18
00
7C
C6
3E
C6
C6
7B
ENDCHAR
STARTCHAR char97
ENCODING 230
SWIDTH 792 0
DWIDTH 11 0
BBX 11 6 0 0
BITMAP
7FC0
C660
3FE0
C600
C620
7BC0
ENDCHAR
STARTCHAR char99
ENCODING 231
SWIDTH 432 0
DWIDTH 6 0
BBX 6 9 0 -3
BITMAP
78
CC
C0
C0
C4
78
10
48
30
ENDCHAR
STARTCHAR char99
ENCODING 232
SWIDTH 432 0
DWIDTH 6 0
BBX 6 10 0 0
BITMAP
C0
60
10
00
78
C4
FC
C0
C4
78
ENDCHAR
STARTCHAR char99
ENCODING 233
SWIDTH 432 0
DWIDTH 6 0
BBX 6 10 0 0
BITMAP
0C
18
20
00
78
C4
FC
C0
C4
78
ENDCHAR
STARTCHAR char99
ENCODING 234
SWIDTH 432 0
DWIDTH 6 0
BBX 6 10 0 0
BITMAP
10
38
44
00
78
C4
FC
C0
C4
78
ENDCHAR
STARTCHAR char99
ENCODING 235
SWIDTH 432 0
DWIDTH 6 0
BBX 6 9 0 0
BITMAP
6C
6C
00
78
C4
FC
C0
C4
78
ENDCHAR
STARTCHAR char105
ENCODING 236
SWIDTH 360 0
DWIDTH 5 0
BBX 5 10 0 0
BITMAP
C0
60
10
00
70
30
30
30
30
78
ENDCHAR
STARTCHAR char105
ENCODING 237
SWIDTH 288 0
DWIDTH 4 0
BBX 4 10 0 0
BITMAP
30
60
80
00
E0
60
60
60
60
F0
ENDCHAR
STARTCHAR char105
ENCODING 238
SWIDTH 360 0
DWIDTH 5 0
BBX 5 10 0 0
BITMAP
20
70
88
00
70
30
30
30
30
78
ENDCHAR
STARTCHAR char105
ENCODING 239
SWIDTH 360 0
DWIDTH 5 0
BBX 5 9 0 0
BITMAP
D8
D8
00
70
30
30
30
30
78
ENDCHAR
STARTCHAR char100
ENCODING 240
SWIDTH 576 0
DWIDTH 8 0
BBX 8 9 0 0
BITMAP
0E
06
0F
76
CE
C6
C6
CE
77
ENDCHAR
STARTCHAR char104
ENCODING 241
SWIDTH 576 0
DWIDTH 8 0
BBX 8 9 0 0
BITMAP
3A
5C
00
EC
72
62
62
62
F7
ENDCHAR
STARTCHAR char111
ENCODING 242
SWIDTH 432 0
DWIDTH 6 0
BBX 6 10 0 0
BITMAP
C0
60
10
00
78
CC
CC
CC
CC
78
ENDCHAR
STARTCHAR char111
ENCODING 243
SWIDTH 432 0
DWIDTH 6 0
BBX 6 10 0 0
BITMAP
0C
18
20
00
78
CC
CC
CC
CC
78
ENDCHAR
STARTCHAR char111
ENCODING 244
SWIDTH 432 0
DWIDTH 6 0
BBX 6 10 0 0
BITMAP
20
70
88
00
78
CC
CC
CC
CC
78
ENDCHAR
STARTCHAR char111
ENCODING 245
SWIDTH 432 0
DWIDTH 6 0
BBX 6 9 0 0
BITMAP
74
B8
00
78
CC
CC
CC
CC
78
ENDCHAR
STARTCHAR char111
ENCODING 246
SWIDTH 432 0
DWIDTH 6 0
BBX 6 9 0 0
BITMAP
CC
CC
00
78
CC
CC
CC
CC
78
ENDCHAR
STARTCHAR char111
ENCODING 248
SWIDTH 504 0
DWIDTH 7 0
BBX 8 8 -1 -1
BITMAP
01
3E
66
6E
76
66
7C
80
ENDCHAR
STARTCHAR char117
ENCODING 249
SWIDTH 648 0
DWIDTH 9 0
BBX 9 10 0 0
BITMAP
6000
3000
0800
0000
E700
6300
6300
6300
6700
3B80
ENDCHAR
STARTCHAR char117
ENCODING 250
SWIDTH 648 0
DWIDTH 9 0
BBX 9 10 0 0
BITMAP
0600
0C00
1000
0000
E700
6300
6300
6300
6700
3B80
ENDCHAR
STARTCHAR char117
ENCODING 251
SWIDTH 648 0
DWIDTH 9 0
BBX 9 10 0 0
BITMAP
0800
1C00
2200
0000
E700
6300
6300
6300
6700
3B80
ENDCHAR
STARTCHAR char117
ENCODING 252
SWIDTH 648 0
DWIDTH 9 0
BBX 9 9 0 0
BITMAP
6600
6600
0000
E700
6300
6300
6300
6700
3B80
ENDCHAR
STARTCHAR char118
ENCODING 253
SWIDTH 576 0
DWIDTH 8 0
BBX 8 13 0 -3
BITMAP
03
06
08
00
F7
62
34
34
18
18
10
90
60
ENDCHAR
STARTCHAR char112
ENCODING 254
SWIDTH 576 0
DWIDTH 8 0
BBX 8 11 0 -3
BITMAP
F0
60
6E
73
63
63
73
6E
60
60
F0
ENDCHAR
STARTCHAR char118
ENCODING 255
SWIDTH 576 0
DWIDTH 8 0
BBX 8 12 0 -3
BITMAP
66
66
00
F7
62
34
34
18
18
10
90
60
ENDCHAR
STARTCHAR char101
ENCODING 258
SWIDTH 648 0
DWIDTH 9 0
BBX 9 12 0 0
BITMAP
2200
1C00
0000
0800
1C00
1C00
3600
2600
3E00
6300
4300
E780
ENDCHAR
STARTCHAR char97
ENCODING 259
SWIDTH 576 0
DWIDTH 8 0
BBX 8 9 0 0
BITMAP
44
38
00
7C
C6
3E
C6
C6
7B
ENDCHAR
STARTCHAR char101
ENCODING 260
SWIDTH 648 0
DWIDTH 9 0
BBX 9 12 0 -3
BITMAP
0800
1C00
1C00
3600
2600
3E00
6300
4300
E780
0800
0800
0600
ENDCHAR
STARTCHAR char97
ENCODING 261
SWIDTH 576 0
DWIDTH 8 0
BBX 8 9 0 -3
BITMAP
7C
C6
3E
C6
C6
7B
08
08
06
ENDCHAR
STARTCHAR char103
ENCODING 262
SWIDTH 504 0
DWIDTH 7 0
BBX 7 13 0 0
BITMAP
06
0C
10
00
3A
66
C2
C0
C0
C0
C2
64
38
ENDCHAR
STARTCHAR char99
ENCODING 263
SWIDTH 432 0
DWIDTH 6 0
BBX 6 10 0 0
BITMAP
0C
18
20
00
78
CC
C0
C0
C4
78
ENDCHAR
STARTCHAR char103
ENCODING 264
SWIDTH 504 0
DWIDTH 7 0
BBX 7 13 0 0
BITMAP
10
38
44
00
3A
66
C2
C0
C0
C0
C2
64
38
ENDCHAR
STARTCHAR char99
ENCODING 265
SWIDTH 432 0
DWIDTH 6 0
BBX 6 10 0 0
BITMAP
20
70
88
00
78
CC
C0
C0
C4
78
ENDCHAR
STARTCHAR char103
ENCODING 266
SWIDTH 504 0
DWIDTH 7 0
BBX 7 12 0 0
BITMAP
18
18
00
3A
66
C2
C0
C0
C0
C2
64
38
ENDCHAR
STARTCHAR char99
ENCODING 267
SWIDTH 432 0
DWIDTH 6 0
BBX 6 9 0 0
BITMAP
30
30
00
78
CC
C0
C0
C4
78
ENDCHAR
STARTCHAR char103
ENCODING 268
SWIDTH 504 0
DWIDTH 7 0
BBX 7 13 0 0
BITMAP
44
38
10
00
3A
66
C2
C0
C0
C0
C2
64
38
ENDCHAR
STARTCHAR char99
ENCODING 269
SWIDTH 432 0
DWIDTH 6 0
BBX 6 10 0 0
BITMAP
88
70
20
00
78
CC
C0
C0
C4
78
ENDCHAR
STARTCHAR char104
ENCODING 270
SWIDTH 576 0
DWIDTH 8 0
BBX 8 13 0 0
BITMAP
44
38
10
00
FC
66
63
63
63
63
63
66
FC
ENDCHAR
STARTCHAR char100
ENCODING 271
SWIDTH 576 0
DWIDTH 8 0
BBX 8 12 0 0
BITMAP
88
70
20
0E
06
06
76
CE
C6
C6
CE
77
ENDCHAR
STARTCHAR char104
ENCODING 272
SWIDTH 576 0
DWIDTH 8 0
BBX 8 9 0 0
BITMAP
FC
66
63
63
F3
63
63
66
FC
ENDCHAR
STARTCHAR char100
ENCODING 273
SWIDTH 576 0
DWIDTH 8 0
BBX 8 9 0 0
BITMAP
0E
06
0F
76
CE
C6
C6
CE
77
ENDCHAR
STARTCHAR char105
ENCODING 280
SWIDTH 576 0
DWIDTH 8 0
BBX 8 12 0 -3
BITMAP
FF
61
60
64
7C
64
60
61
FF
08
08
06
ENDCHAR
STARTCHAR char99
ENCODING 281
SWIDTH 432 0
DWIDTH 6 0
BBX 6 9 0 -3
BITMAP
78
C4
FC
C0
C4
78
10
10
0C
ENDCHAR
STARTCHAR char105
ENCODING 282
SWIDTH 576 0
DWIDTH 8 0
BBX 8 13 0 0
BITMAP
44
38
10
00
FF
61
60
64
7C
64
60
61
FF
ENDCHAR
STARTCHAR char99
ENCODING 283
SWIDTH 432 0
DWIDTH 6 0
BBX 6 10 0 0
BITMAP
88
70
20
00
78
C4
FC
C0
C4
78
ENDCHAR
STARTCHAR char103
ENCODING 284
SWIDTH 576 0
DWIDTH 8 0
BBX 8 13 0 0
BITMAP
10
38
44
00
3A
66
C2
C0
C0
CF
C6
66
3A
ENDCHAR
STARTCHAR char111
ENCODING 285
SWIDTH 432 0
DWIDTH 6 0
BBX 6 13 0 -3
BITMAP
20
70
88
00
78
CC
CC
CC
CC
7C
0C
8C
78
ENDCHAR
STARTCHAR char103
ENCODING 286
SWIDTH 576 0
DWIDTH 8 0
BBX 8 12 0 0
BITMAP
44
38
00
3A
66
C2
C0
C0
CF
C6
66
3A
ENDCHAR
STARTCHAR char111
ENCODING 287
SWIDTH 432 0
DWIDTH 6 0
BBX 6 12 0 -3
BITMAP
88
70
00
78
CC
CC
CC
CC
7C
0C
8C
78
ENDCHAR
STARTCHAR char103
ENCODING 288
SWIDTH 576 0
DWIDTH 8 0
BBX 8 12 0 0
BITMAP
18
18
00
3A
66
C2
C0
C0
CF
C6
66
3A
ENDCHAR
STARTCHAR char111
ENCODING 289
SWIDTH 432 0
DWIDTH 6 0
BBX 6 12 0 -3
BITMAP
30
30
00
78
CC
CC
CC
CC
7C
0C
8C
78
ENDCHAR
STARTCHAR char108
ENCODING 292
SWIDTH 720 0
DWIDTH 10 0
BBX 10 13 0 0
BITMAP
0800
1C00
2200
0000
F3C0
6180
6180
6180
7F80
6180
6180
6180
F3C0
ENDCHAR
STARTCHAR char104
ENCODING 293
SWIDTH 648 0
DWIDTH 9 0
BBX 9 13 0 0
BITMAP
1000
3800
4400
0000
E000
6000
6000
6E00
7300
6300
6300
6300
F780
ENDCHAR
STARTCHAR char108
ENCODING 294
SWIDTH 720 0
DWIDTH 10 0
BBX 10 9 0 0
BITMAP
F3C0
6180
FFC0
6180
7F80
6180
6180
6180
F3C0
ENDCHAR
STARTCHAR char104
ENCODING 295
SWIDTH 648 0
DWIDTH 9 0
BBX 9 9 0 0
BITMAP
E000
FE00
6000
6E00
7300
6300
6300
6300
F780
ENDCHAR
STARTCHAR char109
ENCODING 304
SWIDTH 288 0
DWIDTH 4 0
BBX 4 12 0 0
BITMAP
60
60
00
F0
60
60
60
60
60
60
60
F0
ENDCHAR
STARTCHAR char105
ENCODING 305
SWIDTH 288 0
DWIDTH 4 0
BBX 4 6 0 0
BITMAP
E0
60
60
60
60
F0
ENDCHAR
STARTCHAR char74
ENCODING 308
SWIDTH 432 0
DWIDTH 6 0
BBX 6 13 0 0
BITMAP
10
38
44
00
3C
18
18
18
18
18
18
98
70
ENDCHAR
STARTCHAR char106
ENCODING 309
SWIDTH 360 0
DWIDTH 5 0
BBX 5 14 0 -4
BITMAP
20
70
88
00
30
30
30
30
30
30
30
30
B0
60
ENDCHAR
STARTCHAR char76
ENCODING 313
SWIDTH 576 0
DWIDTH 8 0
BBX 8 13 0 0
BITMAP
18
30
40
00
F0
60
60
60
60
61
61
63
FF
ENDCHAR
STARTCHAR char108
ENCODING 314
SWIDTH 360 0
DWIDTH 5 0
BBX 5 13 0 0
BITMAP
18
30
40
00
E0
60
60
60
60
60
60
60
F0
ENDCHAR
STARTCHAR char76
ENCODING 317
SWIDTH 576 0
DWIDTH 8 0
BBX 8 9 0 0
BITMAP
F3
63
61
62
60
61
61
63
FF
ENDCHAR
STARTCHAR char108
ENCODING 318
SWIDTH 504 0
DWIDTH 7 0
BBX 7 9 0 0
BITMAP
E6
66
62
64
60
60
60
60
F0
ENDCHAR
STARTCHAR char76
ENCODING 321
SWIDTH 576 0
DWIDTH 8 0
BBX 8 9 0 0
BITMAP
F0
60
68
70
60
E1
61
63
FF
ENDCHAR
STARTCHAR char108
ENCODING 322
SWIDTH 360 0
DWIDTH 5 0
BBX 5 9 0 0
BITMAP
E0
60
68
70
60
E0
60
60
F0
ENDCHAR
STARTCHAR char78
ENCODING 323
SWIDTH 720 0
DWIDTH 10 0
BBX 10 13 0 0
BITMAP
0300
0600
0800
0000
C1C0
6080
7080
5880
4C80
4680
4380
4180
E080
ENDCHAR
STARTCHAR char104
ENCODING 324
SWIDTH 576 0
DWIDTH 8 0
BBX 8 10 0 0
BITMAP
06
0C
10
00
EC
72
62
62
62
F7
ENDCHAR
STARTCHAR char78
ENCODING 327
SWIDTH 720 0
DWIDTH 10 0
BBX 10 13 0 0
BITMAP
2200
1C00
0800
0000
C1C0
6080
7080
5880
4C80
4680
4380
4180
E080
ENDCHAR
STARTCHAR char104
ENCODING 328
SWIDTH 576 0
DWIDTH 8 0
BBX 8 10 0 0
BITMAP
44
38
10
00
EC
72
62
62
62
F7
ENDCHAR
STARTCHAR char79
ENCODING 336
SWIDTH 648 0
DWIDTH 9 0
BBX 9 13 0 0
BITMAP
1980
3300
4400
0000
3C00
6600
C300
C300
C300
C300
C300
6600
3C00
ENDCHAR
STARTCHAR char111
ENCODING 337
SWIDTH 504 0
DWIDTH 7 0
BBX 7 10 0 0
BITMAP
36
6C
90
00
78
CC
CC
CC
CC
78
ENDCHAR
STARTCHAR char80
ENCODING 340
SWIDTH 576 0
DWIDTH 8 0
BBX 8 13 0 0
BITMAP
06
0C
10
00
FE
63
63
63
7E
66
66
63
F3
ENDCHAR
STARTCHAR char114
ENCODING 341
SWIDTH 504 0
DWIDTH 7 0
BBX 7 10 0 0
BITMAP
06
0C
10
00
E6
6A
70
60
60
F0
ENDCHAR
STARTCHAR char80
ENCODING 344
SWIDTH 576 0
DWIDTH 8 0
BBX 8 13 0 0
BITMAP
44
38
10
00
FE
63
63
63
7E
66
66
63
F3
ENDCHAR
STARTCHAR char114
ENCODING 345
SWIDTH 504 0
DWIDTH 7 0
BBX 7 10 0 0
BITMAP
44
38
10
00
E6
6A
70
60
60
F0
ENDCHAR
STARTCHAR char83
ENCODING 346
SWIDTH 504 0
DWIDTH 7 0
BBX 7 13 0 0
BITMAP
0C
18
20
00
7A
C6
C2
60
38
0C
86
C6
BC
ENDCHAR
STARTCHAR char115
ENCODING 347
SWIDTH 432 0
DWIDTH 6 0
BBX 6 10 0 0
BITMAP
0C
18
20
00
78
C4
F0
3C
8C
78
ENDCHAR
STARTCHAR char83
ENCODING 348
SWIDTH 504 0
DWIDTH 7 0
BBX 7 13 0 0
BITMAP
10
38
44
00
7A
C6
C2
60
38
0C
86
C6
BC
ENDCHAR
STARTCHAR char115
ENCODING 349
SWIDTH 432 0
DWIDTH 6 0
BBX 6 10 0 0
BITMAP
20
70
88
00
78
C4
F0
3C
8C
78
ENDCHAR
STARTCHAR char83
ENCODING 350
SWIDTH 504 0
DWIDTH 7 0
BBX 7 12 0 -3
BITMAP
7A
C6
C2
60
38
0C
86
C6
BC
10
48
30
ENDCHAR
STARTCHAR char115
ENCODING 351
SWIDTH 432 0
DWIDTH 6 0
BBX 6 9 0 -3
BITMAP
78
C4
F0
3C
8C
78
10
48
30
ENDCHAR
STARTCHAR char83
ENCODING 352
SWIDTH 504 0
DWIDTH 7 0
BBX 7 13 0 0
BITMAP
44
38
10
00
7A
C6
C2
60
38
0C
86
C6
BC
ENDCHAR
STARTCHAR char115
ENCODING 353
SWIDTH 432 0
DWIDTH 6 0
BBX 6 10 0 0
BITMAP
88
70
20
00
78
C4
F0
3C
8C
78
ENDCHAR
STARTCHAR char84
ENCODING 354
SWIDTH 576 0
DWIDTH 8 0
BBX 8 12 0 -3
BITMAP
FF
99
99
18
18
18
18
18
7E
08
24
18
ENDCHAR
STARTCHAR char116
ENCODING 355
SWIDTH 432 0
DWIDTH 6 0
BBX 6 12 0 -3
BITMAP
30
30
30
FC
30
30
30
34
18
10
48
30
ENDCHAR
STARTCHAR char84
ENCODING 356
SWIDTH 576 0
DWIDTH 8 0
BBX 8 13 0 0
BITMAP
44
38
10
00
FF
99
99
18
18
18
18
18
7E
ENDCHAR
STARTCHAR char116
ENCODING 357
SWIDTH 432 0
DWIDTH 6 0
BBX 6 13 0 0
BITMAP
88
70
20
00
30
30
30
FC
30
30
30
34
18
ENDCHAR
STARTCHAR char85
ENCODING 364
SWIDTH 648 0
DWIDTH 9 0
BBX 9 12 0 0
BITMAP
2200
1C00
0000
F380
6100
6100
6100
6100
6100
6100
3200
1C00
ENDCHAR
STARTCHAR char117
ENCODING 365
SWIDTH 648 0
DWIDTH 9 0
BBX 9 9 0 0
BITMAP
2200
1C00
0000
E700
6300
6300
6300
6700
3B80
ENDCHAR
STARTCHAR char85
ENCODING 366
SWIDTH 648 0
DWIDTH 9 0
BBX 9 13 0 0
BITMAP
0C00
1200
0C00
0000
F380
6100
6100
6100
6100
6100
6100
3200
1C00
ENDCHAR
STARTCHAR char117
ENCODING 367
SWIDTH 648 0
DWIDTH 9 0
BBX 9 10 0 0
BITMAP
1800
2400
1800
0000
E700
6300
6300
6300
6700
3B80
ENDCHAR
STARTCHAR char85
ENCODING 368
SWIDTH 648 0
DWIDTH 9 0
BBX 9 13 0 0
BITMAP
1980
3300
4400
0000
F380
6100
6100
6100
6100
6100
6100
3200
1C00
ENDCHAR
STARTCHAR char117
ENCODING 369
SWIDTH 648 0
DWIDTH 9 0
BBX 9 10 0 0
BITMAP
1980
3300
4400
0000
E700
6300
6300
6300
6700
3B80
ENDCHAR
STARTCHAR char90
ENCODING 377
SWIDTH 648 0
DWIDTH 9 0
BBX 9 13 0 0
BITMAP
0300
0600
0800
0000
FF80
8300
8600
0C00
1800
3000
6080
C080
FF80
ENDCHAR
STARTCHAR char122
ENCODING 378
SWIDTH 432 0
DWIDTH 6 0
BBX 6 10 0 0
BITMAP
0C
18
20
00
FC
88
10
20
44
FC
ENDCHAR
STARTCHAR char90
ENCODING 379
SWIDTH 648 0
DWIDTH 9 0
BBX 9 12 0 0
BITMAP
1800
1800
0000
FF80
8300
8600
0C00
1800
3000
6080
C080
FF80
ENDCHAR
STARTCHAR char122
ENCODING 380
SWIDTH 432 0
DWIDTH 6 0
BBX 6 9 0 0
BITMAP
30
30
00
FC
88
10
20
44
FC
ENDCHAR
STARTCHAR char90
ENCODING 381
SWIDTH 648 0
DWIDTH 9 0
BBX 9 13 0 0
BITMAP
2200
1C00
0800
0000
FF80
8300
8600
0C00
1800
3000
6080
C080
FF80
ENDCHAR
STARTCHAR char122
ENCODING 382
SWIDTH 432 0
DWIDTH 6 0
BBX 6 10 0 0
BITMAP
88
70
20
00
FC
88
10
20
44
FC
ENDCHAR
ENDFONT
