STARTFONT 2.1
FONT -dislin-complex-medium-r-normal--25-18-100-100-p-160-iso8859-1
SIZE 18 100 100
FONTBOUNDINGBOX 20 28 -1 -6
STARTPROPERTIES 9
POINT_SIZE 18
PIXEL_SIZE 25
RESOLUTION_X 100
RESOLUTION_Y 100
FONT_ASCENT 11
FONT_DESCENT 3
AVERAGE_WIDTH 160
SPACING "P"
_XMBDFED_INFO "Edited with xmbdfed 4.5."
ENDPROPERTIES
CHARS 235
STARTCHAR char32
ENCODING 32
SWIDTH 360 0
DWIDTH 9 0
BBX 0 0 0 0
BITMAP
ENDCHAR
STARTCHAR char33
ENCODING 33
SWIDTH 80 0
DWIDTH 2 0
BBX 2 17 0 0
BITMAP
C0
C0
C0
C0
C0
C0
C0
C0
C0
80
80
80
00
00
00
C0
C0
ENDCHAR
STARTCHAR char34
ENCODING 34
SWIDTH 240 0
DWIDTH 6 0
BBX 6 6 0 11
BITMAP
CC
CC
CC
88
88
88
ENDCHAR
STARTCHAR char35
ENCODING 35
SWIDTH 360 0
DWIDTH 9 0
BBX 9 10 0 4
BITMAP
0900
0900
1200
7F80
1200
2400
FF00
2400
4800
4800
ENDCHAR
STARTCHAR char83
ENCODING 36
SWIDTH 480 0
DWIDTH 12 0
BBX 12 23 0 -3
BITMAP
0900
0900
0900
1F90
69D0
8930
8910
8910
C900
7900
3D00
0F00
0BC0
09E0
0930
8910
8910
C910
B960
9F80
0900
0900
0900
ENDCHAR
STARTCHAR char37
ENCODING 37
SWIDTH 560 0
DWIDTH 14 0
BBX 14 17 0 0
BITMAP
7E60
CDA0
8440
8440
CC80
7880
0100
0100
0200
0200
0400
0478
08CC
0884
1084
10CC
2078
ENDCHAR
STARTCHAR char38
ENCODING 38
SWIDTH 640 0
DWIDTH 16 0
BBX 16 17 0 0
BITMAP
1F00
3180
60C0
60C0
6180
3300
1E00
1E06
3309
6190
C0E0
C060
C070
C0D9
E0CF
7F86
3F00
ENDCHAR
STARTCHAR char39
ENCODING 39
SWIDTH 80 0
DWIDTH 2 0
BBX 2 6 0 11
BITMAP
C0
C0
C0
80
80
80
ENDCHAR
STARTCHAR char40
ENCODING 40
SWIDTH 240 0
DWIDTH 6 0
BBX 6 21 0 -2
BITMAP
04
08
10
30
20
60
40
C0
C0
C0
C0
C0
C0
C0
40
60
20
30
10
08
04
ENDCHAR
STARTCHAR char41
ENCODING 41
SWIDTH 240 0
DWIDTH 6 0
BBX 6 21 0 -2
BITMAP
80
40
20
30
10
18
08
0C
0C
0C
0C
0C
0C
0C
08
18
10
30
20
40
80
ENDCHAR
STARTCHAR char42
ENCODING 42
SWIDTH 360 0
DWIDTH 9 0
BBX 9 9 0 4
BITMAP
0800
8880
4900
2A00
1C00
2A00
4900
8880
0800
ENDCHAR
STARTCHAR char43
ENCODING 43
SWIDTH 360 0
DWIDTH 9 0
BBX 9 9 0 4
BITMAP
0800
0800
0800
0800
FF80
0800
0800
0800
0800
ENDCHAR
STARTCHAR char44
ENCODING 44
SWIDTH 80 0
DWIDTH 2 0
BBX 2 5 0 -3
BITMAP
C0
C0
40
40
80
ENDCHAR
STARTCHAR char45
ENCODING 45
SWIDTH 360 0
DWIDTH 9 0
BBX 9 1 0 8
BITMAP
FF80
ENDCHAR
STARTCHAR char46
ENCODING 46
SWIDTH 80 0
DWIDTH 2 0
BBX 2 2 0 0
BITMAP
C0
C0
ENDCHAR
STARTCHAR char47
ENCODING 47
SWIDTH 360 0
DWIDTH 9 0
BBX 9 23 0 -3
BITMAP
0080
0080
0080
0100
0100
0200
0200
0200
0400
0400
0800
0800
0800
1000
1000
2000
2000
2000
4000
4000
8000
8000
8000
ENDCHAR
STARTCHAR char48
ENCODING 48
SWIDTH 480 0
DWIDTH 12 0
BBX 12 17 0 0
BITMAP
1F80
30C0
6060
6060
C030
C030
C030
C030
C030
C030
C030
C030
C030
6060
6060
30C0
1F80
ENDCHAR
STARTCHAR char49
ENCODING 49
SWIDTH 360 0
DWIDTH 9 0
BBX 9 17 0 0
BITMAP
0C00
1C00
2C00
CC00
0C00
0C00
0C00
0C00
0C00
0C00
0C00
0C00
0C00
0C00
0C00
0C00
7F80
ENDCHAR
STARTCHAR char50
ENCODING 50
SWIDTH 440 0
DWIDTH 11 0
BBX 11 17 0 0
BITMAP
3F00
6180
80C0
80C0
C0C0
C0C0
00C0
0180
0180
0300
0600
0C00
1800
3000
6020
FFC0
FFC0
ENDCHAR
STARTCHAR char51
ENCODING 51
SWIDTH 400 0
DWIDTH 10 0
BBX 10 17 0 0
BITMAP
1E00
3F00
4180
8180
0180
0180
0300
0600
0F00
0380
01C0
00C0
00C0
00C0
C0C0
E180
3F00
ENDCHAR
STARTCHAR char52
ENCODING 52
SWIDTH 440 0
DWIDTH 11 0
BBX 11 17 0 0
BITMAP
0300
0700
0B00
0B00
1300
2300
2300
4300
C300
FFE0
0300
0300
0300
0300
0300
0300
0FC0
ENDCHAR
STARTCHAR char53
ENCODING 53
SWIDTH 400 0
DWIDTH 10 0
BBX 10 17 0 0
BITMAP
3FC0
7F00
4000
4000
C000
C000
FE00
E380
0180
00C0
00C0
00C0
00C0
00C0
C180
E380
7E00
ENDCHAR
STARTCHAR char54
ENCODING 54
SWIDTH 400 0
DWIDTH 10 0
BBX 10 17 0 0
BITMAP
0780
1C00
3000
3000
6000
6000
C000
DE00
E380
C180
C0C0
C0C0
C0C0
C0C0
6180
7380
1E00
ENDCHAR
STARTCHAR char55
ENCODING 55
SWIDTH 400 0
DWIDTH 10 0
BBX 10 17 0 0
BITMAP
7FC0
7FC0
80C0
0080
0180
0100
0300
0200
0600
0400
0C00
0800
1800
3000
3000
6000
6000
ENDCHAR
STARTCHAR char56
ENCODING 56
SWIDTH 400 0
DWIDTH 10 0
BBX 9 17 0 0
BITMAP
3E00
6300
C180
C180
C180
E180
7300
3E00
1C00
3600
6300
C180
C180
C180
C180
6300
3E00
ENDCHAR
STARTCHAR char57
ENCODING 57
SWIDTH 400 0
DWIDTH 10 0
BBX 10 17 0 0
BITMAP
1E00
7380
6180
C0C0
C0C0
C0C0
C0C0
60C0
71C0
1EC0
00C0
0180
0180
0300
0300
0E00
7800
ENDCHAR
STARTCHAR char58
ENCODING 58
SWIDTH 80 0
DWIDTH 2 0
BBX 2 7 0 5
BITMAP
C0
C0
00
00
00
C0
C0
ENDCHAR
STARTCHAR char59
ENCODING 59
SWIDTH 80 0
DWIDTH 2 0
BBX 2 11 0 -3
BITMAP
C0
C0
00
00
00
00
C0
C0
40
40
80
ENDCHAR
STARTCHAR char60
ENCODING 60
SWIDTH 400 0
DWIDTH 10 0
BBX 10 9 0 4
BITMAP
00C0
0300
0C00
3000
C000
3000
0C00
0300
00C0
ENDCHAR
STARTCHAR char61
ENCODING 61
SWIDTH 400 0
DWIDTH 10 0
BBX 10 4 0 6
BITMAP
FFC0
0000
0000
FFC0
ENDCHAR
STARTCHAR char62
ENCODING 62
SWIDTH 400 0
DWIDTH 10 0
BBX 10 9 0 4
BITMAP
C000
3000
0C00
0300
00C0
0300
0C00
3000
C000
ENDCHAR
STARTCHAR char63
ENCODING 63
SWIDTH 360 0
DWIDTH 9 0
BBX 9 17 0 0
BITMAP
3E00
6300
C180
C180
0180
0180
0300
0600
0C00
0C00
0C00
0C00
0000
0000
0000
0C00
0C00
ENDCHAR
STARTCHAR char64
ENCODING 64
SWIDTH 440 0
DWIDTH 11 0
BBX 11 13 0 0
BITMAP
1F00
2080
4040
8020
8D20
9320
9320
93C0
8C00
8020
4040
2080
1F00
ENDCHAR
STARTCHAR char101
ENCODING 65
SWIDTH 640 0
DWIDTH 16 0
BBX 16 17 0 0
BITMAP
0180
0180
02C0
02C0
04C0
0460
0460
0860
0830
0830
1030
1FF8
1018
2018
200C
200C
F83F
ENDCHAR
STARTCHAR char102
ENCODING 66
SWIDTH 560 0
DWIDTH 14 0
BBX 14 17 0 0
BITMAP
FFE0
3030
3018
3018
3018
3018
3030
3060
3FE0
3030
3018
300C
300C
300C
3018
3038
FFE0
ENDCHAR
STARTCHAR char103
ENCODING 67
SWIDTH 520 0
DWIDTH 13 0
BBX 13 17 0 0
BITMAP
07C8
1C68
3018
6018
6008
C008
C000
C000
C000
C000
C000
C000
6000
6008
3010
1C60
07C0
ENDCHAR
STARTCHAR char104
ENCODING 68
SWIDTH 560 0
DWIDTH 14 0
BBX 14 17 0 0
BITMAP
FF80
30E0
3030
3018
3018
300C
300C
300C
300C
300C
300C
300C
3018
3018
3030
30E0
FF80
ENDCHAR
STARTCHAR char105
ENCODING 69
SWIDTH 600 0
DWIDTH 15 0
BBX 15 17 0 0
BITMAP
FFFE
3006
3002
3002
3000
3000
3080
3080
3F80
3080
3080
3000
3000
3002
3002
3006
FFFE
ENDCHAR
STARTCHAR char106
ENCODING 70
SWIDTH 600 0
DWIDTH 15 0
BBX 15 17 0 0
BITMAP
FFFE
3006
3002
3002
3002
3080
3080
3F80
3080
3080
3000
3000
3000
3000
3000
3000
FC00
ENDCHAR
STARTCHAR char103
ENCODING 71
SWIDTH 600 0
DWIDTH 15 0
BBX 15 17 0 0
BITMAP
07C8
1C68
3018
6018
6008
C008
C000
C000
C000
C000
C000
C07E
6018
6018
3018
1C78
07D8
ENDCHAR
STARTCHAR char108
ENCODING 72
SWIDTH 680 0
DWIDTH 17 0
BBX 17 17 0 0
BITMAP
FC1F80
300600
300600
300600
300600
300600
300600
3FFE00
300600
300600
300600
300600
300600
300600
300600
300600
FC1F80
ENDCHAR
STARTCHAR char109
ENCODING 73
SWIDTH 240 0
DWIDTH 6 0
BBX 6 17 0 0
BITMAP
FC
30
30
30
30
30
30
30
30
30
30
30
30
30
30
30
FC
ENDCHAR
STARTCHAR char74
ENCODING 74
SWIDTH 360 0
DWIDTH 9 0
BBX 9 17 0 0
BITMAP
1F80
0600
0600
0600
0600
0600
0600
0600
0600
0600
0600
0600
0600
C600
C600
4C00
3800
ENDCHAR
STARTCHAR char75
ENCODING 75
SWIDTH 640 0
DWIDTH 16 0
BBX 16 17 0 0
BITMAP
FC3F
3004
3008
3010
3020
3040
3080
3100
3200
3700
3980
30C0
3060
3030
3018
300C
FC3F
ENDCHAR
STARTCHAR char76
ENCODING 76
SWIDTH 520 0
DWIDTH 13 0
BBX 13 17 0 0
BITMAP
FC00
3000
3000
3000
3000
3000
3000
3000
3000
3000
3000
3000
3000
3008
3008
3018
FFF8
ENDCHAR
STARTCHAR char113
ENCODING 77
SWIDTH 720 0
DWIDTH 18 0
BBX 18 17 0 0
BITMAP
F807C0
380700
380700
2C0B00
2C0B00
2C0B00
260B00
261300
261300
231300
231300
21A300
21A300
21A300
20C300
20C300
F8CFC0
ENDCHAR
STARTCHAR char78
ENCODING 78
SWIDTH 640 0
DWIDTH 16 0
BBX 16 17 0 0
BITMAP
F81F
3804
2C04
2C04
2604
2604
2304
2304
2184
20C4
20C4
2064
2064
2034
2034
201C
F81C
ENDCHAR
STARTCHAR char79
ENCODING 79
SWIDTH 560 0
DWIDTH 14 0
BBX 14 17 0 0
BITMAP
0780
1CE0
3030
6018
6018
C00C
C00C
C00C
C00C
C00C
C00C
C00C
6018
6018
3030
1CE0
0780
ENDCHAR
STARTCHAR char80
ENCODING 80
SWIDTH 520 0
DWIDTH 13 0
BBX 13 17 0 0
BITMAP
FFE0
3070
3030
3018
3018
3018
3030
3070
3FC0
3000
3000
3000
3000
3000
3000
3000
FC00
ENDCHAR
STARTCHAR char79
ENCODING 81
SWIDTH 560 0
DWIDTH 14 0
BBX 14 21 0 -4
BITMAP
0780
1CE0
3030
6018
6018
C00C
C00C
C00C
C00C
C00C
C00C
C00C
6018
6018
3030
1CE0
0780
0380
01C0
00E0
0030
ENDCHAR
STARTCHAR char80
ENCODING 82
SWIDTH 560 0
DWIDTH 14 0
BBX 14 17 0 0
BITMAP
FFE0
3070
3030
3018
3018
3018
3030
3070
3FC0
3300
3180
3180
30C0
3060
3060
3034
FC18
ENDCHAR
STARTCHAR char83
ENCODING 83
SWIDTH 480 0
DWIDTH 12 0
BBX 12 17 0 0
BITMAP
1F90
60D0
8030
8010
8010
C000
7000
3C00
0F00
03C0
00E0
0030
8010
8010
C010
B060
9F80
ENDCHAR
STARTCHAR char84
ENCODING 84
SWIDTH 560 0
DWIDTH 14 0
BBX 14 17 0 0
BITMAP
FFFC
C30C
8304
8304
8304
0300
0300
0300
0300
0300
0300
0300
0300
0300
0300
0300
0FC0
ENDCHAR
STARTCHAR char85
ENCODING 85
SWIDTH 640 0
DWIDTH 16 0
BBX 16 17 0 0
BITMAP
FC1F
3004
3004
3004
3004
3004
3004
3004
3004
3004
3004
3004
3004
1808
1808
0E30
03E0
ENDCHAR
STARTCHAR char86
ENCODING 86
SWIDTH 640 0
DWIDTH 16 0
BBX 16 17 0 0
BITMAP
FC1F
3004
3004
1808
1808
1808
0C10
0C10
0C10
0620
0620
0620
0340
0340
0340
0180
0180
ENDCHAR
STARTCHAR char86
ENCODING 87
SWIDTH 760 0
DWIDTH 19 0
BBX 19 17 0 0
BITMAP
FC03E0
306080
306080
306080
306080
18B100
18B100
18B100
18B100
0D1A00
0D1A00
0D1A00
0D1A00
060C00
060C00
060C00
060C00
ENDCHAR
STARTCHAR char88
ENCODING 88
SWIDTH 640 0
DWIDTH 16 0
BBX 16 17 0 0
BITMAP
FC3F
300C
1808
0C10
0C20
0620
0340
0180
0180
01C0
02C0
0460
0430
0830
1018
300C
F83F
ENDCHAR
STARTCHAR char89
ENCODING 89
SWIDTH 640 0
DWIDTH 16 0
BBX 16 17 0 0
BITMAP
F81F
3004
1808
1808
0C10
0C10
0620
0620
0340
03C0
0180
0180
0180
0180
0180
0180
07E0
ENDCHAR
STARTCHAR char90
ENCODING 90
SWIDTH 520 0
DWIDTH 13 0
BBX 13 17 0 0
BITMAP
FFF8
C038
8070
8060
00C0
01C0
0180
0300
0600
0E00
0C00
1800
3800
3008
6008
E018
FFF8
ENDCHAR
STARTCHAR char91
ENCODING 91
SWIDTH 240 0
DWIDTH 6 0
BBX 6 23 0 -3
BITMAP
FC
C0
C0
C0
C0
C0
C0
C0
C0
C0
C0
C0
C0
C0
C0
C0
C0
C0
C0
C0
C0
C0
FC
ENDCHAR
STARTCHAR char92
ENCODING 92
SWIDTH 360 0
DWIDTH 9 0
BBX 9 23 0 -3
BITMAP
8000
8000
8000
4000
4000
2000
2000
2000
1000
1000
0800
0800
0800
0400
0400
0200
0200
0200
0100
0100
0080
0080
0080
ENDCHAR
STARTCHAR char93
ENCODING 93
SWIDTH 240 0
DWIDTH 6 0
BBX 6 23 0 -3
BITMAP
FC
0C
0C
0C
0C
0C
0C
0C
0C
0C
0C
0C
0C
0C
0C
0C
0C
0C
0C
0C
0C
0C
FC
ENDCHAR
STARTCHAR char94
ENCODING 94
SWIDTH 360 0
DWIDTH 9 0
BBX 9 7 0 10
BITMAP
0800
1C00
1400
3600
2200
6300
C180
ENDCHAR
STARTCHAR char95
ENCODING 95
SWIDTH 520 0
DWIDTH 13 0
BBX 13 1 0 -2
BITMAP
FFF8
ENDCHAR
STARTCHAR char96
ENCODING 96
SWIDTH 80 0
DWIDTH 2 0
BBX 2 6 0 11
BITMAP
C0
C0
C0
40
40
40
ENDCHAR
STARTCHAR char97
ENCODING 97
SWIDTH 400 0
DWIDTH 10 0
BBX 10 12 0 0
BITMAP
3E00
C300
C180
0180
0380
3F80
7180
E180
C180
C380
E580
38C0
ENDCHAR
STARTCHAR char98
ENCODING 98
SWIDTH 480 0
DWIDTH 12 0
BBX 12 17 0 0
BITMAP
3000
F000
3000
3000
3000
3380
34E0
3860
3030
3030
3030
3030
3030
3030
3860
34E0
3380
ENDCHAR
STARTCHAR char99
ENCODING 99
SWIDTH 360 0
DWIDTH 9 0
BBX 9 12 0 0
BITMAP
1E00
7100
6180
C180
C000
C000
C000
C000
C000
6080
7100
1E00
ENDCHAR
STARTCHAR char100
ENCODING 100
SWIDTH 440 0
DWIDTH 11 0
BBX 11 17 0 0
BITMAP
00C0
03C0
00C0
00C0
00C0
1CC0
72C0
61C0
C0C0
C0C0
C0C0
C0C0
C0C0
C0C0
61C0
72C0
1CE0
ENDCHAR
STARTCHAR char99
ENCODING 101
SWIDTH 360 0
DWIDTH 9 0
BBX 9 12 0 0
BITMAP
1E00
7300
6180
C080
C080
FF80
C000
C000
C000
6080
7100
1E00
ENDCHAR
STARTCHAR char102
ENCODING 102
SWIDTH 320 0
DWIDTH 8 0
BBX 8 17 0 0
BITMAP
0E
13
30
30
30
30
FC
30
30
30
30
30
30
30
30
30
78
ENDCHAR
STARTCHAR char111
ENCODING 103
SWIDTH 480 0
DWIDTH 12 0
BBX 12 17 0 -6
BITMAP
1F30
31F0
60C0
60C0
60C0
60C0
3180
3F00
4000
4000
6000
7FC0
BFE0
8060
8060
C060
7FC0
ENDCHAR
STARTCHAR char104
ENCODING 104
SWIDTH 520 0
DWIDTH 13 0
BBX 13 17 0 0
BITMAP
3000
F000
3000
3000
3000
33C0
3660
3830
3030
3030
3030
3030
3030
3030
3030
3030
7878
ENDCHAR
STARTCHAR char105
ENCODING 105
SWIDTH 200 0
DWIDTH 5 0
BBX 5 17 0 0
BITMAP
30
30
00
00
00
30
F0
30
30
30
30
30
30
30
30
30
78
ENDCHAR
STARTCHAR char106
ENCODING 106
SWIDTH 240 0
DWIDTH 6 0
BBX 6 22 0 -5
BITMAP
0C
0C
00
00
00
0C
3C
0C
0C
0C
0C
0C
0C
0C
0C
0C
0C
0C
0C
CC
C8
70
ENDCHAR
STARTCHAR char107
ENCODING 107
SWIDTH 480 0
DWIDTH 12 0
BBX 12 17 0 0
BITMAP
3000
F000
3000
3000
3000
30F0
3040
3080
3100
3200
3400
3E00
3300
3180
30C0
3060
78F0
ENDCHAR
STARTCHAR char108
ENCODING 108
SWIDTH 200 0
DWIDTH 5 0
BBX 5 17 0 0
BITMAP
30
F0
30
30
30
30
30
30
30
30
30
30
30
30
30
30
78
ENDCHAR
STARTCHAR char104
ENCODING 109
SWIDTH 720 0
DWIDTH 18 0
BBX 18 12 0 0
BITMAP
670E00
EC9900
70E180
60C180
60C180
60C180
60C180
60C180
60C180
60C180
60C180
F1E3C0
ENDCHAR
STARTCHAR char104
ENCODING 110
SWIDTH 480 0
DWIDTH 12 0
BBX 12 12 0 0
BITMAP
6780
ECC0
7060
6060
6060
6060
6060
6060
6060
6060
6060
F0F0
ENDCHAR
STARTCHAR char111
ENCODING 111
SWIDTH 400 0
DWIDTH 10 0
BBX 10 12 0 0
BITMAP
1E00
7380
6180
C0C0
C0C0
C0C0
C0C0
C0C0
C0C0
6180
7380
1E00
ENDCHAR
STARTCHAR char112
ENCODING 112
SWIDTH 480 0
DWIDTH 12 0
BBX 12 18 0 -6
BITMAP
F380
34E0
3860
3030
3030
3030
3030
3030
3030
3860
34C0
3380
3000
3000
3000
3000
3000
FC00
ENDCHAR
STARTCHAR char113
ENCODING 113
SWIDTH 480 0
DWIDTH 12 0
BBX 12 18 0 -6
BITMAP
1CC0
72C0
61C0
C0C0
C0C0
C0C0
C0C0
C0C0
C0C0
61C0
72C0
1CC0
00C0
00C0
00C0
00C0
00C0
03F0
ENDCHAR
STARTCHAR char114
ENCODING 114
SWIDTH 320 0
DWIDTH 8 0
BBX 8 12 0 0
BITMAP
66
EB
73
60
60
60
60
60
60
60
60
F0
ENDCHAR
STARTCHAR char115
ENCODING 115
SWIDTH 360 0
DWIDTH 9 0
BBX 9 12 0 0
BITMAP
3F00
6180
C000
C000
6000
3800
1E00
0700
0180
0180
C300
7E00
ENDCHAR
STARTCHAR char116
ENCODING 116
SWIDTH 280 0
DWIDTH 7 0
BBX 7 17 0 0
BITMAP
10
30
30
70
FC
30
30
30
30
30
30
30
30
30
30
32
1C
ENDCHAR
STARTCHAR char117
ENCODING 117
SWIDTH 480 0
DWIDTH 12 0
BBX 12 12 0 0
BITMAP
E0E0
6060
6060
6060
6060
6060
6060
6060
6060
60E0
3360
1E70
ENDCHAR
STARTCHAR char118
ENCODING 118
SWIDTH 480 0
DWIDTH 12 0
BBX 12 12 0 0
BITMAP
F070
6020
6020
3040
3040
1880
1880
0D00
0D00
0600
0600
0200
ENDCHAR
STARTCHAR char118
ENCODING 119
SWIDTH 680 0
DWIDTH 17 0
BBX 17 12 0 0
BITMAP
F0C380
60C100
60C100
316200
316200
316200
1A3400
1A3400
1A3400
0C1800
0C1800
0C1800
ENDCHAR
STARTCHAR char120
ENCODING 120
SWIDTH 480 0
DWIDTH 12 0
BBX 12 12 0 0
BITMAP
F070
6020
3040
1880
0D00
0600
0600
0B00
1180
20C0
4060
E0F0
ENDCHAR
STARTCHAR char118
ENCODING 121
SWIDTH 480 0
DWIDTH 12 0
BBX 12 18 0 -6
BITMAP
F070
6020
6020
3040
3040
1880
1880
0D00
0D00
0600
0600
0600
0400
0400
0800
0800
1000
6000
ENDCHAR
STARTCHAR char122
ENCODING 122
SWIDTH 360 0
DWIDTH 9 0
BBX 9 12 0 0
BITMAP
FF80
8180
8180
0300
0600
0C00
1800
3000
6000
C080
C080
FF80
ENDCHAR
STARTCHAR char123
ENCODING 123
SWIDTH 200 0
DWIDTH 5 0
BBX 5 21 0 -2
BITMAP
18
30
60
60
60
60
30
30
30
60
C0
60
30
30
30
60
60
60
60
30
18
ENDCHAR
STARTCHAR char124
ENCODING 124
SWIDTH 40 0
DWIDTH 1 0
BBX 1 21 0 -2
BITMAP
80
80
80
80
80
80
80
80
80
80
80
80
80
80
80
80
80
80
80
80
80
ENDCHAR
STARTCHAR char125
ENCODING 125
SWIDTH 200 0
DWIDTH 5 0
BBX 5 21 0 -2
BITMAP
C0
60
30
30
30
30
60
60
60
30
18
30
60
60
60
30
30
30
30
60
C0
ENDCHAR
STARTCHAR char126
ENCODING 126
SWIDTH 520 0
DWIDTH 13 0
BBX 13 5 0 6
BITMAP
3808
7C08
C718
81F0
80E0
ENDCHAR
STARTCHAR char161
ENCODING 161
SWIDTH 80 0
DWIDTH 2 0
BBX 2 17 0 0
BITMAP
C0
C0
00
00
00
40
40
40
C0
C0
C0
C0
C0
C0
C0
C0
C0
ENDCHAR
STARTCHAR char103
ENCODING 164
SWIDTH 520 0
DWIDTH 13 0
BBX 13 17 0 0
BITMAP
01F0
0718
0C00
1800
1800
3000
3000
FF00
3000
FF00
3000
3000
1800
1800
0C00
0718
01F0
ENDCHAR
STARTCHAR char79
ENCODING 169
SWIDTH 600 0
DWIDTH 15 0
BBX 15 17 0 0
BITMAP
07C0
1C70
3018
638C
674C
CC66
D866
D806
D806
D806
D806
CC26
6E4C
638C
3018
1C70
07C0
ENDCHAR
STARTCHAR char191
ENCODING 191
SWIDTH 400 0
DWIDTH 10 0
BBX 9 17 0 0
BITMAP
1800
1800
0000
0000
0000
1800
1800
1800
1800
3000
6000
C000
C000
C180
C180
6300
3E00
ENDCHAR
STARTCHAR char101
ENCODING 192
SWIDTH 640 0
DWIDTH 16 0
BBX 16 22 0 0
BITMAP
1800
0C00
0600
0100
0000
0180
0180
02C0
02C0
04C0
0460
0460
0860
0830
0830
1030
1FF8
1018
2018
200C
200C
F83F
ENDCHAR
STARTCHAR char101
ENCODING 193
SWIDTH 640 0
DWIDTH 16 0
BBX 16 22 0 0
BITMAP
0030
0060
00C0
0100
0000
0180
0180
02C0
02C0
04C0
0460
0460
0860
0830
0830
1030
1FF8
1018
2018
200C
200C
F83F
ENDCHAR
STARTCHAR char101
ENCODING 194
SWIDTH 640 0
DWIDTH 16 0
BBX 16 22 0 0
BITMAP
0100
0380
0440
0820
0000
0180
0180
02C0
02C0
04C0
0460
0460
0860
0830
0830
1030
1FF8
1018
2018
200C
200C
F83F
ENDCHAR
STARTCHAR char101
ENCODING 195
SWIDTH 640 0
DWIDTH 16 0
BBX 16 21 0 0
BITMAP
0790
09E0
0000
0000
0180
0180
02C0
02C0
04C0
0460
0460
0860
0830
0830
1030
1FF8
1018
2018
200C
200C
F83F
ENDCHAR
STARTCHAR char101
ENCODING 196
SWIDTH 640 0
DWIDTH 16 0
BBX 16 21 0 0
BITMAP
0C30
0C30
0000
0000
0180
0180
02C0
02C0
04C0
0460
0460
0860
0830
0830
1030
1FF8
1018
2018
200C
200C
F83F
ENDCHAR
STARTCHAR char101
ENCODING 197
SWIDTH 640 0
DWIDTH 16 0
BBX 16 22 0 0
BITMAP
0180
0240
0240
0180
0000
0180
0180
02C0
02C0
04C0
0460
0460
0860
0830
0830
1030
1FF8
1018
2018
200C
200C
F83F
ENDCHAR
STARTCHAR char101
ENCODING 198
SWIDTH 720 0
DWIDTH 18 0
BBX 18 17 0 0
BITMAP
03FFC0
01C0C0
02C040
02C040
04C000
04C000
04C200
08C200
0FFE00
08C200
10C200
10C000
10C000
20C040
20C040
20C0C0
F8FFC0
ENDCHAR
STARTCHAR char103
ENCODING 199
SWIDTH 520 0
DWIDTH 13 0
BBX 13 22 0 -5
BITMAP
07C8
1C68
3018
6018
6008
C008
C000
C000
C000
C000
C000
C000
6000
6008
3010
1C60
07C0
0200
0180
0040
0440
0380
ENDCHAR
STARTCHAR char105
ENCODING 200
SWIDTH 600 0
DWIDTH 15 0
BBX 15 22 0 0
BITMAP
1800
0C00
0600
0100
0000
FFFE
3006
3002
3002
3000
3000
3080
3080
3F80
3080
3080
3000
3000
3002
3002
3006
FFFE
ENDCHAR
STARTCHAR char105
ENCODING 201
SWIDTH 600 0
DWIDTH 15 0
BBX 15 22 0 0
BITMAP
0030
0060
00C0
0100
0000
FFFE
3006
3002
3002
3000
3000
3080
3080
3F80
3080
3080
3000
3000
3002
3002
3006
FFFE
ENDCHAR
STARTCHAR char105
ENCODING 202
SWIDTH 600 0
DWIDTH 15 0
BBX 15 22 0 0
BITMAP
0100
0380
0440
0820
0000
FFFE
3006
3002
3002
3000
3000
3080
3080
3F80
3080
3080
3000
3000
3002
3002
3006
FFFE
ENDCHAR
STARTCHAR char105
ENCODING 203
SWIDTH 600 0
DWIDTH 15 0
BBX 15 21 0 0
BITMAP
1860
1860
0000
0000
FFFE
3006
3002
3002
3000
3000
3080
3080
3F80
3080
3080
3000
3000
3002
3002
3006
FFFE
ENDCHAR
STARTCHAR char109
ENCODING 204
SWIDTH 240 0
DWIDTH 6 0
BBX 7 22 -1 0
BITMAP
C0
60
30
08
00
7E
18
18
18
18
18
18
18
18
18
18
18
18
18
18
18
7E
ENDCHAR
STARTCHAR char109
ENCODING 205
SWIDTH 280 0
DWIDTH 7 0
BBX 7 22 0 0
BITMAP
06
0C
18
20
00
FC
30
30
30
30
30
30
30
30
30
30
30
30
30
30
30
FC
ENDCHAR
STARTCHAR char109
ENCODING 206
SWIDTH 240 0
DWIDTH 6 0
BBX 7 22 -1 0
BITMAP
10
38
44
82
00
7E
18
18
18
18
18
18
18
18
18
18
18
18
18
18
18
7E
ENDCHAR
STARTCHAR char109
ENCODING 207
SWIDTH 240 0
DWIDTH 6 0
BBX 6 21 0 0
BITMAP
CC
CC
00
00
FC
30
30
30
30
30
30
30
30
30
30
30
30
30
30
30
FC
ENDCHAR
STARTCHAR char104
ENCODING 208
SWIDTH 560 0
DWIDTH 14 0
BBX 14 17 0 0
BITMAP
FF80
30E0
3030
3018
3018
300C
300C
300C
FE0C
300C
300C
300C
3018
3018
3030
30E0
FF80
ENDCHAR
STARTCHAR char78
ENCODING 209
SWIDTH 640 0
DWIDTH 16 0
BBX 16 21 0 0
BITMAP
0790
09E0
0000
0000
F81F
3804
2C04
2C04
2604
2604
2304
2304
2184
20C4
20C4
2064
2064
2034
2034
201C
F81C
ENDCHAR
STARTCHAR char79
ENCODING 210
SWIDTH 560 0
DWIDTH 14 0
BBX 14 22 0 0
BITMAP
1800
0C00
0600
0100
0000
0780
1CE0
3030
6018
6018
C00C
C00C
C00C
C00C
C00C
C00C
C00C
6018
6018
3030
1CE0
0780
ENDCHAR
STARTCHAR char79
ENCODING 211
SWIDTH 560 0
DWIDTH 14 0
BBX 14 22 0 0
BITMAP
0060
00C0
0180
0200
0000
0780
1CE0
3030
6018
6018
C00C
C00C
C00C
C00C
C00C
C00C
C00C
6018
6018
3030
1CE0
0780
ENDCHAR
STARTCHAR char79
ENCODING 212
SWIDTH 560 0
DWIDTH 14 0
BBX 14 22 0 0
BITMAP
0200
0700
0880
1040
0000
0780
1CE0
3030
6018
6018
C00C
C00C
C00C
C00C
C00C
C00C
C00C
6018
6018
3030
1CE0
0780
ENDCHAR
STARTCHAR char79
ENCODING 213
SWIDTH 560 0
DWIDTH 14 0
BBX 14 21 0 0
BITMAP
0F20
13C0
0000
0000
0780
1CE0
3030
6018
6018
C00C
C00C
C00C
C00C
C00C
C00C
C00C
6018
6018
3030
1CE0
0780
ENDCHAR
STARTCHAR char79
ENCODING 214
SWIDTH 560 0
DWIDTH 14 0
BBX 14 21 0 0
BITMAP
1860
1860
0000
0000
0780
1CE0
3030
6018
6018
C00C
C00C
C00C
C00C
C00C
C00C
C00C
6018
6018
3030
1CE0
0780
ENDCHAR
STARTCHAR char79
ENCODING 216
SWIDTH 600 0
DWIDTH 15 0
BBX 15 17 0 0
BITMAP
0782
1CE4
3038
6018
6038
C04C
C08C
C08C
C10C
C20C
C40C
C80C
6818
7018
3030
5CE0
8780
ENDCHAR
STARTCHAR char85
ENCODING 217
SWIDTH 640 0
DWIDTH 16 0
BBX 16 22 0 0
BITMAP
0C00
0600
0300
0080
0000
FC1F
3004
3004
3004
3004
3004
3004
3004
3004
3004
3004
3004
3004
1808
1808
0E30
03E0
ENDCHAR
STARTCHAR char85
ENCODING 218
SWIDTH 640 0
DWIDTH 16 0
BBX 16 22 0 0
BITMAP
0018
0030
0060
0080
0000
FC1F
3004
3004
3004
3004
3004
3004
3004
3004
3004
3004
3004
3004
1808
1808
0E30
03E0
ENDCHAR
STARTCHAR char85
ENCODING 219
SWIDTH 640 0
DWIDTH 16 0
BBX 16 22 0 0
BITMAP
0080
01C0
0220
0410
0000
FC1F
3004
3004
3004
3004
3004
3004
3004
3004
3004
3004
3004
3004
1808
1808
0E30
03E0
ENDCHAR
STARTCHAR char85
ENCODING 220
SWIDTH 640 0
DWIDTH 16 0
BBX 16 21 0 0
BITMAP
0C18
0C18
0000
0000
FC1F
3004
3004
3004
3004
3004
3004
3004
3004
3004
3004
3004
3004
1808
1808
0E30
03E0
ENDCHAR
STARTCHAR char89
ENCODING 221
SWIDTH 640 0
DWIDTH 16 0
BBX 16 22 0 0
BITMAP
0030
0060
00C0
0100
0000
F81F
3004
1808
1808
0C10
0C10
0620
0620
0340
03C0
0180
0180
0180
0180
0180
0180
07E0
ENDCHAR
STARTCHAR char80
ENCODING 222
SWIDTH 520 0
DWIDTH 13 0
BBX 13 17 0 0
BITMAP
FC00
3000
3000
3000
3FE0
3070
3030
3018
3018
3018
3030
3070
3FC0
3000
3000
3000
FC00
ENDCHAR
STARTCHAR char223
ENCODING 223
SWIDTH 400 0
DWIDTH 10 0
BBX 10 17 0 0
BITMAP
1E00
3300
6180
6180
6180
6180
6300
6E00
6300
6180
6180
60C0
60C0
60C0
6CC0
6D80
E700
ENDCHAR
STARTCHAR char97
ENCODING 224
SWIDTH 400 0
DWIDTH 10 0
BBX 10 17 0 0
BITMAP
C000
6000
3000
0800
0000
3E00
C300
C180
0180
0380
3F80
7180
E180
C180
C380
E580
38C0
ENDCHAR
STARTCHAR char97
ENCODING 225
SWIDTH 400 0
DWIDTH 10 0
BBX 10 17 0 0
BITMAP
0180
0300
0600
0800
0000
3E00
C300
C180
0180
0380
3F80
7180
E180
C180
C380
E580
38C0
ENDCHAR
STARTCHAR char97
ENCODING 226
SWIDTH 400 0
DWIDTH 10 0
BBX 10 17 0 0
BITMAP
0800
1C00
2200
4100
0000
3E00
C300
C180
0180
0380
3F80
7180
E180
C180
C380
E580
38C0
ENDCHAR
STARTCHAR char97
ENCODING 227
SWIDTH 400 0
DWIDTH 10 0
BBX 10 16 0 0
BITMAP
3C80
4F00
0000
0000
3E00
C300
C180
0180
0380
3F80
7180
E180
C180
C380
E580
38C0
ENDCHAR
STARTCHAR char97
ENCODING 228
SWIDTH 400 0
DWIDTH 10 0
BBX 10 16 0 0
BITMAP
6300
6300
0000
0000
3E00
C300
C180
0180
0380
3F80
7180
E180
C180
C380
E580
38C0
ENDCHAR
STARTCHAR char97
ENCODING 229
SWIDTH 400 0
DWIDTH 10 0
BBX 10 17 0 0
BITMAP
1800
2400
2400
1800
0000
3E00
C300
C180
0180
0380
3F80
7180
E180
C180
C380
E580
38C0
ENDCHAR
STARTCHAR char97
ENCODING 230
SWIDTH 400 0
DWIDTH 10 0
BBX 10 12 0 0
BITMAP
3E00
C300
C180
0180
0380
3F80
7180
E180
C180
C380
E580
38C0
ENDCHAR
STARTCHAR char99
ENCODING 231
SWIDTH 360 0
DWIDTH 9 0
BBX 9 16 0 -4
BITMAP
1E00
7100
6180
C180
C000
C000
C000
C000
C000
6080
7100
1E00
0800
0600
2100
1E00
ENDCHAR
STARTCHAR char99
ENCODING 232
SWIDTH 360 0
DWIDTH 9 0
BBX 9 17 0 0
BITMAP
6000
3000
1800
0400
0000
1E00
7300
6180
C080
C080
FF80
C000
C000
C000
6080
7100
1E00
ENDCHAR
STARTCHAR char99
ENCODING 233
SWIDTH 360 0
DWIDTH 9 0
BBX 9 17 0 0
BITMAP
0180
0300
0600
0800
0000
1E00
7300
6180
C080
C080
FF80
C000
C000
C000
6080
7100
1E00
ENDCHAR
STARTCHAR char99
ENCODING 234
SWIDTH 360 0
DWIDTH 9 0
BBX 9 17 0 0
BITMAP
0800
1C00
2200
4100
0000
1E00
7300
6180
C080
C080
FF80
C000
C000
C000
6080
7100
1E00
ENDCHAR
STARTCHAR char99
ENCODING 235
SWIDTH 360 0
DWIDTH 9 0
BBX 9 16 0 0
BITMAP
3300
3300
0000
0000
1E00
7300
6180
C080
C080
FF80
C000
C000
C000
6080
7100
1E00
ENDCHAR
STARTCHAR char105
ENCODING 236
SWIDTH 240 0
DWIDTH 6 0
BBX 6 18 0 0
BITMAP
C0
60
30
08
00
00
18
78
18
18
18
18
18
18
18
18
18
3C
ENDCHAR
STARTCHAR char105
ENCODING 237
SWIDTH 280 0
DWIDTH 7 0
BBX 7 18 0 0
BITMAP
06
0C
18
20
00
00
30
F0
30
30
30
30
30
30
30
30
30
78
ENDCHAR
STARTCHAR char105
ENCODING 238
SWIDTH 280 0
DWIDTH 7 0
BBX 7 17 0 0
BITMAP
10
38
44
82
00
18
78
18
18
18
18
18
18
18
18
18
3C
ENDCHAR
STARTCHAR char105
ENCODING 239
SWIDTH 240 0
DWIDTH 6 0
BBX 6 16 0 0
BITMAP
CC
CC
00
00
30
F0
30
30
30
30
30
30
30
30
30
78
ENDCHAR
STARTCHAR char100
ENCODING 240
SWIDTH 440 0
DWIDTH 11 0
BBX 11 17 0 0
BITMAP
00C0
03C0
00C0
07E0
00C0
1CC0
72C0
61C0
C0C0
C0C0
C0C0
C0C0
C0C0
C0C0
61C0
72C0
1CE0
ENDCHAR
STARTCHAR char104
ENCODING 241
SWIDTH 480 0
DWIDTH 12 0
BBX 12 16 0 0
BITMAP
1E40
2780
0000
0000
6780
ECC0
7060
6060
6060
6060
6060
6060
6060
6060
6060
F0F0
ENDCHAR
STARTCHAR char111
ENCODING 242
SWIDTH 400 0
DWIDTH 10 0
BBX 10 18 0 0
BITMAP
6000
3000
1800
0400
0000
0000
1E00
7380
6180
C0C0
C0C0
C0C0
C0C0
C0C0
C0C0
6180
7380
1E00
ENDCHAR
STARTCHAR char111
ENCODING 243
SWIDTH 400 0
DWIDTH 10 0
BBX 10 18 0 0
BITMAP
0180
0300
0600
0800
0000
0000
1E00
7380
6180
C0C0
C0C0
C0C0
C0C0
C0C0
C0C0
6180
7380
1E00
ENDCHAR
STARTCHAR char111
ENCODING 244
SWIDTH 400 0
DWIDTH 10 0
BBX 10 17 0 0
BITMAP
0800
1C00
2200
4100
0000
1E00
7380
6180
C0C0
C0C0
C0C0
C0C0
C0C0
C0C0
6180
7380
1E00
ENDCHAR
STARTCHAR char111
ENCODING 245
SWIDTH 400 0
DWIDTH 10 0
BBX 10 16 0 0
BITMAP
3C80
4F00
0000
0000
1E00
7380
6180
C0C0
C0C0
C0C0
C0C0
C0C0
C0C0
6180
7380
1E00
ENDCHAR
STARTCHAR char111
ENCODING 246
SWIDTH 400 0
DWIDTH 10 0
BBX 10 16 0 0
BITMAP
3300
3300
0000
0000
1E00
7380
6180
C0C0
C0C0
C0C0
C0C0
C0C0
C0C0
6180
7380
1E00
ENDCHAR
STARTCHAR char111
ENCODING 248
SWIDTH 440 0
DWIDTH 11 0
BBX 11 12 0 0
BITMAP
1E20
73C0
61C0
C1C0
C2C0
C4C0
C8C0
C8C0
D0C0
6180
7380
9E00
ENDCHAR
STARTCHAR char117
ENCODING 249
SWIDTH 480 0
DWIDTH 12 0
BBX 12 18 0 0
BITMAP
6000
3000
1800
0400
0000
0000
E0E0
6060
6060
6060
6060
6060
6060
6060
6060
60E0
3360
1E70
ENDCHAR
STARTCHAR char117
ENCODING 250
SWIDTH 480 0
DWIDTH 12 0
BBX 12 18 0 0
BITMAP
00C0
0180
0300
0400
0000
0000
E0E0
6060
6060
6060
6060
6060
6060
6060
6060
60E0
3360
1E70
ENDCHAR
STARTCHAR char117
ENCODING 251
SWIDTH 480 0
DWIDTH 12 0
BBX 12 17 0 0
BITMAP
0400
0E00
1100
2080
0000
E0E0
6060
6060
6060
6060
6060
6060
6060
6060
60E0
3360
1E70
ENDCHAR
STARTCHAR char117
ENCODING 252
SWIDTH 480 0
DWIDTH 12 0
BBX 12 16 0 0
BITMAP
3180
3180
0000
0000
E0E0
6060
6060
6060
6060
6060
6060
6060
6060
60E0
3360
1E70
ENDCHAR
STARTCHAR char118
ENCODING 253
SWIDTH 480 0
DWIDTH 12 0
BBX 12 24 0 -6
BITMAP
0060
00C0
0180
0200
0000
0000
F070
6020
6020
3040
3040
1880
1880
0D00
0D00
0600
0600
0600
0400
0400
0800
0800
1000
6000
ENDCHAR
STARTCHAR char112
ENCODING 254
SWIDTH 480 0
DWIDTH 12 0
BBX 12 22 0 -6
BITMAP
FC00
3000
3000
3000
3380
34E0
3860
3030
3030
3030
3030
3030
3030
3860
34C0
3380
3000
3000
3000
3000
3000
FC00
ENDCHAR
STARTCHAR char118
ENCODING 255
SWIDTH 480 0
DWIDTH 12 0
BBX 12 22 0 -6
BITMAP
18C0
18C0
0000
0000
F070
6020
6020
3040
3040
1880
1880
0D00
0D00
0600
0600
0600
0400
0400
0800
0800
1000
6000
ENDCHAR
STARTCHAR char101
ENCODING 258
SWIDTH 640 0
DWIDTH 16 0
BBX 16 21 0 0
BITMAP
0820
0440
0380
0000
0180
0180
02C0
02C0
04C0
0460
0460
0860
0830
0830
1030
1FF8
1018
2018
200C
200C
F83F
ENDCHAR
STARTCHAR char97
ENCODING 259
SWIDTH 400 0
DWIDTH 10 0
BBX 10 16 0 0
BITMAP
4100
2200
1C00
0000
3E00
C300
C180
0180
0380
3F80
7180
E180
C180
C380
E580
38C0
ENDCHAR
STARTCHAR char101
ENCODING 260
SWIDTH 640 0
DWIDTH 16 0
BBX 16 21 0 -4
BITMAP
0180
0180
02C0
02C0
04C0
0460
0460
0860
0830
0830
1030
1FF8
1018
2018
200C
200C
F83F
0040
0040
0040
0038
ENDCHAR
STARTCHAR char97
ENCODING 261
SWIDTH 400 0
DWIDTH 10 0
BBX 10 16 0 -4
BITMAP
3E00
C300
C180
0180
0380
3F80
7180
E180
C180
C380
E580
38C0
0400
0400
0400
0380
ENDCHAR
STARTCHAR char103
ENCODING 262
SWIDTH 520 0
DWIDTH 13 0
BBX 13 22 0 0
BITMAP
0030
0060
00C0
0100
0000
07C8
1C68
3018
6018
6008
C008
C000
C000
C000
C000
C000
C000
6000
6008
3010
1C60
07C0
ENDCHAR
STARTCHAR char99
ENCODING 263
SWIDTH 360 0
DWIDTH 9 0
BBX 9 17 0 0
BITMAP
0180
0300
0600
0800
0000
1E00
7100
6180
C180
C000
C000
C000
C000
C000
6080
7100
1E00
ENDCHAR
STARTCHAR char103
ENCODING 264
SWIDTH 520 0
DWIDTH 13 0
BBX 13 22 0 0
BITMAP
0100
0380
0440
0820
0000
07C8
1C68
3018
6018
6008
C008
C000
C000
C000
C000
C000
C000
6000
6008
3010
1C60
07C0
ENDCHAR
STARTCHAR char99
ENCODING 265
SWIDTH 360 0
DWIDTH 9 0
BBX 9 17 0 0
BITMAP
0800
1C00
2200
4100
0000
1E00
7100
6180
C180
C000
C000
C000
C000
C000
6080
7100
1E00
ENDCHAR
STARTCHAR char103
ENCODING 266
SWIDTH 520 0
DWIDTH 13 0
BBX 13 21 0 0
BITMAP
0180
0180
0000
0000
07C8
1C68
3018
6018
6008
C008
C000
C000
C000
C000
C000
C000
6000
6008
3010
1C60
07C0
ENDCHAR
STARTCHAR char99
ENCODING 267
SWIDTH 360 0
DWIDTH 9 0
BBX 9 16 0 0
BITMAP
0C00
0C00
0000
0000
1E00
7100
6180
C180
C000
C000
C000
C000
C000
6080
7100
1E00
ENDCHAR
STARTCHAR char103
ENCODING 268
SWIDTH 520 0
DWIDTH 13 0
BBX 13 22 0 0
BITMAP
0820
0440
0380
0100
0000
07C8
1C68
3018
6018
6008
C008
C000
C000
C000
C000
C000
C000
6000
6008
3010
1C60
07C0
ENDCHAR
STARTCHAR char99
ENCODING 269
SWIDTH 360 0
DWIDTH 9 0
BBX 9 17 0 0
BITMAP
4100
2200
1C00
0800
0000
1E00
7100
6180
C180
C000
C000
C000
C000
C000
6080
7100
1E00
ENDCHAR
STARTCHAR char104
ENCODING 270
SWIDTH 560 0
DWIDTH 14 0
BBX 14 22 0 0
BITMAP
1040
0880
0700
0200
0000
FF80
30E0
3030
3018
3018
300C
300C
300C
300C
300C
300C
300C
3018
3018
3030
30E0
FF80
ENDCHAR
STARTCHAR char100
ENCODING 271
SWIDTH 440 0
DWIDTH 11 0
BBX 11 21 0 0
BITMAP
4100
2200
1C00
0800
00C0
03C0
00C0
00C0
00C0
1CC0
72C0
61C0
C0C0
C0C0
C0C0
C0C0
C0C0
C0C0
61C0
72C0
1CE0
ENDCHAR
STARTCHAR char104
ENCODING 272
SWIDTH 560 0
DWIDTH 14 0
BBX 14 17 0 0
BITMAP
FF80
30E0
3030
3018
3018
300C
300C
300C
FE0C
300C
300C
300C
3018
3018
3030
30E0
FF80
ENDCHAR
STARTCHAR char100
ENCODING 273
SWIDTH 440 0
DWIDTH 11 0
BBX 11 17 0 0
BITMAP
00C0
03C0
00C0
07E0
00C0
1CC0
72C0
61C0
C0C0
C0C0
C0C0
C0C0
C0C0
C0C0
61C0
72C0
1CE0
ENDCHAR
STARTCHAR char105
ENCODING 280
SWIDTH 600 0
DWIDTH 15 0
BBX 15 21 0 -4
BITMAP
FFFE
3006
3002
3002
3000
3000
3080
3080
3F80
3080
3080
3000
3000
3002
3002
3006
FFFE
0080
0080
0080
0070
ENDCHAR
STARTCHAR char99
ENCODING 281
SWIDTH 360 0
DWIDTH 9 0
BBX 9 16 0 -4
BITMAP
1E00
7300
6180
C080
C080
FF80
C000
C000
C000
6080
7100
1E00
0800
0800
0800
0700
ENDCHAR
STARTCHAR char105
ENCODING 282
SWIDTH 600 0
DWIDTH 15 0
BBX 15 22 0 0
BITMAP
0820
0440
0380
0100
0000
FFFE
3006
3002
3002
3000
3000
3080
3080
3F80
3080
3080
3000
3000
3002
3002
3006
FFFE
ENDCHAR
STARTCHAR char99
ENCODING 283
SWIDTH 360 0
DWIDTH 9 0
BBX 9 17 0 0
BITMAP
4100
2200
1C00
0800
0000
1E00
7300
6180
C080
C080
FF80
C000
C000
C000
6080
7100
1E00
ENDCHAR
STARTCHAR char103
ENCODING 284
SWIDTH 600 0
DWIDTH 15 0
BBX 15 22 0 0
BITMAP
0100
0380
0440
0820
0000
07C8
1C68
3018
6018
6008
C008
C000
C000
C000
C000
C000
C07E
6018
6018
3018
1C78
07D8
ENDCHAR
STARTCHAR char111
ENCODING 285
SWIDTH 480 0
DWIDTH 12 0
BBX 12 22 0 -6
BITMAP
0400
0E00
1100
2080
0000
1F30
31F0
60C0
60C0
60C0
60C0
3180
3F00
4000
4000
6000
7FC0
BFE0
8060
8060
C060
7FC0
ENDCHAR
STARTCHAR char103
ENCODING 286
SWIDTH 600 0
DWIDTH 15 0
BBX 15 22 0 0
BITMAP
1020
1020
0840
0780
0000
07C8
1C68
3018
6018
6008
C008
C000
C000
C000
C000
C000
C07E
6018
6018
3018
1C78
07D8
ENDCHAR
STARTCHAR char111
ENCODING 287
SWIDTH 480 0
DWIDTH 12 0
BBX 12 22 0 -6
BITMAP
2040
2040
1080
0F00
0000
1F30
31F0
60C0
60C0
60C0
60C0
3180
3F00
4000
4000
6000
7FC0
BFE0
8060
8060
C060
7FC0
ENDCHAR
STARTCHAR char103
ENCODING 288
SWIDTH 600 0
DWIDTH 15 0
BBX 15 21 0 0
BITMAP
0180
0180
0000
0000
07C8
1C68
3018
6018
6008
C008
C000
C000
C000
C000
C000
C07E
6018
6018
3018
1C78
07D8
ENDCHAR
STARTCHAR char111
ENCODING 289
SWIDTH 480 0
DWIDTH 12 0
BBX 12 21 0 -6
BITMAP
0600
0600
0000
0000
1F30
31F0
60C0
60C0
60C0
60C0
3180
3F00
4000
4000
6000
7FC0
BFE0
8060
8060
C060
7FC0
ENDCHAR
STARTCHAR char108
ENCODING 292
SWIDTH 680 0
DWIDTH 17 0
BBX 17 22 0 0
BITMAP
008000
01C000
022000
041000
000000
FC1F80
300600
300600
300600
300600
300600
300600
3FFE00
300600
300600
300600
300600
300600
300600
300600
300600
FC1F80
ENDCHAR
STARTCHAR char104
ENCODING 293
SWIDTH 520 0
DWIDTH 13 0
BBX 13 22 0 0
BITMAP
1000
3800
4400
8200
0000
3000
F000
3000
3000
3000
33C0
3660
3830
3030
3030
3030
3030
3030
3030
3030
3030
7878
ENDCHAR
STARTCHAR char108
ENCODING 294
SWIDTH 680 0
DWIDTH 17 0
BBX 17 17 0 0
BITMAP
FC1F80
300600
300600
FFFF80
300600
300600
300600
3FFE00
300600
300600
300600
300600
300600
300600
300600
300600
FC1F80
ENDCHAR
STARTCHAR char104
ENCODING 295
SWIDTH 520 0
DWIDTH 13 0
BBX 13 17 0 0
BITMAP
3000
F000
3000
FFC0
3000
33C0
3660
3830
3030
3030
3030
3030
3030
3030
3030
3030
7878
ENDCHAR
STARTCHAR char109
ENCODING 304
SWIDTH 240 0
DWIDTH 6 0
BBX 6 21 0 0
BITMAP
30
30
00
00
FC
30
30
30
30
30
30
30
30
30
30
30
30
30
30
30
FC
ENDCHAR
STARTCHAR char105
ENCODING 305
SWIDTH 200 0
DWIDTH 5 0
BBX 5 12 0 0
BITMAP
30
F0
30
30
30
30
30
30
30
30
30
78
ENDCHAR
STARTCHAR char74
ENCODING 308
SWIDTH 360 0
DWIDTH 9 0
BBX 9 22 0 0
BITMAP
0400
0E00
1100
2080
0000
1F80
0600
0600
0600
0600
0600
0600
0600
0600
0600
0600
0600
0600
C600
C600
4C00
3800
ENDCHAR
STARTCHAR char106
ENCODING 309
SWIDTH 320 0
DWIDTH 8 0
BBX 8 22 0 -5
BITMAP
08
1C
22
41
00
0C
3C
0C
0C
0C
0C
0C
0C
0C
0C
0C
0C
0C
0C
CC
C8
70
ENDCHAR
STARTCHAR char76
ENCODING 313
SWIDTH 520 0
DWIDTH 13 0
BBX 13 22 0 0
BITMAP
0600
0C00
1800
2000
0000
FC00
3000
3000
3000
3000
3000
3000
3000
3000
3000
3000
3000
3000
3008
3008
3018
FFF8
ENDCHAR
STARTCHAR char108
ENCODING 314
SWIDTH 240 0
DWIDTH 6 0
BBX 6 22 0 0
BITMAP
0C
18
30
40
00
30
F0
30
30
30
30
30
30
30
30
30
30
30
30
30
30
78
ENDCHAR
STARTCHAR char76
ENCODING 317
SWIDTH 520 0
DWIDTH 13 0
BBX 13 17 0 0
BITMAP
FC60
3060
3020
3020
3040
3000
3000
3000
3000
3000
3000
3000
3000
3008
3008
3018
FFF8
ENDCHAR
STARTCHAR char108
ENCODING 318
SWIDTH 320 0
DWIDTH 8 0
BBX 8 17 0 0
BITMAP
33
F3
31
31
32
30
30
30
30
30
30
30
30
30
30
30
78
ENDCHAR
STARTCHAR char76
ENCODING 321
SWIDTH 520 0
DWIDTH 13 0
BBX 13 17 0 0
BITMAP
FC00
3000
3000
3000
3000
3200
3400
3800
3000
7000
B000
3000
3000
3008
3008
3018
FFF8
ENDCHAR
STARTCHAR char108
ENCODING 322
SWIDTH 240 0
DWIDTH 6 0
BBX 6 17 0 0
BITMAP
30
F0
30
30
30
30
34
38
30
70
B0
30
30
30
30
30
78
ENDCHAR
STARTCHAR char78
ENCODING 323
SWIDTH 640 0
DWIDTH 16 0
BBX 16 22 0 0
BITMAP
0030
0060
00C0
0100
0000
F81F
3804
2C04
2C04
2604
2604
2304
2304
2184
20C4
20C4
2064
2064
2034
2034
201C
F81C
ENDCHAR
STARTCHAR char104
ENCODING 324
SWIDTH 480 0
DWIDTH 12 0
BBX 12 17 0 0
BITMAP
00C0
0180
0300
0400
0000
6780
ECC0
7060
6060
6060
6060
6060
6060
6060
6060
6060
F0F0
ENDCHAR
STARTCHAR char78
ENCODING 327
SWIDTH 640 0
DWIDTH 16 0
BBX 16 22 0 0
BITMAP
0820
0440
0380
0100
0000
F81F
3804
2C04
2C04
2604
2604
2304
2304
2184
20C4
20C4
2064
2064
2034
2034
201C
F81C
ENDCHAR
STARTCHAR char104
ENCODING 328
SWIDTH 480 0
DWIDTH 12 0
BBX 12 17 0 0
BITMAP
2080
1100
0E00
0400
0000
6780
ECC0
7060
6060
6060
6060
6060
6060
6060
6060
6060
F0F0
ENDCHAR
STARTCHAR char79
ENCODING 336
SWIDTH 560 0
DWIDTH 14 0
BBX 14 22 0 0
BITMAP
018C
0318
0630
0840
0000
0780
1CE0
3030
6018
6018
C00C
C00C
C00C
C00C
C00C
C00C
C00C
6018
6018
3030
1CE0
0780
ENDCHAR
STARTCHAR char111
ENCODING 337
SWIDTH 440 0
DWIDTH 11 0
BBX 11 17 0 0
BITMAP
0660
0CC0
1980
2200
0000
1E00
7380
6180
C0C0
C0C0
C0C0
C0C0
C0C0
C0C0
6180
7380
1E00
ENDCHAR
STARTCHAR char80
ENCODING 340
SWIDTH 560 0
DWIDTH 14 0
BBX 14 22 0 0
BITMAP
00C0
0180
0300
0400
0000
FFE0
3070
3030
3018
3018
3018
3030
3070
3FC0
3300
3180
3180
30C0
3060
3060
3034
FC18
ENDCHAR
STARTCHAR char114
ENCODING 341
SWIDTH 320 0
DWIDTH 8 0
BBX 8 17 0 0
BITMAP
03
06
0C
10
00
66
EB
73
60
60
60
60
60
60
60
60
F0
ENDCHAR
STARTCHAR char80
ENCODING 344
SWIDTH 560 0
DWIDTH 14 0
BBX 14 22 0 0
BITMAP
1040
0880
0700
0200
0000
FFE0
3070
3030
3018
3018
3018
3030
3070
3FC0
3300
3180
3180
30C0
3060
3060
3034
FC18
ENDCHAR
STARTCHAR char114
ENCODING 345
SWIDTH 320 0
DWIDTH 8 0
BBX 8 17 0 0
BITMAP
41
22
1C
08
00
66
EB
73
60
60
60
60
60
60
60
60
F0
ENDCHAR
STARTCHAR char83
ENCODING 346
SWIDTH 480 0
DWIDTH 12 0
BBX 12 22 0 0
BITMAP
00C0
0180
0300
0400
0000
1F90
60D0
8030
8010
8010
C000
7000
3C00
0F00
03C0
00E0
0030
8010
8010
C010
B060
9F80
ENDCHAR
STARTCHAR char115
ENCODING 347
SWIDTH 360 0
DWIDTH 9 0
BBX 9 17 0 0
BITMAP
0180
0300
0600
0800
0000
3F00
6180
C000
C000
6000
3800
1E00
0700
0180
0180
C300
7E00
ENDCHAR
STARTCHAR char83
ENCODING 348
SWIDTH 480 0
DWIDTH 12 0
BBX 12 22 0 0
BITMAP
0200
0700
0880
1040
0000
1F90
60D0
8030
8010
8010
C000
7000
3C00
0F00
03C0
00E0
0030
8010
8010
C010
B060
9F80
ENDCHAR
STARTCHAR char115
ENCODING 349
SWIDTH 360 0
DWIDTH 9 0
BBX 9 17 0 0
BITMAP
0800
1C00
2200
4100
0000
3F00
6180
C000
C000
6000
3800
1E00
0700
0180
0180
C300
7E00
ENDCHAR
STARTCHAR char83
ENCODING 350
SWIDTH 480 0
DWIDTH 12 0
BBX 12 22 0 -5
BITMAP
1F90
60D0
8030
8010
8010
C000
7000
3C00
0F00
03C0
00E0
0030
8010
8010
C010
B060
9F80
0400
0300
0080
0880
0700
ENDCHAR
STARTCHAR char115
ENCODING 351
SWIDTH 360 0
DWIDTH 9 0
BBX 9 17 0 -5
BITMAP
3F00
6180
C000
C000
6000
3800
1E00
0700
0180
0180
C300
7E00
1000
0C00
0200
2200
1C00
ENDCHAR
STARTCHAR char83
ENCODING 352
SWIDTH 480 0
DWIDTH 12 0
BBX 12 22 0 0
BITMAP
2080
1100
0E00
0400
0000
1F90
60D0
8030
8010
8010
C000
7000
3C00
0F00
03C0
00E0
0030
8010
8010
C010
B060
9F80
ENDCHAR
STARTCHAR char115
ENCODING 353
SWIDTH 360 0
DWIDTH 9 0
BBX 9 17 0 0
BITMAP
4100
2200
1C00
0800
0000
3F00
6180
C000
C000
6000
3800
1E00
0700
0180
0180
C300
7E00
ENDCHAR
STARTCHAR char84
ENCODING 354
SWIDTH 560 0
DWIDTH 14 0
BBX 14 22 0 -5
BITMAP
FFFC
C30C
8304
8304
8304
0300
0300
0300
0300
0300
0300
0300
0300
0300
0300
0300
0FC0
0200
0180
0040
0440
0380
ENDCHAR
STARTCHAR char116
ENCODING 355
SWIDTH 280 0
DWIDTH 7 0
BBX 7 22 0 -5
BITMAP
10
30
30
70
FC
30
30
30
30
30
30
30
30
30
30
32
1C
10
0C
02
22
1C
ENDCHAR
STARTCHAR char84
ENCODING 356
SWIDTH 560 0
DWIDTH 14 0
BBX 14 22 0 0
BITMAP
1040
0880
0700
0200
0000
FFFC
C30C
8304
8304
8304
0300
0300
0300
0300
0300
0300
0300
0300
0300
0300
0300
0FC0
ENDCHAR
STARTCHAR char116
ENCODING 357
SWIDTH 280 0
DWIDTH 7 0
BBX 7 22 0 0
BITMAP
82
44
38
10
00
10
30
30
70
FC
30
30
30
30
30
30
30
30
30
30
32
1C
ENDCHAR
STARTCHAR char85
ENCODING 364
SWIDTH 640 0
DWIDTH 16 0
BBX 16 22 0 0
BITMAP
0810
0810
0420
03C0
0000
FC1F
3004
3004
3004
3004
3004
3004
3004
3004
3004
3004
3004
3004
1808
1808
0E30
03E0
ENDCHAR
STARTCHAR char117
ENCODING 365
SWIDTH 480 0
DWIDTH 12 0
BBX 12 17 0 0
BITMAP
2040
2040
1180
0F00
0000
E0E0
6060
6060
6060
6060
6060
6060
6060
6060
60E0
3360
1E70
ENDCHAR
STARTCHAR char85
ENCODING 366
SWIDTH 640 0
DWIDTH 16 0
BBX 16 22 0 0
BITMAP
0180
0240
0240
0180
0000
FC1F
3004
3004
3004
3004
3004
3004
3004
3004
3004
3004
3004
3004
1808
1808
0E30
03E0
ENDCHAR
STARTCHAR char117
ENCODING 367
SWIDTH 480 0
DWIDTH 12 0
BBX 12 17 0 0
BITMAP
0600
0900
0900
0600
0000
E0E0
6060
6060
6060
6060
6060
6060
6060
6060
60E0
3360
1E70
ENDCHAR
STARTCHAR char85
ENCODING 368
SWIDTH 640 0
DWIDTH 16 0
BBX 16 22 0 0
BITMAP
0186
030C
0618
0820
0000
FC1F
3004
3004
3004
3004
3004
3004
3004
3004
3004
3004
3004
3004
1808
1808
0E30
03E0
ENDCHAR
STARTCHAR char117
ENCODING 369
SWIDTH 480 0
DWIDTH 12 0
BBX 12 17 0 0
BITMAP
0630
0C60
18C0
2100
0000
E0E0
6060
6060
6060
6060
6060
6060
6060
6060
60E0
3360
1E70
ENDCHAR
STARTCHAR char90
ENCODING 377
SWIDTH 520 0
DWIDTH 13 0
BBX 13 22 0 0
BITMAP
00C0
0180
0300
0400
0000
FFF8
C038
8070
8060
00C0
01C0
0180
0300
0600
0E00
0C00
1800
3800
3008
6008
E018
FFF8
ENDCHAR
STARTCHAR char122
ENCODING 378
SWIDTH 360 0
DWIDTH 9 0
BBX 9 17 0 0
BITMAP
0300
0600
0C00
1000
0000
FF80
8180
8180
0300
0600
0C00
1800
3000
6000
C080
C080
FF80
ENDCHAR
STARTCHAR char90
ENCODING 379
SWIDTH 520 0
DWIDTH 13 0
BBX 13 20 0 0
BITMAP
0300
0300
0000
FFF8
C038
8070
8060
00C0
01C0
0180
0300
0600
0E00
0C00
1800
3800
3008
6008
E018
FFF8
ENDCHAR
STARTCHAR char122
ENCODING 380
SWIDTH 360 0
DWIDTH 9 0
BBX 9 15 0 0
BITMAP
0C00
0C00
0000
FF80
8180
8180
0300
0600
0C00
1800
3000
6000
C080
C080
FF80
ENDCHAR
STARTCHAR char90
ENCODING 381
SWIDTH 520 0
DWIDTH 13 0
BBX 13 22 0 0
BITMAP
1040
0880
0700
0200
0000
FFF8
C038
8070
8060
00C0
01C0
0180
0300
0600
0E00
0C00
1800
3800
3008
6008
E018
FFF8
ENDCHAR
STARTCHAR char122
ENCODING 382
SWIDTH 360 0
DWIDTH 9 0
BBX 9 17 0 0
BITMAP
4100
2200
1C00
0800
0000
FF80
8180
8180
0300
0600
0C00
1800
3000
6000
C080
C080
FF80
ENDCHAR
ENDFONT
