STARTFONT 2.1
FONT -dislin-helve-bold-r-normal--17-12-100-100-p-90-iso8859-1
SIZE 12 100 100
FONTBOUNDINGBOX 16 20 -1 -4
STARTPROPERTIES 9
POINT_SIZE 12
PIXEL_SIZE 14
RESOLUTION_X 100
RESOLUTION_Y 100
FONT_ASCENT 11
FONT_DESCENT 3
AVERAGE_WIDTH 90
SPACING "P"
_XMBDFED_INFO "Edited with xmbdfed 4.5."
ENDPROPERTIES
CHARS 235
STARTCHAR char32
ENCODING 32
SWIDTH 360 0
DWIDTH 6 0
BBX 0 0 0 0
BITMAP
ENDCHAR
STARTCHAR char33
ENCODING 33
SWIDTH 120 0
DWIDTH 2 0
BBX 2 12 0 0
BITMAP
C0
C0
C0
C0
C0
C0
C0
C0
00
00
C0
C0
ENDCHAR
STARTCHAR char34
ENCODING 34
SWIDTH 480 0
DWIDTH 8 0
BBX 8 5 0 7
BITMAP
E7
E7
63
63
C6
ENDCHAR
STARTCHAR char35
ENCODING 35
SWIDTH 540 0
DWIDTH 9 0
BBX 9 10 0 0
BITMAP
0900
0900
1200
7F80
1200
2400
FF00
2400
4800
4800
ENDCHAR
STARTCHAR char83
ENCODING 36
SWIDTH 540 0
DWIDTH 9 0
BBX 9 17 0 -3
BITMAP
1400
1400
1400
3E80
7580
D480
D400
7400
1E00
1700
1580
9580
D700
BE00
1400
1400
1400
ENDCHAR
STARTCHAR char37
ENCODING 37
SWIDTH 720 0
DWIDTH 12 0
BBX 12 11 0 0
BITMAP
78F0
DFE0
88C0
D980
7300
0600
0CE0
19B0
3110
61B0
C0E0
ENDCHAR
STARTCHAR char38
ENCODING 38
SWIDTH 660 0
DWIDTH 11 0
BBX 11 12 0 0
BITMAP
1C00
3600
2200
3600
1C00
3860
6CE0
C780
C300
C780
FCE0
7860
ENDCHAR
STARTCHAR char39
ENCODING 39
SWIDTH 180 0
DWIDTH 3 0
BBX 3 4 0 8
BITMAP
E0
60
60
C0
ENDCHAR
STARTCHAR char40
ENCODING 40
SWIDTH 300 0
DWIDTH 5 0
BBX 5 16 0 -2
BITMAP
18
30
30
60
60
C0
C0
C0
C0
C0
C0
60
60
30
30
18
ENDCHAR
STARTCHAR char41
ENCODING 41
SWIDTH 300 0
DWIDTH 5 0
BBX 5 16 0 -2
BITMAP
C0
60
60
30
30
18
18
18
18
18
18
30
30
60
60
C0
ENDCHAR
STARTCHAR char42
ENCODING 42
SWIDTH 420 0
DWIDTH 7 0
BBX 7 7 0 2
BITMAP
10
92
D6
38
D6
92
10
ENDCHAR
STARTCHAR char43
ENCODING 43
SWIDTH 480 0
DWIDTH 8 0
BBX 8 8 0 2
BITMAP
18
18
18
FF
FF
18
18
18
ENDCHAR
STARTCHAR char44
ENCODING 44
SWIDTH 180 0
DWIDTH 3 0
BBX 3 5 0 -3
BITMAP
E0
E0
60
60
C0
ENDCHAR
STARTCHAR char45
ENCODING 45
SWIDTH 480 0
DWIDTH 8 0
BBX 8 2 0 5
BITMAP
FF
FF
ENDCHAR
STARTCHAR char46
ENCODING 46
SWIDTH 120 0
DWIDTH 2 0
BBX 2 2 0 0
BITMAP
C0
C0
ENDCHAR
STARTCHAR char47
ENCODING 47
SWIDTH 540 0
DWIDTH 9 0
BBX 9 16 0 -2
BITMAP
0180
0180
0300
0300
0600
0600
0C00
0C00
1800
1800
3000
3000
6000
6000
C000
C000
ENDCHAR
STARTCHAR char48
ENCODING 48
SWIDTH 480 0
DWIDTH 8 0
BBX 8 12 0 0
BITMAP
3C
7E
C3
C3
C3
C3
C3
C3
C3
C3
7E
3C
ENDCHAR
STARTCHAR char49
ENCODING 49
SWIDTH 300 0
DWIDTH 5 0
BBX 5 12 0 0
BITMAP
18
38
F8
F8
18
18
18
18
18
18
18
18
ENDCHAR
STARTCHAR char50
ENCODING 50
SWIDTH 480 0
DWIDTH 8 0
BBX 8 12 0 0
BITMAP
3C
7E
C3
C3
03
06
0C
18
30
60
FF
FF
ENDCHAR
STARTCHAR char51
ENCODING 51
SWIDTH 480 0
DWIDTH 8 0
BBX 8 12 0 0
BITMAP
7C
FE
C3
03
03
1E
1E
03
03
C3
FE
7C
ENDCHAR
STARTCHAR char52
ENCODING 52
SWIDTH 540 0
DWIDTH 9 0
BBX 9 12 0 0
BITMAP
0600
0E00
0E00
1E00
3600
3600
6600
6600
FF80
FF80
0600
0600
ENDCHAR
STARTCHAR char53
ENCODING 53
SWIDTH 480 0
DWIDTH 8 0
BBX 8 12 0 0
BITMAP
3F
3F
60
60
FC
FE
03
03
03
C3
FE
7C
ENDCHAR
STARTCHAR char54
ENCODING 54
SWIDTH 480 0
DWIDTH 8 0
BBX 8 12 0 0
BITMAP
3C
7E
E3
C0
C0
DC
FE
E7
C3
E7
7E
3C
ENDCHAR
STARTCHAR char55
ENCODING 55
SWIDTH 480 0
DWIDTH 8 0
BBX 8 12 0 0
BITMAP
FF
FF
03
06
0C
0C
18
18
18
30
30
30
ENDCHAR
STARTCHAR char56
ENCODING 56
SWIDTH 420 0
DWIDTH 7 0
BBX 7 12 0 0
BITMAP
7C
FE
C6
C6
C6
7C
7C
C6
C6
C6
FE
7C
ENDCHAR
STARTCHAR char57
ENCODING 57
SWIDTH 480 0
DWIDTH 8 0
BBX 8 12 0 0
BITMAP
3C
7E
E7
C3
E7
7F
3B
03
03
C7
7E
3C
ENDCHAR
STARTCHAR char58
ENCODING 58
SWIDTH 120 0
DWIDTH 2 0
BBX 2 7 0 1
BITMAP
C0
C0
00
00
00
C0
C0
ENDCHAR
STARTCHAR char59
ENCODING 59
SWIDTH 180 0
DWIDTH 3 0
BBX 3 10 0 -3
BITMAP
60
60
00
00
00
E0
E0
60
60
C0
ENDCHAR
STARTCHAR char60
ENCODING 60
SWIDTH 540 0
DWIDTH 9 0
BBX 9 8 0 2
BITMAP
0380
0F00
3C00
F000
F000
3C00
0F00
0380
ENDCHAR
STARTCHAR char61
ENCODING 61
SWIDTH 540 0
DWIDTH 9 0
BBX 9 6 0 3
BITMAP
FF80
FF80
0000
0000
FF80
FF80
ENDCHAR
STARTCHAR char62
ENCODING 62
SWIDTH 540 0
DWIDTH 9 0
BBX 9 8 0 2
BITMAP
E000
7800
1E00
0780
0780
1E00
7800
E000
ENDCHAR
STARTCHAR char63
ENCODING 63
SWIDTH 420 0
DWIDTH 7 0
BBX 7 12 0 0
BITMAP
7C
86
C6
C6
0C
18
18
18
00
00
18
18
ENDCHAR
STARTCHAR char64
ENCODING 64
SWIDTH 660 0
DWIDTH 11 0
BBX 11 11 0 0
BITMAP
1F00
2080
4040
8D20
9320
9320
93C0
8C00
4020
20C0
1F00
ENDCHAR
STARTCHAR char101
ENCODING 65
SWIDTH 600 0
DWIDTH 10 0
BBX 10 12 0 0
BITMAP
0C00
0C00
1E00
1E00
3300
3300
3300
6180
7F80
7F80
C0C0
C0C0
ENDCHAR
STARTCHAR char102
ENCODING 66
SWIDTH 480 0
DWIDTH 8 0
BBX 8 12 0 0
BITMAP
FC
FE
C3
C3
C6
FC
FC
C6
C3
C3
FE
FC
ENDCHAR
STARTCHAR char103
ENCODING 67
SWIDTH 540 0
DWIDTH 9 0
BBX 9 12 0 0
BITMAP
1E00
3F00
7180
E000
C000
C000
C000
C000
E000
7180
3F00
1E00
ENDCHAR
STARTCHAR char104
ENCODING 68
SWIDTH 540 0
DWIDTH 9 0
BBX 9 12 0 0
BITMAP
FC00
FE00
C300
C180
C180
C180
C180
C180
C180
C300
FE00
FC00
ENDCHAR
STARTCHAR char105
ENCODING 69
SWIDTH 540 0
DWIDTH 9 0
BBX 9 12 0 0
BITMAP
FF80
FF80
C000
C000
C000
FF00
FF00
C000
C000
C000
FF80
FF80
ENDCHAR
STARTCHAR char106
ENCODING 70
SWIDTH 480 0
DWIDTH 8 0
BBX 8 12 0 0
BITMAP
FF
FF
C0
C0
C0
FE
FE
C0
C0
C0
C0
C0
ENDCHAR
STARTCHAR char103
ENCODING 71
SWIDTH 600 0
DWIDTH 10 0
BBX 10 12 0 0
BITMAP
1E00
7F80
6180
C0C0
C000
C000
C7C0
C7C0
C0C0
60C0
7FC0
1EC0
ENDCHAR
STARTCHAR char108
ENCODING 72
SWIDTH 600 0
DWIDTH 10 0
BBX 10 12 0 0
BITMAP
C0C0
C0C0
C0C0
C0C0
C0C0
FFC0
FFC0
C0C0
C0C0
C0C0
C0C0
C0C0
ENDCHAR
STARTCHAR char109
ENCODING 73
SWIDTH 120 0
DWIDTH 2 0
BBX 2 12 0 0
BITMAP
C0
C0
C0
C0
C0
C0
C0
C0
C0
C0
C0
C0
ENDCHAR
STARTCHAR char74
ENCODING 74
SWIDTH 360 0
DWIDTH 6 0
BBX 6 12 0 0
BITMAP
0C
0C
0C
0C
0C
0C
0C
0C
CC
CC
FC
78
ENDCHAR
STARTCHAR char75
ENCODING 75
SWIDTH 600 0
DWIDTH 10 0
BBX 10 12 0 0
BITMAP
C180
C300
C600
CC00
D800
F000
F800
DC00
CE00
C700
C380
C1C0
ENDCHAR
STARTCHAR char76
ENCODING 76
SWIDTH 480 0
DWIDTH 8 0
BBX 8 12 0 0
BITMAP
C0
C0
C0
C0
C0
C0
C0
C0
C0
C0
FF
FF
ENDCHAR
STARTCHAR char113
ENCODING 77
SWIDTH 720 0
DWIDTH 12 0
BBX 12 12 0 0
BITMAP
C030
E070
E070
F0F0
F0F0
D9B0
D9B0
D9B0
CF30
CF30
C630
C630
ENDCHAR
STARTCHAR char78
ENCODING 78
SWIDTH 540 0
DWIDTH 9 0
BBX 9 12 0 0
BITMAP
C180
E180
F180
F180
D980
D980
CD80
CD80
C780
C780
C380
C180
ENDCHAR
STARTCHAR char79
ENCODING 79
SWIDTH 600 0
DWIDTH 10 0
BBX 10 12 0 0
BITMAP
1E00
3F00
6180
C0C0
C0C0
C0C0
C0C0
C0C0
C0C0
6180
3F00
1E00
ENDCHAR
STARTCHAR char80
ENCODING 80
SWIDTH 540 0
DWIDTH 9 0
BBX 8 12 0 0
BITMAP
FC
FE
C3
C3
C3
FE
FC
C0
C0
C0
C0
C0
ENDCHAR
STARTCHAR char79
ENCODING 81
SWIDTH 600 0
DWIDTH 10 0
BBX 10 14 0 -2
BITMAP
1E00
3F00
6180
C0C0
C0C0
C0C0
C0C0
C0C0
C0C0
61C0
3F80
1F00
0380
01C0
ENDCHAR
STARTCHAR char80
ENCODING 82
SWIDTH 540 0
DWIDTH 9 0
BBX 9 12 0 0
BITMAP
FC00
FE00
C300
C300
C300
FE00
FC00
C600
C300
C300
C300
C180
ENDCHAR
STARTCHAR char83
ENCODING 83
SWIDTH 540 0
DWIDTH 9 0
BBX 9 12 0 0
BITMAP
3E00
7F00
E380
C180
E000
7C00
1F00
0380
C180
E380
7F00
3E00
ENDCHAR
STARTCHAR char99
ENCODING 84
SWIDTH 600 0
DWIDTH 10 0
BBX 10 12 0 0
BITMAP
FFC0
FFC0
0C00
0C00
0C00
0C00
0C00
0C00
0C00
0C00
0C00
0C00
ENDCHAR
STARTCHAR char85
ENCODING 85
SWIDTH 540 0
DWIDTH 9 0
BBX 9 12 0 0
BITMAP
C180
C180
C180
C180
C180
C180
C180
C180
C180
E380
7F00
3E00
ENDCHAR
STARTCHAR char86
ENCODING 86
SWIDTH 600 0
DWIDTH 10 0
BBX 10 12 0 0
BITMAP
C0C0
C0C0
C0C0
6180
6180
6180
3300
3300
1E00
1E00
0C00
0C00
ENDCHAR
STARTCHAR char86
ENCODING 87
SWIDTH 900 0
DWIDTH 15 0
BBX 15 12 0 0
BITMAP
C386
C386
C386
C386
66CC
66CC
66CC
3C78
3C78
3C78
1830
1830
ENDCHAR
STARTCHAR char88
ENCODING 88
SWIDTH 540 0
DWIDTH 9 0
BBX 9 12 0 0
BITMAP
C180
6300
6300
3600
1C00
1C00
1C00
1C00
3600
6300
6300
C180
ENDCHAR
STARTCHAR char89
ENCODING 89
SWIDTH 600 0
DWIDTH 10 0
BBX 10 12 0 0
BITMAP
C0C0
E1C0
6180
3300
3300
1E00
1E00
0C00
0C00
0C00
0C00
0C00
ENDCHAR
STARTCHAR char90
ENCODING 90
SWIDTH 540 0
DWIDTH 9 0
BBX 9 12 0 0
BITMAP
FF80
FF80
0180
0300
0600
0C00
1800
3000
6000
C000
FF80
FF80
ENDCHAR
STARTCHAR char91
ENCODING 91
SWIDTH 300 0
DWIDTH 5 0
BBX 5 16 0 -2
BITMAP
F8
F8
C0
C0
C0
C0
C0
C0
C0
C0
C0
C0
C0
C0
F8
F8
ENDCHAR
STARTCHAR char92
ENCODING 92
SWIDTH 540 0
DWIDTH 9 0
BBX 9 16 0 -2
BITMAP
C000
C000
6000
6000
3000
3000
1800
1800
0C00
0C00
0600
0600
0300
0300
0180
0180
ENDCHAR
STARTCHAR char93
ENCODING 93
SWIDTH 300 0
DWIDTH 5 0
BBX 5 16 0 -2
BITMAP
F8
F8
18
18
18
18
18
18
18
18
18
18
18
18
F8
F8
ENDCHAR
STARTCHAR char94
ENCODING 94
SWIDTH 600 0
DWIDTH 10 0
BBX 10 5 0 7
BITMAP
0C00
1E00
3F00
7380
E1C0
ENDCHAR
STARTCHAR char95
ENCODING 95
SWIDTH 660 0
DWIDTH 11 0
BBX 11 2 0 -2
BITMAP
FFE0
FFE0
ENDCHAR
STARTCHAR char96
ENCODING 96
SWIDTH 180 0
DWIDTH 3 0
BBX 3 5 0 7
BITMAP
60
C0
C0
E0
E0
ENDCHAR
STARTCHAR char97
ENCODING 97
SWIDTH 540 0
DWIDTH 9 0
BBX 9 9 0 0
BITMAP
3C00
FE00
C300
0300
3F00
FB00
C300
FF00
3980
ENDCHAR
STARTCHAR char98
ENCODING 98
SWIDTH 540 0
DWIDTH 9 0
BBX 8 12 0 0
BITMAP
C0
C0
C0
DC
FE
E7
C3
C3
C3
E7
FE
DC
ENDCHAR
STARTCHAR char99
ENCODING 99
SWIDTH 480 0
DWIDTH 8 0
BBX 8 9 0 0
BITMAP
3C
7E
E3
C0
C0
C0
E3
7E
3C
ENDCHAR
STARTCHAR char100
ENCODING 100
SWIDTH 480 0
DWIDTH 8 0
BBX 8 12 0 0
BITMAP
03
03
03
3B
7F
E7
C3
C3
C3
E7
7F
3B
ENDCHAR
STARTCHAR char99
ENCODING 101
SWIDTH 480 0
DWIDTH 8 0
BBX 8 9 0 0
BITMAP
3C
7E
C3
FF
FF
C0
E3
7E
3C
ENDCHAR
STARTCHAR char102
ENCODING 102
SWIDTH 360 0
DWIDTH 6 0
BBX 6 12 0 0
BITMAP
1C
3C
30
30
FC
FC
30
30
30
30
30
30
ENDCHAR
STARTCHAR char100
ENCODING 103
SWIDTH 480 0
DWIDTH 8 0
BBX 8 13 0 -4
BITMAP
3B
7F
E7
C3
C3
C3
E7
7F
3B
03
C7
FE
7C
ENDCHAR
STARTCHAR char104
ENCODING 104
SWIDTH 480 0
DWIDTH 8 0
BBX 8 12 0 0
BITMAP
C0
C0
C0
DC
FE
E7
C3
C3
C3
C3
C3
C3
ENDCHAR
STARTCHAR char105
ENCODING 105
SWIDTH 120 0
DWIDTH 2 0
BBX 2 12 0 0
BITMAP
C0
C0
00
00
C0
C0
C0
C0
C0
C0
C0
C0
ENDCHAR
STARTCHAR char106
ENCODING 106
SWIDTH 300 0
DWIDTH 5 0
BBX 5 16 0 -4
BITMAP
18
18
00
00
18
18
18
18
18
18
18
18
18
D8
F8
70
ENDCHAR
STARTCHAR char107
ENCODING 107
SWIDTH 480 0
DWIDTH 8 0
BBX 8 12 0 0
BITMAP
C0
C0
C0
C3
C6
CC
D8
F0
F8
CC
C6
C3
ENDCHAR
STARTCHAR char108
ENCODING 108
SWIDTH 120 0
DWIDTH 2 0
BBX 2 12 0 0
BITMAP
C0
C0
C0
C0
C0
C0
C0
C0
C0
C0
C0
C0
ENDCHAR
STARTCHAR char104
ENCODING 109
SWIDTH 840 0
DWIDTH 14 0
BBX 14 9 0 0
BITMAP
DC70
FEF8
E79C
C30C
C30C
C30C
C30C
C30C
C30C
ENDCHAR
STARTCHAR char104
ENCODING 110
SWIDTH 480 0
DWIDTH 8 0
BBX 8 9 0 0
BITMAP
DC
FE
E7
C3
C3
C3
C3
C3
C3
ENDCHAR
STARTCHAR char99
ENCODING 111
SWIDTH 480 0
DWIDTH 8 0
BBX 8 9 0 0
BITMAP
3C
7E
E7
C3
C3
C3
E7
7E
3C
ENDCHAR
STARTCHAR char98
ENCODING 112
SWIDTH 540 0
DWIDTH 9 0
BBX 8 13 0 -4
BITMAP
DC
FE
E7
C3
C3
C3
E7
FE
DC
C0
C0
C0
C0
ENDCHAR
STARTCHAR char100
ENCODING 113
SWIDTH 480 0
DWIDTH 8 0
BBX 8 13 0 -4
BITMAP
3B
7F
E7
C3
C3
C3
E7
7F
3B
03
03
03
03
ENDCHAR
STARTCHAR char114
ENCODING 114
SWIDTH 300 0
DWIDTH 5 0
BBX 5 9 0 0
BITMAP
D8
F8
E0
C0
C0
C0
C0
C0
C0
ENDCHAR
STARTCHAR char115
ENCODING 115
SWIDTH 420 0
DWIDTH 7 0
BBX 7 9 0 0
BITMAP
38
7C
C6
E0
7C
0E
C6
7C
38
ENDCHAR
STARTCHAR char116
ENCODING 116
SWIDTH 360 0
DWIDTH 6 0
BBX 6 12 0 0
BITMAP
30
30
30
FC
FC
30
30
30
30
30
3C
1C
ENDCHAR
STARTCHAR char117
ENCODING 117
SWIDTH 540 0
DWIDTH 9 0
BBX 8 9 0 0
BITMAP
C3
C3
C3
C3
C3
C3
E7
7F
3B
ENDCHAR
STARTCHAR char118
ENCODING 118
SWIDTH 600 0
DWIDTH 10 0
BBX 9 9 0 0
BITMAP
C180
C180
6300
6300
3600
3600
1C00
1C00
0800
ENDCHAR
STARTCHAR char118
ENCODING 119
SWIDTH 720 0
DWIDTH 12 0
BBX 12 9 0 0
BITMAP
C630
C630
C630
6F60
6F60
6F60
3180
3180
3180
ENDCHAR
STARTCHAR char120
ENCODING 120
SWIDTH 480 0
DWIDTH 8 0
BBX 8 9 0 0
BITMAP
81
C3
66
3C
18
3C
66
C3
81
ENDCHAR
STARTCHAR char118
ENCODING 121
SWIDTH 600 0
DWIDTH 10 0
BBX 9 13 0 -4
BITMAP
C180
C180
6300
6300
3600
3600
1C00
1C00
1800
1800
3000
3000
6000
ENDCHAR
STARTCHAR char122
ENCODING 122
SWIDTH 420 0
DWIDTH 7 0
BBX 7 9 0 0
BITMAP
FE
FE
06
0C
18
30
60
FE
FE
ENDCHAR
STARTCHAR char123
ENCODING 123
SWIDTH 240 0
DWIDTH 4 0
BBX 4 15 0 -2
BITMAP
30
60
60
60
30
30
60
C0
60
30
30
60
60
60
30
ENDCHAR
STARTCHAR char124
ENCODING 124
SWIDTH 120 0
DWIDTH 2 0
BBX 2 16 0 -2
BITMAP
C0
C0
C0
C0
C0
C0
C0
C0
C0
C0
C0
C0
C0
C0
C0
C0
ENDCHAR
STARTCHAR char125
ENCODING 125
SWIDTH 240 0
DWIDTH 4 0
BBX 4 15 0 -2
BITMAP
C0
60
60
60
C0
C0
60
30
60
C0
C0
60
60
60
C0
ENDCHAR
STARTCHAR char126
ENCODING 126
SWIDTH 780 0
DWIDTH 13 0
BBX 13 5 0 3
BITMAP
3808
7C08
C718
81F0
80E0
ENDCHAR
STARTCHAR char161
ENCODING 161
SWIDTH 120 0
DWIDTH 2 0
BBX 2 12 0 0
BITMAP
C0
C0
00
00
C0
C0
C0
C0
C0
C0
C0
C0
ENDCHAR
STARTCHAR char103
ENCODING 164
SWIDTH 540 0
DWIDTH 9 0
BBX 9 12 0 0
BITMAP
0F00
1F80
3800
7000
FE00
6000
6000
FE00
7000
3800
1F80
0F00
ENDCHAR
STARTCHAR char99
ENCODING 169
SWIDTH 720 0
DWIDTH 12 0
BBX 12 13 0 0
BITMAP
1F80
2040
4F20
9F90
B8D0
B010
B010
B010
B8D0
9F90
4F20
2040
1F80
ENDCHAR
STARTCHAR char191
ENCODING 191
SWIDTH 420 0
DWIDTH 7 0
BBX 7 12 0 0
BITMAP
30
30
00
00
30
30
30
60
C6
C6
C2
7C
ENDCHAR
STARTCHAR char101
ENCODING 192
SWIDTH 600 0
DWIDTH 10 0
BBX 10 16 0 0
BITMAP
3000
1800
0C00
0000
0C00
0C00
1E00
1E00
3300
3300
3300
6180
7F80
7F80
C0C0
C0C0
ENDCHAR
STARTCHAR char101
ENCODING 193
SWIDTH 600 0
DWIDTH 10 0
BBX 10 16 0 0
BITMAP
0300
0600
0C00
0000
0C00
0C00
1E00
1E00
3300
3300
3300
6180
7F80
7F80
C0C0
C0C0
ENDCHAR
STARTCHAR char101
ENCODING 194
SWIDTH 600 0
DWIDTH 10 0
BBX 10 16 0 0
BITMAP
0C00
1E00
3300
0000
0C00
0C00
1E00
1E00
3300
3300
3300
6180
7F80
7F80
C0C0
C0C0
ENDCHAR
STARTCHAR char101
ENCODING 195
SWIDTH 600 0
DWIDTH 10 0
BBX 10 15 0 0
BITMAP
1D80
3700
0000
0C00
0C00
1E00
1E00
3300
3300
3300
6180
7F80
7F80
C0C0
C0C0
ENDCHAR
STARTCHAR char101
ENCODING 196
SWIDTH 600 0
DWIDTH 10 0
BBX 10 15 0 0
BITMAP
3300
3300
0000
0C00
0C00
1E00
1E00
3300
3300
3300
6180
7F80
7F80
C0C0
C0C0
ENDCHAR
STARTCHAR char101
ENCODING 197
SWIDTH 600 0
DWIDTH 10 0
BBX 10 16 0 0
BITMAP
0C00
1200
0C00
0000
0C00
0C00
1E00
1E00
3300
3300
3300
6180
7F80
7F80
C0C0
C0C0
ENDCHAR
STARTCHAR char101
ENCODING 198
SWIDTH 720 0
DWIDTH 12 0
BBX 12 12 0 0
BITMAP
0FF0
0FF0
1E00
1E00
3600
3FE0
3FE0
6600
6600
6600
C7F0
C7F0
ENDCHAR
STARTCHAR char103
ENCODING 199
SWIDTH 540 0
DWIDTH 9 0
BBX 9 15 0 -3
BITMAP
1E00
3F00
7180
E000
C000
C000
C000
C000
E000
7180
3F00
1E00
0C00
6600
3C00
ENDCHAR
STARTCHAR char105
ENCODING 200
SWIDTH 540 0
DWIDTH 9 0
BBX 9 16 0 0
BITMAP
3000
1800
0C00
0000
FF80
FF80
C000
C000
C000
FF00
FF00
C000
C000
C000
FF80
FF80
ENDCHAR
STARTCHAR char105
ENCODING 201
SWIDTH 540 0
DWIDTH 9 0
BBX 9 16 0 0
BITMAP
0300
0600
0C00
0000
FF80
FF80
C000
C000
C000
FF00
FF00
C000
C000
C000
FF80
FF80
ENDCHAR
STARTCHAR char105
ENCODING 202
SWIDTH 540 0
DWIDTH 9 0
BBX 9 16 0 0
BITMAP
1800
3C00
6600
0000
FF80
FF80
C000
C000
C000
FF00
FF00
C000
C000
C000
FF80
FF80
ENDCHAR
STARTCHAR char105
ENCODING 203
SWIDTH 540 0
DWIDTH 9 0
BBX 9 15 0 0
BITMAP
3300
3300
0000
FF80
FF80
C000
C000
C000
FF00
FF00
C000
C000
C000
FF80
FF80
ENDCHAR
STARTCHAR char109
ENCODING 204
SWIDTH 180 0
DWIDTH 3 0
BBX 4 16 -1 0
BITMAP
C0
60
30
00
30
30
30
30
30
30
30
30
30
30
30
30
ENDCHAR
STARTCHAR char109
ENCODING 205
SWIDTH 240 0
DWIDTH 4 0
BBX 4 16 0 0
BITMAP
30
60
C0
00
C0
C0
C0
C0
C0
C0
C0
C0
C0
C0
C0
C0
ENDCHAR
STARTCHAR char109
ENCODING 206
SWIDTH 300 0
DWIDTH 5 0
BBX 6 16 -1 0
BITMAP
30
78
CC
00
30
30
30
30
30
30
30
30
30
30
30
30
ENDCHAR
STARTCHAR char109
ENCODING 207
SWIDTH 300 0
DWIDTH 5 0
BBX 6 15 0 0
BITMAP
CC
CC
00
30
30
30
30
30
30
30
30
30
30
30
30
ENDCHAR
STARTCHAR char104
ENCODING 208
SWIDTH 600 0
DWIDTH 10 0
BBX 10 12 0 0
BITMAP
7E00
7F00
6180
60C0
60C0
F8C0
F8C0
60C0
60C0
6180
7F00
7E00
ENDCHAR
STARTCHAR char78
ENCODING 209
SWIDTH 540 0
DWIDTH 9 0
BBX 9 15 0 0
BITMAP
1D00
2E00
0000
C180
E180
F180
F180
D980
D980
CD80
CD80
C780
C780
C380
C180
ENDCHAR
STARTCHAR char79
ENCODING 210
SWIDTH 600 0
DWIDTH 10 0
BBX 10 16 0 0
BITMAP
3000
1800
0C00
0000
1E00
3F00
6180
C0C0
C0C0
C0C0
C0C0
C0C0
C0C0
6180
3F00
1E00
ENDCHAR
STARTCHAR char79
ENCODING 211
SWIDTH 600 0
DWIDTH 10 0
BBX 10 16 0 0
BITMAP
0300
0600
0C00
0000
1E00
3F00
6180
C0C0
C0C0
C0C0
C0C0
C0C0
C0C0
6180
3F00
1E00
ENDCHAR
STARTCHAR char79
ENCODING 212
SWIDTH 600 0
DWIDTH 10 0
BBX 10 16 0 0
BITMAP
0C00
1E00
3300
0000
1E00
3F00
6180
C0C0
C0C0
C0C0
C0C0
C0C0
C0C0
6180
3F00
1E00
ENDCHAR
STARTCHAR char79
ENCODING 213
SWIDTH 600 0
DWIDTH 10 0
BBX 10 15 0 0
BITMAP
1E80
2F00
0000
1E00
3F00
6180
C0C0
C0C0
C0C0
C0C0
C0C0
C0C0
6180
3F00
1E00
ENDCHAR
STARTCHAR char79
ENCODING 214
SWIDTH 600 0
DWIDTH 10 0
BBX 10 15 1 0
BITMAP
3300
3300
0000
1E00
3F00
6180
C0C0
C0C0
C0C0
C0C0
C0C0
C0C0
6180
3F00
1E00
ENDCHAR
STARTCHAR char79
ENCODING 216
SWIDTH 660 0
DWIDTH 11 0
BBX 11 12 0 0
BITMAP
1E20
3F40
6180
C1C0
C2C0
C4C0
C4C0
C8C0
D0C0
6180
7F00
9E00
ENDCHAR
STARTCHAR char85
ENCODING 217
SWIDTH 540 0
DWIDTH 9 0
BBX 9 16 0 0
BITMAP
3000
1800
0C00
0000
C180
C180
C180
C180
C180
C180
C180
C180
C180
E380
7F00
3E00
ENDCHAR
STARTCHAR char85
ENCODING 218
SWIDTH 540 0
DWIDTH 9 0
BBX 9 16 0 0
BITMAP
0300
0600
0C00
0000
C180
C180
C180
C180
C180
C180
C180
C180
C180
E380
7F00
3E00
ENDCHAR
STARTCHAR char85
ENCODING 219
SWIDTH 540 0
DWIDTH 9 0
BBX 9 16 0 0
BITMAP
1800
3C00
6600
0000
C180
C180
C180
C180
C180
C180
C180
C180
C180
E380
7F00
3E00
ENDCHAR
STARTCHAR char85
ENCODING 220
SWIDTH 540 0
DWIDTH 9 0
BBX 9 15 0 0
BITMAP
6300
6300
0000
C180
C180
C180
C180
C180
C180
C180
C180
C180
E380
7F00
3E00
ENDCHAR
STARTCHAR char89
ENCODING 221
SWIDTH 600 0
DWIDTH 10 0
BBX 10 16 0 0
BITMAP
0300
0600
0C00
0000
C0C0
E1C0
6180
3300
3300
1E00
1E00
0C00
0C00
0C00
0C00
0C00
ENDCHAR
STARTCHAR char80
ENCODING 222
SWIDTH 540 0
DWIDTH 9 0
BBX 8 12 0 0
BITMAP
C0
C0
FC
FE
C3
C3
C3
FE
FC
C0
C0
C0
ENDCHAR
STARTCHAR char223
ENCODING 223
SWIDTH 480 0
DWIDTH 8 0
BBX 7 12 0 0
BITMAP
38
7C
CC
CC
CC
D8
CC
C6
C6
C6
DC
D8
ENDCHAR
STARTCHAR char97
ENCODING 224
SWIDTH 540 0
DWIDTH 9 0
BBX 9 13 0 0
BITMAP
6000
3000
1800
0000
3C00
FE00
C300
0300
3F00
FB00
C300
FF00
3980
ENDCHAR
STARTCHAR char97
ENCODING 225
SWIDTH 540 0
DWIDTH 9 0
BBX 9 13 0 0
BITMAP
0600
0C00
1800
0000
3C00
FE00
C300
0300
3F00
FB00
C300
FF00
3980
ENDCHAR
STARTCHAR char97
ENCODING 226
SWIDTH 540 0
DWIDTH 9 0
BBX 9 13 0 0
BITMAP
1800
3C00
6600
0000
3C00
FE00
C300
0300
3F00
FB00
C300
FF00
3980
ENDCHAR
STARTCHAR char97
ENCODING 227
SWIDTH 540 0
DWIDTH 9 0
BBX 9 12 0 0
BITMAP
3A00
5C00
0000
3C00
FE00
C300
0300
3F00
FB00
C300
FF00
3980
ENDCHAR
STARTCHAR char97
ENCODING 228
SWIDTH 540 0
DWIDTH 9 0
BBX 9 12 0 0
BITMAP
6600
6600
0000
3C00
FE00
C300
0300
3F00
FB00
C300
FF00
3980
ENDCHAR
STARTCHAR char97
ENCODING 229
SWIDTH 540 0
DWIDTH 9 0
BBX 9 13 0 0
BITMAP
1800
2400
1800
0000
3C00
FE00
C300
0300
3F00
FB00
C300
FF00
3980
ENDCHAR
STARTCHAR char97
ENCODING 230
SWIDTH 660 0
DWIDTH 11 0
BBX 11 9 0 0
BITMAP
3FC0
FFE0
C660
0FE0
3FE0
EC00
CC60
FFC0
7380
ENDCHAR
STARTCHAR char99
ENCODING 231
SWIDTH 480 0
DWIDTH 8 0
BBX 8 12 0 -3
BITMAP
3C
7E
E3
C0
C0
C0
E3
7E
3C
0C
66
3C
ENDCHAR
STARTCHAR char99
ENCODING 232
SWIDTH 480 0
DWIDTH 8 0
BBX 8 13 0 0
BITMAP
60
30
18
00
3C
7E
C3
FF
FF
C0
E3
7E
3C
ENDCHAR
STARTCHAR char99
ENCODING 233
SWIDTH 480 0
DWIDTH 8 0
BBX 8 13 0 0
BITMAP
06
0C
18
00
3C
7E
C3
FF
FF
C0
E3
7E
3C
ENDCHAR
STARTCHAR char99
ENCODING 234
SWIDTH 480 0
DWIDTH 8 0
BBX 8 13 0 0
BITMAP
18
3C
66
00
3C
7E
C3
FF
FF
C0
E3
7E
3C
ENDCHAR
STARTCHAR char99
ENCODING 235
SWIDTH 480 0
DWIDTH 8 0
BBX 8 12 0 0
BITMAP
66
66
00
3C
7E
C3
FF
FF
C0
E3
7E
3C
ENDCHAR
STARTCHAR char105
ENCODING 236
SWIDTH 180 0
DWIDTH 3 0
BBX 4 13 -1 0
BITMAP
C0
60
30
00
00
30
30
30
30
30
30
30
30
ENDCHAR
STARTCHAR char105
ENCODING 237
SWIDTH 300 0
DWIDTH 5 0
BBX 4 13 1 0
BITMAP
30
60
C0
00
00
C0
C0
C0
C0
C0
C0
C0
C0
ENDCHAR
STARTCHAR char105
ENCODING 238
SWIDTH 300 0
DWIDTH 5 0
BBX 6 13 -1 0
BITMAP
30
78
CC
00
00
30
30
30
30
30
30
30
30
ENDCHAR
STARTCHAR char105
ENCODING 239
SWIDTH 360 0
DWIDTH 6 0
BBX 6 12 0 0
BITMAP
CC
CC
00
00
30
30
30
30
30
30
30
30
ENDCHAR
STARTCHAR char100
ENCODING 240
SWIDTH 540 0
DWIDTH 9 0
BBX 9 12 0 0
BITMAP
0300
0F80
0300
3B00
7F00
E700
C300
C300
C300
E700
7F00
3B00
ENDCHAR
STARTCHAR char104
ENCODING 241
SWIDTH 480 0
DWIDTH 8 0
BBX 8 12 0 0
BITMAP
3B
6E
00
DC
FE
E7
C3
C3
C3
C3
C3
C3
ENDCHAR
STARTCHAR char99
ENCODING 242
SWIDTH 480 0
DWIDTH 8 0
BBX 8 13 0 0
BITMAP
60
30
18
00
3C
7E
E7
C3
C3
C3
E7
7E
3C
ENDCHAR
STARTCHAR char99
ENCODING 243
SWIDTH 480 0
DWIDTH 8 0
BBX 8 13 0 0
BITMAP
06
0C
18
00
3C
7E
E7
C3
C3
C3
E7
7E
3C
ENDCHAR
STARTCHAR char99
ENCODING 244
SWIDTH 480 0
DWIDTH 8 0
BBX 8 13 0 0
BITMAP
18
3C
66
00
3C
7E
E7
C3
C3
C3
E7
7E
3C
ENDCHAR
STARTCHAR char99
ENCODING 245
SWIDTH 480 0
DWIDTH 8 0
BBX 8 12 0 0
BITMAP
3B
6E
00
3C
7E
E7
C3
C3
C3
E7
7E
3C
ENDCHAR
STARTCHAR char99
ENCODING 246
SWIDTH 480 0
DWIDTH 8 0
BBX 8 12 0 0
BITMAP
66
66
00
3C
7E
E7
C3
C3
C3
E7
7E
3C
ENDCHAR
STARTCHAR char99
ENCODING 248
SWIDTH 540 0
DWIDTH 9 0
BBX 10 11 -1 -1
BITMAP
0040
1E80
3F80
7380
6580
6980
6980
7380
3F00
5E00
8000
ENDCHAR
STARTCHAR char117
ENCODING 249
SWIDTH 540 0
DWIDTH 9 0
BBX 8 13 0 0
BITMAP
60
30
18
00
C3
C3
C3
C3
C3
C3
E7
7F
3B
ENDCHAR
STARTCHAR char117
ENCODING 250
SWIDTH 540 0
DWIDTH 9 0
BBX 8 13 0 0
BITMAP
06
0C
18
00
C3
C3
C3
C3
C3
C3
E7
7F
3B
ENDCHAR
STARTCHAR char117
ENCODING 251
SWIDTH 540 0
DWIDTH 9 0
BBX 8 13 0 0
BITMAP
18
3C
66
00
C3
C3
C3
C3
C3
C3
E7
7F
3B
ENDCHAR
STARTCHAR char117
ENCODING 252
SWIDTH 540 0
DWIDTH 9 0
BBX 8 12 0 0
BITMAP
66
66
00
C3
C3
C3
C3
C3
C3
E7
7F
3B
ENDCHAR
STARTCHAR char118
ENCODING 253
SWIDTH 600 0
DWIDTH 10 0
BBX 9 17 0 -4
BITMAP
0600
0C00
1800
0000
C180
C180
6300
6300
3600
3600
1C00
1C00
1800
1800
3000
3000
6000
ENDCHAR
STARTCHAR char98
ENCODING 254
SWIDTH 540 0
DWIDTH 9 0
BBX 8 16 0 -4
BITMAP
C0
C0
C0
DC
FE
E7
C3
C3
C3
E7
FE
DC
C0
C0
C0
C0
ENDCHAR
STARTCHAR char118
ENCODING 255
SWIDTH 600 0
DWIDTH 10 0
BBX 9 16 0 -4
BITMAP
3300
3300
0000
C180
C180
6300
6300
3600
3600
1C00
1C00
1800
1800
3000
3000
6000
ENDCHAR
STARTCHAR char101
ENCODING 258
SWIDTH 600 0
DWIDTH 10 0
BBX 10 16 0 0
BITMAP
2100
3300
1E00
0000
0C00
0C00
1E00
1E00
3300
3300
3300
6180
7F80
7F80
C0C0
C0C0
ENDCHAR
STARTCHAR char97
ENCODING 259
SWIDTH 540 0
DWIDTH 9 0
BBX 9 12 0 0
BITMAP
6600
3C00
0000
3C00
FE00
C300
0300
3F00
FB00
C300
FF00
3980
ENDCHAR
STARTCHAR char101
ENCODING 260
SWIDTH 600 0
DWIDTH 10 0
BBX 10 15 0 -3
BITMAP
0C00
0C00
1E00
1E00
3300
3300
3300
6180
7F80
7F80
C0C0
C0C0
0300
0300
01C0
ENDCHAR
STARTCHAR char97
ENCODING 261
SWIDTH 540 0
DWIDTH 9 0
BBX 9 12 0 -3
BITMAP
3C00
FE00
C300
0300
3F00
FB00
C300
FF00
3980
0C00
0C00
0700
ENDCHAR
STARTCHAR char103
ENCODING 262
SWIDTH 540 0
DWIDTH 9 0
BBX 9 16 0 0
BITMAP
0300
0600
0C00
0000
1E00
3F00
7180
E000
C000
C000
C000
C000
E000
7180
3F00
1E00
ENDCHAR
STARTCHAR char99
ENCODING 263
SWIDTH 480 0
DWIDTH 8 0
BBX 8 13 0 0
BITMAP
06
0C
18
00
3C
7E
E3
C0
C0
C0
E3
7E
3C
ENDCHAR
STARTCHAR char103
ENCODING 264
SWIDTH 540 0
DWIDTH 9 0
BBX 9 16 0 0
BITMAP
0C00
1E00
3300
0000
1E00
3F00
7180
E000
C000
C000
C000
C000
E000
7180
3F00
1E00
ENDCHAR
STARTCHAR char99
ENCODING 265
SWIDTH 480 0
DWIDTH 8 0
BBX 8 13 0 0
BITMAP
18
3C
66
00
3C
7E
E3
C0
C0
C0
E3
7E
3C
ENDCHAR
STARTCHAR char103
ENCODING 266
SWIDTH 540 0
DWIDTH 9 0
BBX 9 15 0 0
BITMAP
0C00
0C00
0000
1E00
3F00
7180
E000
C000
C000
C000
C000
E000
7180
3F00
1E00
ENDCHAR
STARTCHAR char99
ENCODING 267
SWIDTH 480 0
DWIDTH 8 0
BBX 8 12 0 0
BITMAP
18
18
00
3C
7E
E3
C0
C0
C0
E3
7E
3C
ENDCHAR
STARTCHAR char103
ENCODING 268
SWIDTH 540 0
DWIDTH 9 0
BBX 9 16 0 0
BITMAP
3300
1E00
0C00
0000
1E00
3F00
7180
E000
C000
C000
C000
C000
E000
7180
3F00
1E00
ENDCHAR
STARTCHAR char99
ENCODING 269
SWIDTH 480 0
DWIDTH 8 0
BBX 8 13 0 0
BITMAP
66
3C
18
00
3C
7E
E3
C0
C0
C0
E3
7E
3C
ENDCHAR
STARTCHAR char104
ENCODING 270
SWIDTH 540 0
DWIDTH 9 0
BBX 9 16 0 0
BITMAP
CC00
7800
3000
0000
FC00
FE00
C300
C180
C180
C180
C180
C180
C180
C300
FE00
FC00
ENDCHAR
STARTCHAR char100
ENCODING 271
SWIDTH 480 0
DWIDTH 8 0
BBX 8 15 0 0
BITMAP
66
3C
18
03
03
03
3B
7F
E7
C3
C3
C3
E7
7F
3B
ENDCHAR
STARTCHAR char104
ENCODING 272
SWIDTH 600 0
DWIDTH 10 0
BBX 10 12 0 0
BITMAP
7E00
7F00
6180
60C0
60C0
F8C0
F8C0
60C0
60C0
6180
7F00
7E00
ENDCHAR
STARTCHAR char100
ENCODING 273
SWIDTH 540 0
DWIDTH 9 0
BBX 9 12 0 0
BITMAP
0300
0F80
0300
3B00
7F00
E700
C300
C300
C300
E700
7F00
3B00
ENDCHAR
STARTCHAR char105
ENCODING 280
SWIDTH 540 0
DWIDTH 9 0
BBX 9 15 0 -3
BITMAP
FF80
FF80
C000
C000
C000
FF00
FF00
C000
C000
C000
FF80
FF80
0600
0600
0380
ENDCHAR
STARTCHAR char99
ENCODING 281
SWIDTH 480 0
DWIDTH 8 0
BBX 8 12 0 -3
BITMAP
3C
7E
C3
FF
FF
C0
E3
7E
3C
0C
0C
07
ENDCHAR
STARTCHAR char105
ENCODING 282
SWIDTH 540 0
DWIDTH 9 0
BBX 9 16 0 0
BITMAP
6600
3C00
1800
0000
FF80
FF80
C000
C000
C000
FF00
FF00
C000
C000
C000
FF80
FF80
ENDCHAR
STARTCHAR char99
ENCODING 283
SWIDTH 480 0
DWIDTH 8 0
BBX 8 13 0 0
BITMAP
66
3C
18
00
3C
7E
C3
FF
FF
C0
E3
7E
3C
ENDCHAR
STARTCHAR char103
ENCODING 284
SWIDTH 600 0
DWIDTH 10 0
BBX 10 16 0 0
BITMAP
0C00
1E00
3300
0000
1E00
7F80
6180
C0C0
C000
C000
C7C0
C7C0
C0C0
60C0
7FC0
1EC0
ENDCHAR
STARTCHAR char100
ENCODING 285
SWIDTH 480 0
DWIDTH 8 0
BBX 8 17 0 -4
BITMAP
18
3C
66
00
3B
7F
E7
C3
C3
C3
E7
7F
3B
03
C7
FE
7C
ENDCHAR
STARTCHAR char103
ENCODING 286
SWIDTH 600 0
DWIDTH 10 0
BBX 10 16 0 0
BITMAP
2100
3300
1E00
0000
1E00
7F80
6180
C0C0
C000
C000
C7C0
C7C0
C0C0
60C0
7FC0
1EC0
ENDCHAR
STARTCHAR char100
ENCODING 287
SWIDTH 480 0
DWIDTH 8 0
BBX 8 17 0 -4
BITMAP
42
66
3C
00
3B
7F
E7
C3
C3
C3
E7
7F
3B
03
C7
FE
7C
ENDCHAR
STARTCHAR char103
ENCODING 288
SWIDTH 600 0
DWIDTH 10 0
BBX 10 15 0 0
BITMAP
0C00
0C00
0000
1E00
7F80
6180
C0C0
C000
C000
C7C0
C7C0
C0C0
60C0
7FC0
1EC0
ENDCHAR
STARTCHAR char100
ENCODING 289
SWIDTH 480 0
DWIDTH 8 0
BBX 8 16 0 -4
BITMAP
18
18
00
3B
7F
E7
C3
C3
C3
E7
7F
3B
03
C7
FE
7C
ENDCHAR
STARTCHAR char108
ENCODING 292
SWIDTH 600 0
DWIDTH 10 0
BBX 10 16 0 0
BITMAP
0C00
1E00
3300
0000
C0C0
C0C0
C0C0
C0C0
C0C0
FFC0
FFC0
C0C0
C0C0
C0C0
C0C0
C0C0
ENDCHAR
STARTCHAR char104
ENCODING 293
SWIDTH 480 0
DWIDTH 8 0
BBX 8 16 0 0
BITMAP
18
3C
66
00
C0
C0
C0
DC
FE
E7
C3
C3
C3
C3
C3
C3
ENDCHAR
STARTCHAR char108
ENCODING 294
SWIDTH 600 0
DWIDTH 10 0
BBX 10 12 0 0
BITMAP
C0C0
C0C0
FFC0
C0C0
C0C0
FFC0
FFC0
C0C0
C0C0
C0C0
C0C0
C0C0
ENDCHAR
STARTCHAR char104
ENCODING 295
SWIDTH 480 0
DWIDTH 8 0
BBX 8 12 0 0
BITMAP
C0
FE
C0
DC
FE
E7
C3
C3
C3
C3
C3
C3
ENDCHAR
STARTCHAR char109
ENCODING 304
SWIDTH 120 0
DWIDTH 2 0
BBX 2 15 0 0
BITMAP
C0
C0
00
C0
C0
C0
C0
C0
C0
C0
C0
C0
C0
C0
C0
ENDCHAR
STARTCHAR char105
ENCODING 305
SWIDTH 120 0
DWIDTH 2 0
BBX 2 8 0 0
BITMAP
C0
C0
C0
C0
C0
C0
C0
C0
ENDCHAR
STARTCHAR char74
ENCODING 308
SWIDTH 420 0
DWIDTH 7 0
BBX 7 16 0 0
BITMAP
18
3C
66
00
0C
0C
0C
0C
0C
0C
0C
0C
CC
CC
FC
78
ENDCHAR
STARTCHAR char106
ENCODING 309
SWIDTH 360 0
DWIDTH 6 0
BBX 6 17 0 -4
BITMAP
30
78
CC
00
00
18
18
18
18
18
18
18
18
18
D8
F8
70
ENDCHAR
STARTCHAR char76
ENCODING 313
SWIDTH 480 0
DWIDTH 8 0
BBX 8 16 0 0
BITMAP
30
60
C0
00
C0
C0
C0
C0
C0
C0
C0
C0
C0
C0
FF
FF
ENDCHAR
STARTCHAR char108
ENCODING 314
SWIDTH 240 0
DWIDTH 4 0
BBX 4 16 0 0
BITMAP
30
60
C0
00
C0
C0
C0
C0
C0
C0
C0
C0
C0
C0
C0
C0
ENDCHAR
STARTCHAR char76
ENCODING 317
SWIDTH 480 0
DWIDTH 8 0
BBX 8 12 0 0
BITMAP
C7
C3
C3
C6
C0
C0
C0
C0
C0
C0
FF
FF
ENDCHAR
STARTCHAR char108
ENCODING 318
SWIDTH 420 0
DWIDTH 7 0
BBX 7 12 0 0
BITMAP
CE
C6
C6
CC
C0
C0
C0
C0
C0
C0
C0
C0
ENDCHAR
STARTCHAR char76
ENCODING 321
SWIDTH 540 0
DWIDTH 9 0
BBX 9 12 0 0
BITMAP
6000
6000
6400
6C00
7800
7000
E000
E000
6000
6000
7F80
7F80
ENDCHAR
STARTCHAR char108
ENCODING 322
SWIDTH 360 0
DWIDTH 6 0
BBX 6 12 0 0
BITMAP
60
60
64
6C
78
70
E0
E0
60
60
60
60
ENDCHAR
STARTCHAR char78
ENCODING 323
SWIDTH 540 0
DWIDTH 9 0
BBX 9 16 0 0
BITMAP
0300
0600
0C00
0000
C180
E180
F180
F180
D980
D980
CD80
CD80
C780
C780
C380
C180
ENDCHAR
STARTCHAR char104
ENCODING 324
SWIDTH 480 0
DWIDTH 8 0
BBX 8 13 0 0
BITMAP
06
0C
18
00
DC
FE
E7
C3
C3
C3
C3
C3
C3
ENDCHAR
STARTCHAR char78
ENCODING 327
SWIDTH 540 0
DWIDTH 9 0
BBX 9 16 0 0
BITMAP
3300
1E00
0C00
0000
C180
E180
F180
F180
D980
D980
CD80
CD80
C780
C780
C380
C180
ENDCHAR
STARTCHAR char104
ENCODING 328
SWIDTH 480 0
DWIDTH 8 0
BBX 8 13 0 0
BITMAP
66
3C
18
00
DC
FE
E7
C3
C3
C3
C3
C3
C3
ENDCHAR
STARTCHAR char79
ENCODING 336
SWIDTH 600 0
DWIDTH 10 0
BBX 10 16 0 0
BITMAP
0CC0
1980
3300
0000
1E00
3F00
6180
C0C0
C0C0
C0C0
C0C0
C0C0
C0C0
6180
3F00
1E00
ENDCHAR
STARTCHAR char99
ENCODING 337
SWIDTH 540 0
DWIDTH 9 0
BBX 9 13 0 0
BITMAP
1980
3300
6600
0000
3C00
7E00
E700
C300
C300
C300
E700
7E00
3C00
ENDCHAR
STARTCHAR char80
ENCODING 340
SWIDTH 540 0
DWIDTH 9 0
BBX 9 16 0 0
BITMAP
0C00
1800
3000
0000
FC00
FE00
C300
C300
C300
FE00
FC00
C600
C300
C300
C300
C180
ENDCHAR
STARTCHAR char114
ENCODING 341
SWIDTH 300 0
DWIDTH 5 0
BBX 5 13 0 0
BITMAP
18
30
60
00
D8
F8
E0
C0
C0
C0
C0
C0
C0
ENDCHAR
STARTCHAR char80
ENCODING 344
SWIDTH 540 0
DWIDTH 9 0
BBX 9 16 0 0
BITMAP
CC00
7800
3000
0000
FC00
FE00
C300
C300
C300
FE00
FC00
C600
C300
C300
C300
C180
ENDCHAR
STARTCHAR char114
ENCODING 345
SWIDTH 360 0
DWIDTH 6 0
BBX 6 13 0 0
BITMAP
CC
78
30
00
D8
F8
E0
C0
C0
C0
C0
C0
C0
ENDCHAR
STARTCHAR char83
ENCODING 346
SWIDTH 540 0
DWIDTH 9 0
BBX 9 16 0 0
BITMAP
0600
0C00
1800
0000
3E00
7F00
E380
C180
E000
7C00
1F00
0380
C180
E380
7F00
3E00
ENDCHAR
STARTCHAR char115
ENCODING 347
SWIDTH 420 0
DWIDTH 7 0
BBX 7 13 0 0
BITMAP
0C
18
30
00
38
7C
C6
E0
7C
0E
C6
7C
38
ENDCHAR
STARTCHAR char83
ENCODING 348
SWIDTH 540 0
DWIDTH 9 0
BBX 9 16 0 0
BITMAP
1800
3C00
6600
0000
3E00
7F00
E380
C180
E000
7C00
1F00
0380
C180
E380
7F00
3E00
ENDCHAR
STARTCHAR char115
ENCODING 349
SWIDTH 420 0
DWIDTH 7 0
BBX 7 13 0 0
BITMAP
30
78
CC
00
38
7C
C6
E0
7C
0E
C6
7C
38
ENDCHAR
STARTCHAR char83
ENCODING 350
SWIDTH 540 0
DWIDTH 9 0
BBX 9 15 0 -3
BITMAP
3E00
7F00
E380
C180
E000
7C00
1F00
0380
C180
E380
7F00
3E00
0C00
6600
3C00
ENDCHAR
STARTCHAR char115
ENCODING 351
SWIDTH 420 0
DWIDTH 7 0
BBX 7 12 0 -3
BITMAP
38
7C
C6
E0
7C
0E
C6
7C
38
0C
66
3C
ENDCHAR
STARTCHAR char83
ENCODING 352
SWIDTH 540 0
DWIDTH 9 0
BBX 9 16 0 0
BITMAP
3300
1E00
0C00
0000
3E00
7F00
E380
C180
E000
7C00
1F00
0380
C180
E380
7F00
3E00
ENDCHAR
STARTCHAR char115
ENCODING 353
SWIDTH 420 0
DWIDTH 7 0
BBX 7 13 0 0
BITMAP
66
3C
18
00
38
7C
C6
E0
7C
0E
C6
7C
38
ENDCHAR
STARTCHAR char99
ENCODING 354
SWIDTH 600 0
DWIDTH 10 0
BBX 10 15 0 -3
BITMAP
FFC0
FFC0
0C00
0C00
0C00
0C00
0C00
0C00
0C00
0C00
0C00
0C00
0600
3300
1E00
ENDCHAR
STARTCHAR char116
ENCODING 355
SWIDTH 360 0
DWIDTH 6 0
BBX 6 15 0 -3
BITMAP
30
30
30
FC
FC
30
30
30
30
30
3C
1C
18
CC
78
ENDCHAR
STARTCHAR char99
ENCODING 356
SWIDTH 600 0
DWIDTH 10 0
BBX 10 16 0 0
BITMAP
3300
1E00
0C00
0000
FFC0
FFC0
0C00
0C00
0C00
0C00
0C00
0C00
0C00
0C00
0C00
0C00
ENDCHAR
STARTCHAR char116
ENCODING 357
SWIDTH 360 0
DWIDTH 6 0
BBX 6 16 0 0
BITMAP
CC
78
30
00
30
30
30
FC
FC
30
30
30
30
30
3C
1C
ENDCHAR
STARTCHAR char85
ENCODING 364
SWIDTH 540 0
DWIDTH 9 0
BBX 9 16 0 0
BITMAP
2200
3600
1C00
0000
C180
C180
C180
C180
C180
C180
C180
C180
C180
E380
7F00
3E00
ENDCHAR
STARTCHAR char117
ENCODING 365
SWIDTH 540 0
DWIDTH 9 0
BBX 8 13 0 0
BITMAP
42
66
3C
00
C3
C3
C3
C3
C3
C3
E7
7F
3B
ENDCHAR
STARTCHAR char85
ENCODING 366
SWIDTH 540 0
DWIDTH 9 0
BBX 9 16 0 0
BITMAP
1800
2400
1800
0000
C180
C180
C180
C180
C180
C180
C180
C180
C180
E380
7F00
3E00
ENDCHAR
STARTCHAR char117
ENCODING 367
SWIDTH 540 0
DWIDTH 9 0
BBX 8 13 0 0
BITMAP
18
24
18
00
C3
C3
C3
C3
C3
C3
E7
7F
3B
ENDCHAR
STARTCHAR char85
ENCODING 368
SWIDTH 540 0
DWIDTH 9 0
BBX 9 16 0 0
BITMAP
1980
3300
6600
0000
C180
C180
C180
C180
C180
C180
C180
C180
C180
E380
7F00
3E00
ENDCHAR
STARTCHAR char117
ENCODING 369
SWIDTH 540 0
DWIDTH 9 0
BBX 9 13 0 0
BITMAP
1980
3300
6600
0000
C300
C300
C300
C300
C300
C300
E700
7F00
3B00
ENDCHAR
STARTCHAR char90
ENCODING 377
SWIDTH 540 0
DWIDTH 9 0
BBX 9 16 0 0
BITMAP
0300
0600
0C00
0000
FF80
FF80
0180
0300
0600
0C00
1800
3000
6000
C000
FF80
FF80
ENDCHAR
STARTCHAR char122
ENCODING 378
SWIDTH 420 0
DWIDTH 7 0
BBX 7 13 0 0
BITMAP
0C
18
30
00
FE
FE
06
0C
18
30
60
FE
FE
ENDCHAR
STARTCHAR char90
ENCODING 379
SWIDTH 540 0
DWIDTH 9 0
BBX 9 15 0 0
BITMAP
0C00
0C00
0000
FF80
FF80
0180
0300
0600
0C00
1800
3000
6000
C000
FF80
FF80
ENDCHAR
STARTCHAR char122
ENCODING 380
SWIDTH 420 0
DWIDTH 7 0
BBX 7 12 0 0
BITMAP
18
18
00
FE
FE
06
0C
18
30
60
FE
FE
ENDCHAR
STARTCHAR char90
ENCODING 381
SWIDTH 540 0
DWIDTH 9 0
BBX 9 16 0 0
BITMAP
3300
1E00
0C00
0000
FF80
FF80
0180
0300
0600
0C00
1800
3000
6000
C000
FF80
FF80
ENDCHAR
STARTCHAR char122
ENCODING 382
SWIDTH 420 0
DWIDTH 7 0
BBX 7 13 0 0
BITMAP
66
3C
18
00
FE
FE
06
0C
18
30
60
FE
FE
ENDCHAR
ENDFONT
