STARTFONT 2.1
FONT -dislin-helve-bold-r-normal--19-14-100-100-p-120-iso8859-1
SIZE 14 100 100
FONTBOUNDINGBOX 16 24 -1 -5
STARTPROPERTIES 9
POINT_SIZE 14
PIXEL_SIZE 14
RESOLUTION_X 100
RESOLUTION_Y 100
FONT_ASCENT 11
FONT_DESCENT 3
AVERAGE_WIDTH 90
SPACING "P"
_XMBDFED_INFO "Edited with xmbdfed 4.5."
ENDPROPERTIES
CHARS 234
STARTCHAR char32
ENCODING 32
SWIDTH 360 0
DWIDTH 7 0
BBX 0 0 0 0
BITMAP
ENDCHAR
STARTCHAR char33
ENCODING 33
SWIDTH 102 0
DWIDTH 2 0
BBX 2 14 0 0
BITMAP
C0
C0
C0
C0
C0
C0
C0
C0
C0
C0
00
00
C0
C0
ENDCHAR
STARTCHAR char34
ENCODING 34
SWIDTH 411 0
DWIDTH 8 0
BBX 8 6 0 8
BITMAP
E7
E7
63
63
63
C6
ENDCHAR
STARTCHAR char35
ENCODING 35
SWIDTH 514 0
DWIDTH 10 0
BBX 10 10 0 2
BITMAP
1980
1980
1980
7FC0
3300
3300
FF80
6600
6600
6600
ENDCHAR
STARTCHAR char83
ENCODING 36
SWIDTH 514 0
DWIDTH 10 0
BBX 10 18 0 -2
BITMAP
1200
1200
3F00
7F80
F3C0
D2C0
D200
F200
7E00
1F80
13C0
12C0
D2C0
F3C0
7F80
3F00
1200
1200
ENDCHAR
STARTCHAR char37
ENCODING 37
SWIDTH 617 0
DWIDTH 12 0
BBX 12 13 0 0
BITMAP
7030
D870
8FE0
88C0
D980
7300
0600
0CE0
19B0
3110
6110
C1B0
80E0
ENDCHAR
STARTCHAR char38
ENCODING 38
SWIDTH 565 0
DWIDTH 11 0
BBX 11 14 0 0
BITMAP
1C00
3600
2200
2200
3600
1C00
3800
6C60
C6E0
C380
C380
C6E0
FC60
7800
ENDCHAR
STARTCHAR char39
ENCODING 39
SWIDTH 154 0
DWIDTH 3 0
BBX 3 5 0 9
BITMAP
E0
60
60
60
C0
ENDCHAR
STARTCHAR char40
ENCODING 40
SWIDTH 257 0
DWIDTH 5 0
BBX 5 16 0 -1
BITMAP
18
30
30
60
60
C0
C0
C0
C0
C0
C0
60
60
30
30
18
ENDCHAR
STARTCHAR char41
ENCODING 41
SWIDTH 257 0
DWIDTH 5 0
BBX 5 16 0 -1
BITMAP
C0
60
60
30
30
18
18
18
18
18
18
30
30
60
60
C0
ENDCHAR
STARTCHAR char42
ENCODING 42
SWIDTH 360 0
DWIDTH 7 0
BBX 7 7 0 4
BITMAP
10
92
D6
38
D6
92
10
ENDCHAR
STARTCHAR char43
ENCODING 43
SWIDTH 411 0
DWIDTH 8 0
BBX 8 8 0 3
BITMAP
18
18
18
FF
FF
18
18
18
ENDCHAR
STARTCHAR char44
ENCODING 44
SWIDTH 154 0
DWIDTH 3 0
BBX 3 6 0 -4
BITMAP
E0
E0
60
60
60
C0
ENDCHAR
STARTCHAR char45
ENCODING 45
SWIDTH 411 0
DWIDTH 8 0
BBX 8 2 0 6
BITMAP
FF
FF
ENDCHAR
STARTCHAR char46
ENCODING 46
SWIDTH 102 0
DWIDTH 2 0
BBX 2 2 0 0
BITMAP
C0
C0
ENDCHAR
STARTCHAR char47
ENCODING 47
SWIDTH 462 0
DWIDTH 9 0
BBX 9 16 0 -1
BITMAP
0180
0180
0300
0300
0600
0600
0C00
0C00
1800
1800
3000
3000
6000
6000
C000
C000
ENDCHAR
STARTCHAR char48
ENCODING 48
SWIDTH 411 0
DWIDTH 8 0
BBX 8 14 0 0
BITMAP
3C
7E
66
C3
C3
C3
C3
C3
C3
C3
C3
66
7E
3C
ENDCHAR
STARTCHAR char49
ENCODING 49
SWIDTH 257 0
DWIDTH 5 0
BBX 5 14 0 0
BITMAP
18
38
F8
F8
18
18
18
18
18
18
18
18
18
18
ENDCHAR
STARTCHAR char50
ENCODING 50
SWIDTH 411 0
DWIDTH 8 0
BBX 8 14 0 0
BITMAP
3C
7E
C3
C3
03
07
0E
1C
38
70
E0
C0
FF
FF
ENDCHAR
STARTCHAR char51
ENCODING 51
SWIDTH 411 0
DWIDTH 8 0
BBX 8 14 0 0
BITMAP
7C
FE
C3
03
03
03
1E
1E
03
03
03
C3
FE
7C
ENDCHAR
STARTCHAR char52
ENCODING 52
SWIDTH 462 0
DWIDTH 9 0
BBX 9 14 0 0
BITMAP
0600
0E00
0E00
1E00
3600
3600
6600
C600
C600
FF80
FF80
0600
0600
0600
ENDCHAR
STARTCHAR char53
ENCODING 53
SWIDTH 411 0
DWIDTH 8 0
BBX 8 14 0 0
BITMAP
3F
7F
60
C0
C0
FC
FE
07
03
03
03
C7
FE
7C
ENDCHAR
STARTCHAR char54
ENCODING 54
SWIDTH 411 0
DWIDTH 8 0
BBX 8 14 0 0
BITMAP
3C
7E
E3
C0
C0
DC
FE
E7
C3
C3
C3
E7
7E
3C
ENDCHAR
STARTCHAR char55
ENCODING 55
SWIDTH 411 0
DWIDTH 8 0
BBX 8 14 0 0
BITMAP
FF
FF
03
06
0C
0C
18
18
18
30
30
30
30
30
ENDCHAR
STARTCHAR char56
ENCODING 56
SWIDTH 411 0
DWIDTH 8 0
BBX 8 14 0 0
BITMAP
7E
FF
C3
C3
C3
E7
7E
7E
E7
C3
C3
C3
FF
7E
ENDCHAR
STARTCHAR char57
ENCODING 57
SWIDTH 411 0
DWIDTH 8 0
BBX 8 14 0 0
BITMAP
3C
7E
E7
C3
C3
C3
E7
7F
3B
03
03
C7
7E
3C
ENDCHAR
STARTCHAR char58
ENCODING 58
SWIDTH 102 0
DWIDTH 2 0
BBX 2 7 0 3
BITMAP
C0
C0
00
00
00
C0
C0
ENDCHAR
STARTCHAR char59
ENCODING 59
SWIDTH 154 0
DWIDTH 3 0
BBX 3 11 0 -4
BITMAP
60
60
00
00
00
E0
E0
60
60
60
C0
ENDCHAR
STARTCHAR char60
ENCODING 60
SWIDTH 462 0
DWIDTH 9 0
BBX 9 8 0 3
BITMAP
0380
0F00
3C00
F000
F000
3C00
0F00
0380
ENDCHAR
STARTCHAR char61
ENCODING 61
SWIDTH 462 0
DWIDTH 9 0
BBX 9 6 0 4
BITMAP
FF80
FF80
0000
0000
FF80
FF80
ENDCHAR
STARTCHAR char62
ENCODING 62
SWIDTH 462 0
DWIDTH 9 0
BBX 9 8 0 3
BITMAP
E000
7800
1E00
0780
0780
1E00
7800
E000
ENDCHAR
STARTCHAR char63
ENCODING 63
SWIDTH 411 0
DWIDTH 8 0
BBX 8 14 0 0
BITMAP
7E
FF
C3
C3
03
06
0C
18
18
18
00
00
18
18
ENDCHAR
STARTCHAR char64
ENCODING 64
SWIDTH 565 0
DWIDTH 11 0
BBX 11 13 0 0
BITMAP
1F00
3F80
60C0
C060
8D60
9360
9360
93C0
8C00
C060
60C0
3F80
1F80
ENDCHAR
STARTCHAR char101
ENCODING 65
SWIDTH 565 0
DWIDTH 11 0
BBX 10 14 0 0
BITMAP
0C00
0C00
1E00
1E00
1E00
3300
3300
3300
6180
7F80
7F80
C0C0
C0C0
C0C0
ENDCHAR
STARTCHAR char102
ENCODING 66
SWIDTH 462 0
DWIDTH 9 0
BBX 9 14 0 0
BITMAP
FE00
FF00
C180
C180
C180
C300
FE00
FE00
C300
C180
C180
C180
FF00
FE00
ENDCHAR
STARTCHAR char79
ENCODING 67
SWIDTH 514 0
DWIDTH 10 0
BBX 10 14 0 0
BITMAP
1F00
3F80
70C0
E000
C000
C000
C000
C000
C000
C000
E000
70C0
3F80
1F00
ENDCHAR
STARTCHAR char104
ENCODING 68
SWIDTH 514 0
DWIDTH 10 0
BBX 10 14 0 0
BITMAP
FC00
FF00
C380
C180
C0C0
C0C0
C0C0
C0C0
C0C0
C0C0
C180
C380
FF00
FC00
ENDCHAR
STARTCHAR char105
ENCODING 69
SWIDTH 462 0
DWIDTH 9 0
BBX 9 14 0 0
BITMAP
FF80
FF80
C000
C000
C000
C000
FF00
FF00
C000
C000
C000
C000
FF80
FF80
ENDCHAR
STARTCHAR char106
ENCODING 70
SWIDTH 411 0
DWIDTH 8 0
BBX 8 14 0 0
BITMAP
FF
FF
C0
C0
C0
C0
FE
FE
C0
C0
C0
C0
C0
C0
ENDCHAR
STARTCHAR char79
ENCODING 71
SWIDTH 514 0
DWIDTH 10 0
BBX 10 14 0 0
BITMAP
1F00
3F80
70C0
E000
C000
C000
C000
C7C0
C7C0
C0C0
E0C0
70C0
3F80
1F00
ENDCHAR
STARTCHAR char108
ENCODING 72
SWIDTH 514 0
DWIDTH 10 0
BBX 10 14 0 0
BITMAP
C0C0
C0C0
C0C0
C0C0
C0C0
C0C0
FFC0
FFC0
C0C0
C0C0
C0C0
C0C0
C0C0
C0C0
ENDCHAR
STARTCHAR char109
ENCODING 73
SWIDTH 102 0
DWIDTH 2 0
BBX 2 14 0 0
BITMAP
C0
C0
C0
C0
C0
C0
C0
C0
C0
C0
C0
C0
C0
C0
ENDCHAR
STARTCHAR char74
ENCODING 74
SWIDTH 308 0
DWIDTH 6 0
BBX 6 14 0 0
BITMAP
0C
0C
0C
0C
0C
0C
0C
0C
0C
0C
CC
CC
FC
78
ENDCHAR
STARTCHAR char75
ENCODING 75
SWIDTH 514 0
DWIDTH 10 0
BBX 10 14 0 0
BITMAP
C0C0
C180
C300
C600
CC00
D800
F000
F800
DC00
CE00
C700
C380
C1C0
C0C0
ENDCHAR
STARTCHAR char76
ENCODING 76
SWIDTH 411 0
DWIDTH 8 0
BBX 8 14 0 0
BITMAP
C0
C0
C0
C0
C0
C0
C0
C0
C0
C0
C0
C0
FF
FF
ENDCHAR
STARTCHAR char113
ENCODING 77
SWIDTH 617 0
DWIDTH 12 0
BBX 12 14 0 0
BITMAP
C030
E070
E070
F0F0
F0F0
D9B0
D9B0
D9B0
CF30
CF30
CF30
C630
C630
C630
ENDCHAR
STARTCHAR char78
ENCODING 78
SWIDTH 514 0
DWIDTH 10 0
BBX 10 14 0 0
BITMAP
C0C0
E0C0
F0C0
F0C0
D8C0
D8C0
CCC0
CCC0
C6C0
C6C0
C3C0
C3C0
C1C0
C0C0
ENDCHAR
STARTCHAR char79
ENCODING 79
SWIDTH 514 0
DWIDTH 10 0
BBX 10 14 0 0
BITMAP
1E00
3F00
6180
C0C0
C0C0
C0C0
C0C0
C0C0
C0C0
C0C0
C0C0
6180
3F00
1E00
ENDCHAR
STARTCHAR char80
ENCODING 80
SWIDTH 462 0
DWIDTH 9 0
BBX 9 14 0 0
BITMAP
FE00
FF00
C180
C180
C180
C180
FF00
FE00
C000
C000
C000
C000
C000
C000
ENDCHAR
STARTCHAR char79
ENCODING 81
SWIDTH 514 0
DWIDTH 10 0
BBX 10 16 0 -2
BITMAP
1E00
3F00
6180
C0C0
C0C0
C0C0
C0C0
C0C0
C0C0
C0C0
C0C0
6180
3F00
1E00
0700
0380
ENDCHAR
STARTCHAR char80
ENCODING 82
SWIDTH 514 0
DWIDTH 10 0
BBX 10 14 0 0
BITMAP
FE00
FF00
C180
C180
C180
C180
FF00
FE00
C300
C180
C180
C180
C180
C0C0
ENDCHAR
STARTCHAR char83
ENCODING 83
SWIDTH 514 0
DWIDTH 10 0
BBX 10 14 0 0
BITMAP
3F00
7F80
E1C0
C0C0
C000
E000
7E00
1F80
01C0
00C0
C0C0
E1C0
7F80
3F00
ENDCHAR
STARTCHAR char84
ENCODING 84
SWIDTH 514 0
DWIDTH 10 0
BBX 10 14 0 0
BITMAP
FFC0
FFC0
0C00
0C00
0C00
0C00
0C00
0C00
0C00
0C00
0C00
0C00
0C00
0C00
ENDCHAR
STARTCHAR char85
ENCODING 85
SWIDTH 462 0
DWIDTH 9 0
BBX 9 14 0 0
BITMAP
C180
C180
C180
C180
C180
C180
C180
C180
C180
C180
C180
E380
7F00
3E00
ENDCHAR
STARTCHAR char86
ENCODING 86
SWIDTH 514 0
DWIDTH 10 0
BBX 10 14 0 0
BITMAP
C0C0
C0C0
C0C0
6180
6180
6180
3300
3300
3300
1E00
1E00
1E00
0C00
0C00
ENDCHAR
STARTCHAR char86
ENCODING 87
SWIDTH 771 0
DWIDTH 15 0
BBX 15 14 0 0
BITMAP
C386
C386
C386
C386
66CC
66CC
66CC
66CC
3C78
3C78
3C78
1830
1830
1830
ENDCHAR
STARTCHAR char88
ENCODING 88
SWIDTH 462 0
DWIDTH 9 0
BBX 9 14 0 0
BITMAP
C180
C180
6300
6300
3600
1C00
1C00
1C00
1C00
3600
6300
6300
C180
C180
ENDCHAR
STARTCHAR char89
ENCODING 89
SWIDTH 514 0
DWIDTH 10 0
BBX 10 14 0 0
BITMAP
C0C0
C0C0
6180
6180
3300
3300
1E00
1E00
0C00
0C00
0C00
0C00
0C00
0C00
ENDCHAR
STARTCHAR char90
ENCODING 90
SWIDTH 411 0
DWIDTH 8 0
BBX 8 14 0 0
BITMAP
FF
FF
03
06
06
0C
18
18
30
60
60
C0
FF
FF
ENDCHAR
STARTCHAR char91
ENCODING 91
SWIDTH 257 0
DWIDTH 5 0
BBX 5 18 0 -2
BITMAP
F8
F8
C0
C0
C0
C0
C0
C0
C0
C0
C0
C0
C0
C0
C0
C0
F8
F8
ENDCHAR
STARTCHAR char92
ENCODING 92
SWIDTH 462 0
DWIDTH 9 0
BBX 9 16 0 -1
BITMAP
C000
C000
6000
6000
3000
3000
1800
1800
0C00
0C00
0600
0600
0300
0300
0180
0180
ENDCHAR
STARTCHAR char93
ENCODING 93
SWIDTH 257 0
DWIDTH 5 0
BBX 5 18 0 -2
BITMAP
F8
F8
18
18
18
18
18
18
18
18
18
18
18
18
18
18
F8
F8
ENDCHAR
STARTCHAR char94
ENCODING 94
SWIDTH 514 0
DWIDTH 10 0
BBX 10 5 0 7
BITMAP
0C00
1E00
3F00
7380
E1C0
ENDCHAR
STARTCHAR char95
ENCODING 95
SWIDTH 565 0
DWIDTH 11 0
BBX 11 2 0 -2
BITMAP
FFE0
FFE0
ENDCHAR
STARTCHAR char96
ENCODING 96
SWIDTH 154 0
DWIDTH 3 0
BBX 3 6 0 8
BITMAP
60
C0
C0
C0
E0
E0
ENDCHAR
STARTCHAR char97
ENCODING 97
SWIDTH 462 0
DWIDTH 9 0
BBX 9 10 0 0
BITMAP
3C00
FE00
C300
0300
3F00
FB00
C300
C300
E700
7D80
ENDCHAR
STARTCHAR char98
ENCODING 98
SWIDTH 462 0
DWIDTH 9 0
BBX 9 14 0 0
BITMAP
C000
C000
C000
C000
DE00
FF00
E380
C180
C180
C180
C180
E380
FF00
DE00
ENDCHAR
STARTCHAR char100
ENCODING 99
SWIDTH 411 0
DWIDTH 8 0
BBX 8 10 0 0
BITMAP
3C
7E
E3
C0
C0
C0
C0
E3
7E
3C
ENDCHAR
STARTCHAR char100
ENCODING 100
SWIDTH 462 0
DWIDTH 9 0
BBX 9 14 0 0
BITMAP
0180
0180
0180
0180
3D80
7F80
E380
C180
C180
C180
C180
E380
7F80
3D80
ENDCHAR
STARTCHAR char100
ENCODING 101
SWIDTH 462 0
DWIDTH 9 0
BBX 9 10 0 0
BITMAP
3E00
7F00
E380
C180
FF80
FF80
C000
E380
7F00
3E00
ENDCHAR
STARTCHAR char102
ENCODING 102
SWIDTH 360 0
DWIDTH 7 0
BBX 7 14 0 0
BITMAP
1E
3E
30
30
30
FE
FE
30
30
30
30
30
30
30
ENDCHAR
STARTCHAR char100
ENCODING 103
SWIDTH 462 0
DWIDTH 9 0
BBX 9 15 0 -5
BITMAP
3D80
7F80
E380
C180
C180
C180
C180
E380
7F80
3D80
0180
0180
E380
7F00
3E00
ENDCHAR
STARTCHAR char104
ENCODING 104
SWIDTH 462 0
DWIDTH 9 0
BBX 9 14 0 0
BITMAP
C000
C000
C000
C000
CE00
DF00
F380
C180
C180
C180
C180
C180
C180
C180
ENDCHAR
STARTCHAR char105
ENCODING 105
SWIDTH 102 0
DWIDTH 2 0
BBX 2 14 0 0
BITMAP
C0
C0
00
00
C0
C0
C0
C0
C0
C0
C0
C0
C0
C0
ENDCHAR
STARTCHAR char106
ENCODING 106
SWIDTH 308 0
DWIDTH 6 0
BBX 6 18 0 -4
BITMAP
0C
0C
00
00
0C
0C
0C
0C
0C
0C
0C
0C
0C
0C
0C
CC
FC
78
ENDCHAR
STARTCHAR char107
ENCODING 107
SWIDTH 462 0
DWIDTH 9 0
BBX 9 14 0 0
BITMAP
C000
C000
C000
C000
C180
C300
C600
CC00
D800
F800
EC00
C600
C300
C180
ENDCHAR
STARTCHAR char108
ENCODING 108
SWIDTH 102 0
DWIDTH 2 0
BBX 2 14 0 0
BITMAP
C0
C0
C0
C0
C0
C0
C0
C0
C0
C0
C0
C0
C0
C0
ENDCHAR
STARTCHAR char104
ENCODING 109
SWIDTH 720 0
DWIDTH 14 0
BBX 14 10 0 0
BITMAP
DC70
FEF8
E79C
C30C
C30C
C30C
C30C
C30C
C30C
C30C
ENDCHAR
STARTCHAR char104
ENCODING 110
SWIDTH 462 0
DWIDTH 9 0
BBX 9 10 0 0
BITMAP
CE00
DF00
F380
C180
C180
C180
C180
C180
C180
C180
ENDCHAR
STARTCHAR char100
ENCODING 111
SWIDTH 462 0
DWIDTH 9 0
BBX 9 10 0 0
BITMAP
3E00
7F00
E380
C180
C180
C180
C180
E380
7F00
3E00
ENDCHAR
STARTCHAR char98
ENCODING 112
SWIDTH 462 0
DWIDTH 9 0
BBX 9 15 0 -5
BITMAP
DE00
FF00
E380
C180
C180
C180
C180
E380
FF00
DE00
C000
C000
C000
C000
C000
ENDCHAR
STARTCHAR char100
ENCODING 113
SWIDTH 462 0
DWIDTH 9 0
BBX 9 15 0 -5
BITMAP
3D80
7F80
E380
C180
C180
C180
C180
E380
7F80
3D80
0180
0180
0180
0180
0180
ENDCHAR
STARTCHAR char114
ENCODING 114
SWIDTH 308 0
DWIDTH 6 0
BBX 6 10 0 0
BITMAP
CC
DC
F0
E0
C0
C0
C0
C0
C0
C0
ENDCHAR
STARTCHAR char115
ENCODING 115
SWIDTH 411 0
DWIDTH 8 0
BBX 8 10 0 0
BITMAP
3C
7E
C3
E0
78
1E
07
C3
7E
3C
ENDCHAR
STARTCHAR char116
ENCODING 116
SWIDTH 360 0
DWIDTH 7 0
BBX 7 14 0 0
BITMAP
30
30
30
30
FE
FE
30
30
30
30
30
30
3E
1E
ENDCHAR
STARTCHAR char117
ENCODING 117
SWIDTH 462 0
DWIDTH 9 0
BBX 9 10 0 0
BITMAP
C180
C180
C180
C180
C180
C180
C180
E380
7F80
3D80
ENDCHAR
STARTCHAR char118
ENCODING 118
SWIDTH 514 0
DWIDTH 10 0
BBX 9 10 0 0
BITMAP
C180
C180
6300
6300
3600
3600
1C00
1C00
0800
0800
ENDCHAR
STARTCHAR char118
ENCODING 119
SWIDTH 617 0
DWIDTH 12 0
BBX 12 10 0 0
BITMAP
C630
C630
C630
C630
6F60
6F60
6F60
3180
3180
3180
ENDCHAR
STARTCHAR char120
ENCODING 120
SWIDTH 411 0
DWIDTH 8 0
BBX 8 10 0 0
BITMAP
C3
E7
66
3C
18
18
3C
66
E7
C3
ENDCHAR
STARTCHAR char118
ENCODING 121
SWIDTH 462 0
DWIDTH 9 0
BBX 9 14 0 -4
BITMAP
8080
C180
C180
6300
6300
3600
3600
1C00
1C00
1800
1800
3000
3000
6000
ENDCHAR
STARTCHAR char122
ENCODING 122
SWIDTH 360 0
DWIDTH 7 0
BBX 7 10 0 0
BITMAP
FE
FE
06
0C
18
30
60
C0
FE
FE
ENDCHAR
STARTCHAR char123
ENCODING 123
SWIDTH 257 0
DWIDTH 5 0
BBX 5 19 0 -3
BITMAP
18
30
30
60
60
60
30
30
60
C0
60
30
30
60
60
60
30
30
18
ENDCHAR
STARTCHAR char124
ENCODING 124
SWIDTH 102 0
DWIDTH 2 0
BBX 2 16 0 -1
BITMAP
C0
C0
C0
C0
C0
C0
C0
C0
C0
C0
C0
C0
C0
C0
C0
C0
ENDCHAR
STARTCHAR char125
ENCODING 125
SWIDTH 257 0
DWIDTH 5 0
BBX 5 19 0 -3
BITMAP
C0
60
60
30
30
30
60
60
30
18
30
60
60
30
30
30
60
60
C0
ENDCHAR
STARTCHAR char126
ENCODING 126
SWIDTH 668 0
DWIDTH 13 0
BBX 13 5 0 3
BITMAP
3818
7C18
C718
C1F0
C0E0
ENDCHAR
STARTCHAR char161
ENCODING 161
SWIDTH 102 0
DWIDTH 2 0
BBX 2 14 0 0
BITMAP
C0
C0
00
00
C0
C0
C0
C0
C0
C0
C0
C0
C0
C0
ENDCHAR
STARTCHAR char79
ENCODING 164
SWIDTH 565 0
DWIDTH 11 0
BBX 11 14 0 0
BITMAP
07C0
0FE0
1C00
3800
3000
FF00
3000
3000
FF00
3000
3800
1C00
0FE0
07C0
ENDCHAR
STARTCHAR char100
ENCODING 169
SWIDTH 617 0
DWIDTH 12 0
BBX 12 14 0 0
BITMAP
1F80
2040
4F20
9F90
B8D0
B010
B010
B010
B010
B8D0
9F90
4F20
2040
1F80
ENDCHAR
STARTCHAR char191
ENCODING 191
SWIDTH 411 0
DWIDTH 8 0
BBX 8 14 0 0
BITMAP
18
18
00
00
18
18
18
30
60
C0
C3
C3
FF
7E
ENDCHAR
STARTCHAR char101
ENCODING 192
SWIDTH 565 0
DWIDTH 11 0
BBX 10 18 0 0
BITMAP
3000
1800
0C00
0000
0C00
0C00
1E00
1E00
1E00
3300
3300
3300
6180
7F80
7F80
C0C0
C0C0
C0C0
ENDCHAR
STARTCHAR char101
ENCODING 193
SWIDTH 565 0
DWIDTH 11 0
BBX 10 18 0 0
BITMAP
0300
0600
0C00
0000
0C00
0C00
1E00
1E00
1E00
3300
3300
3300
6180
7F80
7F80
C0C0
C0C0
C0C0
ENDCHAR
STARTCHAR char101
ENCODING 194
SWIDTH 565 0
DWIDTH 11 0
BBX 10 18 0 0
BITMAP
0C00
1E00
3300
0000
0C00
0C00
1E00
1E00
1E00
3300
3300
3300
6180
7F80
7F80
C0C0
C0C0
C0C0
ENDCHAR
STARTCHAR char101
ENCODING 195
SWIDTH 565 0
DWIDTH 11 0
BBX 10 17 0 0
BITMAP
1D80
3700
0000
0C00
0C00
1E00
1E00
1E00
3300
3300
3300
6180
7F80
7F80
C0C0
C0C0
C0C0
ENDCHAR
STARTCHAR char101
ENCODING 196
SWIDTH 565 0
DWIDTH 11 0
BBX 10 17 0 0
BITMAP
3300
3300
0000
0C00
0C00
1E00
1E00
1E00
3300
3300
3300
6180
7F80
7F80
C0C0
C0C0
C0C0
ENDCHAR
STARTCHAR char101
ENCODING 197
SWIDTH 565 0
DWIDTH 11 0
BBX 10 19 0 0
BITMAP
0C00
1200
1200
0C00
0000
0C00
0C00
1E00
1E00
1E00
3300
3300
3300
6180
7F80
7F80
C0C0
C0C0
C0C0
ENDCHAR
STARTCHAR char101
ENCODING 198
SWIDTH 617 0
DWIDTH 12 0
BBX 12 14 0 0
BITMAP
0FF0
0FF0
1E00
1E00
1E00
3600
37E0
37E0
7E00
7E00
6600
C600
C7F0
C7F0
ENDCHAR
STARTCHAR char79
ENCODING 199
SWIDTH 514 0
DWIDTH 10 0
BBX 10 18 0 -4
BITMAP
1F00
3F80
70C0
E000
C000
C000
C000
C000
C000
C000
E000
70C0
3F80
1F00
0600
0300
3300
1E00
ENDCHAR
STARTCHAR char105
ENCODING 200
SWIDTH 462 0
DWIDTH 9 0
BBX 9 18 0 0
BITMAP
3000
1800
0C00
0000
FF80
FF80
C000
C000
C000
C000
FF00
FF00
C000
C000
C000
C000
FF80
FF80
ENDCHAR
STARTCHAR char105
ENCODING 201
SWIDTH 462 0
DWIDTH 9 0
BBX 9 18 0 0
BITMAP
0300
0600
0C00
0000
FF80
FF80
C000
C000
C000
C000
FF00
FF00
C000
C000
C000
C000
FF80
FF80
ENDCHAR
STARTCHAR char105
ENCODING 202
SWIDTH 462 0
DWIDTH 9 0
BBX 9 18 0 0
BITMAP
0C00
1E00
3300
0000
FF80
FF80
C000
C000
C000
C000
FF00
FF00
C000
C000
C000
C000
FF80
FF80
ENDCHAR
STARTCHAR char105
ENCODING 203
SWIDTH 462 0
DWIDTH 9 0
BBX 9 17 0 0
BITMAP
3300
3300
0000
FF80
FF80
C000
C000
C000
C000
FF00
FF00
C000
C000
C000
C000
FF80
FF80
ENDCHAR
STARTCHAR char109
ENCODING 204
SWIDTH 154 0
DWIDTH 3 0
BBX 4 18 -1 0
BITMAP
C0
60
30
00
30
30
30
30
30
30
30
30
30
30
30
30
30
30
ENDCHAR
STARTCHAR char109
ENCODING 205
SWIDTH 205 0
DWIDTH 4 0
BBX 4 18 0 0
BITMAP
30
60
C0
00
C0
C0
C0
C0
C0
C0
C0
C0
C0
C0
C0
C0
C0
C0
ENDCHAR
STARTCHAR char109
ENCODING 206
SWIDTH 257 0
DWIDTH 5 0
BBX 6 18 -1 0
BITMAP
30
78
CC
00
30
30
30
30
30
30
30
30
30
30
30
30
30
30
ENDCHAR
STARTCHAR char109
ENCODING 207
SWIDTH 257 0
DWIDTH 5 0
BBX 6 17 0 0
BITMAP
CC
CC
00
30
30
30
30
30
30
30
30
30
30
30
30
30
30
ENDCHAR
STARTCHAR char104
ENCODING 208
SWIDTH 565 0
DWIDTH 11 0
BBX 11 14 0 0
BITMAP
7E00
7F80
61C0
60C0
6060
6060
FC60
FC60
6060
6060
60C0
61C0
7F80
7E00
ENDCHAR
STARTCHAR char78
ENCODING 209
SWIDTH 514 0
DWIDTH 10 0
BBX 10 17 0 0
BITMAP
3B00
6E00
0000
C0C0
E0C0
F0C0
F0C0
D8C0
D8C0
CCC0
CCC0
C6C0
C6C0
C3C0
C3C0
C1C0
C0C0
ENDCHAR
STARTCHAR char79
ENCODING 210
SWIDTH 514 0
DWIDTH 10 0
BBX 10 18 0 0
BITMAP
3000
1800
0C00
0000
1E00
3F00
6180
C0C0
C0C0
C0C0
C0C0
C0C0
C0C0
C0C0
C0C0
6180
3F00
1E00
ENDCHAR
STARTCHAR char79
ENCODING 211
SWIDTH 514 0
DWIDTH 10 0
BBX 10 18 0 0
BITMAP
0300
0600
0C00
0000
1E00
3F00
6180
C0C0
C0C0
C0C0
C0C0
C0C0
C0C0
C0C0
C0C0
6180
3F00
1E00
ENDCHAR
STARTCHAR char79
ENCODING 212
SWIDTH 514 0
DWIDTH 10 0
BBX 10 18 0 0
BITMAP
0C00
1E00
3300
0000
1E00
3F00
6180
C0C0
C0C0
C0C0
C0C0
C0C0
C0C0
C0C0
C0C0
6180
3F00
1E00
ENDCHAR
STARTCHAR char79
ENCODING 213
SWIDTH 514 0
DWIDTH 10 0
BBX 10 17 0 0
BITMAP
3B00
6E00
0000
1E00
3F00
6180
C0C0
C0C0
C0C0
C0C0
C0C0
C0C0
C0C0
C0C0
6180
3F00
1E00
ENDCHAR
STARTCHAR char79
ENCODING 214
SWIDTH 514 0
DWIDTH 10 0
BBX 10 17 0 0
BITMAP
3300
3300
0000
1E00
3F00
6180
C0C0
C0C0
C0C0
C0C0
C0C0
C0C0
C0C0
C0C0
6180
3F00
1E00
ENDCHAR
STARTCHAR char79
ENCODING 216
SWIDTH 514 0
DWIDTH 10 0
BBX 10 16 0 -1
BITMAP
0040
1E80
3F80
6180
C2C0
C2C0
C4C0
C4C0
C8C0
C8C0
D0C0
D0C0
6180
7F00
5E00
8000
ENDCHAR
STARTCHAR char85
ENCODING 217
SWIDTH 462 0
DWIDTH 9 0
BBX 9 18 0 0
BITMAP
3000
1800
0C00
0000
C180
C180
C180
C180
C180
C180
C180
C180
C180
C180
C180
E380
7F00
3E00
ENDCHAR
STARTCHAR char85
ENCODING 218
SWIDTH 462 0
DWIDTH 9 0
BBX 9 18 0 0
BITMAP
0600
0C00
1800
0000
C180
C180
C180
C180
C180
C180
C180
C180
C180
C180
C180
E380
7F00
3E00
ENDCHAR
STARTCHAR char85
ENCODING 219
SWIDTH 462 0
DWIDTH 9 0
BBX 9 18 0 0
BITMAP
0C00
1E00
3300
0000
C180
C180
C180
C180
C180
C180
C180
C180
C180
C180
C180
E380
7F00
3E00
ENDCHAR
STARTCHAR char85
ENCODING 220
SWIDTH 462 0
DWIDTH 9 0
BBX 9 17 0 0
BITMAP
6300
6300
0000
C180
C180
C180
C180
C180
C180
C180
C180
C180
C180
C180
E380
7F00
3E00
ENDCHAR
STARTCHAR char89
ENCODING 221
SWIDTH 514 0
DWIDTH 10 0
BBX 10 18 0 0
BITMAP
0300
0600
0C00
0000
C0C0
C0C0
6180
6180
3300
3300
1E00
1E00
0C00
0C00
0C00
0C00
0C00
0C00
ENDCHAR
STARTCHAR char80
ENCODING 222
SWIDTH 462 0
DWIDTH 9 0
BBX 9 17 0 -3
BITMAP
C000
C000
C000
FE00
FF00
C180
C180
C180
C180
FF00
FE00
C000
C000
C000
C000
C000
C000
ENDCHAR
STARTCHAR char223
ENCODING 223
SWIDTH 411 0
DWIDTH 8 0
BBX 8 14 0 0
BITMAP
3C
7E
C6
C6
C6
C6
DC
C6
C3
C3
C3
C3
DE
DC
ENDCHAR
STARTCHAR char97
ENCODING 224
SWIDTH 462 0
DWIDTH 9 0
BBX 9 14 0 0
BITMAP
6000
3000
1800
0000
3C00
FE00
C300
0300
3F00
FB00
C300
C300
E700
7D80
ENDCHAR
STARTCHAR char97
ENCODING 225
SWIDTH 462 0
DWIDTH 9 0
BBX 9 14 0 0
BITMAP
0600
0C00
1800
0000
3C00
FE00
C300
0300
3F00
FB00
C300
C300
E700
7D80
ENDCHAR
STARTCHAR char97
ENCODING 226
SWIDTH 462 0
DWIDTH 9 0
BBX 9 14 0 0
BITMAP
1800
3C00
6600
0000
3C00
FE00
C300
0300
3F00
FB00
C300
C300
E700
7D80
ENDCHAR
STARTCHAR char97
ENCODING 227
SWIDTH 462 0
DWIDTH 9 0
BBX 9 13 0 0
BITMAP
3B00
6E00
0000
3C00
FE00
C300
0300
3F00
FB00
C300
C300
E700
7D80
ENDCHAR
STARTCHAR char97
ENCODING 228
SWIDTH 462 0
DWIDTH 9 0
BBX 9 13 0 0
BITMAP
6600
6600
0000
3C00
FE00
C300
0300
3F00
FB00
C300
C300
E700
7D80
ENDCHAR
STARTCHAR char97
ENCODING 229
SWIDTH 462 0
DWIDTH 9 0
BBX 9 14 0 0
BITMAP
1800
2400
1800
0000
3C00
FE00
C300
0300
3F00
FB00
C300
C300
E700
7D80
ENDCHAR
STARTCHAR char97
ENCODING 230
SWIDTH 720 0
DWIDTH 14 0
BBX 14 10 0 0
BITMAP
3CF0
FFF8
C38C
070C
3FFC
FBFC
C300
C30C
E7F8
7DF0
ENDCHAR
STARTCHAR char99
ENCODING 231
SWIDTH 411 0
DWIDTH 8 0
BBX 8 12 0 -3
BITMAP
3C
7E
E3
C0
C0
C0
E3
7E
3C
0C
66
3C
ENDCHAR
STARTCHAR char100
ENCODING 232
SWIDTH 462 0
DWIDTH 9 0
BBX 9 14 0 0
BITMAP
3000
1800
0C00
0000
3E00
7F00
E380
C180
FF80
FF80
C000
E380
7F00
3E00
ENDCHAR
STARTCHAR char100
ENCODING 233
SWIDTH 462 0
DWIDTH 9 0
BBX 9 14 0 0
BITMAP
0600
0C00
1800
0000
3E00
7F00
E380
C180
FF80
FF80
C000
E380
7F00
3E00
ENDCHAR
STARTCHAR char100
ENCODING 234
SWIDTH 462 0
DWIDTH 9 0
BBX 9 14 0 0
BITMAP
0C00
1E00
3300
0000
3E00
7F00
E380
C180
FF80
FF80
C000
E380
7F00
3E00
ENDCHAR
STARTCHAR char100
ENCODING 235
SWIDTH 462 0
DWIDTH 9 0
BBX 9 13 0 0
BITMAP
6300
6300
0000
3E00
7F00
E380
C180
FF80
FF80
C000
E380
7F00
3E00
ENDCHAR
STARTCHAR char105
ENCODING 236
SWIDTH 154 0
DWIDTH 3 0
BBX 4 15 -1 0
BITMAP
C0
60
30
00
00
30
30
30
30
30
30
30
30
30
30
ENDCHAR
STARTCHAR char105
ENCODING 237
SWIDTH 257 0
DWIDTH 5 0
BBX 4 15 1 0
BITMAP
30
60
C0
00
00
C0
C0
C0
C0
C0
C0
C0
C0
C0
C0
ENDCHAR
STARTCHAR char105
ENCODING 238
SWIDTH 257 0
DWIDTH 5 0
BBX 6 15 -1 0
BITMAP
30
78
CC
00
00
30
30
30
30
30
30
30
30
30
30
ENDCHAR
STARTCHAR char105
ENCODING 239
SWIDTH 308 0
DWIDTH 6 0
BBX 6 14 0 0
BITMAP
CC
CC
00
00
30
30
30
30
30
30
30
30
30
30
ENDCHAR
STARTCHAR char100
ENCODING 240
SWIDTH 514 0
DWIDTH 10 0
BBX 10 14 0 0
BITMAP
0180
0180
0FC0
0180
3D80
7F80
E380
C180
C180
C180
C180
E380
7F80
3D80
ENDCHAR
STARTCHAR char104
ENCODING 241
SWIDTH 462 0
DWIDTH 9 0
BBX 9 13 0 0
BITMAP
3B00
6E00
0000
CE00
DF00
F380
C180
C180
C180
C180
C180
C180
C180
ENDCHAR
STARTCHAR char100
ENCODING 242
SWIDTH 462 0
DWIDTH 9 0
BBX 9 14 0 0
BITMAP
3000
1800
0C00
0000
3E00
7F00
E380
C180
C180
C180
C180
E380
7F00
3E00
ENDCHAR
STARTCHAR char100
ENCODING 243
SWIDTH 462 0
DWIDTH 9 0
BBX 9 14 0 0
BITMAP
0600
0C00
1800
0000
3E00
7F00
E380
C180
C180
C180
C180
E380
7F00
3E00
ENDCHAR
STARTCHAR char100
ENCODING 244
SWIDTH 462 0
DWIDTH 9 0
BBX 9 14 0 0
BITMAP
0C00
1E00
3300
0000
3E00
7F00
E380
C180
C180
C180
C180
E380
7F00
3E00
ENDCHAR
STARTCHAR char100
ENCODING 245
SWIDTH 462 0
DWIDTH 9 0
BBX 9 13 0 0
BITMAP
3B00
6E00
0000
3E00
7F00
E380
C180
C180
C180
C180
E380
7F00
3E00
ENDCHAR
STARTCHAR char100
ENCODING 246
SWIDTH 462 0
DWIDTH 9 0
BBX 9 13 0 0
BITMAP
6300
6300
0000
3E00
7F00
E380
C180
C180
C180
C180
E380
7F00
3E00
ENDCHAR
STARTCHAR char100
ENCODING 248
SWIDTH 462 0
DWIDTH 9 0
BBX 9 11 0 -1
BITMAP
3E80
7F00
E380
C580
C580
C980
D180
F380
7F00
7E00
8000
ENDCHAR
STARTCHAR char117
ENCODING 249
SWIDTH 462 0
DWIDTH 9 0
BBX 9 14 0 0
BITMAP
3000
1800
0C00
0000
C180
C180
C180
C180
C180
C180
C180
E380
7F80
3D80
ENDCHAR
STARTCHAR char117
ENCODING 250
SWIDTH 462 0
DWIDTH 9 0
BBX 9 14 0 0
BITMAP
0600
0C00
1800
0000
C180
C180
C180
C180
C180
C180
C180
E380
7F80
3D80
ENDCHAR
STARTCHAR char117
ENCODING 251
SWIDTH 462 0
DWIDTH 9 0
BBX 9 14 0 0
BITMAP
0C00
1E00
3300
0000
C180
C180
C180
C180
C180
C180
C180
E380
7F80
3D80
ENDCHAR
STARTCHAR char117
ENCODING 252
SWIDTH 462 0
DWIDTH 9 0
BBX 9 13 0 0
BITMAP
6300
6300
0000
C180
C180
C180
C180
C180
C180
C180
E380
7F80
3D80
ENDCHAR
STARTCHAR char118
ENCODING 253
SWIDTH 462 0
DWIDTH 9 0
BBX 9 18 0 -4
BITMAP
0600
0C00
1800
0000
8080
C180
C180
6300
6300
3600
3600
1C00
1C00
1800
1800
3000
3000
6000
ENDCHAR
STARTCHAR char98
ENCODING 254
SWIDTH 462 0
DWIDTH 9 0
BBX 9 18 0 -5
BITMAP
C000
C000
C000
DE00
FF00
E380
C180
C180
C180
C180
E380
FF00
DE00
C000
C000
C000
C000
C000
ENDCHAR
STARTCHAR char118
ENCODING 255
SWIDTH 462 0
DWIDTH 9 0
BBX 9 17 0 -4
BITMAP
3300
3300
0000
8080
C180
C180
6300
6300
3600
3600
1C00
1C00
1800
1800
3000
3000
6000
ENDCHAR
STARTCHAR char101
ENCODING 258
SWIDTH 565 0
DWIDTH 11 0
BBX 10 18 0 0
BITMAP
2100
3300
1E00
0000
0C00
0C00
1E00
1E00
1E00
3300
3300
3300
6180
7F80
7F80
C0C0
C0C0
C0C0
ENDCHAR
STARTCHAR char97
ENCODING 259
SWIDTH 462 0
DWIDTH 9 0
BBX 9 14 0 0
BITMAP
4200
6600
3C00
0000
3C00
FE00
C300
0300
3F00
FB00
C300
C300
E700
7D80
ENDCHAR
STARTCHAR char101
ENCODING 260
SWIDTH 565 0
DWIDTH 11 0
BBX 10 18 0 -4
BITMAP
0C00
0C00
1E00
1E00
1E00
3300
3300
3300
6180
7F80
7F80
C0C0
C0C0
C0C0
0300
0300
0300
01C0
ENDCHAR
STARTCHAR char97
ENCODING 261
SWIDTH 462 0
DWIDTH 9 0
BBX 9 14 0 -4
BITMAP
3C00
FE00
C300
0300
3F00
FB00
C300
C300
E700
7D80
0600
0600
0600
0380
ENDCHAR
STARTCHAR char79
ENCODING 262
SWIDTH 514 0
DWIDTH 10 0
BBX 10 18 0 0
BITMAP
0300
0600
0C00
0000
1F00
3F80
70C0
E000
C000
C000
C000
C000
C000
C000
E000
70C0
3F80
1F00
ENDCHAR
STARTCHAR char100
ENCODING 263
SWIDTH 411 0
DWIDTH 8 0
BBX 8 14 0 0
BITMAP
06
0C
18
00
3C
7E
E3
C0
C0
C0
C0
E3
7E
3C
ENDCHAR
STARTCHAR char79
ENCODING 264
SWIDTH 514 0
DWIDTH 10 0
BBX 10 18 0 0
BITMAP
0C00
1E00
3300
0000
1F00
3F80
70C0
E000
C000
C000
C000
C000
C000
C000
E000
70C0
3F80
1F00
ENDCHAR
STARTCHAR char100
ENCODING 265
SWIDTH 411 0
DWIDTH 8 0
BBX 8 14 0 0
BITMAP
18
3C
66
00
3C
7E
E3
C0
C0
C0
C0
E3
7E
3C
ENDCHAR
STARTCHAR char79
ENCODING 266
SWIDTH 514 0
DWIDTH 10 0
BBX 10 17 0 0
BITMAP
0600
0600
0000
1F00
3F80
70C0
E000
C000
C000
C000
C000
C000
C000
E000
70C0
3F80
1F00
ENDCHAR
STARTCHAR char100
ENCODING 267
SWIDTH 411 0
DWIDTH 8 0
BBX 8 13 0 0
BITMAP
18
18
00
3C
7E
E3
C0
C0
C0
C0
E3
7E
3C
ENDCHAR
STARTCHAR char79
ENCODING 268
SWIDTH 514 0
DWIDTH 10 0
BBX 10 18 0 0
BITMAP
1980
0F00
0600
0000
1F00
3F80
70C0
E000
C000
C000
C000
C000
C000
C000
E000
70C0
3F80
1F00
ENDCHAR
STARTCHAR char100
ENCODING 269
SWIDTH 411 0
DWIDTH 8 0
BBX 8 14 0 0
BITMAP
66
3C
18
00
3C
7E
E3
C0
C0
C0
C0
E3
7E
3C
ENDCHAR
STARTCHAR char104
ENCODING 270
SWIDTH 514 0
DWIDTH 10 0
BBX 10 18 0 0
BITMAP
6600
3C00
1800
0000
FC00
FF00
C380
C180
C0C0
C0C0
C0C0
C0C0
C0C0
C0C0
C180
C380
FF00
FC00
ENDCHAR
STARTCHAR char100
ENCODING 271
SWIDTH 462 0
DWIDTH 9 0
BBX 9 17 0 0
BITMAP
6600
3C00
1800
0180
0180
0180
0180
3D80
7F80
E380
C180
C180
C180
C180
E380
7F80
3D80
ENDCHAR
STARTCHAR char104
ENCODING 272
SWIDTH 565 0
DWIDTH 11 0
BBX 11 14 0 0
BITMAP
7E00
7F80
61C0
60C0
6060
6060
FC60
FC60
6060
6060
60C0
61C0
7F80
7E00
ENDCHAR
STARTCHAR char100
ENCODING 273
SWIDTH 514 0
DWIDTH 10 0
BBX 10 14 0 0
BITMAP
0180
0180
0FC0
0180
3D80
7F80
E380
C180
C180
C180
C180
E380
7F80
3D80
ENDCHAR
STARTCHAR char105
ENCODING 280
SWIDTH 462 0
DWIDTH 9 0
BBX 9 18 0 -4
BITMAP
FF80
FF80
C000
C000
C000
C000
FF00
FF00
C000
C000
C000
C000
FF80
FF80
0600
0600
0600
0380
ENDCHAR
STARTCHAR char100
ENCODING 281
SWIDTH 462 0
DWIDTH 9 0
BBX 9 14 0 -4
BITMAP
3E00
7F00
E380
C180
FF80
FF80
C000
E380
7F00
3E00
0C00
0C00
0C00
0700
ENDCHAR
STARTCHAR char105
ENCODING 282
SWIDTH 462 0
DWIDTH 9 0
BBX 9 18 0 0
BITMAP
3300
1E00
0C00
0000
FF80
FF80
C000
C000
C000
C000
FF00
FF00
C000
C000
C000
C000
FF80
FF80
ENDCHAR
STARTCHAR char100
ENCODING 283
SWIDTH 462 0
DWIDTH 9 0
BBX 9 14 0 0
BITMAP
3300
1E00
0C00
0000
3E00
7F00
E380
C180
FF80
FF80
C000
E380
7F00
3E00
ENDCHAR
STARTCHAR char79
ENCODING 284
SWIDTH 514 0
DWIDTH 10 0
BBX 10 18 0 0
BITMAP
0C00
1E00
3300
0000
1F00
3F80
70C0
E000
C000
C000
C000
C7C0
C7C0
C0C0
E0C0
70C0
3F80
1F00
ENDCHAR
STARTCHAR char79
ENCODING 286
SWIDTH 514 0
DWIDTH 10 0
BBX 10 18 0 0
BITMAP
2100
3300
1E00
0000
1F00
3F80
70C0
E000
C000
C000
C000
C7C0
C7C0
C0C0
E0C0
70C0
3F80
1F00
ENDCHAR
STARTCHAR char100
ENCODING 287
SWIDTH 462 0
DWIDTH 9 0
BBX 9 19 0 -5
BITMAP
2100
3300
1E00
0000
3D80
7F80
E380
C180
C180
C180
C180
E380
7F80
3D80
0180
0180
E380
7F00
3E00
ENDCHAR
STARTCHAR char79
ENCODING 288
SWIDTH 514 0
DWIDTH 10 0
BBX 10 17 0 0
BITMAP
0600
0600
0000
1F00
3F80
70C0
E000
C000
C000
C000
C7C0
C7C0
C0C0
E0C0
70C0
3F80
1F00
ENDCHAR
STARTCHAR char100
ENCODING 289
SWIDTH 462 0
DWIDTH 9 0
BBX 9 18 0 -5
BITMAP
0C00
0C00
0000
3D80
7F80
E380
C180
C180
C180
C180
E380
7F80
3D80
0180
0180
E380
7F00
3E00
ENDCHAR
STARTCHAR char108
ENCODING 292
SWIDTH 514 0
DWIDTH 10 0
BBX 10 18 0 0
BITMAP
0C00
1E00
3300
0000
C0C0
C0C0
C0C0
C0C0
C0C0
C0C0
FFC0
FFC0
C0C0
C0C0
C0C0
C0C0
C0C0
C0C0
ENDCHAR
STARTCHAR char104
ENCODING 293
SWIDTH 462 0
DWIDTH 9 0
BBX 9 18 0 0
BITMAP
1800
3C00
6600
0000
C000
C000
C000
C000
CE00
DF00
F380
C180
C180
C180
C180
C180
C180
C180
ENDCHAR
STARTCHAR char108
ENCODING 294
SWIDTH 514 0
DWIDTH 10 0
BBX 10 14 0 0
BITMAP
C0C0
C0C0
FFC0
FFC0
C0C0
C0C0
FFC0
FFC0
C0C0
C0C0
C0C0
C0C0
C0C0
C0C0
ENDCHAR
STARTCHAR char104
ENCODING 295
SWIDTH 462 0
DWIDTH 9 0
BBX 9 14 0 0
BITMAP
C000
FE00
FE00
C000
CE00
DF00
F380
C180
C180
C180
C180
C180
C180
C180
ENDCHAR
STARTCHAR char109
ENCODING 304
SWIDTH 102 0
DWIDTH 2 0
BBX 2 17 0 0
BITMAP
C0
C0
00
C0
C0
C0
C0
C0
C0
C0
C0
C0
C0
C0
C0
C0
C0
ENDCHAR
STARTCHAR char105
ENCODING 305
SWIDTH 102 0
DWIDTH 2 0
BBX 2 10 0 0
BITMAP
C0
C0
C0
C0
C0
C0
C0
C0
C0
C0
ENDCHAR
STARTCHAR char74
ENCODING 308
SWIDTH 360 0
DWIDTH 7 0
BBX 7 18 0 0
BITMAP
18
3C
66
00
0C
0C
0C
0C
0C
0C
0C
0C
0C
0C
CC
CC
FC
78
ENDCHAR
STARTCHAR char106
ENCODING 309
SWIDTH 360 0
DWIDTH 7 0
BBX 7 19 0 -4
BITMAP
18
3C
66
00
00
0C
0C
0C
0C
0C
0C
0C
0C
0C
0C
0C
CC
FC
78
ENDCHAR
STARTCHAR char76
ENCODING 313
SWIDTH 411 0
DWIDTH 8 0
BBX 8 18 0 0
BITMAP
30
60
C0
00
C0
C0
C0
C0
C0
C0
C0
C0
C0
C0
C0
C0
FF
FF
ENDCHAR
STARTCHAR char108
ENCODING 314
SWIDTH 205 0
DWIDTH 4 0
BBX 4 18 0 0
BITMAP
30
60
C0
00
C0
C0
C0
C0
C0
C0
C0
C0
C0
C0
C0
C0
C0
C0
ENDCHAR
STARTCHAR char76
ENCODING 317
SWIDTH 411 0
DWIDTH 8 0
BBX 8 14 0 0
BITMAP
C7
C3
C3
C3
C6
C0
C0
C0
C0
C0
C0
C0
FF
FF
ENDCHAR
STARTCHAR char108
ENCODING 318
SWIDTH 360 0
DWIDTH 7 0
BBX 7 14 0 0
BITMAP
CE
C6
C6
C6
CC
C0
C0
C0
C0
C0
C0
C0
C0
C0
ENDCHAR
STARTCHAR char76
ENCODING 321
SWIDTH 462 0
DWIDTH 9 0
BBX 9 14 0 0
BITMAP
6000
6000
6000
6400
6C00
7800
7000
E000
E000
6000
6000
6000
7F80
7F80
ENDCHAR
STARTCHAR char108
ENCODING 322
SWIDTH 308 0
DWIDTH 6 0
BBX 6 14 0 0
BITMAP
60
60
60
64
6C
78
70
E0
E0
60
60
60
60
60
ENDCHAR
STARTCHAR char78
ENCODING 323
SWIDTH 514 0
DWIDTH 10 0
BBX 10 18 0 0
BITMAP
0300
0600
0C00
0000
C0C0
E0C0
F0C0
F0C0
D8C0
D8C0
CCC0
CCC0
C6C0
C6C0
C3C0
C3C0
C1C0
C0C0
ENDCHAR
STARTCHAR char104
ENCODING 324
SWIDTH 462 0
DWIDTH 9 0
BBX 9 14 0 0
BITMAP
0600
0C00
1800
0000
CE00
DF00
F380
C180
C180
C180
C180
C180
C180
C180
ENDCHAR
STARTCHAR char78
ENCODING 327
SWIDTH 514 0
DWIDTH 10 0
BBX 10 18 0 0
BITMAP
3300
1E00
0C00
0000
C0C0
E0C0
F0C0
F0C0
D8C0
D8C0
CCC0
CCC0
C6C0
C6C0
C3C0
C3C0
C1C0
C0C0
ENDCHAR
STARTCHAR char104
ENCODING 328
SWIDTH 462 0
DWIDTH 9 0
BBX 9 14 0 0
BITMAP
6600
3C00
1800
0000
CE00
DF00
F380
C180
C180
C180
C180
C180
C180
C180
ENDCHAR
STARTCHAR char79
ENCODING 336
SWIDTH 514 0
DWIDTH 10 0
BBX 10 18 0 0
BITMAP
0CC0
1980
3300
0000
1E00
3F00
6180
C0C0
C0C0
C0C0
C0C0
C0C0
C0C0
C0C0
C0C0
6180
3F00
1E00
ENDCHAR
STARTCHAR char100
ENCODING 337
SWIDTH 514 0
DWIDTH 10 0
BBX 10 14 0 0
BITMAP
0CC0
1980
3300
0000
3E00
7F00
E380
C180
C180
C180
C180
E380
7F00
3E00
ENDCHAR
STARTCHAR char80
ENCODING 340
SWIDTH 514 0
DWIDTH 10 0
BBX 10 18 0 0
BITMAP
0600
0C00
1800
0000
FE00
FF00
C180
C180
C180
C180
FF00
FE00
C300
C180
C180
C180
C180
C0C0
ENDCHAR
STARTCHAR char114
ENCODING 341
SWIDTH 308 0
DWIDTH 6 0
BBX 6 14 0 0
BITMAP
0C
18
30
00
CC
DC
F0
E0
C0
C0
C0
C0
C0
C0
ENDCHAR
STARTCHAR char80
ENCODING 344
SWIDTH 514 0
DWIDTH 10 0
BBX 10 18 0 0
BITMAP
6600
3C00
1800
0000
FE00
FF00
C180
C180
C180
C180
FF00
FE00
C300
C180
C180
C180
C180
C0C0
ENDCHAR
STARTCHAR char114
ENCODING 345
SWIDTH 308 0
DWIDTH 6 0
BBX 6 14 0 0
BITMAP
CC
78
30
00
CC
DC
F0
E0
C0
C0
C0
C0
C0
C0
ENDCHAR
STARTCHAR char83
ENCODING 346
SWIDTH 514 0
DWIDTH 10 0
BBX 10 18 0 0
BITMAP
0300
0600
0C00
0000
3F00
7F80
E1C0
C0C0
C000
E000
7E00
1F80
01C0
00C0
C0C0
E1C0
7F80
3F00
ENDCHAR
STARTCHAR char115
ENCODING 347
SWIDTH 411 0
DWIDTH 8 0
BBX 8 14 0 0
BITMAP
06
0C
18
00
3C
7E
C3
E0
78
1E
07
C3
7E
3C
ENDCHAR
STARTCHAR char83
ENCODING 348
SWIDTH 514 0
DWIDTH 10 0
BBX 10 18 0 0
BITMAP
0C00
1E00
3300
0000
3F00
7F80
E1C0
C0C0
C000
E000
7E00
1F80
01C0
00C0
C0C0
E1C0
7F80
3F00
ENDCHAR
STARTCHAR char115
ENCODING 349
SWIDTH 411 0
DWIDTH 8 0
BBX 8 14 0 0
BITMAP
18
3C
66
00
3C
7E
C3
E0
78
1E
07
C3
7E
3C
ENDCHAR
STARTCHAR char83
ENCODING 350
SWIDTH 514 0
DWIDTH 10 0
BBX 10 18 0 -4
BITMAP
3F00
7F80
E1C0
C0C0
C000
E000
7E00
1F80
01C0
00C0
C0C0
E1C0
7F80
3F00
0C00
0600
3300
1E00
ENDCHAR
STARTCHAR char115
ENCODING 351
SWIDTH 411 0
DWIDTH 8 0
BBX 8 14 0 -4
BITMAP
3C
7E
C3
E0
78
1E
07
C3
7E
3C
18
0C
66
3C
ENDCHAR
STARTCHAR char83
ENCODING 352
SWIDTH 514 0
DWIDTH 10 0
BBX 10 18 0 0
BITMAP
3300
1E00
0C00
0000
3F00
7F80
E1C0
C0C0
C000
E000
7E00
1F80
01C0
00C0
C0C0
E1C0
7F80
3F00
ENDCHAR
STARTCHAR char115
ENCODING 353
SWIDTH 411 0
DWIDTH 8 0
BBX 8 14 0 0
BITMAP
66
3C
18
00
3C
7E
C3
E0
78
1E
07
C3
7E
3C
ENDCHAR
STARTCHAR char84
ENCODING 354
SWIDTH 514 0
DWIDTH 10 0
BBX 10 18 0 -4
BITMAP
FFC0
FFC0
0C00
0C00
0C00
0C00
0C00
0C00
0C00
0C00
0C00
0C00
0C00
0C00
0C00
0600
3300
1E00
ENDCHAR
STARTCHAR char116
ENCODING 355
SWIDTH 360 0
DWIDTH 7 0
BBX 7 18 0 -4
BITMAP
30
30
30
30
FE
FE
30
30
30
30
30
30
3E
1E
30
18
CC
78
ENDCHAR
STARTCHAR char84
ENCODING 356
SWIDTH 514 0
DWIDTH 10 0
BBX 10 18 0 0
BITMAP
3300
1E00
0C00
0000
FFC0
FFC0
0C00
0C00
0C00
0C00
0C00
0C00
0C00
0C00
0C00
0C00
0C00
0C00
ENDCHAR
STARTCHAR char116
ENCODING 357
SWIDTH 360 0
DWIDTH 7 0
BBX 7 18 0 0
BITMAP
CC
78
30
00
30
30
30
30
FE
FE
30
30
30
30
30
30
3E
1E
ENDCHAR
STARTCHAR char85
ENCODING 364
SWIDTH 462 0
DWIDTH 9 0
BBX 9 18 0 0
BITMAP
4200
6600
3C00
0000
C180
C180
C180
C180
C180
C180
C180
C180
C180
C180
C180
E380
7F00
3E00
ENDCHAR
STARTCHAR char117
ENCODING 365
SWIDTH 462 0
DWIDTH 9 0
BBX 9 14 0 0
BITMAP
4200
6600
3C00
0000
C180
C180
C180
C180
C180
C180
C180
E380
7F80
3D80
ENDCHAR
STARTCHAR char85
ENCODING 366
SWIDTH 462 0
DWIDTH 9 0
BBX 9 18 0 0
BITMAP
1C00
2200
1C00
0000
C180
C180
C180
C180
C180
C180
C180
C180
C180
C180
C180
E380
7F00
3E00
ENDCHAR
STARTCHAR char117
ENCODING 367
SWIDTH 462 0
DWIDTH 9 0
BBX 9 14 0 0
BITMAP
0C00
1200
0C00
0000
C180
C180
C180
C180
C180
C180
C180
E380
7F80
3D80
ENDCHAR
STARTCHAR char85
ENCODING 368
SWIDTH 462 0
DWIDTH 9 0
BBX 9 18 0 0
BITMAP
1980
3300
6600
0000
C180
C180
C180
C180
C180
C180
C180
C180
C180
C180
C180
E380
7F00
3E00
ENDCHAR
STARTCHAR char117
ENCODING 369
SWIDTH 462 0
DWIDTH 9 0
BBX 9 14 0 0
BITMAP
1980
3300
6600
0000
C180
C180
C180
C180
C180
C180
C180
E380
7F80
3D80
ENDCHAR
STARTCHAR char90
ENCODING 377
SWIDTH 411 0
DWIDTH 8 0
BBX 8 18 0 0
BITMAP
06
0C
18
00
FF
FF
03
06
06
0C
18
18
30
60
60
C0
FF
FF
ENDCHAR
STARTCHAR char122
ENCODING 378
SWIDTH 360 0
DWIDTH 7 0
BBX 7 14 0 0
BITMAP
0C
18
30
00
FE
FE
06
0C
18
30
60
C0
FE
FE
ENDCHAR
STARTCHAR char90
ENCODING 379
SWIDTH 411 0
DWIDTH 8 0
BBX 8 17 0 0
BITMAP
18
18
00
FF
FF
03
06
06
0C
18
18
30
60
60
C0
FF
FF
ENDCHAR
STARTCHAR char122
ENCODING 380
SWIDTH 360 0
DWIDTH 7 0
BBX 7 13 0 0
BITMAP
18
18
00
FE
FE
06
0C
18
30
60
C0
FE
FE
ENDCHAR
STARTCHAR char90
ENCODING 381
SWIDTH 411 0
DWIDTH 8 0
BBX 8 18 0 0
BITMAP
66
3C
18
00
FF
FF
03
06
06
0C
18
18
30
60
60
C0
FF
FF
ENDCHAR
STARTCHAR char122
ENCODING 382
SWIDTH 360 0
DWIDTH 7 0
BBX 7 14 0 0
BITMAP
66
3C
18
00
FE
FE
06
0C
18
30
60
C0
FE
FE
ENDCHAR
ENDFONT
