STARTFONT 2.1
FONT -dislin-helve-bold-r-normal--25-18-100-100-p-160-iso8859-1
SIZE 18 100 100
FONTBOUNDINGBOX 19 29 -2 -6
STARTPROPERTIES 9
POINT_SIZE 18
PIXEL_SIZE 18
RESOLUTION_X 100
RESOLUTION_Y 100
FONT_ASCENT 11
FONT_DESCENT 3
AVERAGE_WIDTH 90
SPACING "P"
_XMBDFED_INFO "Edited with xmbdfed 4.5."
ENDPROPERTIES
CHARS 235
STARTCHAR char32
ENCODING 32
SWIDTH 360 0
DWIDTH 9 0
BBX 0 0 0 0
BITMAP
ENDCHAR
STARTCHAR char33
ENCODING 33
SWIDTH 80 0
DWIDTH 2 0
BBX 2 18 0 0
BITMAP
C0
C0
C0
C0
C0
C0
C0
C0
C0
C0
C0
C0
00
00
00
00
C0
C0
ENDCHAR
STARTCHAR char34
ENCODING 34
SWIDTH 320 0
DWIDTH 8 0
BBX 8 7 0 11
BITMAP
E7
E7
63
63
63
63
C6
ENDCHAR
STARTCHAR char35
ENCODING 35
SWIDTH 480 0
DWIDTH 12 0
BBX 12 10 0 4
BITMAP
0CC0
0CC0
0CC0
7FF0
1980
1980
FFE0
3300
3300
3300
ENDCHAR
STARTCHAR char83
ENCODING 36
SWIDTH 440 0
DWIDTH 11 0
BBX 11 24 0 -3
BITMAP
1100
1100
1100
1F00
7FC0
71E0
D160
D100
D100
7100
7900
1F00
1F00
13C0
11C0
1160
1160
D160
F1C0
7FC0
1F00
1100
1100
1100
ENDCHAR
STARTCHAR char37
ENCODING 37
SWIDTH 560 0
DWIDTH 14 0
BBX 14 18 0 0
BITMAP
3830
7C30
C660
C660
C6C0
7CC0
3980
0180
0300
0300
0600
0670
0CF8
0D8C
198C
198C
30F8
3070
ENDCHAR
STARTCHAR char38
ENCODING 38
SWIDTH 560 0
DWIDTH 14 0
BBX 14 18 0 0
BITMAP
0F00
1F80
39C0
30C0
30C0
30C0
1980
0F00
1E00
3F00
738C
61DC
C0F0
C070
C0DC
E1DC
7F80
1F00
ENDCHAR
STARTCHAR char39
ENCODING 39
SWIDTH 120 0
DWIDTH 3 0
BBX 3 7 0 11
BITMAP
E0
E0
60
60
60
60
C0
ENDCHAR
STARTCHAR char40
ENCODING 40
SWIDTH 240 0
DWIDTH 6 0
BBX 6 22 0 -2
BITMAP
0C
18
18
30
30
60
60
60
C0
C0
C0
C0
C0
C0
60
60
60
30
30
18
18
0C
ENDCHAR
STARTCHAR char41
ENCODING 41
SWIDTH 240 0
DWIDTH 6 0
BBX 6 22 0 -2
BITMAP
C0
60
60
30
30
18
18
18
0C
0C
0C
0C
0C
0C
18
18
18
30
30
60
60
C0
ENDCHAR
STARTCHAR char42
ENCODING 42
SWIDTH 440 0
DWIDTH 11 0
BBX 10 10 1 3
BITMAP
0C00
8C40
CCC0
CCC0
3F00
3F00
CCC0
CCC0
8C40
0C00
ENDCHAR
STARTCHAR char43
ENCODING 43
SWIDTH 400 0
DWIDTH 10 0
BBX 10 10 0 4
BITMAP
0C00
0C00
0C00
0C00
FFC0
FFC0
0C00
0C00
0C00
0C00
ENDCHAR
STARTCHAR char44
ENCODING 44
SWIDTH 120 0
DWIDTH 3 0
BBX 3 7 0 -5
BITMAP
E0
E0
60
60
60
60
C0
ENDCHAR
STARTCHAR char45
ENCODING 45
SWIDTH 400 0
DWIDTH 10 0
BBX 10 2 0 8
BITMAP
FFC0
FFC0
ENDCHAR
STARTCHAR char46
ENCODING 46
SWIDTH 80 0
DWIDTH 2 0
BBX 2 3 0 0
BITMAP
C0
C0
C0
ENDCHAR
STARTCHAR char47
ENCODING 47
SWIDTH 400 0
DWIDTH 10 0
BBX 10 18 0 0
BITMAP
00C0
00C0
0180
0180
0300
0300
0600
0600
0C00
0C00
1800
1800
3000
3000
6000
6000
C000
C000
ENDCHAR
STARTCHAR char48
ENCODING 48
SWIDTH 400 0
DWIDTH 10 0
BBX 10 18 0 0
BITMAP
1E00
7F80
6180
C0C0
C0C0
C0C0
C0C0
C0C0
C0C0
C0C0
C0C0
C0C0
C0C0
C0C0
C0C0
6180
7F80
1E00
ENDCHAR
STARTCHAR char49
ENCODING 49
SWIDTH 280 0
DWIDTH 7 0
BBX 7 18 0 0
BITMAP
06
0E
3E
FE
E6
06
06
06
06
06
06
06
06
06
06
06
06
06
ENDCHAR
STARTCHAR char50
ENCODING 50
SWIDTH 400 0
DWIDTH 10 0
BBX 10 18 0 0
BITMAP
3F00
7F80
E1C0
C0C0
C0C0
00C0
00C0
0180
0380
0700
0E00
1C00
3800
7000
E000
C000
FFC0
FFC0
ENDCHAR
STARTCHAR char51
ENCODING 51
SWIDTH 400 0
DWIDTH 10 0
BBX 10 18 0 0
BITMAP
3F00
7F80
E1C0
C0C0
00C0
00C0
01C0
0380
0F00
0F00
0380
01C0
00C0
00C0
C0C0
E1C0
7F80
3F00
ENDCHAR
STARTCHAR char52
ENCODING 52
SWIDTH 440 0
DWIDTH 11 0
BBX 11 18 0 0
BITMAP
0380
0380
0780
0780
0D80
0D80
1980
1980
3180
3180
6180
6180
FFE0
FFE0
0180
0180
0180
0180
ENDCHAR
STARTCHAR char53
ENCODING 53
SWIDTH 400 0
DWIDTH 10 0
BBX 10 18 0 0
BITMAP
FFC0
FFC0
C000
C000
C000
C000
FC00
FF00
E380
0180
00C0
00C0
00C0
00C0
C180
E380
7F00
1C00
ENDCHAR
STARTCHAR char54
ENCODING 54
SWIDTH 440 0
DWIDTH 11 0
BBX 11 18 0 0
BITMAP
1F80
3FC0
7060
6000
C000
C000
C000
CF00
DF80
F0C0
E060
C060
C060
C060
E0E0
60C0
7FC0
1F00
ENDCHAR
STARTCHAR char55
ENCODING 55
SWIDTH 400 0
DWIDTH 10 0
BBX 10 18 0 0
BITMAP
FFC0
FFC0
00C0
0180
0300
0300
0600
0600
0600
0C00
0C00
0C00
0C00
1800
1800
1800
1800
1800
ENDCHAR
STARTCHAR char56
ENCODING 56
SWIDTH 440 0
DWIDTH 11 0
BBX 11 18 0 0
BITMAP
1F00
7FC0
60C0
C060
C060
C060
C060
60C0
3F80
3F80
60C0
C060
C060
C060
C060
60C0
7FC0
1F00
ENDCHAR
STARTCHAR char57
ENCODING 57
SWIDTH 440 0
DWIDTH 11 0
BBX 11 18 0 0
BITMAP
1F00
7FC0
60C0
E0E0
C060
C060
C060
C0E0
61E0
3F60
1E60
0060
0060
0060
00C0
C1C0
7F80
3F00
ENDCHAR
STARTCHAR char58
ENCODING 58
SWIDTH 80 0
DWIDTH 2 0
BBX 2 7 0 5
BITMAP
C0
C0
00
00
00
C0
C0
ENDCHAR
STARTCHAR char59
ENCODING 59
SWIDTH 120 0
DWIDTH 3 0
BBX 3 12 0 -5
BITMAP
60
60
00
00
00
E0
E0
60
60
60
60
C0
ENDCHAR
STARTCHAR char60
ENCODING 60
SWIDTH 440 0
DWIDTH 11 0
BBX 11 10 0 4
BITMAP
00E0
03C0
0F00
3C00
F000
F000
3C00
0F00
03C0
00E0
ENDCHAR
STARTCHAR char61
ENCODING 61
SWIDTH 400 0
DWIDTH 10 0
BBX 10 6 0 6
BITMAP
FFC0
FFC0
0000
0000
FFC0
FFC0
ENDCHAR
STARTCHAR char62
ENCODING 62
SWIDTH 480 0
DWIDTH 12 0
BBX 11 10 0 4
BITMAP
E000
7800
1E00
0780
01E0
01E0
0780
1E00
7800
E000
ENDCHAR
STARTCHAR char63
ENCODING 63
SWIDTH 400 0
DWIDTH 10 0
BBX 10 18 0 0
BITMAP
3F00
7F80
E1C0
C0C0
00C0
01C0
0380
0700
0E00
0C00
0C00
0C00
0C00
0000
0000
0000
0C00
0C00
ENDCHAR
STARTCHAR char79
ENCODING 64
SWIDTH 520 0
DWIDTH 13 0
BBX 13 18 0 0
BITMAP
1FC0
3FE0
7070
6030
C018
C758
CFD8
D8D8
D8D8
D8D8
D8F8
CF80
C700
C000
6030
7070
3FE0
1FC0
ENDCHAR
STARTCHAR char101
ENCODING 65
SWIDTH 480 0
DWIDTH 12 0
BBX 12 18 0 0
BITMAP
0600
0600
0600
0F00
0F00
0F00
1980
1980
1980
30C0
30C0
3FC0
7FE0
6060
6060
C030
C030
C030
ENDCHAR
STARTCHAR char102
ENCODING 66
SWIDTH 440 0
DWIDTH 11 0
BBX 11 18 0 0
BITMAP
FF00
FF80
C1C0
C0C0
C0C0
C0C0
C0C0
C180
FF00
FF80
C0C0
C060
C060
C060
C060
C0E0
FFC0
FF80
ENDCHAR
STARTCHAR char79
ENCODING 67
SWIDTH 480 0
DWIDTH 12 0
BBX 12 18 0 0
BITMAP
1FC0
3FE0
7070
6030
C000
C000
C000
C000
C000
C000
C000
C000
C000
C000
6030
7070
3FE0
1FC0
ENDCHAR
STARTCHAR char104
ENCODING 68
SWIDTH 480 0
DWIDTH 12 0
BBX 12 18 0 0
BITMAP
FF00
FFC0
C0E0
C060
C030
C030
C030
C030
C030
C030
C030
C030
C030
C030
C060
C0E0
FFC0
FF00
ENDCHAR
STARTCHAR char105
ENCODING 69
SWIDTH 440 0
DWIDTH 11 0
BBX 11 18 0 0
BITMAP
FFE0
FFE0
C000
C000
C000
C000
C000
C000
FF80
FF80
C000
C000
C000
C000
C000
C000
FFE0
FFE0
ENDCHAR
STARTCHAR char106
ENCODING 70
SWIDTH 400 0
DWIDTH 10 0
BBX 10 18 0 0
BITMAP
FFC0
FFC0
C000
C000
C000
C000
C000
FF00
FF00
C000
C000
C000
C000
C000
C000
C000
C000
C000
ENDCHAR
STARTCHAR char79
ENCODING 71
SWIDTH 480 0
DWIDTH 12 0
BBX 12 18 0 0
BITMAP
1FC0
3FE0
7070
6030
C000
C000
C000
C000
C000
C3F0
C3F0
C030
C030
C030
6030
7070
3FE0
1FC0
ENDCHAR
STARTCHAR char108
ENCODING 72
SWIDTH 480 0
DWIDTH 12 0
BBX 12 18 0 0
BITMAP
C030
C030
C030
C030
C030
C030
C030
C030
FFF0
FFF0
C030
C030
C030
C030
C030
C030
C030
C030
ENDCHAR
STARTCHAR char109
ENCODING 73
SWIDTH 80 0
DWIDTH 2 0
BBX 2 18 0 0
BITMAP
C0
C0
C0
C0
C0
C0
C0
C0
C0
C0
C0
C0
C0
C0
C0
C0
C0
C0
ENDCHAR
STARTCHAR char74
ENCODING 74
SWIDTH 320 0
DWIDTH 8 0
BBX 8 18 0 0
BITMAP
03
03
03
03
03
03
03
03
03
03
03
03
03
03
C3
C6
7E
3C
ENDCHAR
STARTCHAR char75
ENCODING 75
SWIDTH 480 0
DWIDTH 12 0
BBX 12 18 0 0
BITMAP
C030
C060
C0C0
C180
C300
C600
CC00
D800
F000
F800
DC00
CE00
C700
C380
C1C0
C0E0
C070
C030
ENDCHAR
STARTCHAR char76
ENCODING 76
SWIDTH 400 0
DWIDTH 10 0
BBX 10 18 0 0
BITMAP
C000
C000
C000
C000
C000
C000
C000
C000
C000
C000
C000
C000
C000
C000
C000
C000
FFC0
FFC0
ENDCHAR
STARTCHAR char113
ENCODING 77
SWIDTH 560 0
DWIDTH 14 0
BBX 14 18 0 0
BITMAP
C00C
E01C
E03C
F03C
F03C
D86C
D86C
D86C
CCCC
CCCC
CCCC
C78C
C78C
C78C
C30C
C30C
C00C
C00C
ENDCHAR
STARTCHAR char78
ENCODING 78
SWIDTH 480 0
DWIDTH 12 0
BBX 12 18 0 0
BITMAP
E030
E030
F030
F030
D830
D830
CC30
CC30
C630
C630
C330
C330
C1B0
C1B0
C0F0
C0F0
C070
C070
ENDCHAR
STARTCHAR char79
ENCODING 79
SWIDTH 480 0
DWIDTH 12 0
BBX 12 18 0 0
BITMAP
1F80
3FC0
70E0
6060
C030
C030
C030
C030
C030
C030
C030
C030
C030
C030
6060
70E0
3FC0
1F80
ENDCHAR
STARTCHAR char80
ENCODING 80
SWIDTH 440 0
DWIDTH 11 0
BBX 11 18 0 0
BITMAP
FF80
FFC0
C0E0
C060
C060
C060
C060
C0E0
FFC0
FF00
C000
C000
C000
C000
C000
C000
C000
C000
ENDCHAR
STARTCHAR char79
ENCODING 81
SWIDTH 480 0
DWIDTH 12 0
BBX 12 21 0 -3
BITMAP
1F80
3FC0
70E0
6060
C030
C030
C030
C030
C030
C030
C030
C030
C030
C030
6060
70E0
3FC0
1F80
0700
0380
01C0
ENDCHAR
STARTCHAR char80
ENCODING 82
SWIDTH 480 0
DWIDTH 12 0
BBX 12 18 0 0
BITMAP
FF80
FFC0
C0E0
C060
C060
C060
C060
C0E0
FFC0
FF80
C700
C380
C180
C180
C0C0
C0C0
C060
C070
ENDCHAR
STARTCHAR char83
ENCODING 83
SWIDTH 440 0
DWIDTH 11 0
BBX 11 18 0 0
BITMAP
1F00
7FC0
60E0
C060
C000
C000
6000
7800
1E00
0F00
03C0
00C0
0060
0060
C060
E0C0
7FC0
1F00
ENDCHAR
STARTCHAR char84
ENCODING 84
SWIDTH 480 0
DWIDTH 12 0
BBX 12 18 0 0
BITMAP
FFF0
FFF0
0600
0600
0600
0600
0600
0600
0600
0600
0600
0600
0600
0600
0600
0600
0600
0600
ENDCHAR
STARTCHAR char85
ENCODING 85
SWIDTH 440 0
DWIDTH 11 0
BBX 11 18 0 0
BITMAP
C060
C060
C060
C060
C060
C060
C060
C060
C060
C060
C060
C060
C060
C060
C060
E0E0
7FC0
3F80
ENDCHAR
STARTCHAR char86
ENCODING 86
SWIDTH 480 0
DWIDTH 12 0
BBX 12 18 0 0
BITMAP
C030
C030
C030
6060
6060
6060
30C0
30C0
30C0
1980
1980
1980
0F00
0F00
0F00
0600
0600
0600
ENDCHAR
STARTCHAR char86
ENCODING 87
SWIDTH 600 0
DWIDTH 15 0
BBX 15 18 0 0
BITMAP
C386
C386
C386
C386
C386
66CC
66CC
66CC
66CC
66CC
3C78
3C78
3C78
3C78
1830
1830
1830
1830
ENDCHAR
STARTCHAR char88
ENCODING 88
SWIDTH 480 0
DWIDTH 12 0
BBX 11 18 0 0
BITMAP
C060
C060
60C0
60C0
3180
3180
1B00
0E00
0E00
0E00
0E00
1B00
3180
3180
60C0
60C0
C060
C060
ENDCHAR
STARTCHAR char89
ENCODING 89
SWIDTH 480 0
DWIDTH 12 0
BBX 12 18 0 0
BITMAP
C030
C030
6060
6060
30C0
30C0
1980
1980
0F00
0F00
0600
0600
0600
0600
0600
0600
0600
0600
ENDCHAR
STARTCHAR char90
ENCODING 90
SWIDTH 400 0
DWIDTH 10 0
BBX 10 18 0 0
BITMAP
FFC0
FFC0
00C0
0180
0180
0300
0300
0600
0C00
0C00
1800
3000
3000
6000
6000
C000
FFC0
FFC0
ENDCHAR
STARTCHAR char91
ENCODING 91
SWIDTH 280 0
DWIDTH 7 0
BBX 7 22 0 -2
BITMAP
FE
FE
C0
C0
C0
C0
C0
C0
C0
C0
C0
C0
C0
C0
C0
C0
C0
C0
C0
C0
FE
FE
ENDCHAR
STARTCHAR char92
ENCODING 92
SWIDTH 440 0
DWIDTH 11 0
BBX 11 20 0 -1
BITMAP
C000
C000
6000
6000
3000
3000
1800
1800
0C00
0C00
0600
0600
0300
0300
0180
0180
00C0
00C0
0060
0060
ENDCHAR
STARTCHAR char93
ENCODING 93
SWIDTH 280 0
DWIDTH 7 0
BBX 7 22 0 -2
BITMAP
FE
FE
06
06
06
06
06
06
06
06
06
06
06
06
06
06
06
06
06
06
FE
FE
ENDCHAR
STARTCHAR char94
ENCODING 94
SWIDTH 480 0
DWIDTH 12 0
BBX 12 6 0 9
BITMAP
0600
0F00
1F80
39C0
70E0
E070
ENDCHAR
STARTCHAR char95
ENCODING 95
SWIDTH 440 0
DWIDTH 11 0
BBX 11 2 0 -2
BITMAP
FFE0
FFE0
ENDCHAR
STARTCHAR char96
ENCODING 96
SWIDTH 120 0
DWIDTH 3 0
BBX 3 6 0 8
BITMAP
60
C0
C0
C0
E0
E0
ENDCHAR
STARTCHAR char97
ENCODING 97
SWIDTH 400 0
DWIDTH 10 0
BBX 10 12 0 0
BITMAP
3E00
FF00
C180
0180
0180
3F80
FD80
C180
C180
C180
E780
7EC0
ENDCHAR
STARTCHAR char98
ENCODING 98
SWIDTH 400 0
DWIDTH 10 0
BBX 10 18 0 0
BITMAP
C000
C000
C000
C000
C000
C000
DF00
FF80
E180
C0C0
C0C0
C0C0
C0C0
C0C0
C0C0
E180
FF80
DF00
ENDCHAR
STARTCHAR char100
ENCODING 99
SWIDTH 360 0
DWIDTH 9 0
BBX 9 12 0 0
BITMAP
3E00
7F00
E180
C000
C000
C000
C000
C000
C000
E180
7F00
3E00
ENDCHAR
STARTCHAR char100
ENCODING 100
SWIDTH 400 0
DWIDTH 10 0
BBX 10 18 0 0
BITMAP
00C0
00C0
00C0
00C0
00C0
00C0
3EC0
7FC0
61C0
C0C0
C0C0
C0C0
C0C0
C0C0
C0C0
61C0
7FC0
3EC0
ENDCHAR
STARTCHAR char100
ENCODING 101
SWIDTH 360 0
DWIDTH 9 0
BBX 9 12 0 0
BITMAP
3E00
7F00
E380
C180
C180
FF80
FF80
C000
C000
E180
7F00
3E00
ENDCHAR
STARTCHAR char102
ENCODING 102
SWIDTH 320 0
DWIDTH 8 0
BBX 8 18 0 0
BITMAP
1F
3F
30
30
30
30
30
FE
FE
30
30
30
30
30
30
30
30
30
ENDCHAR
STARTCHAR char100
ENCODING 103
SWIDTH 400 0
DWIDTH 10 0
BBX 10 18 0 -6
BITMAP
3EC0
7FC0
61C0
C0C0
C0C0
C0C0
C0C0
C0C0
C0C0
61C0
7FC0
3EC0
00C0
00C0
C0C0
E1C0
7F80
3F00
ENDCHAR
STARTCHAR char104
ENCODING 104
SWIDTH 400 0
DWIDTH 10 0
BBX 10 18 0 0
BITMAP
C000
C000
C000
C000
C000
C000
CF00
DF80
F0C0
C0C0
C0C0
C0C0
C0C0
C0C0
C0C0
C0C0
C0C0
C0C0
ENDCHAR
STARTCHAR char105
ENCODING 105
SWIDTH 80 0
DWIDTH 2 0
BBX 2 18 0 0
BITMAP
C0
C0
00
00
00
00
C0
C0
C0
C0
C0
C0
C0
C0
C0
C0
C0
C0
ENDCHAR
STARTCHAR char106
ENCODING 106
SWIDTH 280 0
DWIDTH 7 0
BBX 7 22 0 -4
BITMAP
06
06
00
00
00
00
06
06
06
06
06
06
06
06
06
06
06
06
06
CE
FC
78
ENDCHAR
STARTCHAR char107
ENCODING 107
SWIDTH 400 0
DWIDTH 10 0
BBX 10 18 0 0
BITMAP
C000
C000
C000
C000
C000
C000
C0C0
C180
C300
C600
CC00
D800
F800
EC00
C600
C300
C180
C0C0
ENDCHAR
STARTCHAR char108
ENCODING 108
SWIDTH 80 0
DWIDTH 2 0
BBX 2 18 0 0
BITMAP
C0
C0
C0
C0
C0
C0
C0
C0
C0
C0
C0
C0
C0
C0
C0
C0
C0
C0
ENDCHAR
STARTCHAR char104
ENCODING 109
SWIDTH 560 0
DWIDTH 14 0
BBX 14 12 0 0
BITMAP
DC70
FEF8
E79C
C30C
C30C
C30C
C30C
C30C
C30C
C30C
C30C
C30C
ENDCHAR
STARTCHAR char104
ENCODING 110
SWIDTH 400 0
DWIDTH 10 0
BBX 10 12 0 0
BITMAP
CF00
DF80
F0C0
C0C0
C0C0
C0C0
C0C0
C0C0
C0C0
C0C0
C0C0
C0C0
ENDCHAR
STARTCHAR char100
ENCODING 111
SWIDTH 400 0
DWIDTH 10 0
BBX 10 12 0 0
BITMAP
3F00
7F80
E1C0
C0C0
C0C0
C0C0
C0C0
C0C0
C0C0
E1C0
7F80
3F00
ENDCHAR
STARTCHAR char98
ENCODING 112
SWIDTH 400 0
DWIDTH 10 0
BBX 10 18 0 -6
BITMAP
DF00
FF80
E180
C0C0
C0C0
C0C0
C0C0
C0C0
C0C0
E180
FF80
DF00
C000
C000
C000
C000
C000
C000
ENDCHAR
STARTCHAR char100
ENCODING 113
SWIDTH 400 0
DWIDTH 10 0
BBX 10 18 0 -6
BITMAP
3EC0
7FC0
61C0
C0C0
C0C0
C0C0
C0C0
C0C0
C0C0
61C0
7FC0
3EC0
00C0
00C0
00C0
00C0
00C0
00C0
ENDCHAR
STARTCHAR char114
ENCODING 114
SWIDTH 280 0
DWIDTH 7 0
BBX 7 12 0 0
BITMAP
C6
CE
D8
F0
E0
C0
C0
C0
C0
C0
C0
C0
ENDCHAR
STARTCHAR char115
ENCODING 115
SWIDTH 360 0
DWIDTH 9 0
BBX 9 12 0 0
BITMAP
3E00
7F00
E180
C000
E000
7C00
1F00
0380
0180
C380
7F00
3E00
ENDCHAR
STARTCHAR char116
ENCODING 116
SWIDTH 320 0
DWIDTH 8 0
BBX 8 18 0 0
BITMAP
18
18
18
18
18
FF
FF
18
18
18
18
18
18
18
18
18
1F
0F
ENDCHAR
STARTCHAR char117
ENCODING 117
SWIDTH 400 0
DWIDTH 10 0
BBX 10 12 0 0
BITMAP
C0C0
C0C0
C0C0
C0C0
C0C0
C0C0
C0C0
C0C0
C0C0
E3C0
7EC0
3CC0
ENDCHAR
STARTCHAR char118
ENCODING 118
SWIDTH 440 0
DWIDTH 11 0
BBX 11 12 0 0
BITMAP
C060
C060
60C0
60C0
3180
3180
1B00
1B00
0E00
0E00
0400
0400
ENDCHAR
STARTCHAR char118
ENCODING 119
SWIDTH 480 0
DWIDTH 12 0
BBX 12 12 0 0
BITMAP
C630
C630
C630
C630
6F60
6F60
6F60
6F60
3180
3180
3180
3180
ENDCHAR
STARTCHAR char120
ENCODING 120
SWIDTH 400 0
DWIDTH 10 0
BBX 10 12 0 0
BITMAP
C0C0
E1C0
7380
3300
1E00
0C00
0C00
1E00
3300
7380
E1C0
C0C0
ENDCHAR
STARTCHAR char118
ENCODING 121
SWIDTH 440 0
DWIDTH 11 0
BBX 11 17 0 -5
BITMAP
C060
C060
60C0
60C0
3180
3180
3180
1B00
1B00
0E00
0E00
0C00
0C00
1800
1800
7000
6000
ENDCHAR
STARTCHAR char122
ENCODING 122
SWIDTH 320 0
DWIDTH 8 0
BBX 8 12 0 0
BITMAP
FF
FF
03
06
0C
18
30
60
C0
C0
FF
FF
ENDCHAR
STARTCHAR char123
ENCODING 123
SWIDTH 200 0
DWIDTH 5 0
BBX 5 20 0 -1
BITMAP
18
30
30
60
60
60
30
30
60
C0
C0
60
30
30
60
60
60
30
30
18
ENDCHAR
STARTCHAR char124
ENCODING 124
SWIDTH 80 0
DWIDTH 2 0
BBX 2 20 0 -1
BITMAP
C0
C0
C0
C0
C0
C0
C0
C0
C0
C0
C0
C0
C0
C0
C0
C0
C0
C0
C0
C0
ENDCHAR
STARTCHAR char125
ENCODING 125
SWIDTH 200 0
DWIDTH 5 0
BBX 5 20 0 -1
BITMAP
C0
60
60
30
30
30
60
60
30
18
18
30
60
60
30
30
30
60
60
C0
ENDCHAR
STARTCHAR char126
ENCODING 126
SWIDTH 520 0
DWIDTH 13 0
BBX 13 5 0 6
BITMAP
3818
7E18
E738
C3F0
C0E0
ENDCHAR
STARTCHAR char161
ENCODING 161
SWIDTH 80 0
DWIDTH 2 0
BBX 2 18 0 0
BITMAP
C0
C0
00
00
00
C0
C0
C0
C0
C0
C0
C0
C0
C0
C0
C0
C0
C0
ENDCHAR
STARTCHAR char79
ENCODING 164
SWIDTH 520 0
DWIDTH 13 0
BBX 13 18 0 0
BITMAP
07F0
0FF8
1C18
1800
3000
3000
FFC0
FFC0
3000
3000
FFC0
FFC0
3000
3000
1800
1C18
0FF8
07F0
ENDCHAR
STARTCHAR char100
ENCODING 169
SWIDTH 600 0
DWIDTH 15 0
BBX 15 18 0 0
BITMAP
0FE0
1010
2008
47C4
8FE2
9C32
9802
9802
9802
9802
9802
9802
9C32
8FE2
47C4
2008
1010
0FE0
ENDCHAR
STARTCHAR char191
ENCODING 191
SWIDTH 400 0
DWIDTH 10 0
BBX 10 18 0 0
BITMAP
0C00
0C00
0000
0000
0000
0C00
0C00
0C00
0C00
1C00
3800
7000
E000
C000
C0C0
E1C0
7F80
3F00
ENDCHAR
STARTCHAR char101
ENCODING 192
SWIDTH 480 0
DWIDTH 12 0
BBX 12 23 0 0
BITMAP
3000
1800
0C00
0600
0000
0600
0600
0600
0F00
0F00
0F00
1980
1980
1980
30C0
30C0
3FC0
7FE0
6060
6060
C030
C030
C030
ENDCHAR
STARTCHAR char101
ENCODING 193
SWIDTH 480 0
DWIDTH 12 0
BBX 12 23 0 0
BITMAP
00C0
0180
0300
0600
0000
0600
0600
0600
0F00
0F00
0F00
1980
1980
1980
30C0
30C0
3FC0
7FE0
6060
6060
C030
C030
C030
ENDCHAR
STARTCHAR char101
ENCODING 194
SWIDTH 480 0
DWIDTH 12 0
BBX 12 23 0 0
BITMAP
0600
0F00
1980
30C0
0000
0600
0600
0600
0F00
0F00
0F00
1980
1980
1980
30C0
30C0
3FC0
7FE0
6060
6060
C030
C030
C030
ENDCHAR
STARTCHAR char101
ENCODING 195
SWIDTH 480 0
DWIDTH 12 0
BBX 12 23 0 0
BITMAP
0C20
1E60
33C0
2180
0000
0600
0600
0600
0F00
0F00
0F00
1980
1980
1980
30C0
30C0
3FC0
7FE0
6060
6060
C030
C030
C030
ENDCHAR
STARTCHAR char101
ENCODING 196
SWIDTH 480 0
DWIDTH 12 0
BBX 12 21 0 0
BITMAP
30C0
30C0
0000
0600
0600
0600
0F00
0F00
0F00
1980
1980
1980
30C0
30C0
3FC0
7FE0
6060
6060
C030
C030
C030
ENDCHAR
STARTCHAR char101
ENCODING 197
SWIDTH 480 0
DWIDTH 12 0
BBX 12 23 0 0
BITMAP
0600
0900
0900
0600
0000
0600
0600
0600
0F00
0F00
0F00
1980
1980
1980
30C0
30C0
3FC0
7FE0
6060
6060
C030
C030
C030
ENDCHAR
STARTCHAR char101
ENCODING 198
SWIDTH 600 0
DWIDTH 15 0
BBX 15 18 0 0
BITMAP
07FE
07FE
0780
0F80
0F80
0F80
1980
1980
19F8
31F8
3180
3F80
7F80
6180
6180
C180
C1FE
C1FE
ENDCHAR
STARTCHAR char79
ENCODING 199
SWIDTH 480 0
DWIDTH 12 0
BBX 12 23 0 -5
BITMAP
1FC0
3FE0
7070
6030
C000
C000
C000
C000
C000
C000
C000
C000
C000
C000
6030
7070
3FE0
1FC0
0600
0380
00C0
19C0
0F80
ENDCHAR
STARTCHAR char105
ENCODING 200
SWIDTH 440 0
DWIDTH 11 0
BBX 11 23 0 0
BITMAP
3000
1800
0C00
0600
0000
FFE0
FFE0
C000
C000
C000
C000
C000
C000
FF80
FF80
C000
C000
C000
C000
C000
C000
FFE0
FFE0
ENDCHAR
STARTCHAR char105
ENCODING 201
SWIDTH 440 0
DWIDTH 11 0
BBX 11 23 0 0
BITMAP
0180
0300
0600
0C00
0000
FFE0
FFE0
C000
C000
C000
C000
C000
C000
FF80
FF80
C000
C000
C000
C000
C000
C000
FFE0
FFE0
ENDCHAR
STARTCHAR char105
ENCODING 202
SWIDTH 440 0
DWIDTH 11 0
BBX 11 23 0 0
BITMAP
0C00
1E00
3300
6180
0000
FFE0
FFE0
C000
C000
C000
C000
C000
C000
FF80
FF80
C000
C000
C000
C000
C000
C000
FFE0
FFE0
ENDCHAR
STARTCHAR char105
ENCODING 203
SWIDTH 440 0
DWIDTH 11 0
BBX 11 22 0 0
BITMAP
3300
3300
0000
0000
FFE0
FFE0
C000
C000
C000
C000
C000
C000
FF80
FF80
C000
C000
C000
C000
C000
C000
FFE0
FFE0
ENDCHAR
STARTCHAR char109
ENCODING 204
SWIDTH 120 0
DWIDTH 3 0
BBX 5 23 -2 0
BITMAP
C0
60
30
18
00
18
18
18
18
18
18
18
18
18
18
18
18
18
18
18
18
18
18
ENDCHAR
STARTCHAR char109
ENCODING 205
SWIDTH 120 0
DWIDTH 3 0
BBX 5 23 0 0
BITMAP
18
30
60
C0
00
C0
C0
C0
C0
C0
C0
C0
C0
C0
C0
C0
C0
C0
C0
C0
C0
C0
C0
ENDCHAR
STARTCHAR char109
ENCODING 206
SWIDTH 240 0
DWIDTH 6 0
BBX 6 23 0 0
BITMAP
30
78
CC
84
00
30
30
30
30
30
30
30
30
30
30
30
30
30
30
30
30
30
30
ENDCHAR
STARTCHAR char109
ENCODING 207
SWIDTH 160 0
DWIDTH 4 0
BBX 6 21 -1 0
BITMAP
CC
CC
00
30
30
30
30
30
30
30
30
30
30
30
30
30
30
30
30
30
30
ENDCHAR
STARTCHAR char104
ENCODING 208
SWIDTH 560 0
DWIDTH 14 0
BBX 14 18 0 0
BITMAP
3FC0
3FF0
3038
3018
300C
300C
300C
300C
FF0C
FF0C
300C
300C
300C
300C
3018
3038
3FF0
3FC0
ENDCHAR
STARTCHAR char78
ENCODING 209
SWIDTH 480 0
DWIDTH 12 0
BBX 12 23 0 0
BITMAP
0C20
1E60
33C0
2180
0000
E030
E030
F030
F030
D830
D830
CC30
CC30
C630
C630
C330
C330
C1B0
C1B0
C0F0
C0F0
C070
C070
ENDCHAR
STARTCHAR char79
ENCODING 210
SWIDTH 480 0
DWIDTH 12 0
BBX 12 23 0 0
BITMAP
3000
1800
0C00
0600
0000
1F80
3FC0
70E0
6060
C030
C030
C030
C030
C030
C030
C030
C030
C030
C030
6060
70E0
3FC0
1F80
ENDCHAR
STARTCHAR char79
ENCODING 211
SWIDTH 480 0
DWIDTH 12 0
BBX 12 23 0 0
BITMAP
00C0
0180
0300
0600
0000
1F80
3FC0
70E0
6060
C030
C030
C030
C030
C030
C030
C030
C030
C030
C030
6060
70E0
3FC0
1F80
ENDCHAR
STARTCHAR char79
ENCODING 212
SWIDTH 480 0
DWIDTH 12 0
BBX 12 23 0 0
BITMAP
0600
0F00
1980
30C0
0000
1F80
3FC0
70E0
6060
C030
C030
C030
C030
C030
C030
C030
C030
C030
C030
6060
70E0
3FC0
1F80
ENDCHAR
STARTCHAR char79
ENCODING 213
SWIDTH 480 0
DWIDTH 12 0
BBX 12 23 0 0
BITMAP
0C20
1E60
33C0
2180
0000
1F80
3FC0
70E0
6060
C030
C030
C030
C030
C030
C030
C030
C030
C030
C030
6060
70E0
3FC0
1F80
ENDCHAR
STARTCHAR char79
ENCODING 214
SWIDTH 480 0
DWIDTH 12 0
BBX 12 22 0 0
BITMAP
30C0
30C0
0000
0000
1F80
3FC0
70E0
6060
C030
C030
C030
C030
C030
C030
C030
C030
C030
C030
6060
70E0
3FC0
1F80
ENDCHAR
STARTCHAR char79
ENCODING 216
SWIDTH 520 0
DWIDTH 13 0
BBX 14 21 -1 -2
BITMAP
0004
0FC8
1FE8
3870
3038
6038
6058
6098
6098
6118
6118
6218
6418
6418
6818
3830
3870
3FE0
4FC0
4000
8000
ENDCHAR
STARTCHAR char85
ENCODING 217
SWIDTH 440 0
DWIDTH 11 0
BBX 11 23 0 0
BITMAP
3000
1800
0C00
0600
0000
C060
C060
C060
C060
C060
C060
C060
C060
C060
C060
C060
C060
C060
C060
C060
E0E0
7FC0
3F80
ENDCHAR
STARTCHAR char85
ENCODING 218
SWIDTH 440 0
DWIDTH 11 0
BBX 11 23 0 0
BITMAP
0180
0300
0600
0C00
0000
C060
C060
C060
C060
C060
C060
C060
C060
C060
C060
C060
C060
C060
C060
C060
E0E0
7FC0
3F80
ENDCHAR
STARTCHAR char85
ENCODING 219
SWIDTH 440 0
DWIDTH 11 0
BBX 11 23 0 0
BITMAP
0600
0F00
1980
30C0
0000
C060
C060
C060
C060
C060
C060
C060
C060
C060
C060
C060
C060
C060
C060
C060
E0E0
7FC0
3F80
ENDCHAR
STARTCHAR char85
ENCODING 220
SWIDTH 440 0
DWIDTH 11 0
BBX 11 22 0 0
BITMAP
3180
3180
0000
0000
C060
C060
C060
C060
C060
C060
C060
C060
C060
C060
C060
C060
C060
C060
C060
E0E0
7FC0
3F80
ENDCHAR
STARTCHAR char89
ENCODING 221
SWIDTH 480 0
DWIDTH 12 0
BBX 12 23 0 0
BITMAP
00C0
0180
0300
0600
0000
C030
C030
6060
6060
30C0
30C0
1980
1980
0F00
0F00
0600
0600
0600
0600
0600
0600
0600
0600
ENDCHAR
STARTCHAR char80
ENCODING 222
SWIDTH 440 0
DWIDTH 11 0
BBX 11 22 0 -4
BITMAP
C000
C000
C000
C000
FF80
FFC0
C0E0
C060
C060
C060
C060
C0E0
FFC0
FF00
C000
C000
C000
C000
C000
C000
C000
C000
ENDCHAR
STARTCHAR char223
ENCODING 223
SWIDTH 400 0
DWIDTH 10 0
BBX 10 18 0 0
BITMAP
1E00
7F00
6180
C180
C180
C180
C180
CF00
CF00
C180
C0C0
C0C0
C0C0
C0C0
C0C0
C1C0
CF80
CF00
ENDCHAR
STARTCHAR char97
ENCODING 224
SWIDTH 400 0
DWIDTH 10 0
BBX 10 17 0 0
BITMAP
C000
6000
3000
1800
0000
3E00
FF00
C180
0180
0180
3F80
FD80
C180
C180
C180
E780
7EC0
ENDCHAR
STARTCHAR char97
ENCODING 225
SWIDTH 400 0
DWIDTH 10 0
BBX 10 17 0 0
BITMAP
0300
0600
0C00
1800
0000
3E00
FF00
C180
0180
0180
3F80
FD80
C180
C180
C180
E780
7EC0
ENDCHAR
STARTCHAR char97
ENCODING 226
SWIDTH 400 0
DWIDTH 10 0
BBX 10 17 0 0
BITMAP
0C00
1E00
3300
6180
0000
3E00
FF00
C180
0180
0180
3F80
FD80
C180
C180
C180
E780
7EC0
ENDCHAR
STARTCHAR char97
ENCODING 227
SWIDTH 400 0
DWIDTH 10 0
BBX 10 17 0 0
BITMAP
3080
7980
CF00
8600
0000
3E00
FF00
C180
0180
0180
3F80
FD80
C180
C180
C180
E780
7EC0
ENDCHAR
STARTCHAR char97
ENCODING 228
SWIDTH 400 0
DWIDTH 10 0
BBX 10 16 0 0
BITMAP
6300
6300
0000
0000
3E00
FF00
C180
0180
0180
3F80
FD80
C180
C180
C180
E780
7EC0
ENDCHAR
STARTCHAR char97
ENCODING 229
SWIDTH 400 0
DWIDTH 10 0
BBX 10 17 0 0
BITMAP
0C00
1200
1200
0C00
0000
3E00
FF00
C180
0180
0180
3F80
FD80
C180
C180
C180
E780
7EC0
ENDCHAR
STARTCHAR char97
ENCODING 230
SWIDTH 680 0
DWIDTH 17 0
BBX 17 12 0 0
BITMAP
3E3E00
FF7F00
C1C380
018180
018180
3FFF80
FDFF80
C18000
C18000
C1C180
E7FF00
7EBE00
ENDCHAR
STARTCHAR char100
ENCODING 231
SWIDTH 360 0
DWIDTH 9 0
BBX 9 16 0 -4
BITMAP
3E00
7F00
E180
C000
C000
C000
C000
C000
C000
E180
7F00
3E00
0C00
0600
3300
1E00
ENDCHAR
STARTCHAR char100
ENCODING 232
SWIDTH 360 0
DWIDTH 9 0
BBX 9 17 0 0
BITMAP
6000
3000
1800
0C00
0000
3E00
7F00
E380
C180
C180
FF80
FF80
C000
C000
E180
7F00
3E00
ENDCHAR
STARTCHAR char100
ENCODING 233
SWIDTH 360 0
DWIDTH 9 0
BBX 9 17 0 0
BITMAP
0300
0600
0C00
1800
0000
3E00
7F00
E380
C180
C180
FF80
FF80
C000
C000
E180
7F00
3E00
ENDCHAR
STARTCHAR char100
ENCODING 234
SWIDTH 360 0
DWIDTH 9 0
BBX 9 17 0 0
BITMAP
0C00
1E00
3300
6180
0000
3E00
7F00
E380
C180
C180
FF80
FF80
C000
C000
E180
7F00
3E00
ENDCHAR
STARTCHAR char100
ENCODING 235
SWIDTH 360 0
DWIDTH 9 0
BBX 9 16 0 0
BITMAP
6300
6300
0000
0000
3E00
7F00
E380
C180
C180
FF80
FF80
C000
C000
E180
7F00
3E00
ENDCHAR
STARTCHAR char105
ENCODING 236
SWIDTH 120 0
DWIDTH 3 0
BBX 4 17 -1 0
BITMAP
C0
60
30
00
00
30
30
30
30
30
30
30
30
30
30
30
30
ENDCHAR
STARTCHAR char105
ENCODING 237
SWIDTH 200 0
DWIDTH 5 0
BBX 4 17 1 0
BITMAP
30
60
C0
00
00
C0
C0
C0
C0
C0
C0
C0
C0
C0
C0
C0
C0
ENDCHAR
STARTCHAR char105
ENCODING 238
SWIDTH 200 0
DWIDTH 5 0
BBX 6 17 -1 0
BITMAP
30
78
CC
00
00
30
30
30
30
30
30
30
30
30
30
30
30
ENDCHAR
STARTCHAR char105
ENCODING 239
SWIDTH 240 0
DWIDTH 6 0
BBX 6 16 0 0
BITMAP
CC
CC
00
00
30
30
30
30
30
30
30
30
30
30
30
30
ENDCHAR
STARTCHAR char100
ENCODING 240
SWIDTH 440 0
DWIDTH 11 0
BBX 11 18 0 0
BITMAP
00C0
00C0
07E0
07E0
00C0
00C0
3EC0
7FC0
61C0
C0C0
C0C0
C0C0
C0C0
C0C0
C0C0
61C0
7FC0
3EC0
ENDCHAR
STARTCHAR char104
ENCODING 241
SWIDTH 400 0
DWIDTH 10 0
BBX 10 17 0 0
BITMAP
1840
3CC0
6780
4300
0000
CF00
DF80
F0C0
C0C0
C0C0
C0C0
C0C0
C0C0
C0C0
C0C0
C0C0
C0C0
ENDCHAR
STARTCHAR char100
ENCODING 242
SWIDTH 400 0
DWIDTH 10 0
BBX 10 17 0 0
BITMAP
6000
3000
1800
0C00
0000
3F00
7F80
E1C0
C0C0
C0C0
C0C0
C0C0
C0C0
C0C0
E1C0
7F80
3F00
ENDCHAR
STARTCHAR char100
ENCODING 243
SWIDTH 400 0
DWIDTH 10 0
BBX 10 17 0 0
BITMAP
0180
0300
0600
0C00
0000
3F00
7F80
E1C0
C0C0
C0C0
C0C0
C0C0
C0C0
C0C0
E1C0
7F80
3F00
ENDCHAR
STARTCHAR char100
ENCODING 244
SWIDTH 400 0
DWIDTH 10 0
BBX 10 17 0 0
BITMAP
0C00
1E00
3300
6180
0000
3F00
7F80
E1C0
C0C0
C0C0
C0C0
C0C0
C0C0
C0C0
E1C0
7F80
3F00
ENDCHAR
STARTCHAR char100
ENCODING 245
SWIDTH 400 0
DWIDTH 10 0
BBX 10 17 0 0
BITMAP
1840
3CC0
6780
4300
0000
3F00
7F80
E1C0
C0C0
C0C0
C0C0
C0C0
C0C0
C0C0
E1C0
7F80
3F00
ENDCHAR
STARTCHAR char100
ENCODING 246
SWIDTH 400 0
DWIDTH 10 0
BBX 10 16 0 0
BITMAP
3300
3300
0000
0000
3F00
7F80
E1C0
C0C0
C0C0
C0C0
C0C0
C0C0
C0C0
E1C0
7F80
3F00
ENDCHAR
STARTCHAR char100
ENCODING 248
SWIDTH 440 0
DWIDTH 11 0
BBX 12 13 -1 -1
BITMAP
1F90
3FE0
70E0
60E0
6160
6260
6460
6460
6860
70E0
3FC0
5F80
8000
ENDCHAR
STARTCHAR char117
ENCODING 249
SWIDTH 400 0
DWIDTH 10 0
BBX 10 17 0 0
BITMAP
6000
3000
1800
0C00
0000
C0C0
C0C0
C0C0
C0C0
C0C0
C0C0
C0C0
C0C0
C0C0
E3C0
7EC0
3CC0
ENDCHAR
STARTCHAR char117
ENCODING 250
SWIDTH 400 0
DWIDTH 10 0
BBX 10 17 0 0
BITMAP
0180
0300
0600
0C00
0000
C0C0
C0C0
C0C0
C0C0
C0C0
C0C0
C0C0
C0C0
C0C0
E3C0
7EC0
3CC0
ENDCHAR
STARTCHAR char117
ENCODING 251
SWIDTH 400 0
DWIDTH 10 0
BBX 10 17 0 0
BITMAP
0C00
1E00
3300
6180
0000
C0C0
C0C0
C0C0
C0C0
C0C0
C0C0
C0C0
C0C0
C0C0
E3C0
7EC0
3CC0
ENDCHAR
STARTCHAR char117
ENCODING 252
SWIDTH 400 0
DWIDTH 10 0
BBX 10 16 0 0
BITMAP
3300
3300
0000
0000
C0C0
C0C0
C0C0
C0C0
C0C0
C0C0
C0C0
C0C0
C0C0
E3C0
7EC0
3CC0
ENDCHAR
STARTCHAR char118
ENCODING 253
SWIDTH 440 0
DWIDTH 11 0
BBX 11 22 0 -5
BITMAP
0180
0300
0600
0C00
0000
C060
C060
60C0
60C0
3180
3180
3180
1B00
1B00
0E00
0E00
0C00
0C00
1800
1800
7000
6000
ENDCHAR
STARTCHAR char98
ENCODING 254
SWIDTH 400 0
DWIDTH 10 0
BBX 10 22 0 -6
BITMAP
C000
C000
C000
C000
DF00
FF80
E180
C0C0
C0C0
C0C0
C0C0
C0C0
C0C0
E180
FF80
DF00
C000
C000
C000
C000
C000
C000
ENDCHAR
STARTCHAR char118
ENCODING 255
SWIDTH 440 0
DWIDTH 11 0
BBX 11 21 0 -5
BITMAP
1980
1980
0000
0000
C060
C060
60C0
60C0
3180
3180
3180
1B00
1B00
0E00
0E00
0C00
0C00
1800
1800
7000
6000
ENDCHAR
STARTCHAR char101
ENCODING 258
SWIDTH 480 0
DWIDTH 12 0
BBX 12 23 0 0
BITMAP
2040
30C0
1F80
0F00
0000
0600
0600
0600
0F00
0F00
0F00
1980
1980
1980
30C0
30C0
3FC0
7FE0
6060
6060
C030
C030
C030
ENDCHAR
STARTCHAR char97
ENCODING 259
SWIDTH 400 0
DWIDTH 10 0
BBX 10 17 0 0
BITMAP
4080
6180
3F00
1E00
0000
3E00
FF00
C180
0180
0180
3F80
FD80
C180
C180
C180
E780
7EC0
ENDCHAR
STARTCHAR char101
ENCODING 260
SWIDTH 480 0
DWIDTH 12 0
BBX 12 23 0 -5
BITMAP
0600
0600
0600
0F00
0F00
0F00
1980
1980
1980
30C0
30C0
3FC0
7FE0
6060
6060
C030
C030
C030
00C0
0180
0180
01C0
00E0
ENDCHAR
STARTCHAR char97
ENCODING 261
SWIDTH 400 0
DWIDTH 10 0
BBX 10 17 0 -5
BITMAP
3E00
FF00
C180
0180
0180
3F80
FD80
C180
C180
C180
E780
7EC0
0300
0600
0600
0700
0380
ENDCHAR
STARTCHAR char79
ENCODING 262
SWIDTH 480 0
DWIDTH 12 0
BBX 12 23 0 0
BITMAP
00C0
0180
0300
0600
0000
1FC0
3FE0
7070
6030
C000
C000
C000
C000
C000
C000
C000
C000
C000
C000
6030
7070
3FE0
1FC0
ENDCHAR
STARTCHAR char100
ENCODING 263
SWIDTH 360 0
DWIDTH 9 0
BBX 9 17 0 0
BITMAP
0300
0600
0C00
1800
0000
3E00
7F00
E180
C000
C000
C000
C000
C000
C000
E180
7F00
3E00
ENDCHAR
STARTCHAR char79
ENCODING 264
SWIDTH 480 0
DWIDTH 12 0
BBX 12 23 0 0
BITMAP
0300
0780
0CC0
1860
0000
1FC0
3FE0
7070
6030
C000
C000
C000
C000
C000
C000
C000
C000
C000
C000
6030
7070
3FE0
1FC0
ENDCHAR
STARTCHAR char100
ENCODING 265
SWIDTH 360 0
DWIDTH 9 0
BBX 9 16 0 0
BITMAP
0C00
1E00
3300
0000
3E00
7F00
E180
C000
C000
C000
C000
C000
C000
E180
7F00
3E00
ENDCHAR
STARTCHAR char79
ENCODING 266
SWIDTH 480 0
DWIDTH 12 0
BBX 12 22 0 0
BITMAP
0600
0600
0000
0000
1FC0
3FE0
7070
6030
C000
C000
C000
C000
C000
C000
C000
C000
C000
C000
6030
7070
3FE0
1FC0
ENDCHAR
STARTCHAR char100
ENCODING 267
SWIDTH 360 0
DWIDTH 9 0
BBX 9 16 0 0
BITMAP
0C00
0C00
0000
0000
3E00
7F00
E180
C000
C000
C000
C000
C000
C000
E180
7F00
3E00
ENDCHAR
STARTCHAR char79
ENCODING 268
SWIDTH 480 0
DWIDTH 12 0
BBX 12 23 0 0
BITMAP
1860
0CC0
0780
0300
0000
1FC0
3FE0
7070
6030
C000
C000
C000
C000
C000
C000
C000
C000
C000
C000
6030
7070
3FE0
1FC0
ENDCHAR
STARTCHAR char100
ENCODING 269
SWIDTH 360 0
DWIDTH 9 0
BBX 9 17 0 0
BITMAP
6180
3300
1E00
0C00
0000
3E00
7F00
E180
C000
C000
C000
C000
C000
C000
E180
7F00
3E00
ENDCHAR
STARTCHAR char104
ENCODING 270
SWIDTH 480 0
DWIDTH 12 0
BBX 12 23 0 0
BITMAP
30C0
1980
0F00
0600
0000
FF00
FFC0
C0E0
C060
C030
C030
C030
C030
C030
C030
C030
C030
C030
C030
C060
C0E0
FFC0
FF00
ENDCHAR
STARTCHAR char100
ENCODING 271
SWIDTH 400 0
DWIDTH 10 0
BBX 10 21 0 0
BITMAP
6180
3300
1E00
0CC0
00C0
00C0
00C0
00C0
00C0
3EC0
7FC0
61C0
C0C0
C0C0
C0C0
C0C0
C0C0
C0C0
61C0
7FC0
3EC0
ENDCHAR
STARTCHAR char104
ENCODING 272
SWIDTH 560 0
DWIDTH 14 0
BBX 14 18 0 0
BITMAP
3FC0
3FF0
3038
3018
300C
300C
300C
300C
FF0C
FF0C
300C
300C
300C
300C
3018
3038
3FF0
3FC0
ENDCHAR
STARTCHAR char100
ENCODING 273
SWIDTH 440 0
DWIDTH 11 0
BBX 11 18 0 0
BITMAP
00C0
00C0
07E0
07E0
00C0
00C0
3EC0
7FC0
61C0
C0C0
C0C0
C0C0
C0C0
C0C0
C0C0
61C0
7FC0
3EC0
ENDCHAR
STARTCHAR char105
ENCODING 280
SWIDTH 440 0
DWIDTH 11 0
BBX 11 23 0 -5
BITMAP
FFE0
FFE0
C000
C000
C000
C000
C000
C000
FF80
FF80
C000
C000
C000
C000
C000
C000
FFE0
FFE0
0600
0600
0600
0700
0380
ENDCHAR
STARTCHAR char100
ENCODING 281
SWIDTH 360 0
DWIDTH 9 0
BBX 9 17 0 -5
BITMAP
3E00
7F00
E380
C180
C180
FF80
FF80
C000
C000
E180
7F00
3E00
0C00
0C00
0C00
0E00
0700
ENDCHAR
STARTCHAR char105
ENCODING 282
SWIDTH 440 0
DWIDTH 11 0
BBX 11 23 0 0
BITMAP
30C0
1980
0F00
0600
0000
FFE0
FFE0
C000
C000
C000
C000
C000
C000
FF80
FF80
C000
C000
C000
C000
C000
C000
FFE0
FFE0
ENDCHAR
STARTCHAR char100
ENCODING 283
SWIDTH 360 0
DWIDTH 9 0
BBX 9 17 0 0
BITMAP
6180
3300
1E00
0C00
0000
3E00
7F00
E380
C180
C180
FF80
FF80
C000
C000
E180
7F00
3E00
ENDCHAR
STARTCHAR char79
ENCODING 284
SWIDTH 480 0
DWIDTH 12 0
BBX 12 23 0 0
BITMAP
0300
0780
0CC0
1860
0000
1FC0
3FE0
7070
6030
C000
C000
C000
C000
C000
C3F0
C3F0
C030
C030
C030
6030
7070
3FE0
1FC0
ENDCHAR
STARTCHAR char100
ENCODING 285
SWIDTH 400 0
DWIDTH 10 0
BBX 10 23 0 -6
BITMAP
0C00
1E00
3300
6180
0000
3EC0
7FC0
61C0
C0C0
C0C0
C0C0
C0C0
C0C0
C0C0
61C0
7FC0
3EC0
00C0
00C0
C0C0
E1C0
7F80
3F00
ENDCHAR
STARTCHAR char79
ENCODING 286
SWIDTH 480 0
DWIDTH 12 0
BBX 12 23 0 0
BITMAP
2040
30C0
1F80
0F00
0000
1FC0
3FE0
7070
6030
C000
C000
C000
C000
C000
C3F0
C3F0
C030
C030
C030
6030
7070
3FE0
1FC0
ENDCHAR
STARTCHAR char100
ENCODING 287
SWIDTH 400 0
DWIDTH 10 0
BBX 10 23 0 -6
BITMAP
4080
6180
3F00
1E00
0000
3EC0
7FC0
61C0
C0C0
C0C0
C0C0
C0C0
C0C0
C0C0
61C0
7FC0
3EC0
00C0
00C0
C0C0
E1C0
7F80
3F00
ENDCHAR
STARTCHAR char79
ENCODING 288
SWIDTH 480 0
DWIDTH 12 0
BBX 12 22 0 0
BITMAP
0300
0300
0000
0000
1FC0
3FE0
7070
6030
C000
C000
C000
C000
C000
C3F0
C3F0
C030
C030
C030
6030
7070
3FE0
1FC0
ENDCHAR
STARTCHAR char100
ENCODING 289
SWIDTH 400 0
DWIDTH 10 0
BBX 10 22 0 -6
BITMAP
0C00
0C00
0000
0000
3EC0
7FC0
61C0
C0C0
C0C0
C0C0
C0C0
C0C0
C0C0
61C0
7FC0
3EC0
00C0
00C0
C0C0
E1C0
7F80
3F00
ENDCHAR
STARTCHAR char108
ENCODING 292
SWIDTH 480 0
DWIDTH 12 0
BBX 12 23 0 0
BITMAP
0600
0F00
1980
30C0
0000
C030
C030
C030
C030
C030
C030
C030
C030
FFF0
FFF0
C030
C030
C030
C030
C030
C030
C030
C030
ENDCHAR
STARTCHAR char104
ENCODING 293
SWIDTH 400 0
DWIDTH 10 0
BBX 10 23 0 0
BITMAP
0C00
1E00
3300
6180
0000
C000
C000
C000
C000
C000
C000
CF00
DF80
F0C0
C0C0
C0C0
C0C0
C0C0
C0C0
C0C0
C0C0
C0C0
C0C0
ENDCHAR
STARTCHAR char108
ENCODING 294
SWIDTH 480 0
DWIDTH 12 0
BBX 12 18 0 0
BITMAP
C030
C030
C030
FFF0
FFF0
C030
C030
C030
FFF0
FFF0
C030
C030
C030
C030
C030
C030
C030
C030
ENDCHAR
STARTCHAR char104
ENCODING 295
SWIDTH 400 0
DWIDTH 10 0
BBX 10 18 0 0
BITMAP
C000
C000
FF00
FF00
C000
C000
CF00
DF80
F0C0
C0C0
C0C0
C0C0
C0C0
C0C0
C0C0
C0C0
C0C0
C0C0
ENDCHAR
STARTCHAR char109
ENCODING 304
SWIDTH 80 0
DWIDTH 2 0
BBX 2 21 0 0
BITMAP
C0
C0
00
C0
C0
C0
C0
C0
C0
C0
C0
C0
C0
C0
C0
C0
C0
C0
C0
C0
C0
ENDCHAR
STARTCHAR char105
ENCODING 305
SWIDTH 80 0
DWIDTH 2 0
BBX 2 12 0 0
BITMAP
C0
C0
C0
C0
C0
C0
C0
C0
C0
C0
C0
C0
ENDCHAR
STARTCHAR char74
ENCODING 308
SWIDTH 400 0
DWIDTH 10 0
BBX 10 23 0 0
BITMAP
0600
0F00
1980
30C0
0000
0300
0300
0300
0300
0300
0300
0300
0300
0300
0300
0300
0300
0300
0300
C300
C600
7E00
3C00
ENDCHAR
STARTCHAR char106
ENCODING 309
SWIDTH 360 0
DWIDTH 9 0
BBX 9 22 0 -4
BITMAP
0C00
1E00
3300
6180
0000
0000
0600
0600
0600
0600
0600
0600
0600
0600
0600
0600
0600
0600
0600
CE00
FC00
7800
ENDCHAR
STARTCHAR char76
ENCODING 313
SWIDTH 400 0
DWIDTH 10 0
BBX 10 23 0 0
BITMAP
1800
3000
6000
C000
0000
C000
C000
C000
C000
C000
C000
C000
C000
C000
C000
C000
C000
C000
C000
C000
C000
FFC0
FFC0
ENDCHAR
STARTCHAR char108
ENCODING 314
SWIDTH 160 0
DWIDTH 4 0
BBX 5 23 1 0
BITMAP
18
30
60
C0
00
C0
C0
C0
C0
C0
C0
C0
C0
C0
C0
C0
C0
C0
C0
C0
C0
C0
C0
ENDCHAR
STARTCHAR char76
ENCODING 317
SWIDTH 400 0
DWIDTH 10 0
BBX 10 18 0 0
BITMAP
C380
C180
C180
C180
C300
C000
C000
C000
C000
C000
C000
C000
C000
C000
C000
C000
FFC0
FFC0
ENDCHAR
STARTCHAR char108
ENCODING 318
SWIDTH 320 0
DWIDTH 8 0
BBX 8 18 1 0
BITMAP
C7
C3
C3
C3
C6
C0
C0
C0
C0
C0
C0
C0
C0
C0
C0
C0
C0
C0
ENDCHAR
STARTCHAR char76
ENCODING 321
SWIDTH 440 0
DWIDTH 11 0
BBX 11 18 0 0
BITMAP
6000
6000
6000
6200
6600
6C00
7800
7000
E000
E000
6000
6000
6000
6000
6000
6000
7FE0
7FE0
ENDCHAR
STARTCHAR char108
ENCODING 322
SWIDTH 240 0
DWIDTH 6 0
BBX 6 18 0 0
BITMAP
60
60
60
64
6C
78
70
E0
E0
60
60
60
60
60
60
60
60
60
ENDCHAR
STARTCHAR char78
ENCODING 323
SWIDTH 480 0
DWIDTH 12 0
BBX 12 23 0 0
BITMAP
00C0
0180
0300
0600
0000
E030
E030
F030
F030
D830
D830
CC30
CC30
C630
C630
C330
C330
C1B0
C1B0
C0F0
C0F0
C070
C070
ENDCHAR
STARTCHAR char104
ENCODING 324
SWIDTH 400 0
DWIDTH 10 0
BBX 10 17 0 0
BITMAP
0180
0300
0600
0C00
0000
CF00
DF80
F0C0
C0C0
C0C0
C0C0
C0C0
C0C0
C0C0
C0C0
C0C0
C0C0
ENDCHAR
STARTCHAR char78
ENCODING 327
SWIDTH 480 0
DWIDTH 12 0
BBX 12 23 0 0
BITMAP
30C0
1980
0F00
0600
0000
E030
E030
F030
F030
D830
D830
CC30
CC30
C630
C630
C330
C330
C1B0
C1B0
C0F0
C0F0
C070
C070
ENDCHAR
STARTCHAR char104
ENCODING 328
SWIDTH 400 0
DWIDTH 10 0
BBX 10 17 0 0
BITMAP
C300
6600
3C00
1800
0000
CF00
DF80
F0C0
C0C0
C0C0
C0C0
C0C0
C0C0
C0C0
C0C0
C0C0
C0C0
ENDCHAR
STARTCHAR char79
ENCODING 336
SWIDTH 480 0
DWIDTH 12 0
BBX 12 23 0 0
BITMAP
0630
0C60
18C0
3180
0000
1F80
3FC0
70E0
6060
C030
C030
C030
C030
C030
C030
C030
C030
C030
C030
6060
70E0
3FC0
1F80
ENDCHAR
STARTCHAR char100
ENCODING 337
SWIDTH 400 0
DWIDTH 10 0
BBX 10 16 0 0
BITMAP
0CC0
1980
3300
0000
3F00
7F80
E1C0
C0C0
C0C0
C0C0
C0C0
C0C0
C0C0
E1C0
7F80
3F00
ENDCHAR
STARTCHAR char80
ENCODING 340
SWIDTH 480 0
DWIDTH 12 0
BBX 12 23 0 0
BITMAP
0300
0600
0C00
1800
0000
FF80
FFC0
C0E0
C060
C060
C060
C060
C0E0
FFC0
FF80
C700
C380
C180
C180
C0C0
C0C0
C060
C070
ENDCHAR
STARTCHAR char114
ENCODING 341
SWIDTH 280 0
DWIDTH 7 0
BBX 7 17 0 0
BITMAP
0C
18
30
60
00
C6
CE
D8
F0
E0
C0
C0
C0
C0
C0
C0
C0
ENDCHAR
STARTCHAR char80
ENCODING 344
SWIDTH 480 0
DWIDTH 12 0
BBX 12 23 0 0
BITMAP
6180
3300
1E00
0C00
0000
FF80
FFC0
C0E0
C060
C060
C060
C060
C0E0
FFC0
FF80
C700
C380
C180
C180
C0C0
C0C0
C060
C070
ENDCHAR
STARTCHAR char114
ENCODING 345
SWIDTH 280 0
DWIDTH 7 0
BBX 8 17 -1 0
BITMAP
C3
66
3C
18
00
63
67
6C
78
70
60
60
60
60
60
60
60
ENDCHAR
STARTCHAR char83
ENCODING 346
SWIDTH 440 0
DWIDTH 11 0
BBX 11 23 0 0
BITMAP
0180
0300
0600
0C00
0000
1F00
7FC0
60E0
C060
C000
C000
6000
7800
1E00
0F00
03C0
00C0
0060
0060
C060
E0C0
7FC0
1F00
ENDCHAR
STARTCHAR char115
ENCODING 347
SWIDTH 360 0
DWIDTH 9 0
BBX 9 17 0 0
BITMAP
0300
0600
0C00
1800
0000
3E00
7F00
E180
C000
E000
7C00
1F00
0380
0180
C380
7F00
3E00
ENDCHAR
STARTCHAR char83
ENCODING 348
SWIDTH 440 0
DWIDTH 11 0
BBX 11 23 0 0
BITMAP
0600
0F00
1980
30C0
0000
1F00
7FC0
60E0
C060
C000
C000
6000
7800
1E00
0F00
03C0
00C0
0060
0060
C060
E0C0
7FC0
1F00
ENDCHAR
STARTCHAR char115
ENCODING 349
SWIDTH 360 0
DWIDTH 9 0
BBX 9 17 0 0
BITMAP
0C00
1E00
3300
6180
0000
3E00
7F00
E180
C000
E000
7C00
1F00
0380
0180
C380
7F00
3E00
ENDCHAR
STARTCHAR char83
ENCODING 350
SWIDTH 440 0
DWIDTH 11 0
BBX 11 23 0 -5
BITMAP
1F00
7FC0
60E0
C060
C000
C000
6000
7800
1E00
0F00
03C0
00C0
0060
0060
C060
E0C0
7FC0
1F00
0600
0300
0180
1980
0F00
ENDCHAR
STARTCHAR char115
ENCODING 351
SWIDTH 360 0
DWIDTH 9 0
BBX 9 16 0 -4
BITMAP
3E00
7F00
E180
C000
E000
7C00
1F00
0380
0180
C380
7F00
3E00
0C00
0600
3300
1E00
ENDCHAR
STARTCHAR char83
ENCODING 352
SWIDTH 440 0
DWIDTH 11 0
BBX 11 23 0 0
BITMAP
30C0
1980
0F00
0600
0000
1F00
7FC0
60E0
C060
C000
C000
6000
7800
1E00
0F00
03C0
00C0
0060
0060
C060
E0C0
7FC0
1F00
ENDCHAR
STARTCHAR char115
ENCODING 353
SWIDTH 360 0
DWIDTH 9 0
BBX 9 17 0 0
BITMAP
6180
3300
1E00
0C00
0000
3E00
7F00
E180
C000
E000
7C00
1F00
0380
0180
C380
7F00
3E00
ENDCHAR
STARTCHAR char84
ENCODING 354
SWIDTH 480 0
DWIDTH 12 0
BBX 12 23 0 -5
BITMAP
FFF0
FFF0
0600
0600
0600
0600
0600
0600
0600
0600
0600
0600
0600
0600
0600
0600
0600
0600
0300
0180
00C0
0CC0
0780
ENDCHAR
STARTCHAR char116
ENCODING 355
SWIDTH 320 0
DWIDTH 8 0
BBX 8 22 0 -4
BITMAP
18
18
18
18
18
18
FF
FF
18
18
18
18
18
18
18
18
1F
0F
0C
06
33
1E
ENDCHAR
STARTCHAR char84
ENCODING 356
SWIDTH 480 0
DWIDTH 12 0
BBX 12 23 0 0
BITMAP
30C0
1980
0F00
0600
0000
FFF0
FFF0
0600
0600
0600
0600
0600
0600
0600
0600
0600
0600
0600
0600
0600
0600
0600
0600
ENDCHAR
STARTCHAR char116
ENCODING 357
SWIDTH 320 0
DWIDTH 8 0
BBX 8 23 0 0
BITMAP
C3
66
3C
18
00
18
18
18
18
18
FF
FF
18
18
18
18
18
18
18
18
18
1F
0F
ENDCHAR
STARTCHAR char85
ENCODING 364
SWIDTH 440 0
DWIDTH 11 0
BBX 11 23 0 0
BITMAP
4080
6180
3F00
1E00
0000
C060
C060
C060
C060
C060
C060
C060
C060
C060
C060
C060
C060
C060
C060
C060
E0E0
7FC0
3F80
ENDCHAR
STARTCHAR char117
ENCODING 365
SWIDTH 400 0
DWIDTH 10 0
BBX 10 17 0 0
BITMAP
4080
6180
3F00
1E00
0000
C0C0
C0C0
C0C0
C0C0
C0C0
C0C0
C0C0
C0C0
C0C0
E3C0
7EC0
3CC0
ENDCHAR
STARTCHAR char85
ENCODING 366
SWIDTH 440 0
DWIDTH 11 0
BBX 11 23 0 0
BITMAP
0600
0900
0900
0600
0000
C060
C060
C060
C060
C060
C060
C060
C060
C060
C060
C060
C060
C060
C060
C060
E0E0
7FC0
3F80
ENDCHAR
STARTCHAR char117
ENCODING 367
SWIDTH 400 0
DWIDTH 10 0
BBX 10 17 0 0
BITMAP
0C00
1200
1200
0C00
0000
C0C0
C0C0
C0C0
C0C0
C0C0
C0C0
C0C0
C0C0
C0C0
E3C0
7EC0
3CC0
ENDCHAR
STARTCHAR char85
ENCODING 368
SWIDTH 440 0
DWIDTH 11 0
BBX 11 23 0 0
BITMAP
0C60
18C0
3180
6300
0000
C060
C060
C060
C060
C060
C060
C060
C060
C060
C060
C060
C060
C060
C060
C060
E0E0
7FC0
3F80
ENDCHAR
STARTCHAR char117
ENCODING 369
SWIDTH 400 0
DWIDTH 10 0
BBX 10 17 0 0
BITMAP
0CC0
1980
3300
6600
0000
C0C0
C0C0
C0C0
C0C0
C0C0
C0C0
C0C0
C0C0
C0C0
E3C0
7EC0
3CC0
ENDCHAR
STARTCHAR char90
ENCODING 377
SWIDTH 400 0
DWIDTH 10 0
BBX 10 23 0 0
BITMAP
0180
0300
0600
0C00
0000
FFC0
FFC0
00C0
0180
0180
0300
0300
0600
0C00
0C00
1800
3000
3000
6000
6000
C000
FFC0
FFC0
ENDCHAR
STARTCHAR char122
ENCODING 378
SWIDTH 320 0
DWIDTH 8 0
BBX 8 17 0 0
BITMAP
06
0C
18
30
00
FF
FF
03
06
0C
18
30
60
C0
C0
FF
FF
ENDCHAR
STARTCHAR char90
ENCODING 379
SWIDTH 400 0
DWIDTH 10 0
BBX 10 21 0 0
BITMAP
0C00
0C00
0000
FFC0
FFC0
00C0
0180
0180
0300
0300
0600
0C00
0C00
1800
3000
3000
6000
6000
C000
FFC0
FFC0
ENDCHAR
STARTCHAR char122
ENCODING 380
SWIDTH 320 0
DWIDTH 8 0
BBX 8 15 0 0
BITMAP
18
18
00
FF
FF
03
06
0C
18
30
60
C0
C0
FF
FF
ENDCHAR
STARTCHAR char90
ENCODING 381
SWIDTH 400 0
DWIDTH 10 0
BBX 10 23 0 0
BITMAP
6180
3300
1E00
0C00
0000
FFC0
FFC0
00C0
0180
0180
0300
0300
0600
0C00
0C00
1800
3000
3000
6000
6000
C000
FFC0
FFC0
ENDCHAR
STARTCHAR char122
ENCODING 382
SWIDTH 320 0
DWIDTH 8 0
BBX 8 17 0 0
BITMAP
C3
66
3C
18
00
FF
FF
03
06
0C
18
30
60
C0
C0
FF
FF
ENDCHAR
ENDFONT
