STARTFONT 2.1
FONT -dislin-helve-bold-r-normal--14-100-100-100-p-90-iso8859-1
SIZE 10 100 100
FONTBOUNDINGBOX 13 17 -1 -3
STARTPROPERTIES 9
POINT_SIZE 10
PIXEL_SIZE 14
RESOLUTION_X 100
RESOLUTION_Y 100
FONT_ASCENT 11
FONT_DESCENT 3
AVERAGE_WIDTH 90
SPACING "P"
_XMBDFED_INFO "Edited with xmbdfed 4.5."
ENDPROPERTIES
CHARS 235
STARTCHAR char32
ENCODING 32
SWIDTH 360 0
DWIDTH 5 0
BBX 0 0 0 0
BITMAP
ENDCHAR
STARTCHAR char33
ENCODING 33
SWIDTH 144 0
DWIDTH 2 0
BBX 2 10 0 0
BITMAP
C0
C0
C0
C0
C0
C0
00
00
C0
C0
ENDCHAR
STARTCHAR char34
ENCODING 34
SWIDTH 504 0
DWIDTH 7 0
BBX 7 4 0 6
BITMAP
EE
66
66
CE
ENDCHAR
STARTCHAR char35
ENCODING 35
SWIDTH 720 0
DWIDTH 10 0
BBX 9 8 0 1
BITMAP
1B00
1B00
7F80
3600
3600
FF00
6C00
6C00
ENDCHAR
STARTCHAR char83
ENCODING 36
SWIDTH 504 0
DWIDTH 7 0
BBX 7 14 0 -2
BITMAP
28
28
7C
EE
EE
E8
78
3C
2E
EE
EE
7C
28
28
ENDCHAR
STARTCHAR char37
ENCODING 37
SWIDTH 864 0
DWIDTH 12 0
BBX 12 11 0 0
BITMAP
78F0
DFE0
88C0
D980
7300
0600
0CE0
19B0
3110
61B0
C0E0
ENDCHAR
STARTCHAR char38
ENCODING 38
SWIDTH 648 0
DWIDTH 9 0
BBX 8 10 0 0
BITMAP
38
6C
44
6C
38
70
D9
CE
C6
7B
ENDCHAR
STARTCHAR char39
ENCODING 39
SWIDTH 216 0
DWIDTH 3 0
BBX 3 4 0 6
BITMAP
E0
60
60
C0
ENDCHAR
STARTCHAR char40
ENCODING 40
SWIDTH 288 0
DWIDTH 4 0
BBX 4 14 0 -2
BITMAP
10
30
60
60
C0
C0
C0
C0
C0
C0
60
60
30
10
ENDCHAR
STARTCHAR char41
ENCODING 41
SWIDTH 360 0
DWIDTH 5 0
BBX 4 14 0 -2
BITMAP
80
C0
60
60
30
30
30
30
30
30
60
60
C0
80
ENDCHAR
STARTCHAR char42
ENCODING 42
SWIDTH 504 0
DWIDTH 7 0
BBX 7 7 0 2
BITMAP
10
92
D6
38
D6
92
10
ENDCHAR
STARTCHAR char43
ENCODING 43
SWIDTH 504 0
DWIDTH 7 0
BBX 6 6 0 2
BITMAP
30
30
FC
FC
30
30
ENDCHAR
STARTCHAR char44
ENCODING 44
SWIDTH 216 0
DWIDTH 3 0
BBX 3 4 0 -3
BITMAP
E0
60
60
C0
ENDCHAR
STARTCHAR char45
ENCODING 45
SWIDTH 432 0
DWIDTH 6 0
BBX 6 2 0 4
BITMAP
FC
FC
ENDCHAR
STARTCHAR char46
ENCODING 46
SWIDTH 144 0
DWIDTH 2 0
BBX 2 2 0 0
BITMAP
C0
C0
ENDCHAR
STARTCHAR char47
ENCODING 47
SWIDTH 576 0
DWIDTH 8 0
BBX 7 12 0 -1
BITMAP
06
06
0C
0C
18
18
30
30
60
60
C0
C0
ENDCHAR
STARTCHAR char48
ENCODING 48
SWIDTH 432 0
DWIDTH 6 0
BBX 6 10 0 0
BITMAP
78
FC
CC
CC
CC
CC
CC
CC
FC
78
ENDCHAR
STARTCHAR char49
ENCODING 49
SWIDTH 360 0
DWIDTH 5 0
BBX 5 10 0 0
BITMAP
18
38
78
D8
18
18
18
18
18
18
ENDCHAR
STARTCHAR char50
ENCODING 50
SWIDTH 432 0
DWIDTH 6 0
BBX 6 10 0 0
BITMAP
78
FC
CC
CC
0C
18
30
60
FC
FC
ENDCHAR
STARTCHAR char51
ENCODING 51
SWIDTH 432 0
DWIDTH 6 0
BBX 6 10 0 0
BITMAP
78
FC
CC
0C
18
18
0C
CC
FC
78
ENDCHAR
STARTCHAR char52
ENCODING 52
SWIDTH 504 0
DWIDTH 7 0
BBX 7 10 0 0
BITMAP
0C
1C
3C
2C
6C
CC
FE
FE
0C
0C
ENDCHAR
STARTCHAR char53
ENCODING 53
SWIDTH 432 0
DWIDTH 6 0
BBX 6 10 0 0
BITMAP
FC
FC
C0
F8
FC
CC
0C
CC
FC
78
ENDCHAR
STARTCHAR char54
ENCODING 54
SWIDTH 432 0
DWIDTH 6 0
BBX 6 10 0 0
BITMAP
78
FC
CC
C0
F8
FC
CC
CC
FC
78
ENDCHAR
STARTCHAR char55
ENCODING 55
SWIDTH 432 0
DWIDTH 6 0
BBX 6 10 0 0
BITMAP
FC
FC
0C
18
18
30
30
60
60
60
ENDCHAR
STARTCHAR char56
ENCODING 56
SWIDTH 432 0
DWIDTH 6 0
BBX 6 10 0 0
BITMAP
78
FC
CC
CC
78
FC
CC
CC
FC
78
ENDCHAR
STARTCHAR char57
ENCODING 57
SWIDTH 432 0
DWIDTH 6 0
BBX 6 10 0 0
BITMAP
78
FC
CC
CC
FC
7C
0C
CC
FC
78
ENDCHAR
STARTCHAR char58
ENCODING 58
SWIDTH 144 0
DWIDTH 2 0
BBX 2 6 0 2
BITMAP
C0
C0
00
00
C0
C0
ENDCHAR
STARTCHAR char59
ENCODING 59
SWIDTH 216 0
DWIDTH 3 0
BBX 3 8 0 -3
BITMAP
60
60
00
00
E0
60
60
C0
ENDCHAR
STARTCHAR char60
ENCODING 60
SWIDTH 432 0
DWIDTH 6 0
BBX 6 6 0 2
BITMAP
0C
3C
F0
F0
3C
0C
ENDCHAR
STARTCHAR char61
ENCODING 61
SWIDTH 504 0
DWIDTH 7 0
BBX 7 6 0 2
BITMAP
FE
FE
00
00
FE
FE
ENDCHAR
STARTCHAR char62
ENCODING 62
SWIDTH 504 0
DWIDTH 7 0
BBX 6 6 0 2
BITMAP
C0
F0
3C
3C
F0
C0
ENDCHAR
STARTCHAR char63
ENCODING 63
SWIDTH 432 0
DWIDTH 6 0
BBX 6 10 0 0
BITMAP
78
FC
CC
0C
18
30
30
00
30
30
ENDCHAR
STARTCHAR char64
ENCODING 64
SWIDTH 792 0
DWIDTH 11 0
BBX 11 11 0 0
BITMAP
1F00
2080
4040
8D20
9320
9320
93C0
8C00
4020
20C0
1F00
ENDCHAR
STARTCHAR char101
ENCODING 65
SWIDTH 648 0
DWIDTH 9 0
BBX 8 10 0 0
BITMAP
18
18
3C
3C
66
66
66
FF
C3
C3
ENDCHAR
STARTCHAR char80
ENCODING 66
SWIDTH 504 0
DWIDTH 7 0
BBX 7 10 0 0
BITMAP
FC
FE
C6
C6
FC
FC
C6
C6
FE
FC
ENDCHAR
STARTCHAR char103
ENCODING 67
SWIDTH 504 0
DWIDTH 7 0
BBX 7 10 0 0
BITMAP
3C
7E
E6
C0
C0
C0
C0
E6
7E
3C
ENDCHAR
STARTCHAR char104
ENCODING 68
SWIDTH 504 0
DWIDTH 7 0
BBX 7 10 0 0
BITMAP
F8
DC
CE
C6
C6
C6
C6
CE
DC
F8
ENDCHAR
STARTCHAR char105
ENCODING 69
SWIDTH 504 0
DWIDTH 7 0
BBX 7 10 0 0
BITMAP
FE
FE
C0
C0
FC
FC
C0
C0
FE
FE
ENDCHAR
STARTCHAR char106
ENCODING 70
SWIDTH 504 0
DWIDTH 7 0
BBX 7 10 0 0
BITMAP
FE
FE
C0
C0
FC
FC
C0
C0
C0
C0
ENDCHAR
STARTCHAR char103
ENCODING 71
SWIDTH 576 0
DWIDTH 8 0
BBX 8 10 0 0
BITMAP
3E
7F
E3
C0
C0
CF
C3
E3
7F
3D
ENDCHAR
STARTCHAR char108
ENCODING 72
SWIDTH 576 0
DWIDTH 8 0
BBX 8 10 0 0
BITMAP
C3
C3
C3
C3
FF
FF
C3
C3
C3
C3
ENDCHAR
STARTCHAR char109
ENCODING 73
SWIDTH 144 0
DWIDTH 2 0
BBX 2 10 0 0
BITMAP
C0
C0
C0
C0
C0
C0
C0
C0
C0
C0
ENDCHAR
STARTCHAR char74
ENCODING 74
SWIDTH 432 0
DWIDTH 6 0
BBX 6 10 0 0
BITMAP
0C
0C
0C
0C
0C
0C
CC
CC
FC
78
ENDCHAR
STARTCHAR char75
ENCODING 75
SWIDTH 504 0
DWIDTH 7 0
BBX 7 10 0 0
BITMAP
C2
C6
CC
D8
F0
F0
D8
CC
C6
C2
ENDCHAR
STARTCHAR char76
ENCODING 76
SWIDTH 432 0
DWIDTH 6 0
BBX 6 10 0 0
BITMAP
C0
C0
C0
C0
C0
C0
C0
C0
FC
FC
ENDCHAR
STARTCHAR char113
ENCODING 77
SWIDTH 720 0
DWIDTH 10 0
BBX 10 10 0 0
BITMAP
C0C0
E1C0
E1C0
E1C0
D2C0
D2C0
D2C0
CCC0
CCC0
CCC0
ENDCHAR
STARTCHAR char78
ENCODING 78
SWIDTH 576 0
DWIDTH 8 0
BBX 8 10 0 0
BITMAP
C3
E3
E3
D3
D3
CB
CB
C7
C7
C3
ENDCHAR
STARTCHAR char79
ENCODING 79
SWIDTH 576 0
DWIDTH 8 0
BBX 8 10 0 0
BITMAP
3C
7E
C3
C3
C3
C3
C3
C3
7E
3C
ENDCHAR
STARTCHAR char80
ENCODING 80
SWIDTH 504 0
DWIDTH 7 0
BBX 7 10 0 0
BITMAP
FC
CE
C6
C6
CE
F8
C0
C0
C0
C0
ENDCHAR
STARTCHAR char79
ENCODING 81
SWIDTH 576 0
DWIDTH 8 0
BBX 8 12 0 -2
BITMAP
3C
7E
C3
C3
C3
C3
C3
C3
7E
3C
0C
06
ENDCHAR
STARTCHAR char80
ENCODING 82
SWIDTH 504 0
DWIDTH 7 0
BBX 7 10 0 0
BITMAP
FC
CE
C6
C6
CE
F8
CC
CC
C6
C6
ENDCHAR
STARTCHAR char83
ENCODING 83
SWIDTH 504 0
DWIDTH 7 0
BBX 7 10 0 0
BITMAP
7C
CE
C6
C0
70
1C
06
C6
E6
7C
ENDCHAR
STARTCHAR char84
ENCODING 84
SWIDTH 576 0
DWIDTH 8 0
BBX 8 10 0 0
BITMAP
FF
FF
18
18
18
18
18
18
18
18
ENDCHAR
STARTCHAR char85
ENCODING 85
SWIDTH 504 0
DWIDTH 7 0
BBX 7 10 0 0
BITMAP
C6
C6
C6
C6
C6
C6
C6
C6
FE
7C
ENDCHAR
STARTCHAR char86
ENCODING 86
SWIDTH 648 0
DWIDTH 9 0
BBX 8 10 0 0
BITMAP
C3
C3
C3
66
66
66
3C
3C
18
18
ENDCHAR
STARTCHAR char86
ENCODING 87
SWIDTH 864 0
DWIDTH 12 0
BBX 12 10 0 0
BITMAP
C630
C630
C630
C630
6960
6960
6960
30C0
30C0
30C0
ENDCHAR
STARTCHAR char88
ENCODING 88
SWIDTH 576 0
DWIDTH 8 0
BBX 7 10 0 0
BITMAP
C6
C6
6C
6C
38
38
6C
6C
C6
C6
ENDCHAR
STARTCHAR char89
ENCODING 89
SWIDTH 648 0
DWIDTH 9 0
BBX 8 10 0 0
BITMAP
C3
C3
66
66
3C
3C
18
18
18
18
ENDCHAR
STARTCHAR char90
ENCODING 90
SWIDTH 504 0
DWIDTH 7 0
BBX 7 10 0 0
BITMAP
FE
FE
06
0C
18
30
60
C0
FE
FE
ENDCHAR
STARTCHAR char91
ENCODING 91
SWIDTH 288 0
DWIDTH 4 0
BBX 4 14 0 -2
BITMAP
F0
F0
C0
C0
C0
C0
C0
C0
C0
C0
C0
C0
F0
F0
ENDCHAR
STARTCHAR char92
ENCODING 92
SWIDTH 504 0
DWIDTH 7 0
BBX 7 12 0 -1
BITMAP
C0
C0
60
60
30
30
18
18
0C
0C
06
06
ENDCHAR
STARTCHAR char93
ENCODING 93
SWIDTH 360 0
DWIDTH 5 0
BBX 4 14 0 -2
BITMAP
F0
F0
30
30
30
30
30
30
30
30
30
30
F0
F0
ENDCHAR
STARTCHAR char94
ENCODING 94
SWIDTH 504 0
DWIDTH 7 0
BBX 6 3 0 7
BITMAP
30
78
CC
ENDCHAR
STARTCHAR char95
ENCODING 95
SWIDTH 576 0
DWIDTH 8 0
BBX 8 2 0 -2
BITMAP
FF
FF
ENDCHAR
STARTCHAR char96
ENCODING 96
SWIDTH 216 0
DWIDTH 3 0
BBX 3 5 0 7
BITMAP
60
C0
C0
E0
E0
ENDCHAR
STARTCHAR char97
ENCODING 97
SWIDTH 504 0
DWIDTH 7 0
BBX 7 7 0 0
BITMAP
78
CC
0C
7C
CC
CC
76
ENDCHAR
STARTCHAR char98
ENCODING 98
SWIDTH 504 0
DWIDTH 7 0
BBX 7 10 0 0
BITMAP
C0
C0
C0
DC
E6
C6
C6
C6
E6
DC
ENDCHAR
STARTCHAR char99
ENCODING 99
SWIDTH 432 0
DWIDTH 6 0
BBX 6 7 0 0
BITMAP
78
EC
C0
C0
C0
EC
78
ENDCHAR
STARTCHAR char100
ENCODING 100
SWIDTH 504 0
DWIDTH 7 0
BBX 7 10 0 0
BITMAP
06
06
06
76
CE
C6
C6
C6
CE
76
ENDCHAR
STARTCHAR char99
ENCODING 101
SWIDTH 432 0
DWIDTH 6 0
BBX 6 7 0 0
BITMAP
78
CC
CC
FC
C0
CC
78
ENDCHAR
STARTCHAR char102
ENCODING 102
SWIDTH 432 0
DWIDTH 6 0
BBX 5 10 0 0
BITMAP
38
60
60
60
F8
60
60
60
60
60
ENDCHAR
STARTCHAR char100
ENCODING 103
SWIDTH 504 0
DWIDTH 7 0
BBX 7 10 0 -3
BITMAP
76
CE
C6
C6
C6
CE
76
06
CE
7C
ENDCHAR
STARTCHAR char104
ENCODING 104
SWIDTH 504 0
DWIDTH 7 0
BBX 7 10 0 0
BITMAP
C0
C0
C0
DC
FE
E6
C6
C6
C6
C6
ENDCHAR
STARTCHAR char105
ENCODING 105
SWIDTH 144 0
DWIDTH 2 0
BBX 2 10 0 0
BITMAP
C0
C0
00
C0
C0
C0
C0
C0
C0
C0
ENDCHAR
STARTCHAR char106
ENCODING 106
SWIDTH 360 0
DWIDTH 5 0
BBX 5 13 0 -3
BITMAP
18
18
00
18
18
18
18
18
18
18
98
F8
70
ENDCHAR
STARTCHAR char107
ENCODING 107
SWIDTH 504 0
DWIDTH 7 0
BBX 7 10 0 0
BITMAP
C0
C0
C0
CC
D8
F0
F0
D8
CC
C6
ENDCHAR
STARTCHAR char108
ENCODING 108
SWIDTH 144 0
DWIDTH 2 0
BBX 2 10 0 0
BITMAP
C0
C0
C0
C0
C0
C0
C0
C0
C0
C0
ENDCHAR
STARTCHAR char104
ENCODING 109
SWIDTH 720 0
DWIDTH 10 0
BBX 10 7 0 0
BITMAP
D980
EEC0
CCC0
CCC0
CCC0
CCC0
CCC0
ENDCHAR
STARTCHAR char104
ENCODING 110
SWIDTH 504 0
DWIDTH 7 0
BBX 7 7 0 0
BITMAP
DC
E6
C6
C6
C6
C6
C6
ENDCHAR
STARTCHAR char99
ENCODING 111
SWIDTH 504 0
DWIDTH 7 0
BBX 7 7 0 0
BITMAP
7C
C6
C6
C6
C6
C6
7C
ENDCHAR
STARTCHAR char98
ENCODING 112
SWIDTH 504 0
DWIDTH 7 0
BBX 7 10 0 -3
BITMAP
DC
E6
C6
C6
C6
E6
DC
C0
C0
C0
ENDCHAR
STARTCHAR char100
ENCODING 113
SWIDTH 504 0
DWIDTH 7 0
BBX 7 10 0 -3
BITMAP
76
CE
C6
C6
C6
CE
76
06
06
06
ENDCHAR
STARTCHAR char114
ENCODING 114
SWIDTH 360 0
DWIDTH 5 0
BBX 5 7 0 0
BITMAP
D8
F8
E0
C0
C0
C0
C0
ENDCHAR
STARTCHAR char115
ENCODING 115
SWIDTH 432 0
DWIDTH 6 0
BBX 6 7 0 0
BITMAP
78
CC
E0
78
1C
CC
78
ENDCHAR
STARTCHAR char116
ENCODING 116
SWIDTH 360 0
DWIDTH 5 0
BBX 5 10 0 0
BITMAP
60
60
60
F8
60
60
60
60
60
38
ENDCHAR
STARTCHAR char117
ENCODING 117
SWIDTH 504 0
DWIDTH 7 0
BBX 7 7 0 0
BITMAP
C6
C6
C6
C6
C6
CE
76
ENDCHAR
STARTCHAR char118
ENCODING 118
SWIDTH 576 0
DWIDTH 8 0
BBX 7 7 0 0
BITMAP
C6
C6
6C
6C
38
38
10
ENDCHAR
STARTCHAR char118
ENCODING 119
SWIDTH 720 0
DWIDTH 10 0
BBX 10 7 0 0
BITMAP
CCC0
CCC0
6D80
6D80
3300
3300
3300
ENDCHAR
STARTCHAR char120
ENCODING 120
SWIDTH 504 0
DWIDTH 7 0
BBX 6 7 0 0
BITMAP
CC
CC
78
30
78
CC
CC
ENDCHAR
STARTCHAR char118
ENCODING 121
SWIDTH 576 0
DWIDTH 8 0
BBX 7 10 0 -3
BITMAP
C6
C6
6C
6C
38
38
30
30
60
C0
ENDCHAR
STARTCHAR char122
ENCODING 122
SWIDTH 432 0
DWIDTH 6 0
BBX 6 7 0 0
BITMAP
FC
0C
18
30
60
C0
FC
ENDCHAR
STARTCHAR char123
ENCODING 123
SWIDTH 288 0
DWIDTH 4 0
BBX 4 13 0 -1
BITMAP
30
60
60
30
30
60
C0
60
30
30
60
60
30
ENDCHAR
STARTCHAR char124
ENCODING 124
SWIDTH 144 0
DWIDTH 2 0
BBX 2 14 0 -2
BITMAP
C0
C0
C0
C0
C0
C0
C0
C0
C0
C0
C0
C0
C0
C0
ENDCHAR
STARTCHAR char125
ENCODING 125
SWIDTH 288 0
DWIDTH 4 0
BBX 4 13 0 -1
BITMAP
C0
60
60
C0
C0
60
30
60
C0
C0
60
60
C0
ENDCHAR
STARTCHAR char126
ENCODING 126
SWIDTH 648 0
DWIDTH 9 0
BBX 9 4 0 3
BITMAP
7080
F980
CF80
8700
ENDCHAR
STARTCHAR char161
ENCODING 161
SWIDTH 144 0
DWIDTH 2 0
BBX 2 10 0 0
BITMAP
C0
C0
00
00
C0
C0
C0
C0
C0
C0
ENDCHAR
STARTCHAR char103
ENCODING 164
SWIDTH 576 0
DWIDTH 8 0
BBX 8 10 0 0
BITMAP
1E
3F
70
FC
60
60
FC
70
3F
1E
ENDCHAR
STARTCHAR char99
ENCODING 169
SWIDTH 720 0
DWIDTH 10 0
BBX 10 11 0 0
BITMAP
3F00
4080
9E40
BB40
B040
B040
B040
BB40
9E40
4080
3F00
ENDCHAR
STARTCHAR char191
ENCODING 191
SWIDTH 432 0
DWIDTH 6 0
BBX 6 10 0 0
BITMAP
30
30
00
30
30
60
C0
CC
FC
78
ENDCHAR
STARTCHAR char101
ENCODING 192
SWIDTH 648 0
DWIDTH 9 0
BBX 8 14 0 0
BITMAP
60
30
18
00
18
18
3C
3C
66
66
66
FF
C3
C3
ENDCHAR
STARTCHAR char101
ENCODING 193
SWIDTH 648 0
DWIDTH 9 0
BBX 8 14 0 0
BITMAP
06
0C
18
00
18
18
3C
3C
66
66
66
FF
C3
C3
ENDCHAR
STARTCHAR char101
ENCODING 194
SWIDTH 648 0
DWIDTH 9 0
BBX 8 14 0 0
BITMAP
18
3C
66
00
18
18
3C
3C
66
66
66
FF
C3
C3
ENDCHAR
STARTCHAR char101
ENCODING 195
SWIDTH 648 0
DWIDTH 9 0
BBX 8 13 0 0
BITMAP
3B
6E
00
18
18
3C
3C
66
66
66
FF
C3
C3
ENDCHAR
STARTCHAR char101
ENCODING 196
SWIDTH 648 0
DWIDTH 9 0
BBX 8 13 0 0
BITMAP
66
66
00
18
18
3C
3C
66
66
66
FF
C3
C3
ENDCHAR
STARTCHAR char101
ENCODING 197
SWIDTH 648 0
DWIDTH 9 0
BBX 8 14 0 0
BITMAP
18
24
18
00
18
18
3C
3C
66
66
66
FF
C3
C3
ENDCHAR
STARTCHAR char101
ENCODING 198
SWIDTH 720 0
DWIDTH 10 0
BBX 10 10 0 0
BITMAP
1FC0
1FC0
3E00
3E00
67C0
7FC0
6600
E600
C7C0
C7C0
ENDCHAR
STARTCHAR char103
ENCODING 199
SWIDTH 504 0
DWIDTH 7 0
BBX 7 13 0 -3
BITMAP
3C
7E
E6
C0
C0
C0
C0
E6
7E
3C
0C
66
3C
ENDCHAR
STARTCHAR char105
ENCODING 200
SWIDTH 504 0
DWIDTH 7 0
BBX 7 14 0 0
BITMAP
60
30
18
00
FE
FE
C0
C0
FC
FC
C0
C0
FE
FE
ENDCHAR
STARTCHAR char105
ENCODING 201
SWIDTH 504 0
DWIDTH 7 0
BBX 7 14 0 0
BITMAP
06
0C
18
00
FE
FE
C0
C0
FC
FC
C0
C0
FE
FE
ENDCHAR
STARTCHAR char105
ENCODING 202
SWIDTH 504 0
DWIDTH 7 0
BBX 7 14 0 0
BITMAP
18
3C
66
00
FE
FE
C0
C0
FC
FC
C0
C0
FE
FE
ENDCHAR
STARTCHAR char105
ENCODING 203
SWIDTH 504 0
DWIDTH 7 0
BBX 7 13 0 0
BITMAP
6C
6C
00
FE
FE
C0
C0
FC
FC
C0
C0
FE
FE
ENDCHAR
STARTCHAR char109
ENCODING 204
SWIDTH 216 0
DWIDTH 3 0
BBX 4 14 -1 0
BITMAP
C0
60
30
00
30
30
30
30
30
30
30
30
30
30
ENDCHAR
STARTCHAR char109
ENCODING 205
SWIDTH 288 0
DWIDTH 4 0
BBX 4 14 0 0
BITMAP
30
60
C0
00
C0
C0
C0
C0
C0
C0
C0
C0
C0
C0
ENDCHAR
STARTCHAR char109
ENCODING 206
SWIDTH 360 0
DWIDTH 5 0
BBX 6 14 -1 0
BITMAP
30
78
CC
00
30
30
30
30
30
30
30
30
30
30
ENDCHAR
STARTCHAR char109
ENCODING 207
SWIDTH 360 0
DWIDTH 5 0
BBX 6 13 0 0
BITMAP
CC
CC
00
30
30
30
30
30
30
30
30
30
30
ENDCHAR
STARTCHAR char104
ENCODING 208
SWIDTH 576 0
DWIDTH 8 0
BBX 8 10 0 0
BITMAP
7C
6E
67
63
FB
63
63
67
6E
7C
ENDCHAR
STARTCHAR char78
ENCODING 209
SWIDTH 576 0
DWIDTH 8 0
BBX 8 13 0 0
BITMAP
3B
6E
00
C3
E3
E3
D3
D3
CB
CB
C7
C7
C3
ENDCHAR
STARTCHAR char79
ENCODING 210
SWIDTH 576 0
DWIDTH 8 0
BBX 8 14 0 0
BITMAP
60
30
18
00
3C
7E
C3
C3
C3
C3
C3
C3
7E
3C
ENDCHAR
STARTCHAR char79
ENCODING 211
SWIDTH 576 0
DWIDTH 8 0
BBX 8 14 0 0
BITMAP
06
0C
18
00
3C
7E
C3
C3
C3
C3
C3
C3
7E
3C
ENDCHAR
STARTCHAR char79
ENCODING 212
SWIDTH 576 0
DWIDTH 8 0
BBX 8 14 0 0
BITMAP
18
3C
66
00
3C
7E
C3
C3
C3
C3
C3
C3
7E
3C
ENDCHAR
STARTCHAR char79
ENCODING 213
SWIDTH 576 0
DWIDTH 8 0
BBX 8 13 0 0
BITMAP
3B
6E
00
3C
7E
C3
C3
C3
C3
C3
C3
7E
3C
ENDCHAR
STARTCHAR char79
ENCODING 214
SWIDTH 576 0
DWIDTH 8 0
BBX 8 13 0 0
BITMAP
66
66
00
3C
7E
C3
C3
C3
C3
C3
C3
7E
3C
ENDCHAR
STARTCHAR char79
ENCODING 216
SWIDTH 648 0
DWIDTH 9 0
BBX 10 11 -1 -1
BITMAP
1E40
3F80
6180
6380
6580
6980
6980
7180
3F00
5E00
8000
ENDCHAR
STARTCHAR char85
ENCODING 217
SWIDTH 504 0
DWIDTH 7 0
BBX 7 14 0 0
BITMAP
60
30
18
00
C6
C6
C6
C6
C6
C6
C6
C6
FE
7C
ENDCHAR
STARTCHAR char85
ENCODING 218
SWIDTH 504 0
DWIDTH 7 0
BBX 7 14 0 0
BITMAP
0C
18
30
00
C6
C6
C6
C6
C6
C6
C6
C6
FE
7C
ENDCHAR
STARTCHAR char85
ENCODING 219
SWIDTH 504 0
DWIDTH 7 0
BBX 7 14 0 0
BITMAP
18
3C
66
00
C6
C6
C6
C6
C6
C6
C6
C6
FE
7C
ENDCHAR
STARTCHAR char85
ENCODING 220
SWIDTH 504 0
DWIDTH 7 0
BBX 7 13 0 0
BITMAP
C6
C6
00
C6
C6
C6
C6
C6
C6
C6
C6
FE
7C
ENDCHAR
STARTCHAR char89
ENCODING 221
SWIDTH 648 0
DWIDTH 9 0
BBX 8 14 0 0
BITMAP
06
0C
18
00
C3
C3
66
66
3C
3C
18
18
18
18
ENDCHAR
STARTCHAR char80
ENCODING 222
SWIDTH 504 0
DWIDTH 7 0
BBX 7 13 0 -3
BITMAP
C0
C0
C0
FC
CE
C6
C6
CE
F8
C0
C0
C0
C0
ENDCHAR
STARTCHAR char223
ENCODING 223
SWIDTH 432 0
DWIDTH 6 0
BBX 6 10 0 0
BITMAP
78
CC
CC
CC
D8
CC
CC
CC
CC
D8
ENDCHAR
STARTCHAR char97
ENCODING 224
SWIDTH 504 0
DWIDTH 7 0
BBX 7 11 0 0
BITMAP
C0
60
30
00
78
CC
0C
7C
CC
CC
76
ENDCHAR
STARTCHAR char97
ENCODING 225
SWIDTH 504 0
DWIDTH 7 0
BBX 7 11 0 0
BITMAP
0C
18
30
00
78
CC
0C
7C
CC
CC
76
ENDCHAR
STARTCHAR char97
ENCODING 226
SWIDTH 504 0
DWIDTH 7 0
BBX 7 11 0 0
BITMAP
30
78
CC
00
78
CC
0C
7C
CC
CC
76
ENDCHAR
STARTCHAR char97
ENCODING 227
SWIDTH 504 0
DWIDTH 7 0
BBX 7 10 0 0
BITMAP
76
DC
00
78
CC
0C
7C
CC
CC
76
ENDCHAR
STARTCHAR char97
ENCODING 228
SWIDTH 504 0
DWIDTH 7 0
BBX 7 10 0 0
BITMAP
CC
CC
00
78
CC
0C
7C
CC
CC
76
ENDCHAR
STARTCHAR char97
ENCODING 229
SWIDTH 504 0
DWIDTH 7 0
BBX 7 11 0 0
BITMAP
30
48
30
00
78
CC
0C
7C
CC
CC
76
ENDCHAR
STARTCHAR char97
ENCODING 230
SWIDTH 504 0
DWIDTH 7 0
BBX 7 7 0 0
BITMAP
78
CC
0C
7C
CC
CC
76
ENDCHAR
STARTCHAR char99
ENCODING 231
SWIDTH 432 0
DWIDTH 6 0
BBX 6 10 0 -3
BITMAP
78
EC
C0
C0
C0
EC
78
18
4C
38
ENDCHAR
STARTCHAR char99
ENCODING 232
SWIDTH 432 0
DWIDTH 6 0
BBX 6 11 0 0
BITMAP
C0
60
30
00
78
CC
CC
FC
C0
CC
78
ENDCHAR
STARTCHAR char99
ENCODING 233
SWIDTH 432 0
DWIDTH 6 0
BBX 6 11 0 0
BITMAP
0C
18
30
00
78
CC
CC
FC
C0
CC
78
ENDCHAR
STARTCHAR char99
ENCODING 234
SWIDTH 432 0
DWIDTH 6 0
BBX 6 11 0 0
BITMAP
30
78
CC
00
78
CC
CC
FC
C0
CC
78
ENDCHAR
STARTCHAR char99
ENCODING 235
SWIDTH 432 0
DWIDTH 6 0
BBX 6 10 0 0
BITMAP
CC
CC
00
78
CC
CC
FC
C0
CC
78
ENDCHAR
STARTCHAR char105
ENCODING 236
SWIDTH 216 0
DWIDTH 3 0
BBX 4 12 -1 0
BITMAP
C0
60
30
00
00
30
30
30
30
30
30
30
ENDCHAR
STARTCHAR char105
ENCODING 237
SWIDTH 360 0
DWIDTH 5 0
BBX 4 12 1 0
BITMAP
30
60
C0
00
00
C0
C0
C0
C0
C0
C0
C0
ENDCHAR
STARTCHAR char105
ENCODING 238
SWIDTH 360 0
DWIDTH 5 0
BBX 6 12 -1 0
BITMAP
30
78
CC
00
00
30
30
30
30
30
30
30
ENDCHAR
STARTCHAR char105
ENCODING 239
SWIDTH 432 0
DWIDTH 6 0
BBX 6 11 0 0
BITMAP
CC
CC
00
00
30
30
30
30
30
30
30
ENDCHAR
STARTCHAR char100
ENCODING 240
SWIDTH 576 0
DWIDTH 8 0
BBX 8 10 0 0
BITMAP
06
1F
06
76
CE
C6
C6
C6
CE
76
ENDCHAR
STARTCHAR char104
ENCODING 241
SWIDTH 504 0
DWIDTH 7 0
BBX 7 10 0 0
BITMAP
76
DC
00
DC
E6
C6
C6
C6
C6
C6
ENDCHAR
STARTCHAR char99
ENCODING 242
SWIDTH 504 0
DWIDTH 7 0
BBX 7 11 0 0
BITMAP
60
30
18
00
7C
C6
C6
C6
C6
C6
7C
ENDCHAR
STARTCHAR char99
ENCODING 243
SWIDTH 504 0
DWIDTH 7 0
BBX 7 11 0 0
BITMAP
0C
18
30
00
7C
C6
C6
C6
C6
C6
7C
ENDCHAR
STARTCHAR char99
ENCODING 244
SWIDTH 504 0
DWIDTH 7 0
BBX 7 11 0 0
BITMAP
10
38
6C
00
7C
C6
C6
C6
C6
C6
7C
ENDCHAR
STARTCHAR char99
ENCODING 245
SWIDTH 504 0
DWIDTH 7 0
BBX 7 10 0 0
BITMAP
76
DC
00
7C
C6
C6
C6
C6
C6
7C
ENDCHAR
STARTCHAR char99
ENCODING 246
SWIDTH 504 0
DWIDTH 7 0
BBX 7 10 0 0
BITMAP
C6
C6
00
7C
C6
C6
C6
C6
C6
7C
ENDCHAR
STARTCHAR char99
ENCODING 248
SWIDTH 576 0
DWIDTH 8 0
BBX 9 9 -1 -1
BITMAP
0080
3F00
6300
6700
6B00
7300
6300
7E00
8000
ENDCHAR
STARTCHAR char117
ENCODING 249
SWIDTH 504 0
DWIDTH 7 0
BBX 7 11 0 0
BITMAP
60
30
18
00
C6
C6
C6
C6
C6
CE
76
ENDCHAR
STARTCHAR char117
ENCODING 250
SWIDTH 504 0
DWIDTH 7 0
BBX 7 11 0 0
BITMAP
0C
18
30
00
C6
C6
C6
C6
C6
CE
76
ENDCHAR
STARTCHAR char117
ENCODING 251
SWIDTH 504 0
DWIDTH 7 0
BBX 7 11 0 0
BITMAP
18
3C
66
00
C6
C6
C6
C6
C6
CE
76
ENDCHAR
STARTCHAR char117
ENCODING 252
SWIDTH 504 0
DWIDTH 7 0
BBX 7 10 0 0
BITMAP
C6
C6
00
C6
C6
C6
C6
C6
CE
76
ENDCHAR
STARTCHAR char118
ENCODING 253
SWIDTH 576 0
DWIDTH 8 0
BBX 7 14 0 -3
BITMAP
06
0C
18
00
C6
C6
6C
6C
38
38
30
30
60
C0
ENDCHAR
STARTCHAR char98
ENCODING 254
SWIDTH 504 0
DWIDTH 7 0
BBX 7 12 0 -3
BITMAP
C0
C0
DC
E6
C6
C6
C6
E6
DC
C0
C0
C0
ENDCHAR
STARTCHAR char118
ENCODING 255
SWIDTH 576 0
DWIDTH 8 0
BBX 7 13 0 -3
BITMAP
66
66
00
C6
C6
6C
6C
38
38
30
30
60
C0
ENDCHAR
STARTCHAR char101
ENCODING 258
SWIDTH 648 0
DWIDTH 9 0
BBX 8 14 0 0
BITMAP
42
66
3C
00
18
18
3C
3C
66
66
66
FF
C3
C3
ENDCHAR
STARTCHAR char97
ENCODING 259
SWIDTH 504 0
DWIDTH 7 0
BBX 7 11 0 0
BITMAP
84
CC
78
00
78
CC
0C
7C
CC
CC
76
ENDCHAR
STARTCHAR char101
ENCODING 260
SWIDTH 648 0
DWIDTH 9 0
BBX 8 13 0 -3
BITMAP
18
18
3C
3C
66
66
66
FF
C3
C3
04
04
03
ENDCHAR
STARTCHAR char97
ENCODING 261
SWIDTH 504 0
DWIDTH 7 0
BBX 7 10 0 -3
BITMAP
78
CC
0C
7C
CC
CC
76
08
08
06
ENDCHAR
STARTCHAR char103
ENCODING 262
SWIDTH 504 0
DWIDTH 7 0
BBX 7 14 0 0
BITMAP
06
0C
18
00
3C
7E
E6
C0
C0
C0
C0
E6
7E
3C
ENDCHAR
STARTCHAR char99
ENCODING 263
SWIDTH 432 0
DWIDTH 6 0
BBX 6 11 0 0
BITMAP
0C
18
30
00
78
EC
C0
C0
C0
EC
78
ENDCHAR
STARTCHAR char103
ENCODING 264
SWIDTH 504 0
DWIDTH 7 0
BBX 7 14 0 0
BITMAP
18
3C
66
00
3C
7E
E6
C0
C0
C0
C0
E6
7E
3C
ENDCHAR
STARTCHAR char99
ENCODING 265
SWIDTH 432 0
DWIDTH 6 0
BBX 6 11 0 0
BITMAP
30
78
CC
00
78
EC
C0
C0
C0
EC
78
ENDCHAR
STARTCHAR char103
ENCODING 266
SWIDTH 504 0
DWIDTH 7 0
BBX 7 13 0 0
BITMAP
18
18
00
3C
7E
E6
C0
C0
C0
C0
E6
7E
3C
ENDCHAR
STARTCHAR char99
ENCODING 267
SWIDTH 432 0
DWIDTH 6 0
BBX 6 10 0 0
BITMAP
30
30
00
78
EC
C0
C0
C0
EC
78
ENDCHAR
STARTCHAR char103
ENCODING 268
SWIDTH 504 0
DWIDTH 7 0
BBX 7 14 0 0
BITMAP
66
3C
18
00
3C
7E
E6
C0
C0
C0
C0
E6
7E
3C
ENDCHAR
STARTCHAR char99
ENCODING 269
SWIDTH 432 0
DWIDTH 6 0
BBX 6 11 0 0
BITMAP
CC
78
30
00
78
EC
C0
C0
C0
EC
78
ENDCHAR
STARTCHAR char104
ENCODING 270
SWIDTH 504 0
DWIDTH 7 0
BBX 7 14 0 0
BITMAP
CC
78
30
00
F8
DC
CE
C6
C6
C6
C6
CE
DC
F8
ENDCHAR
STARTCHAR char100
ENCODING 271
SWIDTH 504 0
DWIDTH 7 0
BBX 7 13 0 0
BITMAP
CC
78
30
06
06
06
76
CE
C6
C6
C6
CE
76
ENDCHAR
STARTCHAR char104
ENCODING 272
SWIDTH 576 0
DWIDTH 8 0
BBX 8 10 0 0
BITMAP
7C
6E
67
63
FB
63
63
67
6E
7C
ENDCHAR
STARTCHAR char100
ENCODING 273
SWIDTH 576 0
DWIDTH 8 0
BBX 8 10 0 0
BITMAP
06
1F
06
76
CE
C6
C6
C6
CE
76
ENDCHAR
STARTCHAR char105
ENCODING 280
SWIDTH 504 0
DWIDTH 7 0
BBX 7 13 0 -3
BITMAP
FE
FE
C0
C0
FC
FC
C0
C0
FE
FE
08
08
06
ENDCHAR
STARTCHAR char99
ENCODING 281
SWIDTH 432 0
DWIDTH 6 0
BBX 6 10 0 -3
BITMAP
78
CC
CC
FC
C0
CC
78
10
10
0C
ENDCHAR
STARTCHAR char105
ENCODING 282
SWIDTH 504 0
DWIDTH 7 0
BBX 7 14 0 0
BITMAP
66
3C
18
00
FE
FE
C0
C0
FC
FC
C0
C0
FE
FE
ENDCHAR
STARTCHAR char99
ENCODING 283
SWIDTH 432 0
DWIDTH 6 0
BBX 6 11 0 0
BITMAP
CC
78
30
00
78
CC
CC
FC
C0
CC
78
ENDCHAR
STARTCHAR char103
ENCODING 284
SWIDTH 576 0
DWIDTH 8 0
BBX 8 14 0 0
BITMAP
18
3C
66
00
3E
7F
E3
C0
C0
CF
C3
E3
7F
3D
ENDCHAR
STARTCHAR char100
ENCODING 285
SWIDTH 504 0
DWIDTH 7 0
BBX 7 14 0 -3
BITMAP
30
78
CC
00
76
CE
C6
C6
C6
CE
76
06
CE
7C
ENDCHAR
STARTCHAR char103
ENCODING 286
SWIDTH 576 0
DWIDTH 8 0
BBX 8 14 0 0
BITMAP
42
66
3C
00
3E
7F
E3
C0
C0
CF
C3
E3
7F
3D
ENDCHAR
STARTCHAR char100
ENCODING 287
SWIDTH 504 0
DWIDTH 7 0
BBX 7 14 0 -3
BITMAP
44
6C
38
00
76
CE
C6
C6
C6
CE
76
06
CE
7C
ENDCHAR
STARTCHAR char103
ENCODING 288
SWIDTH 576 0
DWIDTH 8 0
BBX 8 13 0 0
BITMAP
0C
0C
00
3E
7F
E3
C0
C0
CF
C3
E3
7F
3D
ENDCHAR
STARTCHAR char100
ENCODING 289
SWIDTH 504 0
DWIDTH 7 0
BBX 7 13 0 -3
BITMAP
18
18
00
76
CE
C6
C6
C6
CE
76
06
CE
7C
ENDCHAR
STARTCHAR char108
ENCODING 292
SWIDTH 576 0
DWIDTH 8 0
BBX 8 14 0 0
BITMAP
18
3C
66
00
C3
C3
C3
C3
FF
FF
C3
C3
C3
C3
ENDCHAR
STARTCHAR char104
ENCODING 293
SWIDTH 504 0
DWIDTH 7 0
BBX 7 14 0 0
BITMAP
30
78
CC
00
C0
C0
C0
DC
FE
E6
C6
C6
C6
C6
ENDCHAR
STARTCHAR char108
ENCODING 294
SWIDTH 576 0
DWIDTH 8 0
BBX 8 10 0 0
BITMAP
C3
C3
FF
C3
FF
FF
C3
C3
C3
C3
ENDCHAR
STARTCHAR char104
ENCODING 295
SWIDTH 504 0
DWIDTH 7 0
BBX 7 10 0 0
BITMAP
C0
FC
C0
DC
FE
E6
C6
C6
C6
C6
ENDCHAR
STARTCHAR char109
ENCODING 304
SWIDTH 144 0
DWIDTH 2 0
BBX 2 13 0 0
BITMAP
C0
C0
00
C0
C0
C0
C0
C0
C0
C0
C0
C0
C0
ENDCHAR
STARTCHAR char105
ENCODING 305
SWIDTH 144 0
DWIDTH 2 0
BBX 2 7 0 0
BITMAP
C0
C0
C0
C0
C0
C0
C0
ENDCHAR
STARTCHAR char74
ENCODING 308
SWIDTH 504 0
DWIDTH 7 0
BBX 7 14 0 0
BITMAP
18
3C
66
00
0C
0C
0C
0C
0C
0C
CC
CC
FC
78
ENDCHAR
STARTCHAR char106
ENCODING 309
SWIDTH 432 0
DWIDTH 6 0
BBX 6 14 0 -3
BITMAP
30
78
CC
00
18
18
18
18
18
18
18
98
F8
70
ENDCHAR
STARTCHAR char76
ENCODING 313
SWIDTH 432 0
DWIDTH 6 0
BBX 6 14 0 0
BITMAP
30
60
C0
00
C0
C0
C0
C0
C0
C0
C0
C0
FC
FC
ENDCHAR
STARTCHAR char108
ENCODING 314
SWIDTH 288 0
DWIDTH 4 0
BBX 4 14 0 0
BITMAP
30
60
C0
00
C0
C0
C0
C0
C0
C0
C0
C0
C0
C0
ENDCHAR
STARTCHAR char76
ENCODING 317
SWIDTH 432 0
DWIDTH 6 0
BBX 6 10 0 0
BITMAP
CC
C4
C4
C8
C0
C0
C0
C0
FC
FC
ENDCHAR
STARTCHAR char108
ENCODING 318
SWIDTH 432 0
DWIDTH 6 0
BBX 6 10 0 0
BITMAP
CC
C4
C4
C8
C0
C0
C0
C0
C0
C0
ENDCHAR
STARTCHAR char76
ENCODING 321
SWIDTH 504 0
DWIDTH 7 0
BBX 7 10 0 0
BITMAP
60
60
64
68
70
60
E0
60
7E
7E
ENDCHAR
STARTCHAR char108
ENCODING 322
SWIDTH 360 0
DWIDTH 5 0
BBX 5 10 0 0
BITMAP
60
60
68
70
60
E0
60
60
60
60
ENDCHAR
STARTCHAR char78
ENCODING 323
SWIDTH 576 0
DWIDTH 8 0
BBX 8 14 0 0
BITMAP
06
0C
18
00
C3
E3
E3
D3
D3
CB
CB
C7
C7
C3
ENDCHAR
STARTCHAR char104
ENCODING 324
SWIDTH 504 0
DWIDTH 7 0
BBX 7 11 0 0
BITMAP
0C
18
30
00
DC
E6
C6
C6
C6
C6
C6
ENDCHAR
STARTCHAR char78
ENCODING 327
SWIDTH 576 0
DWIDTH 8 0
BBX 8 14 0 0
BITMAP
66
3C
18
00
C3
E3
E3
D3
D3
CB
CB
C7
C7
C3
ENDCHAR
STARTCHAR char104
ENCODING 328
SWIDTH 504 0
DWIDTH 7 0
BBX 7 11 0 0
BITMAP
66
3C
18
00
DC
E6
C6
C6
C6
C6
C6
ENDCHAR
STARTCHAR char79
ENCODING 336
SWIDTH 648 0
DWIDTH 9 0
BBX 9 14 0 0
BITMAP
1980
3300
6600
0000
3C00
7E00
C300
C300
C300
C300
C300
C300
7E00
3C00
ENDCHAR
STARTCHAR char99
ENCODING 337
SWIDTH 576 0
DWIDTH 8 0
BBX 8 10 0 0
BITMAP
33
66
00
7C
C6
C6
C6
C6
C6
7C
ENDCHAR
STARTCHAR char80
ENCODING 340
SWIDTH 504 0
DWIDTH 7 0
BBX 7 14 0 0
BITMAP
0C
18
30
00
FC
CE
C6
C6
CE
F8
CC
CC
C6
C6
ENDCHAR
STARTCHAR char114
ENCODING 341
SWIDTH 360 0
DWIDTH 5 0
BBX 5 11 0 0
BITMAP
18
30
60
00
D8
F8
E0
C0
C0
C0
C0
ENDCHAR
STARTCHAR char80
ENCODING 344
SWIDTH 504 0
DWIDTH 7 0
BBX 7 14 0 0
BITMAP
CC
78
30
00
FC
CE
C6
C6
CE
F8
CC
CC
C6
C6
ENDCHAR
STARTCHAR char114
ENCODING 345
SWIDTH 360 0
DWIDTH 5 0
BBX 5 11 0 0
BITMAP
D8
70
20
00
D8
F8
E0
C0
C0
C0
C0
ENDCHAR
STARTCHAR char83
ENCODING 346
SWIDTH 504 0
DWIDTH 7 0
BBX 7 14 0 0
BITMAP
0C
18
30
00
7C
CE
C6
C0
70
1C
06
C6
E6
7C
ENDCHAR
STARTCHAR char115
ENCODING 347
SWIDTH 432 0
DWIDTH 6 0
BBX 6 11 0 0
BITMAP
0C
18
30
00
78
CC
E0
78
1C
CC
78
ENDCHAR
STARTCHAR char83
ENCODING 348
SWIDTH 504 0
DWIDTH 7 0
BBX 7 14 0 0
BITMAP
18
3C
66
00
7C
CE
C6
C0
70
1C
06
C6
E6
7C
ENDCHAR
STARTCHAR char115
ENCODING 349
SWIDTH 432 0
DWIDTH 6 0
BBX 6 11 0 0
BITMAP
30
78
CC
00
78
CC
E0
78
1C
CC
78
ENDCHAR
STARTCHAR char83
ENCODING 350
SWIDTH 504 0
DWIDTH 7 0
BBX 7 13 0 -3
BITMAP
7C
CE
C6
C0
70
1C
06
C6
E6
7C
18
4C
38
ENDCHAR
STARTCHAR char115
ENCODING 351
SWIDTH 432 0
DWIDTH 6 0
BBX 6 10 0 -3
BITMAP
78
CC
E0
78
1C
CC
78
10
48
38
ENDCHAR
STARTCHAR char83
ENCODING 352
SWIDTH 504 0
DWIDTH 7 0
BBX 7 14 0 0
BITMAP
66
3C
18
00
7C
CE
C6
C0
70
1C
06
C6
E6
7C
ENDCHAR
STARTCHAR char115
ENCODING 353
SWIDTH 432 0
DWIDTH 6 0
BBX 6 11 0 0
BITMAP
CC
78
30
00
78
CC
E0
78
1C
CC
78
ENDCHAR
STARTCHAR char84
ENCODING 354
SWIDTH 576 0
DWIDTH 8 0
BBX 8 13 0 -3
BITMAP
FF
FF
18
18
18
18
18
18
18
18
0C
26
1C
ENDCHAR
STARTCHAR char116
ENCODING 355
SWIDTH 360 0
DWIDTH 5 0
BBX 5 13 0 -3
BITMAP
60
60
60
F8
60
60
60
60
60
38
20
90
60
ENDCHAR
STARTCHAR char84
ENCODING 356
SWIDTH 576 0
DWIDTH 8 0
BBX 8 14 0 0
BITMAP
66
3C
18
00
FF
FF
18
18
18
18
18
18
18
18
ENDCHAR
STARTCHAR char116
ENCODING 357
SWIDTH 360 0
DWIDTH 5 0
BBX 6 14 -1 0
BITMAP
CC
78
30
00
30
30
30
7C
30
30
30
30
30
1C
ENDCHAR
STARTCHAR char85
ENCODING 364
SWIDTH 504 0
DWIDTH 7 0
BBX 7 14 0 0
BITMAP
44
6C
38
00
C6
C6
C6
C6
C6
C6
C6
C6
FE
7C
ENDCHAR
STARTCHAR char117
ENCODING 365
SWIDTH 504 0
DWIDTH 7 0
BBX 7 11 0 0
BITMAP
44
6C
38
00
C6
C6
C6
C6
C6
CE
76
ENDCHAR
STARTCHAR char85
ENCODING 366
SWIDTH 504 0
DWIDTH 7 0
BBX 7 14 0 0
BITMAP
18
24
18
00
C6
C6
C6
C6
C6
C6
C6
C6
FE
7C
ENDCHAR
STARTCHAR char117
ENCODING 367
SWIDTH 504 0
DWIDTH 7 0
BBX 7 11 0 0
BITMAP
18
24
18
00
C6
C6
C6
C6
C6
CE
76
ENDCHAR
STARTCHAR char85
ENCODING 368
SWIDTH 576 0
DWIDTH 8 0
BBX 8 14 0 0
BITMAP
1B
36
6C
00
C6
C6
C6
C6
C6
C6
C6
C6
FE
7C
ENDCHAR
STARTCHAR char117
ENCODING 369
SWIDTH 504 0
DWIDTH 7 0
BBX 7 10 0 0
BITMAP
36
6C
00
C6
C6
C6
C6
C6
CE
76
ENDCHAR
STARTCHAR char90
ENCODING 377
SWIDTH 504 0
DWIDTH 7 0
BBX 7 14 0 0
BITMAP
06
0C
18
00
FE
FE
06
0C
18
30
60
C0
FE
FE
ENDCHAR
STARTCHAR char122
ENCODING 378
SWIDTH 432 0
DWIDTH 6 0
BBX 6 11 0 0
BITMAP
0C
18
30
00
FC
0C
18
30
60
C0
FC
ENDCHAR
STARTCHAR char90
ENCODING 379
SWIDTH 504 0
DWIDTH 7 0
BBX 7 13 0 0
BITMAP
18
18
00
FE
FE
06
0C
18
30
60
C0
FE
FE
ENDCHAR
STARTCHAR char122
ENCODING 380
SWIDTH 432 0
DWIDTH 6 0
BBX 6 10 0 0
BITMAP
30
30
00
FC
0C
18
30
60
C0
FC
ENDCHAR
STARTCHAR char90
ENCODING 381
SWIDTH 504 0
DWIDTH 7 0
BBX 7 14 0 0
BITMAP
66
3C
18
00
FE
FE
06
0C
18
30
60
C0
FE
FE
ENDCHAR
STARTCHAR char122
ENCODING 382
SWIDTH 432 0
DWIDTH 6 0
BBX 6 11 0 0
BITMAP
CC
78
30
00
FC
0C
18
30
60
C0
FC
ENDCHAR
ENDFONT
