STARTFONT 2.1
FONT -dislin-simplex-medium-r-normal--14-100-100-100-p-90-iso8859-1
SIZE 10 100 100
FONTBOUNDINGBOX 12 18 -1 -4
STARTPROPERTIES 9
POINT_SIZE 10
PIXEL_SIZE 14
RESOLUTION_X 100
RESOLUTION_Y 100
FONT_ASCENT 11
FONT_DESCENT 3
AVERAGE_WIDTH 90
SPACING "P"
_XMBDFED_INFO "Edited with xmbdfed 4.5."
ENDPROPERTIES
CHARS 235
STARTCHAR char32
ENCODING 32
SWIDTH 360 0
DWIDTH 5 0
BBX 0 0 0 0
BITMAP
ENDCHAR
STARTCHAR char33
ENCODING 33
SWIDTH 72 0
DWIDTH 1 0
BBX 1 10 0 0
BITMAP
80
80
80
80
80
80
80
00
00
80
ENDCHAR
STARTCHAR char34
ENCODING 34
SWIDTH 288 0
DWIDTH 4 0
BBX 4 3 0 7
BITMAP
90
90
90
ENDCHAR
STARTCHAR char35
ENCODING 35
SWIDTH 648 0
DWIDTH 9 0
BBX 9 10 0 1
BITMAP
0900
0900
1200
7F80
1200
2400
FF00
2400
4800
4800
ENDCHAR
STARTCHAR char83
ENCODING 36
SWIDTH 504 0
DWIDTH 7 0
BBX 7 14 0 -2
BITMAP
28
28
3C
6A
A8
A8
78
3C
2A
2A
AC
78
28
28
ENDCHAR
STARTCHAR char37
ENCODING 37
SWIDTH 720 0
DWIDTH 10 0
BBX 10 10 0 0
BITMAP
79C0
9680
9100
6200
0400
0800
1180
2240
4240
8180
ENDCHAR
STARTCHAR char38
ENCODING 38
SWIDTH 792 0
DWIDTH 11 0
BBX 11 10 0 0
BITMAP
1800
2400
2400
1800
1800
6440
82A0
8300
82A0
3C40
ENDCHAR
STARTCHAR char39
ENCODING 39
SWIDTH 144 0
DWIDTH 2 0
BBX 1 3 0 7
BITMAP
80
80
80
ENDCHAR
STARTCHAR char40
ENCODING 40
SWIDTH 288 0
DWIDTH 4 0
BBX 4 14 0 -2
BITMAP
10
20
20
40
40
80
80
80
80
40
40
20
20
10
ENDCHAR
STARTCHAR char41
ENCODING 41
SWIDTH 360 0
DWIDTH 5 0
BBX 4 14 0 -2
BITMAP
80
40
40
20
20
10
10
10
10
20
20
40
40
80
ENDCHAR
STARTCHAR char42
ENCODING 42
SWIDTH 504 0
DWIDTH 7 0
BBX 7 7 0 1
BITMAP
10
92
54
38
54
92
10
ENDCHAR
STARTCHAR char43
ENCODING 43
SWIDTH 576 0
DWIDTH 8 0
BBX 7 7 0 1
BITMAP
10
10
10
FE
10
10
10
ENDCHAR
STARTCHAR char44
ENCODING 44
SWIDTH 144 0
DWIDTH 2 0
BBX 2 5 0 -3
BITMAP
40
40
40
40
80
ENDCHAR
STARTCHAR char45
ENCODING 45
SWIDTH 504 0
DWIDTH 7 0
BBX 7 1 0 4
BITMAP
FE
ENDCHAR
STARTCHAR char46
ENCODING 46
SWIDTH 72 0
DWIDTH 1 0
BBX 1 1 0 0
BITMAP
80
ENDCHAR
STARTCHAR char47
ENCODING 47
SWIDTH 504 0
DWIDTH 7 0
BBX 6 12 0 -1
BITMAP
04
04
08
08
10
10
20
20
40
40
80
80
ENDCHAR
STARTCHAR char48
ENCODING 48
SWIDTH 432 0
DWIDTH 6 0
BBX 6 10 0 0
BITMAP
78
84
84
84
84
84
84
84
84
78
ENDCHAR
STARTCHAR char49
ENCODING 49
SWIDTH 360 0
DWIDTH 5 0
BBX 4 10 0 0
BITMAP
10
30
D0
10
10
10
10
10
10
10
ENDCHAR
STARTCHAR char50
ENCODING 50
SWIDTH 432 0
DWIDTH 6 0
BBX 6 10 0 0
BITMAP
78
84
04
04
08
10
20
40
80
FC
ENDCHAR
STARTCHAR char51
ENCODING 51
SWIDTH 432 0
DWIDTH 6 0
BBX 6 10 0 0
BITMAP
7C
08
10
20
18
04
04
04
84
78
ENDCHAR
STARTCHAR char52
ENCODING 52
SWIDTH 504 0
DWIDTH 7 0
BBX 7 10 0 0
BITMAP
08
18
28
48
88
FE
08
08
08
08
ENDCHAR
STARTCHAR char53
ENCODING 53
SWIDTH 432 0
DWIDTH 6 0
BBX 6 10 0 0
BITMAP
FC
80
80
80
F8
04
04
84
84
78
ENDCHAR
STARTCHAR char54
ENCODING 54
SWIDTH 432 0
DWIDTH 6 0
BBX 6 10 0 0
BITMAP
78
84
80
80
B8
C4
84
84
84
78
ENDCHAR
STARTCHAR char55
ENCODING 55
SWIDTH 504 0
DWIDTH 7 0
BBX 7 10 0 0
BITMAP
FE
04
04
08
08
10
10
20
20
40
ENDCHAR
STARTCHAR char56
ENCODING 56
SWIDTH 432 0
DWIDTH 6 0
BBX 6 10 0 0
BITMAP
78
84
84
84
78
84
84
84
84
78
ENDCHAR
STARTCHAR char57
ENCODING 57
SWIDTH 432 0
DWIDTH 6 0
BBX 6 10 0 0
BITMAP
78
84
84
84
8C
74
04
04
84
78
ENDCHAR
STARTCHAR char58
ENCODING 58
SWIDTH 72 0
DWIDTH 1 0
BBX 1 5 0 2
BITMAP
80
00
00
00
80
ENDCHAR
STARTCHAR char59
ENCODING 59
SWIDTH 144 0
DWIDTH 2 0
BBX 2 7 0 -2
BITMAP
40
00
00
40
40
40
80
ENDCHAR
STARTCHAR char60
ENCODING 60
SWIDTH 504 0
DWIDTH 7 0
BBX 7 7 0 1
BITMAP
06
18
60
80
60
18
06
ENDCHAR
STARTCHAR char61
ENCODING 61
SWIDTH 576 0
DWIDTH 8 0
BBX 8 4 0 3
BITMAP
FF
00
00
FF
ENDCHAR
STARTCHAR char62
ENCODING 62
SWIDTH 648 0
DWIDTH 9 0
BBX 7 7 0 1
BITMAP
C0
30
0C
02
0C
30
C0
ENDCHAR
STARTCHAR char63
ENCODING 63
SWIDTH 360 0
DWIDTH 5 0
BBX 5 10 0 0
BITMAP
70
88
88
08
10
20
20
00
00
20
ENDCHAR
STARTCHAR char64
ENCODING 64
SWIDTH 720 0
DWIDTH 10 0
BBX 10 10 0 0
BITMAP
3F00
4080
8040
8D40
9340
9340
93C0
8C00
4040
3F80
ENDCHAR
STARTCHAR char101
ENCODING 65
SWIDTH 576 0
DWIDTH 8 0
BBX 7 10 0 0
BITMAP
10
10
28
28
44
44
7C
C6
82
82
ENDCHAR
STARTCHAR char102
ENCODING 66
SWIDTH 504 0
DWIDTH 7 0
BBX 7 11 0 0
BITMAP
F8
84
82
82
84
F8
84
82
82
84
F8
ENDCHAR
STARTCHAR char103
ENCODING 67
SWIDTH 576 0
DWIDTH 8 0
BBX 8 10 0 0
BITMAP
3C
42
81
80
80
80
80
81
42
3C
ENDCHAR
STARTCHAR char104
ENCODING 68
SWIDTH 504 0
DWIDTH 7 0
BBX 7 10 0 0
BITMAP
F8
84
82
82
82
82
82
82
84
F8
ENDCHAR
STARTCHAR char105
ENCODING 69
SWIDTH 432 0
DWIDTH 6 0
BBX 6 10 0 0
BITMAP
FC
80
80
80
F0
80
80
80
80
FC
ENDCHAR
STARTCHAR char106
ENCODING 70
SWIDTH 432 0
DWIDTH 6 0
BBX 6 10 0 0
BITMAP
FC
80
80
80
F0
80
80
80
80
80
ENDCHAR
STARTCHAR char103
ENCODING 71
SWIDTH 576 0
DWIDTH 8 0
BBX 8 10 0 0
BITMAP
3C
42
81
80
80
8F
81
81
42
3C
ENDCHAR
STARTCHAR char108
ENCODING 72
SWIDTH 504 0
DWIDTH 7 0
BBX 7 10 0 0
BITMAP
82
82
82
82
FE
82
82
82
82
82
ENDCHAR
STARTCHAR char109
ENCODING 73
SWIDTH 216 0
DWIDTH 3 0
BBX 1 10 1 0
BITMAP
80
80
80
80
80
80
80
80
80
80
ENDCHAR
STARTCHAR char74
ENCODING 74
SWIDTH 288 0
DWIDTH 4 0
BBX 4 10 0 0
BITMAP
10
10
10
10
10
10
10
90
90
60
ENDCHAR
STARTCHAR char75
ENCODING 75
SWIDTH 504 0
DWIDTH 7 0
BBX 7 10 0 0
BITMAP
82
84
88
90
A0
E0
90
88
84
82
ENDCHAR
STARTCHAR char76
ENCODING 76
SWIDTH 432 0
DWIDTH 6 0
BBX 6 10 0 0
BITMAP
80
80
80
80
80
80
80
80
80
FC
ENDCHAR
STARTCHAR char113
ENCODING 77
SWIDTH 648 0
DWIDTH 9 0
BBX 9 10 0 0
BITMAP
C180
C180
A280
A280
9480
9480
9480
8880
8880
8880
ENDCHAR
STARTCHAR char78
ENCODING 78
SWIDTH 504 0
DWIDTH 7 0
BBX 7 10 0 0
BITMAP
82
C2
A2
A2
92
92
8A
8A
86
82
ENDCHAR
STARTCHAR char79
ENCODING 79
SWIDTH 576 0
DWIDTH 8 0
BBX 8 10 0 0
BITMAP
3C
42
81
81
81
81
81
81
42
3C
ENDCHAR
STARTCHAR char80
ENCODING 80
SWIDTH 504 0
DWIDTH 7 0
BBX 7 10 0 0
BITMAP
FC
82
82
82
FC
80
80
80
80
80
ENDCHAR
STARTCHAR char79
ENCODING 81
SWIDTH 576 0
DWIDTH 8 0
BBX 8 11 0 -1
BITMAP
3C
42
81
81
81
81
81
89
46
3E
01
ENDCHAR
STARTCHAR char80
ENCODING 82
SWIDTH 504 0
DWIDTH 7 0
BBX 7 10 0 0
BITMAP
FC
82
82
82
FC
A0
90
88
84
82
ENDCHAR
STARTCHAR char83
ENCODING 83
SWIDTH 504 0
DWIDTH 7 0
BBX 7 10 0 0
BITMAP
3C
42
80
80
70
1C
02
02
84
78
ENDCHAR
STARTCHAR char84
ENCODING 84
SWIDTH 504 0
DWIDTH 7 0
BBX 7 10 0 0
BITMAP
FE
10
10
10
10
10
10
10
10
10
ENDCHAR
STARTCHAR char85
ENCODING 85
SWIDTH 504 0
DWIDTH 7 0
BBX 7 10 0 0
BITMAP
82
82
82
82
82
82
82
82
44
38
ENDCHAR
STARTCHAR char86
ENCODING 86
SWIDTH 504 0
DWIDTH 7 0
BBX 7 10 0 0
BITMAP
82
82
44
44
44
28
28
28
10
10
ENDCHAR
STARTCHAR char86
ENCODING 87
SWIDTH 648 0
DWIDTH 9 0
BBX 9 10 0 0
BITMAP
8880
8880
8880
8880
5500
5500
5500
2200
2200
2200
ENDCHAR
STARTCHAR char88
ENCODING 88
SWIDTH 576 0
DWIDTH 8 0
BBX 7 10 0 0
BITMAP
82
82
44
28
10
10
28
44
82
82
ENDCHAR
STARTCHAR char89
ENCODING 89
SWIDTH 648 0
DWIDTH 9 0
BBX 7 10 0 0
BITMAP
82
44
44
28
28
10
10
10
10
10
ENDCHAR
STARTCHAR char90
ENCODING 90
SWIDTH 576 0
DWIDTH 8 0
BBX 8 10 0 0
BITMAP
FF
01
02
04
08
10
20
40
80
FF
ENDCHAR
STARTCHAR char91
ENCODING 91
SWIDTH 216 0
DWIDTH 3 0
BBX 3 14 0 -2
BITMAP
E0
80
80
80
80
80
80
80
80
80
80
80
80
E0
ENDCHAR
STARTCHAR char92
ENCODING 92
SWIDTH 504 0
DWIDTH 7 0
BBX 7 14 0 -2
BITMAP
80
80
40
40
20
20
10
10
08
08
04
04
02
02
ENDCHAR
STARTCHAR char93
ENCODING 93
SWIDTH 288 0
DWIDTH 4 0
BBX 3 14 0 -2
BITMAP
E0
20
20
20
20
20
20
20
20
20
20
20
20
E0
ENDCHAR
STARTCHAR char94
ENCODING 94
SWIDTH 576 0
DWIDTH 8 0
BBX 7 4 0 6
BITMAP
10
28
44
82
ENDCHAR
STARTCHAR char95
ENCODING 95
SWIDTH 648 0
DWIDTH 9 0
BBX 9 1 0 -2
BITMAP
FF80
ENDCHAR
STARTCHAR char96
ENCODING 96
SWIDTH 216 0
DWIDTH 3 0
BBX 3 3 0 7
BITMAP
80
40
20
ENDCHAR
STARTCHAR char97
ENCODING 97
SWIDTH 432 0
DWIDTH 6 0
BBX 6 7 0 0
BITMAP
34
4C
84
84
84
4C
34
ENDCHAR
STARTCHAR char98
ENCODING 98
SWIDTH 432 0
DWIDTH 6 0
BBX 6 10 0 0
BITMAP
80
80
80
B8
C4
84
84
84
C4
B8
ENDCHAR
STARTCHAR char99
ENCODING 99
SWIDTH 432 0
DWIDTH 6 0
BBX 6 7 0 0
BITMAP
38
44
80
80
80
44
38
ENDCHAR
STARTCHAR char100
ENCODING 100
SWIDTH 432 0
DWIDTH 6 0
BBX 6 10 0 0
BITMAP
04
04
04
34
4C
84
84
84
4C
34
ENDCHAR
STARTCHAR char99
ENCODING 101
SWIDTH 432 0
DWIDTH 6 0
BBX 6 7 0 0
BITMAP
78
84
84
FC
80
84
78
ENDCHAR
STARTCHAR char102
ENCODING 102
SWIDTH 360 0
DWIDTH 5 0
BBX 5 10 0 0
BITMAP
18
20
20
F8
20
20
20
20
20
20
ENDCHAR
STARTCHAR char111
ENCODING 103
SWIDTH 432 0
DWIDTH 6 0
BBX 6 10 0 -3
BITMAP
74
8C
84
84
84
8C
74
04
04
78
ENDCHAR
STARTCHAR char104
ENCODING 104
SWIDTH 432 0
DWIDTH 6 0
BBX 6 10 0 0
BITMAP
80
80
80
B8
C4
84
84
84
84
84
ENDCHAR
STARTCHAR char105
ENCODING 105
SWIDTH 216 0
DWIDTH 3 0
BBX 1 10 1 0
BITMAP
80
00
00
80
80
80
80
80
80
80
ENDCHAR
STARTCHAR char106
ENCODING 106
SWIDTH 288 0
DWIDTH 4 0
BBX 4 13 0 -3
BITMAP
10
00
00
10
10
10
10
10
10
10
10
90
60
ENDCHAR
STARTCHAR char107
ENCODING 107
SWIDTH 432 0
DWIDTH 6 0
BBX 6 10 0 0
BITMAP
80
80
80
84
88
90
A0
D0
88
84
ENDCHAR
STARTCHAR char108
ENCODING 108
SWIDTH 216 0
DWIDTH 3 0
BBX 1 10 1 0
BITMAP
80
80
80
80
80
80
80
80
80
80
ENDCHAR
STARTCHAR char104
ENCODING 109
SWIDTH 792 0
DWIDTH 11 0
BBX 11 7 0 0
BITMAP
B9C0
C620
8420
8420
8420
8420
8420
ENDCHAR
STARTCHAR char104
ENCODING 110
SWIDTH 432 0
DWIDTH 6 0
BBX 6 7 0 0
BITMAP
B8
C4
84
84
84
84
84
ENDCHAR
STARTCHAR char111
ENCODING 111
SWIDTH 432 0
DWIDTH 6 0
BBX 6 7 0 0
BITMAP
78
84
84
84
84
84
78
ENDCHAR
STARTCHAR char112
ENCODING 112
SWIDTH 432 0
DWIDTH 6 0
BBX 6 10 0 -3
BITMAP
B8
C4
84
84
84
C4
B8
80
80
80
ENDCHAR
STARTCHAR char113
ENCODING 113
SWIDTH 504 0
DWIDTH 7 0
BBX 6 10 0 -3
BITMAP
74
8C
84
84
84
8C
74
04
04
04
ENDCHAR
STARTCHAR char114
ENCODING 114
SWIDTH 360 0
DWIDTH 5 0
BBX 5 7 0 0
BITMAP
98
A0
C0
80
80
80
80
ENDCHAR
STARTCHAR char115
ENCODING 115
SWIDTH 432 0
DWIDTH 6 0
BBX 6 7 0 0
BITMAP
78
84
80
78
04
84
78
ENDCHAR
STARTCHAR char116
ENCODING 116
SWIDTH 360 0
DWIDTH 5 0
BBX 5 10 0 0
BITMAP
20
20
20
F8
20
20
20
20
20
18
ENDCHAR
STARTCHAR char117
ENCODING 117
SWIDTH 432 0
DWIDTH 6 0
BBX 6 7 0 0
BITMAP
84
84
84
84
84
8C
74
ENDCHAR
STARTCHAR char118
ENCODING 118
SWIDTH 504 0
DWIDTH 7 0
BBX 7 7 0 0
BITMAP
82
82
44
44
28
28
10
ENDCHAR
STARTCHAR char118
ENCODING 119
SWIDTH 648 0
DWIDTH 9 0
BBX 9 7 0 0
BITMAP
8880
8880
8880
5500
5500
2200
2200
ENDCHAR
STARTCHAR char120
ENCODING 120
SWIDTH 504 0
DWIDTH 7 0
BBX 7 7 0 0
BITMAP
82
44
28
10
28
44
82
ENDCHAR
STARTCHAR char118
ENCODING 121
SWIDTH 504 0
DWIDTH 7 0
BBX 7 10 0 -3
BITMAP
82
82
44
44
28
28
10
20
20
40
ENDCHAR
STARTCHAR char122
ENCODING 122
SWIDTH 432 0
DWIDTH 6 0
BBX 6 7 0 0
BITMAP
FC
04
08
10
20
40
FC
ENDCHAR
STARTCHAR char123
ENCODING 123
SWIDTH 216 0
DWIDTH 3 0
BBX 3 13 0 -2
BITMAP
20
40
40
20
20
40
80
40
20
20
40
40
20
ENDCHAR
STARTCHAR char124
ENCODING 124
SWIDTH 216 0
DWIDTH 3 0
BBX 1 12 1 -1
BITMAP
80
80
80
80
80
80
80
80
80
80
80
80
ENDCHAR
STARTCHAR char125
ENCODING 125
SWIDTH 288 0
DWIDTH 4 0
BBX 3 13 0 -2
BITMAP
80
40
40
80
80
40
20
40
80
80
40
40
80
ENDCHAR
STARTCHAR char126
ENCODING 126
SWIDTH 720 0
DWIDTH 10 0
BBX 9 3 0 3
BITMAP
7080
8880
8700
ENDCHAR
STARTCHAR char161
ENCODING 161
SWIDTH 72 0
DWIDTH 1 0
BBX 1 10 0 0
BITMAP
80
00
00
00
80
80
80
80
80
80
ENDCHAR
STARTCHAR char103
ENCODING 164
SWIDTH 576 0
DWIDTH 8 0
BBX 8 10 0 0
BITMAP
1E
21
40
F8
40
40
F8
40
21
1E
ENDCHAR
STARTCHAR char99
ENCODING 169
SWIDTH 648 0
DWIDTH 9 0
BBX 9 10 0 0
BITMAP
3E00
4100
8C80
9280
A080
A080
9280
8C80
4100
3E00
ENDCHAR
STARTCHAR char191
ENCODING 191
SWIDTH 360 0
DWIDTH 5 0
BBX 5 10 0 0
BITMAP
20
00
00
20
20
40
80
88
88
70
ENDCHAR
STARTCHAR char101
ENCODING 192
SWIDTH 576 0
DWIDTH 8 0
BBX 7 14 0 0
BITMAP
40
20
10
00
10
10
28
28
44
44
7C
C6
82
82
ENDCHAR
STARTCHAR char101
ENCODING 193
SWIDTH 576 0
DWIDTH 8 0
BBX 7 14 0 0
BITMAP
04
08
10
00
10
10
28
28
44
44
7C
C6
82
82
ENDCHAR
STARTCHAR char101
ENCODING 194
SWIDTH 576 0
DWIDTH 8 0
BBX 7 14 0 0
BITMAP
10
28
44
00
10
10
28
28
44
44
7C
C6
82
82
ENDCHAR
STARTCHAR char101
ENCODING 195
SWIDTH 576 0
DWIDTH 8 0
BBX 7 13 0 0
BITMAP
32
4C
00
10
10
28
28
44
44
7C
C6
82
82
ENDCHAR
STARTCHAR char101
ENCODING 196
SWIDTH 576 0
DWIDTH 8 0
BBX 7 12 0 0
BITMAP
44
00
10
10
28
28
44
44
7C
C6
82
82
ENDCHAR
STARTCHAR char101
ENCODING 197
SWIDTH 576 0
DWIDTH 8 0
BBX 7 14 0 0
BITMAP
10
28
10
00
10
10
28
28
44
44
7C
C6
82
82
ENDCHAR
STARTCHAR char101
ENCODING 198
SWIDTH 648 0
DWIDTH 9 0
BBX 9 10 0 0
BITMAP
1F80
1800
2800
2800
4800
7F00
4800
C800
8800
8F80
ENDCHAR
STARTCHAR char103
ENCODING 199
SWIDTH 576 0
DWIDTH 8 0
BBX 8 14 0 -4
BITMAP
3C
42
81
80
80
80
80
81
42
3C
08
04
22
1C
ENDCHAR
STARTCHAR char105
ENCODING 200
SWIDTH 432 0
DWIDTH 6 0
BBX 6 14 0 0
BITMAP
40
20
10
00
FC
80
80
80
F0
80
80
80
80
FC
ENDCHAR
STARTCHAR char105
ENCODING 201
SWIDTH 432 0
DWIDTH 6 0
BBX 6 14 0 0
BITMAP
08
10
20
00
FC
80
80
80
F0
80
80
80
80
FC
ENDCHAR
STARTCHAR char105
ENCODING 202
SWIDTH 432 0
DWIDTH 6 0
BBX 6 14 0 0
BITMAP
10
28
44
00
FC
80
80
80
F0
80
80
80
80
FC
ENDCHAR
STARTCHAR char105
ENCODING 203
SWIDTH 432 0
DWIDTH 6 0
BBX 6 12 0 0
BITMAP
48
00
FC
80
80
80
F0
80
80
80
80
FC
ENDCHAR
STARTCHAR char109
ENCODING 204
SWIDTH 216 0
DWIDTH 3 0
BBX 3 14 -1 0
BITMAP
80
40
20
00
20
20
20
20
20
20
20
20
20
20
ENDCHAR
STARTCHAR char109
ENCODING 205
SWIDTH 144 0
DWIDTH 2 0
BBX 3 14 1 0
BITMAP
20
40
80
00
80
80
80
80
80
80
80
80
80
80
ENDCHAR
STARTCHAR char109
ENCODING 206
SWIDTH 360 0
DWIDTH 5 0
BBX 5 14 0 0
BITMAP
20
50
88
00
20
20
20
20
20
20
20
20
20
20
ENDCHAR
STARTCHAR char109
ENCODING 207
SWIDTH 216 0
DWIDTH 3 0
BBX 3 13 0 0
BITMAP
A0
00
00
40
40
40
40
40
40
40
40
40
40
ENDCHAR
STARTCHAR char104
ENCODING 208
SWIDTH 576 0
DWIDTH 8 0
BBX 8 10 0 0
BITMAP
7C
42
41
41
41
F1
41
41
42
7C
ENDCHAR
STARTCHAR char78
ENCODING 209
SWIDTH 504 0
DWIDTH 7 0
BBX 7 13 0 0
BITMAP
32
4C
00
82
C2
A2
A2
92
92
8A
8A
86
82
ENDCHAR
STARTCHAR char79
ENCODING 210
SWIDTH 576 0
DWIDTH 8 0
BBX 8 14 0 0
BITMAP
20
10
08
00
3C
42
81
81
81
81
81
81
42
3C
ENDCHAR
STARTCHAR char79
ENCODING 211
SWIDTH 576 0
DWIDTH 8 0
BBX 8 14 0 0
BITMAP
04
08
10
00
3C
42
81
81
81
81
81
81
42
3C
ENDCHAR
STARTCHAR char79
ENCODING 212
SWIDTH 576 0
DWIDTH 8 0
BBX 8 14 0 0
BITMAP
08
14
22
00
3C
42
81
81
81
81
81
81
42
3C
ENDCHAR
STARTCHAR char79
ENCODING 213
SWIDTH 576 0
DWIDTH 8 0
BBX 8 13 0 0
BITMAP
32
4C
00
3C
42
81
81
81
81
81
81
42
3C
ENDCHAR
STARTCHAR char79
ENCODING 214
SWIDTH 576 0
DWIDTH 8 0
BBX 8 13 0 0
BITMAP
24
00
00
3C
42
81
81
81
81
81
81
42
3C
ENDCHAR
STARTCHAR char79
ENCODING 216
SWIDTH 648 0
DWIDTH 9 0
BBX 10 12 -1 -1
BITMAP
0040
1E80
2100
4280
4280
4480
4880
5080
5080
2100
5E00
8000
ENDCHAR
STARTCHAR char85
ENCODING 217
SWIDTH 504 0
DWIDTH 7 0
BBX 7 14 0 0
BITMAP
40
20
10
00
82
82
82
82
82
82
82
82
44
38
ENDCHAR
STARTCHAR char85
ENCODING 218
SWIDTH 504 0
DWIDTH 7 0
BBX 7 14 0 0
BITMAP
04
08
10
00
82
82
82
82
82
82
82
82
44
38
ENDCHAR
STARTCHAR char85
ENCODING 219
SWIDTH 504 0
DWIDTH 7 0
BBX 7 14 0 0
BITMAP
10
28
44
00
82
82
82
82
82
82
82
82
44
38
ENDCHAR
STARTCHAR char85
ENCODING 220
SWIDTH 504 0
DWIDTH 7 0
BBX 7 13 0 0
BITMAP
44
00
00
82
82
82
82
82
82
82
82
44
38
ENDCHAR
STARTCHAR char89
ENCODING 221
SWIDTH 648 0
DWIDTH 9 0
BBX 7 14 0 0
BITMAP
04
08
10
00
82
44
44
28
28
10
10
10
10
10
ENDCHAR
STARTCHAR char80
ENCODING 222
SWIDTH 504 0
DWIDTH 7 0
BBX 7 10 0 0
BITMAP
80
80
FC
82
82
82
FC
80
80
80
ENDCHAR
STARTCHAR char223
ENCODING 223
SWIDTH 432 0
DWIDTH 6 0
BBX 6 10 0 0
BITMAP
38
44
84
84
98
84
84
84
84
98
ENDCHAR
STARTCHAR char97
ENCODING 224
SWIDTH 432 0
DWIDTH 6 0
BBX 6 11 0 0
BITMAP
40
20
10
00
34
4C
84
84
84
4C
34
ENDCHAR
STARTCHAR char97
ENCODING 225
SWIDTH 432 0
DWIDTH 6 0
BBX 6 11 0 0
BITMAP
08
10
20
00
34
4C
84
84
84
4C
34
ENDCHAR
STARTCHAR char97
ENCODING 226
SWIDTH 432 0
DWIDTH 6 0
BBX 6 11 0 0
BITMAP
10
28
44
00
34
4C
84
84
84
4C
34
ENDCHAR
STARTCHAR char97
ENCODING 227
SWIDTH 432 0
DWIDTH 6 0
BBX 6 10 0 0
BITMAP
64
98
00
34
4C
84
84
84
4C
34
ENDCHAR
STARTCHAR char97
ENCODING 228
SWIDTH 432 0
DWIDTH 6 0
BBX 6 9 0 0
BITMAP
48
00
34
4C
84
84
84
4C
34
ENDCHAR
STARTCHAR char97
ENCODING 229
SWIDTH 432 0
DWIDTH 6 0
BBX 6 11 0 0
BITMAP
30
48
30
00
34
4C
84
84
84
4C
34
ENDCHAR
STARTCHAR char97
ENCODING 230
SWIDTH 792 0
DWIDTH 11 0
BBX 11 7 0 0
BITMAP
79C0
8620
0420
7FE0
8400
8E20
71C0
ENDCHAR
STARTCHAR char99
ENCODING 231
SWIDTH 432 0
DWIDTH 6 0
BBX 6 10 0 -3
BITMAP
38
44
80
80
80
44
38
10
48
30
ENDCHAR
STARTCHAR char99
ENCODING 232
SWIDTH 432 0
DWIDTH 6 0
BBX 6 11 0 0
BITMAP
40
20
10
00
78
84
84
FC
80
84
78
ENDCHAR
STARTCHAR char99
ENCODING 233
SWIDTH 432 0
DWIDTH 6 0
BBX 6 11 0 0
BITMAP
08
10
20
00
78
84
84
FC
80
84
78
ENDCHAR
STARTCHAR char99
ENCODING 234
SWIDTH 432 0
DWIDTH 6 0
BBX 6 11 0 0
BITMAP
10
28
44
00
78
84
84
FC
80
84
78
ENDCHAR
STARTCHAR char99
ENCODING 235
SWIDTH 432 0
DWIDTH 6 0
BBX 6 9 0 0
BITMAP
28
00
78
84
84
FC
80
84
78
ENDCHAR
STARTCHAR char105
ENCODING 236
SWIDTH 288 0
DWIDTH 4 0
BBX 4 12 -1 0
BITMAP
C0
60
10
00
10
10
10
10
10
10
10
10
ENDCHAR
STARTCHAR char105
ENCODING 237
SWIDTH 288 0
DWIDTH 4 0
BBX 4 12 1 0
BITMAP
30
60
80
00
80
80
80
80
80
80
80
80
ENDCHAR
STARTCHAR char105
ENCODING 238
SWIDTH 360 0
DWIDTH 5 0
BBX 5 12 0 0
BITMAP
20
50
88
00
20
20
20
20
20
20
20
20
ENDCHAR
STARTCHAR char105
ENCODING 239
SWIDTH 216 0
DWIDTH 3 0
BBX 3 11 0 0
BITMAP
A0
00
00
40
40
40
40
40
40
40
40
ENDCHAR
STARTCHAR char100
ENCODING 240
SWIDTH 504 0
DWIDTH 7 0
BBX 7 10 0 0
BITMAP
04
1E
04
34
4C
84
84
84
4C
34
ENDCHAR
STARTCHAR char104
ENCODING 241
SWIDTH 432 0
DWIDTH 6 0
BBX 6 10 0 0
BITMAP
64
98
00
B8
C4
84
84
84
84
84
ENDCHAR
STARTCHAR char111
ENCODING 242
SWIDTH 432 0
DWIDTH 6 0
BBX 6 11 0 0
BITMAP
40
20
10
00
78
84
84
84
84
84
78
ENDCHAR
STARTCHAR char111
ENCODING 243
SWIDTH 432 0
DWIDTH 6 0
BBX 6 11 0 0
BITMAP
08
10
20
00
78
84
84
84
84
84
78
ENDCHAR
STARTCHAR char111
ENCODING 244
SWIDTH 432 0
DWIDTH 6 0
BBX 6 11 0 0
BITMAP
10
28
44
00
78
84
84
84
84
84
78
ENDCHAR
STARTCHAR char111
ENCODING 245
SWIDTH 432 0
DWIDTH 6 0
BBX 6 10 0 0
BITMAP
64
98
00
78
84
84
84
84
84
78
ENDCHAR
STARTCHAR char111
ENCODING 246
SWIDTH 432 0
DWIDTH 6 0
BBX 6 10 0 0
BITMAP
48
00
00
78
84
84
84
84
84
78
ENDCHAR
STARTCHAR char111
ENCODING 248
SWIDTH 504 0
DWIDTH 7 0
BBX 8 9 -1 -1
BITMAP
01
3E
46
4A
4A
52
62
7C
80
ENDCHAR
STARTCHAR char117
ENCODING 249
SWIDTH 432 0
DWIDTH 6 0
BBX 6 11 0 0
BITMAP
40
20
10
00
84
84
84
84
84
8C
74
ENDCHAR
STARTCHAR char117
ENCODING 250
SWIDTH 432 0
DWIDTH 6 0
BBX 6 11 0 0
BITMAP
08
10
20
00
84
84
84
84
84
8C
74
ENDCHAR
STARTCHAR char117
ENCODING 251
SWIDTH 432 0
DWIDTH 6 0
BBX 6 11 0 0
BITMAP
10
28
44
00
84
84
84
84
84
8C
74
ENDCHAR
STARTCHAR char117
ENCODING 252
SWIDTH 432 0
DWIDTH 6 0
BBX 6 10 0 0
BITMAP
48
00
00
84
84
84
84
84
8C
74
ENDCHAR
STARTCHAR char118
ENCODING 253
SWIDTH 504 0
DWIDTH 7 0
BBX 7 14 0 -3
BITMAP
04
08
10
00
82
82
44
44
28
28
10
20
20
40
ENDCHAR
STARTCHAR char112
ENCODING 254
SWIDTH 432 0
DWIDTH 6 0
BBX 6 12 0 -3
BITMAP
80
80
B8
C4
84
84
84
C4
B8
80
80
80
ENDCHAR
STARTCHAR char118
ENCODING 255
SWIDTH 504 0
DWIDTH 7 0
BBX 7 12 0 -3
BITMAP
24
00
82
82
44
44
28
28
10
20
20
40
ENDCHAR
STARTCHAR char101
ENCODING 258
SWIDTH 576 0
DWIDTH 8 0
BBX 7 13 0 0
BITMAP
44
38
00
10
10
28
28
44
44
7C
C6
82
82
ENDCHAR
STARTCHAR char97
ENCODING 259
SWIDTH 432 0
DWIDTH 6 0
BBX 6 10 0 0
BITMAP
44
38
00
34
4C
84
84
84
4C
34
ENDCHAR
STARTCHAR char101
ENCODING 260
SWIDTH 576 0
DWIDTH 8 0
BBX 7 13 0 -3
BITMAP
10
10
28
28
44
44
7C
C6
82
82
08
08
06
ENDCHAR
STARTCHAR char97
ENCODING 261
SWIDTH 432 0
DWIDTH 6 0
BBX 6 10 0 -3
BITMAP
34
4C
84
84
84
4C
34
10
10
0C
ENDCHAR
STARTCHAR char103
ENCODING 262
SWIDTH 576 0
DWIDTH 8 0
BBX 8 14 0 0
BITMAP
04
08
10
00
3C
42
81
80
80
80
80
81
42
3C
ENDCHAR
STARTCHAR char99
ENCODING 263
SWIDTH 432 0
DWIDTH 6 0
BBX 6 11 0 0
BITMAP
04
08
10
00
38
44
80
80
80
44
38
ENDCHAR
STARTCHAR char103
ENCODING 264
SWIDTH 576 0
DWIDTH 8 0
BBX 8 14 0 0
BITMAP
08
14
22
00
3C
42
81
80
80
80
80
81
42
3C
ENDCHAR
STARTCHAR char99
ENCODING 265
SWIDTH 432 0
DWIDTH 6 0
BBX 6 11 0 0
BITMAP
10
28
44
00
38
44
80
80
80
44
38
ENDCHAR
STARTCHAR char103
ENCODING 266
SWIDTH 576 0
DWIDTH 8 0
BBX 8 13 0 0
BITMAP
08
00
00
3C
42
81
80
80
80
80
81
42
3C
ENDCHAR
STARTCHAR char99
ENCODING 267
SWIDTH 432 0
DWIDTH 6 0
BBX 6 10 0 0
BITMAP
10
00
00
38
44
80
80
80
44
38
ENDCHAR
STARTCHAR char103
ENCODING 268
SWIDTH 576 0
DWIDTH 8 0
BBX 8 14 0 0
BITMAP
22
14
08
00
3C
42
81
80
80
80
80
81
42
3C
ENDCHAR
STARTCHAR char99
ENCODING 269
SWIDTH 432 0
DWIDTH 6 0
BBX 6 11 0 0
BITMAP
44
28
10
00
38
44
80
80
80
44
38
ENDCHAR
STARTCHAR char104
ENCODING 270
SWIDTH 576 0
DWIDTH 8 0
BBX 7 14 1 0
BITMAP
88
50
20
00
F8
84
82
82
82
82
82
82
84
F8
ENDCHAR
STARTCHAR char100
ENCODING 271
SWIDTH 432 0
DWIDTH 6 0
BBX 6 13 0 0
BITMAP
88
50
20
04
04
04
34
4C
84
84
84
4C
34
ENDCHAR
STARTCHAR char104
ENCODING 272
SWIDTH 576 0
DWIDTH 8 0
BBX 8 10 0 0
BITMAP
7C
42
41
41
41
F1
41
41
42
7C
ENDCHAR
STARTCHAR char100
ENCODING 273
SWIDTH 504 0
DWIDTH 7 0
BBX 7 10 0 0
BITMAP
04
1E
04
34
4C
84
84
84
4C
34
ENDCHAR
STARTCHAR char105
ENCODING 280
SWIDTH 432 0
DWIDTH 6 0
BBX 6 13 0 -3
BITMAP
FC
80
80
80
F0
80
80
80
80
FC
10
10
0C
ENDCHAR
STARTCHAR char99
ENCODING 281
SWIDTH 432 0
DWIDTH 6 0
BBX 6 10 0 -3
BITMAP
78
84
84
FC
80
84
78
10
10
0C
ENDCHAR
STARTCHAR char105
ENCODING 282
SWIDTH 432 0
DWIDTH 6 0
BBX 6 14 0 0
BITMAP
44
28
10
00
FC
80
80
80
F0
80
80
80
80
FC
ENDCHAR
STARTCHAR char99
ENCODING 283
SWIDTH 432 0
DWIDTH 6 0
BBX 6 11 0 0
BITMAP
44
28
10
00
78
84
84
FC
80
84
78
ENDCHAR
STARTCHAR char103
ENCODING 284
SWIDTH 576 0
DWIDTH 8 0
BBX 8 14 0 0
BITMAP
08
14
22
00
3C
42
81
80
80
8F
81
81
42
3C
ENDCHAR
STARTCHAR char111
ENCODING 285
SWIDTH 432 0
DWIDTH 6 0
BBX 6 14 0 -3
BITMAP
20
50
88
00
74
8C
84
84
84
8C
74
04
04
78
ENDCHAR
STARTCHAR char103
ENCODING 286
SWIDTH 576 0
DWIDTH 8 0
BBX 8 13 0 0
BITMAP
44
38
00
3C
42
81
80
80
8F
81
81
42
3C
ENDCHAR
STARTCHAR char111
ENCODING 287
SWIDTH 432 0
DWIDTH 6 0
BBX 6 13 0 -3
BITMAP
88
70
00
74
8C
84
84
84
8C
74
04
04
78
ENDCHAR
STARTCHAR char103
ENCODING 288
SWIDTH 576 0
DWIDTH 8 0
BBX 8 13 0 0
BITMAP
08
00
00
3C
42
81
80
80
8F
81
81
42
3C
ENDCHAR
STARTCHAR char111
ENCODING 289
SWIDTH 432 0
DWIDTH 6 0
BBX 6 13 0 -3
BITMAP
10
00
00
74
8C
84
84
84
8C
74
04
04
78
ENDCHAR
STARTCHAR char108
ENCODING 292
SWIDTH 504 0
DWIDTH 7 0
BBX 7 14 0 0
BITMAP
10
28
44
00
82
82
82
82
FE
82
82
82
82
82
ENDCHAR
STARTCHAR char104
ENCODING 293
SWIDTH 432 0
DWIDTH 6 0
BBX 6 10 0 0
BITMAP
80
80
80
B8
C4
84
84
84
84
84
ENDCHAR
STARTCHAR char108
ENCODING 294
SWIDTH 504 0
DWIDTH 7 0
BBX 7 10 0 0
BITMAP
82
FE
82
82
FE
82
82
82
82
82
ENDCHAR
STARTCHAR char104
ENCODING 295
SWIDTH 432 0
DWIDTH 6 0
BBX 6 10 0 0
BITMAP
80
F8
80
B8
C4
84
84
84
84
84
ENDCHAR
STARTCHAR char109
ENCODING 304
SWIDTH 216 0
DWIDTH 3 0
BBX 1 12 1 0
BITMAP
80
00
80
80
80
80
80
80
80
80
80
80
ENDCHAR
STARTCHAR char105
ENCODING 305
SWIDTH 216 0
DWIDTH 3 0
BBX 1 7 1 0
BITMAP
80
80
80
80
80
80
80
ENDCHAR
STARTCHAR char74
ENCODING 308
SWIDTH 360 0
DWIDTH 5 0
BBX 5 14 0 0
BITMAP
20
50
88
00
10
10
10
10
10
10
10
90
90
60
ENDCHAR
STARTCHAR char106
ENCODING 309
SWIDTH 360 0
DWIDTH 5 0
BBX 5 14 0 -3
BITMAP
20
50
88
00
10
10
10
10
10
10
10
10
90
60
ENDCHAR
STARTCHAR char76
ENCODING 313
SWIDTH 432 0
DWIDTH 6 0
BBX 6 14 0 0
BITMAP
20
40
80
00
80
80
80
80
80
80
80
80
80
FC
ENDCHAR
STARTCHAR char108
ENCODING 314
SWIDTH 288 0
DWIDTH 4 0
BBX 3 14 1 0
BITMAP
20
40
80
00
80
80
80
80
80
80
80
80
80
80
ENDCHAR
STARTCHAR char76
ENCODING 317
SWIDTH 432 0
DWIDTH 6 0
BBX 6 10 0 0
BITMAP
88
88
88
90
80
80
80
80
80
FC
ENDCHAR
STARTCHAR char108
ENCODING 318
SWIDTH 360 0
DWIDTH 5 0
BBX 4 10 1 0
BITMAP
90
90
90
A0
80
80
80
80
80
80
ENDCHAR
STARTCHAR char76
ENCODING 321
SWIDTH 504 0
DWIDTH 7 0
BBX 7 10 0 0
BITMAP
40
40
50
60
40
C0
40
40
40
7E
ENDCHAR
STARTCHAR char108
ENCODING 322
SWIDTH 288 0
DWIDTH 4 0
BBX 4 10 0 0
BITMAP
40
40
50
60
40
C0
40
40
40
40
ENDCHAR
STARTCHAR char78
ENCODING 323
SWIDTH 504 0
DWIDTH 7 0
BBX 7 14 0 0
BITMAP
04
08
10
00
82
C2
A2
A2
92
92
8A
8A
86
82
ENDCHAR
STARTCHAR char104
ENCODING 324
SWIDTH 432 0
DWIDTH 6 0
BBX 6 11 0 0
BITMAP
08
10
20
00
B8
C4
84
84
84
84
84
ENDCHAR
STARTCHAR char78
ENCODING 327
SWIDTH 504 0
DWIDTH 7 0
BBX 7 14 0 0
BITMAP
44
28
10
00
82
C2
A2
A2
92
92
8A
8A
86
82
ENDCHAR
STARTCHAR char104
ENCODING 328
SWIDTH 432 0
DWIDTH 6 0
BBX 6 11 0 0
BITMAP
88
50
20
00
B8
C4
84
84
84
84
84
ENDCHAR
STARTCHAR char79
ENCODING 336
SWIDTH 576 0
DWIDTH 8 0
BBX 8 14 0 0
BITMAP
11
22
44
00
3C
42
81
81
81
81
81
81
42
3C
ENDCHAR
STARTCHAR char111
ENCODING 337
SWIDTH 504 0
DWIDTH 7 0
BBX 7 11 0 0
BITMAP
12
24
48
00
78
84
84
84
84
84
78
ENDCHAR
STARTCHAR char80
ENCODING 340
SWIDTH 504 0
DWIDTH 7 0
BBX 7 14 0 0
BITMAP
08
10
20
00
FC
82
82
82
FC
A0
90
88
84
82
ENDCHAR
STARTCHAR char114
ENCODING 341
SWIDTH 360 0
DWIDTH 5 0
BBX 5 11 0 0
BITMAP
10
20
40
00
98
A0
C0
80
80
80
80
ENDCHAR
STARTCHAR char80
ENCODING 344
SWIDTH 504 0
DWIDTH 7 0
BBX 7 14 0 0
BITMAP
44
28
10
00
FC
82
82
82
FC
A0
90
88
84
82
ENDCHAR
STARTCHAR char114
ENCODING 345
SWIDTH 360 0
DWIDTH 5 0
BBX 5 11 0 0
BITMAP
88
50
20
00
98
A0
C0
80
80
80
80
ENDCHAR
STARTCHAR char83
ENCODING 346
SWIDTH 504 0
DWIDTH 7 0
BBX 7 14 0 0
BITMAP
04
08
10
00
3C
42
80
80
70
1C
02
02
84
78
ENDCHAR
STARTCHAR char115
ENCODING 347
SWIDTH 432 0
DWIDTH 6 0
BBX 6 11 0 0
BITMAP
08
10
20
00
78
84
80
78
04
84
78
ENDCHAR
STARTCHAR char83
ENCODING 348
SWIDTH 504 0
DWIDTH 7 0
BBX 7 14 0 0
BITMAP
10
28
44
00
3C
42
80
80
70
1C
02
02
84
78
ENDCHAR
STARTCHAR char115
ENCODING 349
SWIDTH 432 0
DWIDTH 6 0
BBX 6 11 0 0
BITMAP
10
28
44
00
78
84
80
78
04
84
78
ENDCHAR
STARTCHAR char83
ENCODING 350
SWIDTH 504 0
DWIDTH 7 0
BBX 7 14 0 -4
BITMAP
3C
42
80
80
70
1C
02
02
84
78
10
08
44
38
ENDCHAR
STARTCHAR char115
ENCODING 351
SWIDTH 432 0
DWIDTH 6 0
BBX 6 10 0 -3
BITMAP
78
84
80
78
04
84
78
10
48
30
ENDCHAR
STARTCHAR char83
ENCODING 352
SWIDTH 504 0
DWIDTH 7 0
BBX 7 14 0 0
BITMAP
44
28
10
00
3C
42
80
80
70
1C
02
02
84
78
ENDCHAR
STARTCHAR char115
ENCODING 353
SWIDTH 432 0
DWIDTH 6 0
BBX 6 11 0 0
BITMAP
44
28
10
00
78
84
80
78
04
84
78
ENDCHAR
STARTCHAR char84
ENCODING 354
SWIDTH 504 0
DWIDTH 7 0
BBX 7 14 0 -4
BITMAP
FE
10
10
10
10
10
10
10
10
10
10
08
44
38
ENDCHAR
STARTCHAR char116
ENCODING 355
SWIDTH 360 0
DWIDTH 5 0
BBX 5 13 0 -3
BITMAP
20
20
20
F8
20
20
20
20
20
18
10
48
30
ENDCHAR
STARTCHAR char84
ENCODING 356
SWIDTH 504 0
DWIDTH 7 0
BBX 7 14 0 0
BITMAP
44
28
10
00
FE
10
10
10
10
10
10
10
10
10
ENDCHAR
STARTCHAR char116
ENCODING 357
SWIDTH 360 0
DWIDTH 5 0
BBX 5 14 0 0
BITMAP
88
50
20
00
20
20
20
F8
20
20
20
20
20
18
ENDCHAR
STARTCHAR char85
ENCODING 364
SWIDTH 504 0
DWIDTH 7 0
BBX 7 13 0 0
BITMAP
44
38
00
82
82
82
82
82
82
82
82
44
38
ENDCHAR
STARTCHAR char117
ENCODING 365
SWIDTH 432 0
DWIDTH 6 0
BBX 6 10 0 0
BITMAP
44
38
00
84
84
84
84
84
8C
74
ENDCHAR
STARTCHAR char85
ENCODING 366
SWIDTH 504 0
DWIDTH 7 0
BBX 7 14 0 0
BITMAP
30
48
30
00
82
82
82
82
82
82
82
82
44
38
ENDCHAR
STARTCHAR char117
ENCODING 367
SWIDTH 432 0
DWIDTH 6 0
BBX 6 11 0 0
BITMAP
30
48
30
00
84
84
84
84
84
8C
74
ENDCHAR
STARTCHAR char85
ENCODING 368
SWIDTH 504 0
DWIDTH 7 0
BBX 7 14 0 0
BITMAP
12
24
48
00
82
82
82
82
82
82
82
82
44
38
ENDCHAR
STARTCHAR char117
ENCODING 369
SWIDTH 432 0
DWIDTH 6 0
BBX 6 11 0 0
BITMAP
24
48
90
00
84
84
84
84
84
8C
74
ENDCHAR
STARTCHAR char90
ENCODING 377
SWIDTH 576 0
DWIDTH 8 0
BBX 8 14 0 0
BITMAP
04
08
10
00
FF
01
02
04
08
10
20
40
80
FF
ENDCHAR
STARTCHAR char122
ENCODING 378
SWIDTH 432 0
DWIDTH 6 0
BBX 6 11 0 0
BITMAP
08
10
20
00
FC
04
08
10
20
40
FC
ENDCHAR
STARTCHAR char90
ENCODING 379
SWIDTH 576 0
DWIDTH 8 0
BBX 8 13 0 0
BITMAP
08
00
00
FF
01
02
04
08
10
20
40
80
FF
ENDCHAR
STARTCHAR char122
ENCODING 380
SWIDTH 432 0
DWIDTH 6 0
BBX 6 10 0 0
BITMAP
10
00
00
FC
04
08
10
20
40
FC
ENDCHAR
STARTCHAR char90
ENCODING 381
SWIDTH 576 0
DWIDTH 8 0
BBX 8 14 0 0
BITMAP
22
14
08
00
FF
01
02
04
08
10
20
40
80
FF
ENDCHAR
STARTCHAR char122
ENCODING 382
SWIDTH 432 0
DWIDTH 6 0
BBX 6 11 0 0
BITMAP
44
28
10
00
FC
04
08
10
20
40
FC
ENDCHAR
ENDFONT
