STARTFONT 2.1
FONT -dislin-simplex-medium-r-normal--19-140-100-100-p-120-iso8859-1
SIZE 14 100 100
FONTBOUNDINGBOX 14 22 -1 -4
STARTPROPERTIES 9
POINT_SIZE 14
PIXEL_SIZE 19
RESOLUTION_X 100
RESOLUTION_Y 100
FONT_ASCENT 11
FONT_DESCENT 3
AVERAGE_WIDTH 120
SPACING "P"
_XMBDFED_INFO "Edited with xmbdfed 4.5."
ENDPROPERTIES
CHARS 235
STARTCHAR char32
ENCODING 32
SWIDTH 360 0
DWIDTH 7 0
BBX 0 0 0 0
BITMAP
ENDCHAR
STARTCHAR char33
ENCODING 33
SWIDTH 51 0
DWIDTH 1 0
BBX 1 14 0 0
BITMAP
80
80
80
80
80
80
80
80
80
80
00
00
00
80
ENDCHAR
STARTCHAR char34
ENCODING 34
SWIDTH 257 0
DWIDTH 5 0
BBX 5 5 0 9
BITMAP
88
88
88
88
88
ENDCHAR
STARTCHAR char35
ENCODING 35
SWIDTH 462 0
DWIDTH 9 0
BBX 9 10 0 2
BITMAP
0900
0900
1200
7F80
1200
2400
FF00
2400
4800
4800
ENDCHAR
STARTCHAR char83
ENCODING 36
SWIDTH 462 0
DWIDTH 9 0
BBX 9 18 0 -2
BITMAP
1400
1400
3E00
5500
9480
9400
9400
5400
3C00
1E00
1500
1480
1480
9480
5500
3E00
1400
1400
ENDCHAR
STARTCHAR char37
ENCODING 37
SWIDTH 565 0
DWIDTH 11 0
BBX 11 14 0 0
BITMAP
7020
8C40
8BC0
8880
7100
0200
0200
0400
0800
11C0
2220
2220
4220
81C0
ENDCHAR
STARTCHAR char38
ENCODING 38
SWIDTH 617 0
DWIDTH 12 0
BBX 12 14 0 0
BITMAP
1800
2400
4200
4200
4200
2400
1800
2820
4450
8280
8100
8280
8450
7820
ENDCHAR
STARTCHAR char39
ENCODING 39
SWIDTH 102 0
DWIDTH 2 0
BBX 1 5 0 9
BITMAP
80
80
80
80
80
ENDCHAR
STARTCHAR char40
ENCODING 40
SWIDTH 257 0
DWIDTH 5 0
BBX 5 18 0 -2
BITMAP
08
10
20
20
40
40
80
80
80
80
80
80
40
40
20
20
10
08
ENDCHAR
STARTCHAR char41
ENCODING 41
SWIDTH 257 0
DWIDTH 5 0
BBX 5 18 0 -2
BITMAP
80
40
20
20
10
10
08
08
08
08
08
08
10
10
20
20
40
80
ENDCHAR
STARTCHAR char42
ENCODING 42
SWIDTH 360 0
DWIDTH 7 0
BBX 7 7 0 4
BITMAP
10
92
54
38
54
92
10
ENDCHAR
STARTCHAR char43
ENCODING 43
SWIDTH 462 0
DWIDTH 9 0
BBX 9 9 0 2
BITMAP
0800
0800
0800
0800
FF80
0800
0800
0800
0800
ENDCHAR
STARTCHAR char44
ENCODING 44
SWIDTH 102 0
DWIDTH 2 0
BBX 2 5 0 -3
BITMAP
40
40
40
40
80
ENDCHAR
STARTCHAR char45
ENCODING 45
SWIDTH 462 0
DWIDTH 9 0
BBX 9 1 0 6
BITMAP
FF80
ENDCHAR
STARTCHAR char46
ENCODING 46
SWIDTH 51 0
DWIDTH 1 0
BBX 1 1 0 0
BITMAP
80
ENDCHAR
STARTCHAR char47
ENCODING 47
SWIDTH 462 0
DWIDTH 9 0
BBX 9 18 0 -2
BITMAP
0080
0080
0100
0100
0200
0200
0400
0400
0800
0800
1000
1000
2000
2000
4000
4000
8000
8000
ENDCHAR
STARTCHAR char48
ENCODING 48
SWIDTH 411 0
DWIDTH 8 0
BBX 8 14 0 0
BITMAP
3C
42
81
81
81
81
81
81
81
81
81
81
42
3C
ENDCHAR
STARTCHAR char49
ENCODING 49
SWIDTH 257 0
DWIDTH 5 0
BBX 4 14 0 0
BITMAP
10
30
D0
10
10
10
10
10
10
10
10
10
10
10
ENDCHAR
STARTCHAR char50
ENCODING 50
SWIDTH 411 0
DWIDTH 8 0
BBX 8 14 0 0
BITMAP
3C
42
81
01
01
01
02
04
08
10
20
40
80
FF
ENDCHAR
STARTCHAR char51
ENCODING 51
SWIDTH 411 0
DWIDTH 8 0
BBX 8 14 0 0
BITMAP
7F
01
02
04
08
10
0C
02
01
01
01
81
42
3C
ENDCHAR
STARTCHAR char52
ENCODING 52
SWIDTH 462 0
DWIDTH 9 0
BBX 9 14 0 0
BITMAP
0200
0600
0A00
0A00
1200
2200
2200
4200
8200
FF80
0200
0200
0200
0200
ENDCHAR
STARTCHAR char53
ENCODING 53
SWIDTH 411 0
DWIDTH 8 0
BBX 8 14 0 0
BITMAP
7F
40
40
40
80
BC
C2
81
01
01
01
81
42
3C
ENDCHAR
STARTCHAR char54
ENCODING 54
SWIDTH 411 0
DWIDTH 8 0
BBX 8 14 0 0
BITMAP
3C
42
81
80
80
80
BC
C2
81
81
81
81
42
3C
ENDCHAR
STARTCHAR char55
ENCODING 55
SWIDTH 462 0
DWIDTH 9 0
BBX 9 14 0 0
BITMAP
FF80
0080
0100
0100
0200
0200
0400
0400
0800
0800
1000
1000
2000
2000
ENDCHAR
STARTCHAR char56
ENCODING 56
SWIDTH 411 0
DWIDTH 8 0
BBX 8 14 0 0
BITMAP
3C
42
81
81
81
42
3C
42
81
81
81
81
42
3C
ENDCHAR
STARTCHAR char57
ENCODING 57
SWIDTH 411 0
DWIDTH 8 0
BBX 8 14 0 0
BITMAP
3C
42
81
81
81
81
43
3D
01
01
01
81
42
3C
ENDCHAR
STARTCHAR char58
ENCODING 58
SWIDTH 51 0
DWIDTH 1 0
BBX 1 5 0 4
BITMAP
80
00
00
00
80
ENDCHAR
STARTCHAR char59
ENCODING 59
SWIDTH 102 0
DWIDTH 2 0
BBX 2 9 0 -3
BITMAP
40
00
00
00
40
40
40
40
80
ENDCHAR
STARTCHAR char60
ENCODING 60
SWIDTH 462 0
DWIDTH 9 0
BBX 9 9 0 1
BITMAP
0180
0600
1800
6000
8000
6000
1800
0600
0180
ENDCHAR
STARTCHAR char61
ENCODING 61
SWIDTH 514 0
DWIDTH 10 0
BBX 10 4 0 4
BITMAP
FFC0
0000
0000
FFC0
ENDCHAR
STARTCHAR char62
ENCODING 62
SWIDTH 462 0
DWIDTH 9 0
BBX 9 9 0 2
BITMAP
C000
3000
0C00
0300
0080
0300
0C00
3000
C000
ENDCHAR
STARTCHAR char63
ENCODING 63
SWIDTH 360 0
DWIDTH 7 0
BBX 7 14 0 0
BITMAP
38
44
82
82
02
02
04
08
10
10
10
00
00
10
ENDCHAR
STARTCHAR char64
ENCODING 64
SWIDTH 565 0
DWIDTH 11 0
BBX 11 14 0 0
BITMAP
1F00
2080
4040
8020
8D20
9320
9320
9320
93C0
8C00
8000
4020
20C0
1F00
ENDCHAR
STARTCHAR char101
ENCODING 65
SWIDTH 514 0
DWIDTH 10 0
BBX 9 14 0 0
BITMAP
0800
0800
1400
1400
1400
2200
2200
2200
7F00
4100
4100
8080
8080
8080
ENDCHAR
STARTCHAR char102
ENCODING 66
SWIDTH 462 0
DWIDTH 9 0
BBX 9 14 0 0
BITMAP
FE00
8100
8080
8080
8080
8100
FE00
8100
8080
8080
8080
8080
8100
FE00
ENDCHAR
STARTCHAR char103
ENCODING 67
SWIDTH 462 0
DWIDTH 9 0
BBX 9 14 0 0
BITMAP
1E00
2100
4080
8000
8000
8000
8000
8000
8000
8000
8000
4080
2100
1E00
ENDCHAR
STARTCHAR char104
ENCODING 68
SWIDTH 462 0
DWIDTH 9 0
BBX 9 14 0 0
BITMAP
F800
8600
8100
8100
8080
8080
8080
8080
8080
8080
8100
8100
8600
F800
ENDCHAR
STARTCHAR char105
ENCODING 69
SWIDTH 411 0
DWIDTH 8 0
BBX 8 14 0 0
BITMAP
FF
80
80
80
80
80
F8
80
80
80
80
80
80
FF
ENDCHAR
STARTCHAR char106
ENCODING 70
SWIDTH 411 0
DWIDTH 8 0
BBX 8 14 0 0
BITMAP
FF
80
80
80
80
80
F8
80
80
80
80
80
80
80
ENDCHAR
STARTCHAR char103
ENCODING 71
SWIDTH 462 0
DWIDTH 9 0
BBX 9 14 0 0
BITMAP
1E00
2100
4080
8000
8000
8000
8000
8780
8080
8080
8080
4080
2100
1E00
ENDCHAR
STARTCHAR char108
ENCODING 72
SWIDTH 462 0
DWIDTH 9 0
BBX 9 14 0 0
BITMAP
8080
8080
8080
8080
8080
8080
FF80
8080
8080
8080
8080
8080
8080
8080
ENDCHAR
STARTCHAR char109
ENCODING 73
SWIDTH 154 0
DWIDTH 3 0
BBX 1 14 1 0
BITMAP
80
80
80
80
80
80
80
80
80
80
80
80
80
80
ENDCHAR
STARTCHAR char74
ENCODING 74
SWIDTH 308 0
DWIDTH 6 0
BBX 6 14 0 0
BITMAP
04
04
04
04
04
04
04
04
04
04
84
84
48
30
ENDCHAR
STARTCHAR char75
ENCODING 75
SWIDTH 462 0
DWIDTH 9 0
BBX 9 14 0 0
BITMAP
8000
8080
8100
8200
8400
8800
9000
A000
D000
8800
8400
8200
8100
8080
ENDCHAR
STARTCHAR char76
ENCODING 76
SWIDTH 411 0
DWIDTH 8 0
BBX 8 14 0 0
BITMAP
80
80
80
80
80
80
80
80
80
80
80
80
80
FF
ENDCHAR
STARTCHAR char113
ENCODING 77
SWIDTH 565 0
DWIDTH 11 0
BBX 11 14 0 0
BITMAP
8020
C060
C060
A0A0
A0A0
9120
9120
9120
8A20
8A20
8A20
8420
8420
8420
ENDCHAR
STARTCHAR char78
ENCODING 78
SWIDTH 462 0
DWIDTH 9 0
BBX 9 14 0 0
BITMAP
8080
C080
A080
A080
9080
9080
8880
8880
8480
8480
8280
8280
8180
8080
ENDCHAR
STARTCHAR char79
ENCODING 79
SWIDTH 514 0
DWIDTH 10 0
BBX 10 14 0 0
BITMAP
1E00
2100
4080
8040
8040
8040
8040
8040
8040
8040
8040
4080
2100
1E00
ENDCHAR
STARTCHAR char80
ENCODING 80
SWIDTH 462 0
DWIDTH 9 0
BBX 9 14 0 0
BITMAP
FE00
8100
8080
8080
8080
8100
FE00
8000
8000
8000
8000
8000
8000
8000
ENDCHAR
STARTCHAR char79
ENCODING 81
SWIDTH 514 0
DWIDTH 10 0
BBX 10 15 0 -1
BITMAP
1E00
2100
4080
8040
8040
8040
8040
8040
8040
8040
8440
4280
2100
1E80
0040
ENDCHAR
STARTCHAR char80
ENCODING 82
SWIDTH 514 0
DWIDTH 10 0
BBX 10 14 0 0
BITMAP
FE00
8100
8080
8080
8080
8100
FE00
9000
8800
8400
8200
8100
8080
8040
ENDCHAR
STARTCHAR char83
ENCODING 83
SWIDTH 462 0
DWIDTH 9 0
BBX 9 14 0 0
BITMAP
3E00
4100
8080
8000
8000
4000
3800
0600
0100
0080
0080
8080
4100
3E00
ENDCHAR
STARTCHAR char84
ENCODING 84
SWIDTH 462 0
DWIDTH 9 0
BBX 9 14 0 0
BITMAP
FF80
0800
0800
0800
0800
0800
0800
0800
0800
0800
0800
0800
0800
0800
ENDCHAR
STARTCHAR char85
ENCODING 85
SWIDTH 462 0
DWIDTH 9 0
BBX 9 14 0 0
BITMAP
8080
8080
8080
8080
8080
8080
8080
8080
8080
8080
8080
8080
4100
3E00
ENDCHAR
STARTCHAR char86
ENCODING 86
SWIDTH 462 0
DWIDTH 9 0
BBX 9 14 0 0
BITMAP
8080
8080
8080
4100
4100
4100
2200
2200
2200
1400
1400
1400
0800
0800
ENDCHAR
STARTCHAR char86
ENCODING 87
SWIDTH 668 0
DWIDTH 13 0
BBX 13 14 0 0
BITMAP
8208
8208
8208
8208
4510
4510
4510
28A0
28A0
28A0
1040
1040
1040
1040
ENDCHAR
STARTCHAR char88
ENCODING 88
SWIDTH 462 0
DWIDTH 9 0
BBX 9 14 0 0
BITMAP
8080
4100
4100
2200
1400
1400
0800
0800
1400
1400
2200
4100
4100
8080
ENDCHAR
STARTCHAR char89
ENCODING 89
SWIDTH 565 0
DWIDTH 11 0
BBX 11 14 0 0
BITMAP
8020
4040
2080
2080
1100
0A00
0A00
0400
0400
0400
0400
0400
0400
0400
ENDCHAR
STARTCHAR char90
ENCODING 90
SWIDTH 514 0
DWIDTH 10 0
BBX 10 14 0 0
BITMAP
FFC0
0040
0080
0100
0200
0200
0400
0800
1000
1000
2000
4000
8000
FFC0
ENDCHAR
STARTCHAR char91
ENCODING 91
SWIDTH 205 0
DWIDTH 4 0
BBX 4 18 0 -2
BITMAP
F0
80
80
80
80
80
80
80
80
80
80
80
80
80
80
80
80
F0
ENDCHAR
STARTCHAR char92
ENCODING 92
SWIDTH 462 0
DWIDTH 9 0
BBX 9 18 0 -2
BITMAP
8000
8000
4000
4000
2000
2000
1000
1000
0800
0800
0400
0400
0200
0200
0100
0100
0080
0080
ENDCHAR
STARTCHAR char93
ENCODING 93
SWIDTH 257 0
DWIDTH 5 0
BBX 4 18 0 -2
BITMAP
F0
10
10
10
10
10
10
10
10
10
10
10
10
10
10
10
10
F0
ENDCHAR
STARTCHAR char94
ENCODING 94
SWIDTH 462 0
DWIDTH 9 0
BBX 9 5 0 9
BITMAP
0800
1400
2200
4100
8080
ENDCHAR
STARTCHAR char95
ENCODING 95
SWIDTH 565 0
DWIDTH 11 0
BBX 11 1 0 -2
BITMAP
FFE0
ENDCHAR
STARTCHAR char96
ENCODING 96
SWIDTH 205 0
DWIDTH 4 0
BBX 4 4 0 10
BITMAP
80
40
20
10
ENDCHAR
STARTCHAR char97
ENCODING 97
SWIDTH 360 0
DWIDTH 7 0
BBX 7 9 0 0
BITMAP
3A
46
82
82
82
82
82
46
3A
ENDCHAR
STARTCHAR char98
ENCODING 98
SWIDTH 360 0
DWIDTH 7 0
BBX 7 14 0 0
BITMAP
80
80
80
80
80
98
A4
C2
82
82
82
C2
A4
98
ENDCHAR
STARTCHAR char99
ENCODING 99
SWIDTH 360 0
DWIDTH 7 0
BBX 7 9 0 0
BITMAP
38
44
82
80
80
80
82
44
38
ENDCHAR
STARTCHAR char100
ENCODING 100
SWIDTH 360 0
DWIDTH 7 0
BBX 7 14 0 0
BITMAP
02
02
02
02
02
32
4A
86
82
82
82
86
4A
32
ENDCHAR
STARTCHAR char99
ENCODING 101
SWIDTH 360 0
DWIDTH 7 0
BBX 7 9 0 0
BITMAP
38
44
82
82
FE
80
82
44
38
ENDCHAR
STARTCHAR char102
ENCODING 102
SWIDTH 308 0
DWIDTH 6 0
BBX 6 14 0 0
BITMAP
1C
20
20
20
20
F8
20
20
20
20
20
20
20
20
ENDCHAR
STARTCHAR char111
ENCODING 103
SWIDTH 360 0
DWIDTH 7 0
BBX 7 13 0 -4
BITMAP
3A
46
82
82
82
82
82
46
3A
02
02
44
38
ENDCHAR
STARTCHAR char104
ENCODING 104
SWIDTH 360 0
DWIDTH 7 0
BBX 7 14 0 0
BITMAP
80
80
80
80
80
B8
C4
82
82
82
82
82
82
82
ENDCHAR
STARTCHAR char105
ENCODING 105
SWIDTH 154 0
DWIDTH 3 0
BBX 1 14 1 0
BITMAP
80
00
00
00
00
80
80
80
80
80
80
80
80
80
ENDCHAR
STARTCHAR char106
ENCODING 106
SWIDTH 257 0
DWIDTH 5 0
BBX 5 18 0 -4
BITMAP
08
00
00
00
00
08
08
08
08
08
08
08
08
08
08
08
90
60
ENDCHAR
STARTCHAR char107
ENCODING 107
SWIDTH 360 0
DWIDTH 7 0
BBX 7 14 0 0
BITMAP
80
80
80
80
80
84
88
90
A0
E0
90
88
84
82
ENDCHAR
STARTCHAR char108
ENCODING 108
SWIDTH 102 0
DWIDTH 2 0
BBX 1 14 1 0
BITMAP
80
80
80
80
80
80
80
80
80
80
80
80
80
80
ENDCHAR
STARTCHAR char104
ENCODING 109
SWIDTH 668 0
DWIDTH 13 0
BBX 13 9 0 0
BITMAP
B8F0
C508
8208
8208
8208
8208
8208
8208
8208
ENDCHAR
STARTCHAR char104
ENCODING 110
SWIDTH 360 0
DWIDTH 7 0
BBX 7 9 0 0
BITMAP
B8
C4
82
82
82
82
82
82
82
ENDCHAR
STARTCHAR char111
ENCODING 111
SWIDTH 411 0
DWIDTH 8 0
BBX 8 9 0 0
BITMAP
3C
42
81
81
81
81
81
42
3C
ENDCHAR
STARTCHAR char112
ENCODING 112
SWIDTH 462 0
DWIDTH 9 0
BBX 7 13 0 -4
BITMAP
98
A4
C2
82
82
82
C2
A4
98
80
80
80
80
ENDCHAR
STARTCHAR char113
ENCODING 113
SWIDTH 360 0
DWIDTH 7 0
BBX 7 13 0 -4
BITMAP
32
4A
86
82
82
82
86
4A
32
02
02
02
02
ENDCHAR
STARTCHAR char114
ENCODING 114
SWIDTH 257 0
DWIDTH 5 0
BBX 5 9 0 0
BITMAP
98
A0
C0
80
80
80
80
80
80
ENDCHAR
STARTCHAR char115
ENCODING 115
SWIDTH 308 0
DWIDTH 6 0
BBX 6 9 0 0
BITMAP
78
84
80
40
30
08
04
84
78
ENDCHAR
STARTCHAR char116
ENCODING 116
SWIDTH 308 0
DWIDTH 6 0
BBX 6 14 0 0
BITMAP
20
20
20
20
20
F8
20
20
20
20
20
20
20
1C
ENDCHAR
STARTCHAR char117
ENCODING 117
SWIDTH 360 0
DWIDTH 7 0
BBX 7 9 0 0
BITMAP
82
82
82
82
82
82
82
46
3A
ENDCHAR
STARTCHAR char118
ENCODING 118
SWIDTH 360 0
DWIDTH 7 0
BBX 7 9 0 0
BITMAP
82
82
82
44
44
28
28
10
10
ENDCHAR
STARTCHAR char118
ENCODING 119
SWIDTH 462 0
DWIDTH 9 0
BBX 9 9 0 0
BITMAP
8880
8880
8880
5500
5500
5500
2200
2200
2200
ENDCHAR
STARTCHAR char120
ENCODING 120
SWIDTH 462 0
DWIDTH 9 0
BBX 9 9 0 0
BITMAP
8080
4100
2200
1400
0800
1400
2200
4100
8080
ENDCHAR
STARTCHAR char121
ENCODING 121
SWIDTH 462 0
DWIDTH 9 0
BBX 9 13 0 -4
BITMAP
8080
8080
4100
4100
2200
2200
1400
1400
0800
0800
1000
9000
6000
ENDCHAR
STARTCHAR char122
ENCODING 122
SWIDTH 411 0
DWIDTH 8 0
BBX 8 9 0 0
BITMAP
FF
01
02
04
08
10
20
40
FF
ENDCHAR
STARTCHAR char123
ENCODING 123
SWIDTH 205 0
DWIDTH 4 0
BBX 4 17 0 -2
BITMAP
30
40
40
40
40
20
20
40
80
40
20
20
40
40
40
40
30
ENDCHAR
STARTCHAR char124
ENCODING 124
SWIDTH 154 0
DWIDTH 3 0
BBX 1 18 1 -2
BITMAP
80
80
80
80
80
80
80
80
80
80
80
80
80
80
80
80
80
80
ENDCHAR
STARTCHAR char125
ENCODING 125
SWIDTH 205 0
DWIDTH 4 0
BBX 4 17 0 -2
BITMAP
C0
20
20
20
20
40
40
20
10
20
40
40
20
20
20
20
C0
ENDCHAR
STARTCHAR char126
ENCODING 126
SWIDTH 514 0
DWIDTH 10 0
BBX 10 4 0 5
BITMAP
3040
4840
8480
8300
ENDCHAR
STARTCHAR char161
ENCODING 161
SWIDTH 51 0
DWIDTH 1 0
BBX 1 14 0 0
BITMAP
80
00
00
00
80
80
80
80
80
80
80
80
80
80
ENDCHAR
STARTCHAR char103
ENCODING 164
SWIDTH 514 0
DWIDTH 10 0
BBX 10 14 0 0
BITMAP
0780
0840
1000
2000
2000
FE00
2000
2000
FE00
2000
2000
1000
0840
0780
ENDCHAR
STARTCHAR char99
ENCODING 169
SWIDTH 565 0
DWIDTH 11 0
BBX 11 14 0 0
BITMAP
1F00
2080
4040
8620
8920
9020
9020
9020
9020
8920
8620
4040
2080
1F00
ENDCHAR
STARTCHAR char191
ENCODING 191
SWIDTH 360 0
DWIDTH 7 0
BBX 7 14 0 0
BITMAP
10
00
00
10
10
10
20
40
80
80
82
82
44
38
ENDCHAR
STARTCHAR char101
ENCODING 192
SWIDTH 514 0
DWIDTH 10 0
BBX 9 18 0 0
BITMAP
2000
1000
0800
0000
0800
0800
1400
1400
1400
2200
2200
2200
7F00
4100
4100
8080
8080
8080
ENDCHAR
STARTCHAR char101
ENCODING 193
SWIDTH 514 0
DWIDTH 10 0
BBX 9 18 0 0
BITMAP
0200
0400
0800
0000
0800
0800
1400
1400
1400
2200
2200
2200
7F00
4100
4100
8080
8080
8080
ENDCHAR
STARTCHAR char101
ENCODING 194
SWIDTH 514 0
DWIDTH 10 0
BBX 9 18 0 0
BITMAP
0800
1400
2200
0000
0800
0800
1400
1400
1400
2200
2200
2200
7F00
4100
4100
8080
8080
8080
ENDCHAR
STARTCHAR char101
ENCODING 195
SWIDTH 514 0
DWIDTH 10 0
BBX 9 17 0 0
BITMAP
1900
2600
0000
0800
0800
1400
1400
1400
2200
2200
2200
7F00
4100
4100
8080
8080
8080
ENDCHAR
STARTCHAR char101
ENCODING 196
SWIDTH 514 0
DWIDTH 10 0
BBX 9 16 0 0
BITMAP
2200
0000
0800
0800
1400
1400
1400
2200
2200
2200
7F00
4100
4100
8080
8080
8080
ENDCHAR
STARTCHAR char101
ENCODING 197
SWIDTH 514 0
DWIDTH 10 0
BBX 9 18 0 0
BITMAP
0800
1400
0800
0000
0800
0800
1400
1400
1400
2200
2200
2200
7F00
4100
4100
8080
8080
8080
ENDCHAR
STARTCHAR char101
ENCODING 198
SWIDTH 565 0
DWIDTH 11 0
BBX 11 14 0 0
BITMAP
07E0
0400
0C00
0C00
1400
1400
3F80
2400
2400
4400
4400
4400
8400
87E0
ENDCHAR
STARTCHAR char103
ENCODING 199
SWIDTH 462 0
DWIDTH 9 0
BBX 9 18 0 -4
BITMAP
1E00
2100
4080
8000
8000
8000
8000
8000
8000
8000
8000
4080
2100
1E00
0400
0200
1100
0E00
ENDCHAR
STARTCHAR char105
ENCODING 200
SWIDTH 411 0
DWIDTH 8 0
BBX 8 18 0 0
BITMAP
20
10
08
00
FF
80
80
80
80
80
F8
80
80
80
80
80
80
FF
ENDCHAR
STARTCHAR char105
ENCODING 201
SWIDTH 411 0
DWIDTH 8 0
BBX 8 18 0 0
BITMAP
04
08
10
00
FF
80
80
80
80
80
F8
80
80
80
80
80
80
FF
ENDCHAR
STARTCHAR char105
ENCODING 202
SWIDTH 411 0
DWIDTH 8 0
BBX 8 18 0 0
BITMAP
10
28
44
00
FF
80
80
80
80
80
F8
80
80
80
80
80
80
FF
ENDCHAR
STARTCHAR char105
ENCODING 203
SWIDTH 411 0
DWIDTH 8 0
BBX 8 17 0 0
BITMAP
24
00
00
FF
80
80
80
80
80
F8
80
80
80
80
80
80
FF
ENDCHAR
STARTCHAR char109
ENCODING 204
SWIDTH 154 0
DWIDTH 3 0
BBX 3 18 -1 0
BITMAP
80
40
20
00
20
20
20
20
20
20
20
20
20
20
20
20
20
20
ENDCHAR
STARTCHAR char109
ENCODING 205
SWIDTH 102 0
DWIDTH 2 0
BBX 3 18 1 0
BITMAP
20
40
80
00
80
80
80
80
80
80
80
80
80
80
80
80
80
80
ENDCHAR
STARTCHAR char109
ENCODING 206
SWIDTH 257 0
DWIDTH 5 0
BBX 5 18 0 0
BITMAP
20
50
88
00
20
20
20
20
20
20
20
20
20
20
20
20
20
20
ENDCHAR
STARTCHAR char109
ENCODING 207
SWIDTH 154 0
DWIDTH 3 0
BBX 3 17 0 0
BITMAP
A0
00
00
40
40
40
40
40
40
40
40
40
40
40
40
40
40
ENDCHAR
STARTCHAR char104
ENCODING 208
SWIDTH 514 0
DWIDTH 10 0
BBX 10 14 0 0
BITMAP
7C00
4300
4080
4080
4040
4040
F840
4040
4040
4040
4080
4080
4300
7C00
ENDCHAR
STARTCHAR char78
ENCODING 209
SWIDTH 462 0
DWIDTH 9 0
BBX 9 17 0 0
BITMAP
1900
2600
0000
8080
C080
A080
A080
9080
9080
8880
8880
8480
8480
8280
8280
8180
8080
ENDCHAR
STARTCHAR char79
ENCODING 210
SWIDTH 514 0
DWIDTH 10 0
BBX 10 18 0 0
BITMAP
1000
0800
0400
0000
1E00
2100
4080
8040
8040
8040
8040
8040
8040
8040
8040
4080
2100
1E00
ENDCHAR
STARTCHAR char79
ENCODING 211
SWIDTH 514 0
DWIDTH 10 0
BBX 10 18 0 0
BITMAP
0200
0400
0800
0000
1E00
2100
4080
8040
8040
8040
8040
8040
8040
8040
8040
4080
2100
1E00
ENDCHAR
STARTCHAR char79
ENCODING 212
SWIDTH 514 0
DWIDTH 10 0
BBX 10 18 0 0
BITMAP
0800
1400
2200
0000
1E00
2100
4080
8040
8040
8040
8040
8040
8040
8040
8040
4080
2100
1E00
ENDCHAR
STARTCHAR char79
ENCODING 213
SWIDTH 514 0
DWIDTH 10 0
BBX 10 17 0 0
BITMAP
1900
2600
0000
1E00
2100
4080
8040
8040
8040
8040
8040
8040
8040
8040
4080
2100
1E00
ENDCHAR
STARTCHAR char79
ENCODING 214
SWIDTH 514 0
DWIDTH 10 0
BBX 10 17 0 0
BITMAP
1200
0000
0000
1E00
2100
4080
8040
8040
8040
8040
8040
8040
8040
8040
4080
2100
1E00
ENDCHAR
STARTCHAR char79
ENCODING 216
SWIDTH 565 0
DWIDTH 11 0
BBX 12 16 -1 -1
BITMAP
0010
0F20
10C0
20C0
40A0
4120
4220
4220
4420
4820
4820
5020
2040
3080
4F00
8000
ENDCHAR
STARTCHAR char85
ENCODING 217
SWIDTH 462 0
DWIDTH 9 0
BBX 9 18 0 0
BITMAP
2000
1000
0800
0000
8080
8080
8080
8080
8080
8080
8080
8080
8080
8080
8080
8080
4100
3E00
ENDCHAR
STARTCHAR char85
ENCODING 218
SWIDTH 462 0
DWIDTH 9 0
BBX 9 18 0 0
BITMAP
0200
0400
0800
0000
8080
8080
8080
8080
8080
8080
8080
8080
8080
8080
8080
8080
4100
3E00
ENDCHAR
STARTCHAR char85
ENCODING 219
SWIDTH 462 0
DWIDTH 9 0
BBX 9 18 0 0
BITMAP
0800
1400
2200
0000
8080
8080
8080
8080
8080
8080
8080
8080
8080
8080
8080
8080
4100
3E00
ENDCHAR
STARTCHAR char85
ENCODING 220
SWIDTH 462 0
DWIDTH 9 0
BBX 9 17 0 0
BITMAP
2200
0000
0000
8080
8080
8080
8080
8080
8080
8080
8080
8080
8080
8080
8080
4100
3E00
ENDCHAR
STARTCHAR char89
ENCODING 221
SWIDTH 565 0
DWIDTH 11 0
BBX 11 18 0 0
BITMAP
0100
0200
0400
0000
8020
4040
2080
2080
1100
0A00
0A00
0400
0400
0400
0400
0400
0400
0400
ENDCHAR
STARTCHAR char80
ENCODING 222
SWIDTH 462 0
DWIDTH 9 0
BBX 9 14 0 0
BITMAP
8000
8000
8000
FE00
8100
8080
8080
8080
8100
FE00
8000
8000
8000
8000
ENDCHAR
STARTCHAR char223
ENCODING 223
SWIDTH 411 0
DWIDTH 8 0
BBX 8 14 0 0
BITMAP
38
44
42
82
82
84
98
84
82
81
81
C1
A2
9C
ENDCHAR
STARTCHAR char97
ENCODING 224
SWIDTH 360 0
DWIDTH 7 0
BBX 7 13 0 0
BITMAP
40
20
10
00
3A
46
82
82
82
82
82
46
3A
ENDCHAR
STARTCHAR char97
ENCODING 225
SWIDTH 360 0
DWIDTH 7 0
BBX 7 13 0 0
BITMAP
04
08
10
00
3A
46
82
82
82
82
82
46
3A
ENDCHAR
STARTCHAR char97
ENCODING 226
SWIDTH 360 0
DWIDTH 7 0
BBX 7 13 0 0
BITMAP
10
28
44
00
3A
46
82
82
82
82
82
46
3A
ENDCHAR
STARTCHAR char97
ENCODING 227
SWIDTH 360 0
DWIDTH 7 0
BBX 7 12 0 0
BITMAP
32
4C
00
3A
46
82
82
82
82
82
46
3A
ENDCHAR
STARTCHAR char97
ENCODING 228
SWIDTH 360 0
DWIDTH 7 0
BBX 7 12 0 0
BITMAP
24
00
00
3A
46
82
82
82
82
82
46
3A
ENDCHAR
STARTCHAR char97
ENCODING 229
SWIDTH 360 0
DWIDTH 7 0
BBX 7 13 0 0
BITMAP
18
24
18
00
3A
46
82
82
82
82
82
46
3A
ENDCHAR
STARTCHAR char97
ENCODING 230
SWIDTH 668 0
DWIDTH 13 0
BBX 13 9 0 0
BITMAP
7AE0
8710
0208
0208
7FF8
8200
8208
4510
38E0
ENDCHAR
STARTCHAR char99
ENCODING 231
SWIDTH 360 0
DWIDTH 7 0
BBX 7 12 0 -3
BITMAP
38
44
82
80
80
80
82
44
38
10
48
30
ENDCHAR
STARTCHAR char99
ENCODING 232
SWIDTH 360 0
DWIDTH 7 0
BBX 7 13 0 0
BITMAP
40
20
10
00
38
44
82
82
FE
80
82
44
38
ENDCHAR
STARTCHAR char99
ENCODING 233
SWIDTH 360 0
DWIDTH 7 0
BBX 7 13 0 0
BITMAP
04
08
10
00
38
44
82
82
FE
80
82
44
38
ENDCHAR
STARTCHAR char99
ENCODING 234
SWIDTH 360 0
DWIDTH 7 0
BBX 7 13 0 0
BITMAP
10
28
44
00
38
44
82
82
FE
80
82
44
38
ENDCHAR
STARTCHAR char99
ENCODING 235
SWIDTH 360 0
DWIDTH 7 0
BBX 7 12 0 0
BITMAP
48
00
00
38
44
82
82
FE
80
82
44
38
ENDCHAR
STARTCHAR char105
ENCODING 236
SWIDTH 154 0
DWIDTH 3 0
BBX 3 14 -1 0
BITMAP
80
40
20
00
00
20
20
20
20
20
20
20
20
20
ENDCHAR
STARTCHAR char105
ENCODING 237
SWIDTH 154 0
DWIDTH 3 0
BBX 3 14 1 0
BITMAP
20
40
80
00
00
80
80
80
80
80
80
80
80
80
ENDCHAR
STARTCHAR char105
ENCODING 238
SWIDTH 154 0
DWIDTH 3 0
BBX 5 14 0 0
BITMAP
20
50
88
00
00
20
20
20
20
20
20
20
20
20
ENDCHAR
STARTCHAR char105
ENCODING 239
SWIDTH 102 0
DWIDTH 2 0
BBX 3 12 0 0
BITMAP
A0
00
00
40
40
40
40
40
40
40
40
40
ENDCHAR
STARTCHAR char100
ENCODING 240
SWIDTH 411 0
DWIDTH 8 0
BBX 8 14 0 0
BITMAP
02
02
0F
02
02
32
4A
86
82
82
82
86
4A
32
ENDCHAR
STARTCHAR char104
ENCODING 241
SWIDTH 360 0
DWIDTH 7 0
BBX 7 13 0 0
BITMAP
64
98
00
00
B8
C4
82
82
82
82
82
82
82
ENDCHAR
STARTCHAR char111
ENCODING 242
SWIDTH 411 0
DWIDTH 8 0
BBX 8 13 0 0
BITMAP
40
20
10
00
3C
42
81
81
81
81
81
42
3C
ENDCHAR
STARTCHAR char111
ENCODING 243
SWIDTH 411 0
DWIDTH 8 0
BBX 8 13 0 0
BITMAP
02
04
08
00
3C
42
81
81
81
81
81
42
3C
ENDCHAR
STARTCHAR char111
ENCODING 244
SWIDTH 411 0
DWIDTH 8 0
BBX 8 13 0 0
BITMAP
10
28
44
00
3C
42
81
81
81
81
81
42
3C
ENDCHAR
STARTCHAR char111
ENCODING 245
SWIDTH 411 0
DWIDTH 8 0
BBX 8 13 0 0
BITMAP
32
4C
00
00
3C
42
81
81
81
81
81
42
3C
ENDCHAR
STARTCHAR char111
ENCODING 246
SWIDTH 411 0
DWIDTH 8 0
BBX 8 12 0 0
BITMAP
24
00
00
3C
42
81
81
81
81
81
42
3C
ENDCHAR
STARTCHAR char111
ENCODING 248
SWIDTH 462 0
DWIDTH 9 0
BBX 9 9 0 0
BITMAP
3C80
4300
8300
8500
8900
9100
A100
4200
BC00
ENDCHAR
STARTCHAR char117
ENCODING 249
SWIDTH 360 0
DWIDTH 7 0
BBX 7 13 0 0
BITMAP
40
20
10
00
82
82
82
82
82
82
82
46
3A
ENDCHAR
STARTCHAR char117
ENCODING 250
SWIDTH 360 0
DWIDTH 7 0
BBX 7 13 0 0
BITMAP
04
08
10
00
82
82
82
82
82
82
82
46
3A
ENDCHAR
STARTCHAR char117
ENCODING 251
SWIDTH 360 0
DWIDTH 7 0
BBX 7 13 0 0
BITMAP
10
28
44
00
82
82
82
82
82
82
82
46
3A
ENDCHAR
STARTCHAR char117
ENCODING 252
SWIDTH 360 0
DWIDTH 7 0
BBX 7 12 0 0
BITMAP
44
00
00
82
82
82
82
82
82
82
46
3A
ENDCHAR
STARTCHAR char121
ENCODING 253
SWIDTH 462 0
DWIDTH 9 0
BBX 9 17 0 -4
BITMAP
0200
0400
0800
0000
8080
8080
4100
4100
2200
2200
1400
1400
0800
0800
1000
9000
6000
ENDCHAR
STARTCHAR char112
ENCODING 254
SWIDTH 462 0
DWIDTH 9 0
BBX 7 16 0 -4
BITMAP
80
80
80
98
A4
C2
82
82
82
C2
A4
98
80
80
80
80
ENDCHAR
STARTCHAR char121
ENCODING 255
SWIDTH 462 0
DWIDTH 9 0
BBX 9 16 0 -4
BITMAP
2200
0000
0000
8080
8080
4100
4100
2200
2200
1400
1400
0800
0800
1000
9000
6000
ENDCHAR
STARTCHAR char101
ENCODING 258
SWIDTH 514 0
DWIDTH 10 0
BBX 9 18 0 0
BITMAP
4100
2200
1C00
0000
0800
0800
1400
1400
1400
2200
2200
2200
7F00
4100
4100
8080
8080
8080
ENDCHAR
STARTCHAR char97
ENCODING 259
SWIDTH 360 0
DWIDTH 7 0
BBX 7 13 0 0
BITMAP
82
44
38
00
3A
46
82
82
82
82
82
46
3A
ENDCHAR
STARTCHAR char101
ENCODING 260
SWIDTH 462 0
DWIDTH 9 0
BBX 9 18 0 -4
BITMAP
0800
0800
1400
1400
1400
2200
2200
2200
7F00
4100
4100
8080
8080
8180
0200
0200
0200
0180
ENDCHAR
STARTCHAR char97
ENCODING 261
SWIDTH 360 0
DWIDTH 7 0
BBX 7 13 0 -4
BITMAP
3A
46
82
82
82
82
82
46
3A
10
10
10
0C
ENDCHAR
STARTCHAR char103
ENCODING 262
SWIDTH 462 0
DWIDTH 9 0
BBX 9 18 0 0
BITMAP
0200
0400
0800
0000
1E00
2100
4080
8000
8000
8000
8000
8000
8000
8000
8000
4080
2100
1E00
ENDCHAR
STARTCHAR char99
ENCODING 263
SWIDTH 360 0
DWIDTH 7 0
BBX 7 13 0 0
BITMAP
04
08
10
00
38
44
82
80
80
80
82
44
38
ENDCHAR
STARTCHAR char103
ENCODING 264
SWIDTH 462 0
DWIDTH 9 0
BBX 9 18 0 0
BITMAP
0800
1400
2200
0000
1E00
2100
4080
8000
8000
8000
8000
8000
8000
8000
8000
4080
2100
1E00
ENDCHAR
STARTCHAR char99
ENCODING 265
SWIDTH 360 0
DWIDTH 7 0
BBX 7 13 0 0
BITMAP
10
28
44
00
38
44
82
80
80
80
82
44
38
ENDCHAR
STARTCHAR char103
ENCODING 266
SWIDTH 462 0
DWIDTH 9 0
BBX 9 17 0 0
BITMAP
0800
0000
0000
1E00
2100
4080
8000
8000
8000
8000
8000
8000
8000
8000
4080
2100
1E00
ENDCHAR
STARTCHAR char99
ENCODING 267
SWIDTH 360 0
DWIDTH 7 0
BBX 7 12 0 0
BITMAP
10
00
00
38
44
82
80
80
80
82
44
38
ENDCHAR
STARTCHAR char103
ENCODING 268
SWIDTH 462 0
DWIDTH 9 0
BBX 9 18 0 0
BITMAP
2200
1400
0800
0000
1E00
2100
4080
8000
8000
8000
8000
8000
8000
8000
8000
4080
2100
1E00
ENDCHAR
STARTCHAR char99
ENCODING 269
SWIDTH 360 0
DWIDTH 7 0
BBX 7 13 0 0
BITMAP
44
28
10
00
38
44
82
80
80
80
82
44
38
ENDCHAR
STARTCHAR char104
ENCODING 270
SWIDTH 462 0
DWIDTH 9 0
BBX 9 18 0 0
BITMAP
4400
2800
1000
0000
F800
8600
8100
8100
8080
8080
8080
8080
8080
8080
8100
8100
8600
F800
ENDCHAR
STARTCHAR char100
ENCODING 271
SWIDTH 360 0
DWIDTH 7 0
BBX 7 17 0 0
BITMAP
44
28
10
02
02
02
02
02
32
4A
86
82
82
82
86
4A
32
ENDCHAR
STARTCHAR char104
ENCODING 272
SWIDTH 514 0
DWIDTH 10 0
BBX 10 14 0 0
BITMAP
7C00
4300
4080
4080
4040
4040
F840
4040
4040
4040
4080
4080
4300
7C00
ENDCHAR
STARTCHAR char100
ENCODING 273
SWIDTH 411 0
DWIDTH 8 0
BBX 8 14 0 0
BITMAP
02
02
0F
02
02
32
4A
86
82
82
82
86
4A
32
ENDCHAR
STARTCHAR char105
ENCODING 280
SWIDTH 411 0
DWIDTH 8 0
BBX 8 18 0 -4
BITMAP
FF
80
80
80
80
80
F8
80
80
80
80
80
80
FF
10
10
10
0C
ENDCHAR
STARTCHAR char99
ENCODING 281
SWIDTH 360 0
DWIDTH 7 0
BBX 7 12 0 -3
BITMAP
38
44
82
82
FE
80
82
44
38
10
10
0C
ENDCHAR
STARTCHAR char105
ENCODING 282
SWIDTH 411 0
DWIDTH 8 0
BBX 8 18 0 0
BITMAP
44
28
10
00
FF
80
80
80
80
80
F8
80
80
80
80
80
80
FF
ENDCHAR
STARTCHAR char99
ENCODING 283
SWIDTH 360 0
DWIDTH 7 0
BBX 7 13 0 0
BITMAP
44
28
10
00
38
44
82
82
FE
80
82
44
38
ENDCHAR
STARTCHAR char103
ENCODING 284
SWIDTH 462 0
DWIDTH 9 0
BBX 9 18 0 0
BITMAP
0800
1400
2200
0000
1E00
2100
4080
8000
8000
8000
8000
8780
8080
8080
8080
4080
2100
1E00
ENDCHAR
STARTCHAR char111
ENCODING 285
SWIDTH 360 0
DWIDTH 7 0
BBX 7 17 0 -4
BITMAP
10
28
44
00
3A
46
82
82
82
82
82
46
3A
02
02
44
38
ENDCHAR
STARTCHAR char103
ENCODING 286
SWIDTH 462 0
DWIDTH 9 0
BBX 9 18 0 0
BITMAP
4100
2200
1C00
0000
1E00
2100
4080
8000
8000
8000
8000
8780
8080
8080
8080
4080
2100
1E00
ENDCHAR
STARTCHAR char111
ENCODING 287
SWIDTH 360 0
DWIDTH 7 0
BBX 7 17 0 -4
BITMAP
82
44
38
00
3A
46
82
82
82
82
82
46
3A
02
02
44
38
ENDCHAR
STARTCHAR char103
ENCODING 288
SWIDTH 462 0
DWIDTH 9 0
BBX 9 17 0 0
BITMAP
0800
0000
0000
1E00
2100
4080
8000
8000
8000
8000
8780
8080
8080
8080
4080
2100
1E00
ENDCHAR
STARTCHAR char111
ENCODING 289
SWIDTH 360 0
DWIDTH 7 0
BBX 7 16 0 -4
BITMAP
10
00
00
3A
46
82
82
82
82
82
46
3A
02
02
44
38
ENDCHAR
STARTCHAR char108
ENCODING 292
SWIDTH 462 0
DWIDTH 9 0
BBX 9 18 0 0
BITMAP
0800
1400
2200
0000
8080
8080
8080
8080
8080
8080
FF80
8080
8080
8080
8080
8080
8080
8080
ENDCHAR
STARTCHAR char104
ENCODING 293
SWIDTH 360 0
DWIDTH 7 0
BBX 7 18 0 0
BITMAP
10
28
44
00
80
80
80
80
80
B8
C4
82
82
82
82
82
82
82
ENDCHAR
STARTCHAR char108
ENCODING 294
SWIDTH 462 0
DWIDTH 9 0
BBX 9 14 0 0
BITMAP
8080
8080
FF80
8080
8080
8080
FF80
8080
8080
8080
8080
8080
8080
8080
ENDCHAR
STARTCHAR char104
ENCODING 295
SWIDTH 360 0
DWIDTH 7 0
BBX 7 14 0 0
BITMAP
80
80
FC
80
80
B8
C4
82
82
82
82
82
82
82
ENDCHAR
STARTCHAR char109
ENCODING 304
SWIDTH 154 0
DWIDTH 3 0
BBX 1 17 1 0
BITMAP
80
00
00
80
80
80
80
80
80
80
80
80
80
80
80
80
80
ENDCHAR
STARTCHAR char105
ENCODING 305
SWIDTH 154 0
DWIDTH 3 0
BBX 1 9 1 0
BITMAP
80
80
80
80
80
80
80
80
80
ENDCHAR
STARTCHAR char74
ENCODING 308
SWIDTH 360 0
DWIDTH 7 0
BBX 7 18 0 0
BITMAP
08
14
22
00
04
04
04
04
04
04
04
04
04
04
84
84
48
30
ENDCHAR
STARTCHAR char106
ENCODING 309
SWIDTH 308 0
DWIDTH 6 0
BBX 6 17 0 -4
BITMAP
10
28
44
00
08
08
08
08
08
08
08
08
08
08
08
90
60
ENDCHAR
STARTCHAR char76
ENCODING 313
SWIDTH 411 0
DWIDTH 8 0
BBX 8 18 0 0
BITMAP
20
40
80
00
80
80
80
80
80
80
80
80
80
80
80
80
80
FF
ENDCHAR
STARTCHAR char108
ENCODING 314
SWIDTH 205 0
DWIDTH 4 0
BBX 3 18 1 0
BITMAP
20
40
80
00
80
80
80
80
80
80
80
80
80
80
80
80
80
80
ENDCHAR
STARTCHAR char76
ENCODING 317
SWIDTH 411 0
DWIDTH 8 0
BBX 8 14 0 0
BITMAP
88
88
88
88
90
80
80
80
80
80
80
80
80
FF
ENDCHAR
STARTCHAR char108
ENCODING 318
SWIDTH 308 0
DWIDTH 6 0
BBX 5 14 1 0
BITMAP
88
88
88
88
90
80
80
80
80
80
80
80
80
80
ENDCHAR
STARTCHAR char76
ENCODING 321
SWIDTH 462 0
DWIDTH 9 0
BBX 9 14 0 0
BITMAP
4000
4000
4000
4800
5000
6000
4000
C000
4000
4000
4000
4000
4000
7F80
ENDCHAR
STARTCHAR char108
ENCODING 322
SWIDTH 205 0
DWIDTH 4 0
BBX 4 14 0 0
BITMAP
40
40
40
40
50
60
40
C0
40
40
40
40
40
40
ENDCHAR
STARTCHAR char78
ENCODING 323
SWIDTH 462 0
DWIDTH 9 0
BBX 9 18 0 0
BITMAP
0200
0400
0800
0000
8080
C080
A080
A080
9080
9080
8880
8880
8480
8480
8280
8280
8180
8080
ENDCHAR
STARTCHAR char104
ENCODING 324
SWIDTH 360 0
DWIDTH 7 0
BBX 7 13 0 0
BITMAP
08
10
20
00
B8
C4
82
82
82
82
82
82
82
ENDCHAR
STARTCHAR char78
ENCODING 327
SWIDTH 462 0
DWIDTH 9 0
BBX 9 18 0 0
BITMAP
2200
1400
0800
0000
8080
C080
A080
A080
9080
9080
8880
8880
8480
8480
8280
8280
8180
8080
ENDCHAR
STARTCHAR char104
ENCODING 328
SWIDTH 360 0
DWIDTH 7 0
BBX 7 13 0 0
BITMAP
44
28
10
00
B8
C4
82
82
82
82
82
82
82
ENDCHAR
STARTCHAR char79
ENCODING 336
SWIDTH 514 0
DWIDTH 10 0
BBX 10 18 0 0
BITMAP
0840
1080
2100
0000
1E00
2100
4080
8040
8040
8040
8040
8040
8040
8040
8040
4080
2100
1E00
ENDCHAR
STARTCHAR char111
ENCODING 337
SWIDTH 411 0
DWIDTH 8 0
BBX 8 13 0 0
BITMAP
09
12
24
00
3C
42
81
81
81
81
81
42
3C
ENDCHAR
STARTCHAR char80
ENCODING 340
SWIDTH 514 0
DWIDTH 10 0
BBX 10 18 0 0
BITMAP
0400
0800
1000
0000
FE00
8100
8080
8080
8080
8100
FE00
9000
8800
8400
8200
8100
8080
8040
ENDCHAR
STARTCHAR char114
ENCODING 341
SWIDTH 257 0
DWIDTH 5 0
BBX 5 13 0 0
BITMAP
08
10
20
00
98
A0
C0
80
80
80
80
80
80
ENDCHAR
STARTCHAR char80
ENCODING 344
SWIDTH 514 0
DWIDTH 10 0
BBX 10 18 0 0
BITMAP
4400
2800
1000
0000
FE00
8100
8080
8080
8080
8100
FE00
9000
8800
8400
8200
8100
8080
8040
ENDCHAR
STARTCHAR char114
ENCODING 345
SWIDTH 257 0
DWIDTH 5 0
BBX 5 13 0 0
BITMAP
88
50
20
00
98
A0
C0
80
80
80
80
80
80
ENDCHAR
STARTCHAR char83
ENCODING 346
SWIDTH 462 0
DWIDTH 9 0
BBX 9 18 0 0
BITMAP
0200
0400
0800
0000
3E00
4100
8080
8000
8000
4000
3800
0600
0100
0080
0080
8080
4100
3E00
ENDCHAR
STARTCHAR char115
ENCODING 347
SWIDTH 308 0
DWIDTH 6 0
BBX 6 13 0 0
BITMAP
08
10
20
00
78
84
80
40
30
08
04
84
78
ENDCHAR
STARTCHAR char83
ENCODING 348
SWIDTH 462 0
DWIDTH 9 0
BBX 9 18 0 0
BITMAP
0800
1400
2200
0000
3E00
4100
8080
8000
8000
4000
3800
0600
0100
0080
0080
8080
4100
3E00
ENDCHAR
STARTCHAR char115
ENCODING 349
SWIDTH 308 0
DWIDTH 6 0
BBX 6 13 0 0
BITMAP
20
50
88
00
78
84
80
40
30
08
04
84
78
ENDCHAR
STARTCHAR char83
ENCODING 350
SWIDTH 462 0
DWIDTH 9 0
BBX 9 18 0 -4
BITMAP
3E00
4100
8080
8000
8000
4000
3800
0600
0100
0080
0080
8080
4100
3E00
0800
0400
2200
1C00
ENDCHAR
STARTCHAR char115
ENCODING 351
SWIDTH 308 0
DWIDTH 6 0
BBX 6 12 0 -3
BITMAP
78
84
80
40
30
08
04
84
78
10
48
30
ENDCHAR
STARTCHAR char83
ENCODING 352
SWIDTH 462 0
DWIDTH 9 0
BBX 9 18 0 0
BITMAP
2200
1400
0800
0000
3E00
4100
8080
8000
8000
4000
3800
0600
0100
0080
0080
8080
4100
3E00
ENDCHAR
STARTCHAR char115
ENCODING 353
SWIDTH 308 0
DWIDTH 6 0
BBX 6 13 0 0
BITMAP
88
50
20
00
78
84
80
40
30
08
04
84
78
ENDCHAR
STARTCHAR char84
ENCODING 354
SWIDTH 462 0
DWIDTH 9 0
BBX 9 18 0 -4
BITMAP
FF80
0800
0800
0800
0800
0800
0800
0800
0800
0800
0800
0800
0800
0800
0800
0400
2200
1C00
ENDCHAR
STARTCHAR char116
ENCODING 355
SWIDTH 308 0
DWIDTH 6 0
BBX 6 17 0 -3
BITMAP
20
20
20
20
20
F8
20
20
20
20
20
20
20
1C
10
48
30
ENDCHAR
STARTCHAR char84
ENCODING 356
SWIDTH 462 0
DWIDTH 9 0
BBX 9 18 0 0
BITMAP
2200
1400
0800
0000
FF80
0800
0800
0800
0800
0800
0800
0800
0800
0800
0800
0800
0800
0800
ENDCHAR
STARTCHAR char116
ENCODING 357
SWIDTH 308 0
DWIDTH 6 0
BBX 6 18 0 0
BITMAP
88
50
20
00
20
20
20
20
20
F8
20
20
20
20
20
20
20
1C
ENDCHAR
STARTCHAR char85
ENCODING 364
SWIDTH 462 0
DWIDTH 9 0
BBX 9 18 0 0
BITMAP
4100
2200
1C00
0000
8080
8080
8080
8080
8080
8080
8080
8080
8080
8080
8080
8080
4100
3E00
ENDCHAR
STARTCHAR char117
ENCODING 365
SWIDTH 360 0
DWIDTH 7 0
BBX 7 13 0 0
BITMAP
82
44
38
00
82
82
82
82
82
82
82
46
3A
ENDCHAR
STARTCHAR char85
ENCODING 366
SWIDTH 462 0
DWIDTH 9 0
BBX 9 18 0 0
BITMAP
1800
2400
1800
0000
8080
8080
8080
8080
8080
8080
8080
8080
8080
8080
8080
8080
4100
3E00
ENDCHAR
STARTCHAR char117
ENCODING 367
SWIDTH 360 0
DWIDTH 7 0
BBX 7 13 0 0
BITMAP
30
48
30
00
82
82
82
82
82
82
82
46
3A
ENDCHAR
STARTCHAR char85
ENCODING 368
SWIDTH 462 0
DWIDTH 9 0
BBX 9 18 0 0
BITMAP
1080
2100
4200
0000
8080
8080
8080
8080
8080
8080
8080
8080
8080
8080
8080
8080
4100
3E00
ENDCHAR
STARTCHAR char117
ENCODING 369
SWIDTH 360 0
DWIDTH 7 0
BBX 7 13 0 0
BITMAP
12
24
48
00
82
82
82
82
82
82
82
46
3A
ENDCHAR
STARTCHAR char90
ENCODING 377
SWIDTH 514 0
DWIDTH 10 0
BBX 10 18 0 0
BITMAP
0200
0400
0800
0000
FFC0
0040
0080
0100
0200
0200
0400
0800
1000
1000
2000
4000
8000
FFC0
ENDCHAR
STARTCHAR char122
ENCODING 378
SWIDTH 411 0
DWIDTH 8 0
BBX 8 13 0 0
BITMAP
04
08
10
00
FF
01
02
04
08
10
20
40
FF
ENDCHAR
STARTCHAR char90
ENCODING 379
SWIDTH 514 0
DWIDTH 10 0
BBX 10 16 0 0
BITMAP
0800
0000
FFC0
0040
0080
0100
0200
0200
0400
0800
1000
1000
2000
4000
8000
FFC0
ENDCHAR
STARTCHAR char122
ENCODING 380
SWIDTH 411 0
DWIDTH 8 0
BBX 8 11 0 0
BITMAP
10
00
FF
01
02
04
08
10
20
40
FF
ENDCHAR
STARTCHAR char90
ENCODING 381
SWIDTH 514 0
DWIDTH 10 0
BBX 10 18 0 0
BITMAP
1100
0A00
0400
0000
FFC0
0040
0080
0100
0200
0200
0400
0800
1000
1000
2000
4000
8000
FFC0
ENDCHAR
STARTCHAR char122
ENCODING 382
SWIDTH 411 0
DWIDTH 8 0
BBX 8 13 0 0
BITMAP
22
14
08
00
FF
01
02
04
08
10
20
40
FF
ENDCHAR
ENDFONT
