STARTFONT 2.1
FONT -dislin-simplex-medium-r-normal--11-80-100-100-p-70-iso8859-1
SIZE 8 100 100
FONTBOUNDINGBOX 10 15 -1 -3
STARTPROPERTIES 9
POINT_SIZE 8
PIXEL_SIZE 11
RESOLUTION_X 100
RESOLUTION_Y 100
FONT_ASCENT 11
FONT_DESCENT 3
AVERAGE_WIDTH 70
SPACING "P"
_XMBDFED_INFO "Edited with xmbdfed 4.5."
ENDPROPERTIES
CHARS 235
STARTCHAR char32
ENCODING 32
SWIDTH 360 0
DWIDTH 4 0
BBX 0 0 0 0
BITMAP
ENDCHAR
STARTCHAR char33
ENCODING 33
SWIDTH 90 0
DWIDTH 1 0
BBX 1 8 0 0
BITMAP
80
80
80
80
80
00
00
80
ENDCHAR
STARTCHAR char34
ENCODING 34
SWIDTH 360 0
DWIDTH 4 0
BBX 4 3 0 5
BITMAP
90
90
90
ENDCHAR
STARTCHAR char35
ENCODING 35
SWIDTH 720 0
DWIDTH 8 0
BBX 7 6 0 2
BITMAP
24
7E
24
48
FC
48
ENDCHAR
STARTCHAR char83
ENCODING 36
SWIDTH 540 0
DWIDTH 6 0
BBX 6 12 0 -2
BITMAP
28
28
78
AC
A8
68
38
2C
AC
78
28
28
ENDCHAR
STARTCHAR char37
ENCODING 37
SWIDTH 720 0
DWIDTH 8 0
BBX 8 8 0 0
BITMAP
67
9A
64
08
10
26
49
86
ENDCHAR
STARTCHAR char38
ENCODING 38
SWIDTH 810 0
DWIDTH 9 0
BBX 9 9 0 0
BITMAP
1800
2400
2400
1800
1880
6500
8200
8500
7880
ENDCHAR
STARTCHAR char39
ENCODING 39
SWIDTH 180 0
DWIDTH 2 0
BBX 1 3 0 5
BITMAP
80
80
80
ENDCHAR
STARTCHAR char40
ENCODING 40
SWIDTH 270 0
DWIDTH 3 0
BBX 3 12 0 -2
BITMAP
20
20
40
40
80
80
80
80
40
40
20
20
ENDCHAR
STARTCHAR char41
ENCODING 41
SWIDTH 360 0
DWIDTH 4 0
BBX 3 12 0 -2
BITMAP
80
80
40
40
20
20
20
20
40
40
80
80
ENDCHAR
STARTCHAR char42
ENCODING 42
SWIDTH 540 0
DWIDTH 6 0
BBX 5 5 0 2
BITMAP
20
A8
70
A8
20
ENDCHAR
STARTCHAR char43
ENCODING 43
SWIDTH 540 0
DWIDTH 6 0
BBX 5 5 0 2
BITMAP
20
20
F8
20
20
ENDCHAR
STARTCHAR char44
ENCODING 44
SWIDTH 180 0
DWIDTH 2 0
BBX 2 4 0 -3
BITMAP
40
40
40
80
ENDCHAR
STARTCHAR char45
ENCODING 45
SWIDTH 540 0
DWIDTH 6 0
BBX 6 1 0 3
BITMAP
FC
ENDCHAR
STARTCHAR char46
ENCODING 46
SWIDTH 90 0
DWIDTH 1 0
BBX 1 1 0 0
BITMAP
80
ENDCHAR
STARTCHAR char47
ENCODING 47
SWIDTH 540 0
DWIDTH 6 0
BBX 5 10 0 -1
BITMAP
08
08
10
10
20
20
40
40
80
80
ENDCHAR
STARTCHAR char48
ENCODING 48
SWIDTH 450 0
DWIDTH 5 0
BBX 5 8 0 0
BITMAP
70
88
88
88
88
88
88
70
ENDCHAR
STARTCHAR char49
ENCODING 49
SWIDTH 270 0
DWIDTH 3 0
BBX 3 8 0 0
BITMAP
20
E0
20
20
20
20
20
20
ENDCHAR
STARTCHAR char50
ENCODING 50
SWIDTH 450 0
DWIDTH 5 0
BBX 5 8 0 0
BITMAP
70
88
08
08
10
20
40
F8
ENDCHAR
STARTCHAR char51
ENCODING 51
SWIDTH 450 0
DWIDTH 5 0
BBX 5 8 0 0
BITMAP
78
10
20
70
08
08
88
70
ENDCHAR
STARTCHAR char52
ENCODING 52
SWIDTH 540 0
DWIDTH 6 0
BBX 6 8 0 0
BITMAP
08
18
28
48
88
FC
08
08
ENDCHAR
STARTCHAR char53
ENCODING 53
SWIDTH 450 0
DWIDTH 5 0
BBX 5 8 0 0
BITMAP
F8
80
80
F0
08
08
88
70
ENDCHAR
STARTCHAR char54
ENCODING 54
SWIDTH 450 0
DWIDTH 5 0
BBX 5 8 0 0
BITMAP
38
40
80
B0
C8
88
88
70
ENDCHAR
STARTCHAR char55
ENCODING 55
SWIDTH 540 0
DWIDTH 6 0
BBX 6 8 0 0
BITMAP
FC
08
08
10
10
20
20
40
ENDCHAR
STARTCHAR char56
ENCODING 56
SWIDTH 450 0
DWIDTH 5 0
BBX 5 8 0 0
BITMAP
70
88
88
70
88
88
88
70
ENDCHAR
STARTCHAR char57
ENCODING 57
SWIDTH 450 0
DWIDTH 5 0
BBX 5 8 0 0
BITMAP
70
88
88
98
68
08
10
E0
ENDCHAR
STARTCHAR char58
ENCODING 58
SWIDTH 270 0
DWIDTH 3 0
BBX 1 4 1 2
BITMAP
80
00
00
80
ENDCHAR
STARTCHAR char59
ENCODING 59
SWIDTH 180 0
DWIDTH 2 0
BBX 2 6 0 -2
BITMAP
40
00
00
40
40
80
ENDCHAR
STARTCHAR char60
ENCODING 60
SWIDTH 540 0
DWIDTH 6 0
BBX 6 5 0 1
BITMAP
0C
30
C0
30
0C
ENDCHAR
STARTCHAR char61
ENCODING 61
SWIDTH 540 0
DWIDTH 6 0
BBX 6 4 0 2
BITMAP
FC
00
00
FC
ENDCHAR
STARTCHAR char62
ENCODING 62
SWIDTH 720 0
DWIDTH 8 0
BBX 6 5 0 1
BITMAP
C0
30
0C
30
C0
ENDCHAR
STARTCHAR char63
ENCODING 63
SWIDTH 450 0
DWIDTH 5 0
BBX 5 8 0 0
BITMAP
70
88
08
10
20
20
00
20
ENDCHAR
STARTCHAR char64
ENCODING 64
SWIDTH 720 0
DWIDTH 8 0
BBX 8 9 0 0
BITMAP
3C
42
9D
A5
A5
A7
98
41
3E
ENDCHAR
STARTCHAR char101
ENCODING 65
SWIDTH 630 0
DWIDTH 7 0
BBX 7 8 0 0
BITMAP
10
10
28
28
44
7C
82
82
ENDCHAR
STARTCHAR char102
ENCODING 66
SWIDTH 540 0
DWIDTH 6 0
BBX 6 8 0 0
BITMAP
F8
84
84
F8
84
84
84
F8
ENDCHAR
STARTCHAR char103
ENCODING 67
SWIDTH 540 0
DWIDTH 6 0
BBX 6 8 0 0
BITMAP
38
44
80
80
80
80
44
38
ENDCHAR
STARTCHAR char104
ENCODING 68
SWIDTH 540 0
DWIDTH 6 0
BBX 6 8 0 0
BITMAP
F0
88
84
84
84
84
88
F0
ENDCHAR
STARTCHAR char105
ENCODING 69
SWIDTH 450 0
DWIDTH 5 0
BBX 5 8 0 0
BITMAP
F8
80
80
F0
80
80
80
F8
ENDCHAR
STARTCHAR char106
ENCODING 70
SWIDTH 450 0
DWIDTH 5 0
BBX 5 8 0 0
BITMAP
F8
80
80
F0
80
80
80
80
ENDCHAR
STARTCHAR char103
ENCODING 71
SWIDTH 540 0
DWIDTH 6 0
BBX 6 8 0 0
BITMAP
38
44
80
80
9C
84
44
38
ENDCHAR
STARTCHAR char108
ENCODING 72
SWIDTH 540 0
DWIDTH 6 0
BBX 6 8 0 0
BITMAP
84
84
84
FC
84
84
84
84
ENDCHAR
STARTCHAR char109
ENCODING 73
SWIDTH 270 0
DWIDTH 3 0
BBX 1 8 1 0
BITMAP
80
80
80
80
80
80
80
80
ENDCHAR
STARTCHAR char74
ENCODING 74
SWIDTH 360 0
DWIDTH 4 0
BBX 4 8 0 0
BITMAP
10
10
10
10
10
10
90
60
ENDCHAR
STARTCHAR char75
ENCODING 75
SWIDTH 540 0
DWIDTH 6 0
BBX 6 8 0 0
BITMAP
84
88
90
A0
E0
90
88
84
ENDCHAR
STARTCHAR char76
ENCODING 76
SWIDTH 450 0
DWIDTH 5 0
BBX 5 8 0 0
BITMAP
80
80
80
80
80
80
80
F8
ENDCHAR
STARTCHAR char113
ENCODING 77
SWIDTH 630 0
DWIDTH 7 0
BBX 7 8 0 0
BITMAP
C6
C6
AA
AA
AA
92
92
92
ENDCHAR
STARTCHAR char78
ENCODING 78
SWIDTH 540 0
DWIDTH 6 0
BBX 6 8 0 0
BITMAP
84
C4
A4
A4
94
94
8C
84
ENDCHAR
STARTCHAR char79
ENCODING 79
SWIDTH 630 0
DWIDTH 7 0
BBX 7 8 0 0
BITMAP
38
44
82
82
82
82
44
38
ENDCHAR
STARTCHAR char80
ENCODING 80
SWIDTH 540 0
DWIDTH 6 0
BBX 6 8 0 0
BITMAP
F8
84
84
F8
80
80
80
80
ENDCHAR
STARTCHAR char79
ENCODING 81
SWIDTH 630 0
DWIDTH 7 0
BBX 7 8 0 0
BITMAP
38
44
82
82
82
8A
44
3A
ENDCHAR
STARTCHAR char80
ENCODING 82
SWIDTH 540 0
DWIDTH 6 0
BBX 6 8 0 0
BITMAP
F8
84
84
F8
A0
90
88
84
ENDCHAR
STARTCHAR char83
ENCODING 83
SWIDTH 450 0
DWIDTH 5 0
BBX 5 8 0 0
BITMAP
70
88
80
60
10
08
88
70
ENDCHAR
STARTCHAR char84
ENCODING 84
SWIDTH 540 0
DWIDTH 6 0
BBX 5 8 0 0
BITMAP
F8
20
20
20
20
20
20
20
ENDCHAR
STARTCHAR char85
ENCODING 85
SWIDTH 540 0
DWIDTH 6 0
BBX 6 8 0 0
BITMAP
84
84
84
84
84
84
84
78
ENDCHAR
STARTCHAR char86
ENCODING 86
SWIDTH 630 0
DWIDTH 7 0
BBX 7 8 0 0
BITMAP
82
82
44
44
28
28
10
10
ENDCHAR
STARTCHAR char86
ENCODING 87
SWIDTH 810 0
DWIDTH 9 0
BBX 9 8 0 0
BITMAP
8880
8880
8880
5500
5500
5500
2200
2200
ENDCHAR
STARTCHAR char88
ENCODING 88
SWIDTH 720 0
DWIDTH 8 0
BBX 7 8 0 0
BITMAP
82
44
28
10
10
28
44
82
ENDCHAR
STARTCHAR char89
ENCODING 89
SWIDTH 540 0
DWIDTH 6 0
BBX 5 8 0 0
BITMAP
88
88
50
50
20
20
20
20
ENDCHAR
STARTCHAR char90
ENCODING 90
SWIDTH 540 0
DWIDTH 6 0
BBX 6 8 0 0
BITMAP
FC
04
08
10
20
40
80
FC
ENDCHAR
STARTCHAR char91
ENCODING 91
SWIDTH 270 0
DWIDTH 3 0
BBX 3 12 0 -2
BITMAP
E0
80
80
80
80
80
80
80
80
80
80
E0
ENDCHAR
STARTCHAR char92
ENCODING 92
SWIDTH 540 0
DWIDTH 6 0
BBX 6 12 0 -2
BITMAP
80
80
40
40
20
20
10
10
08
08
04
04
ENDCHAR
STARTCHAR char93
ENCODING 93
SWIDTH 360 0
DWIDTH 4 0
BBX 3 12 0 -2
BITMAP
E0
20
20
20
20
20
20
20
20
20
20
E0
ENDCHAR
STARTCHAR char94
ENCODING 94
SWIDTH 540 0
DWIDTH 6 0
BBX 5 3 0 5
BITMAP
20
50
88
ENDCHAR
STARTCHAR char95
ENCODING 95
SWIDTH 630 0
DWIDTH 7 0
BBX 7 1 0 -2
BITMAP
FE
ENDCHAR
STARTCHAR char96
ENCODING 96
SWIDTH 270 0
DWIDTH 3 0
BBX 3 3 0 5
BITMAP
80
40
20
ENDCHAR
STARTCHAR char97
ENCODING 97
SWIDTH 450 0
DWIDTH 5 0
BBX 5 6 0 0
BITMAP
68
98
88
88
98
68
ENDCHAR
STARTCHAR char98
ENCODING 98
SWIDTH 450 0
DWIDTH 5 0
BBX 5 8 0 0
BITMAP
80
80
B0
C8
88
88
C8
B0
ENDCHAR
STARTCHAR char99
ENCODING 99
SWIDTH 450 0
DWIDTH 5 0
BBX 5 6 0 0
BITMAP
70
88
80
80
88
70
ENDCHAR
STARTCHAR char100
ENCODING 100
SWIDTH 450 0
DWIDTH 5 0
BBX 5 8 0 0
BITMAP
08
08
68
98
88
88
98
68
ENDCHAR
STARTCHAR char99
ENCODING 101
SWIDTH 450 0
DWIDTH 5 0
BBX 5 6 0 0
BITMAP
70
88
F8
80
88
70
ENDCHAR
STARTCHAR char102
ENCODING 102
SWIDTH 360 0
DWIDTH 4 0
BBX 4 8 0 0
BITMAP
30
40
E0
40
40
40
40
40
ENDCHAR
STARTCHAR char111
ENCODING 103
SWIDTH 450 0
DWIDTH 5 0
BBX 5 9 0 -3
BITMAP
68
98
88
88
98
68
08
08
70
ENDCHAR
STARTCHAR char104
ENCODING 104
SWIDTH 450 0
DWIDTH 5 0
BBX 5 8 0 0
BITMAP
80
80
B0
C8
88
88
88
88
ENDCHAR
STARTCHAR char105
ENCODING 105
SWIDTH 270 0
DWIDTH 3 0
BBX 1 8 1 0
BITMAP
80
00
80
80
80
80
80
80
ENDCHAR
STARTCHAR char106
ENCODING 106
SWIDTH 360 0
DWIDTH 4 0
BBX 4 11 0 -3
BITMAP
10
00
10
10
10
10
10
10
10
90
60
ENDCHAR
STARTCHAR char107
ENCODING 107
SWIDTH 450 0
DWIDTH 5 0
BBX 5 8 0 0
BITMAP
80
80
88
90
A0
E0
90
88
ENDCHAR
STARTCHAR char108
ENCODING 108
SWIDTH 270 0
DWIDTH 3 0
BBX 1 8 1 0
BITMAP
80
80
80
80
80
80
80
80
ENDCHAR
STARTCHAR char104
ENCODING 109
SWIDTH 810 0
DWIDTH 9 0
BBX 9 6 0 0
BITMAP
B300
CC80
8880
8880
8880
8880
ENDCHAR
STARTCHAR char104
ENCODING 110
SWIDTH 450 0
DWIDTH 5 0
BBX 5 6 0 0
BITMAP
B0
C8
88
88
88
88
ENDCHAR
STARTCHAR char111
ENCODING 111
SWIDTH 450 0
DWIDTH 5 0
BBX 5 6 0 0
BITMAP
70
88
88
88
88
70
ENDCHAR
STARTCHAR char112
ENCODING 112
SWIDTH 450 0
DWIDTH 5 0
BBX 5 9 0 -3
BITMAP
B0
C8
88
88
C8
B0
80
80
80
ENDCHAR
STARTCHAR char113
ENCODING 113
SWIDTH 450 0
DWIDTH 5 0
BBX 5 9 0 -3
BITMAP
68
98
88
88
98
68
08
08
08
ENDCHAR
STARTCHAR char114
ENCODING 114
SWIDTH 360 0
DWIDTH 4 0
BBX 4 6 0 0
BITMAP
B0
C0
80
80
80
80
ENDCHAR
STARTCHAR char115
ENCODING 115
SWIDTH 450 0
DWIDTH 5 0
BBX 5 6 0 0
BITMAP
70
88
60
10
88
70
ENDCHAR
STARTCHAR char116
ENCODING 116
SWIDTH 450 0
DWIDTH 5 0
BBX 4 8 0 0
BITMAP
40
40
E0
40
40
40
40
30
ENDCHAR
STARTCHAR char117
ENCODING 117
SWIDTH 450 0
DWIDTH 5 0
BBX 5 6 0 0
BITMAP
88
88
88
88
98
68
ENDCHAR
STARTCHAR char118
ENCODING 118
SWIDTH 540 0
DWIDTH 6 0
BBX 6 6 0 0
BITMAP
84
84
48
48
30
30
ENDCHAR
STARTCHAR char118
ENCODING 119
SWIDTH 810 0
DWIDTH 9 0
BBX 9 6 0 0
BITMAP
8880
8880
5500
5500
2200
2200
ENDCHAR
STARTCHAR char120
ENCODING 120
SWIDTH 540 0
DWIDTH 6 0
BBX 6 6 0 0
BITMAP
84
48
30
30
48
84
ENDCHAR
STARTCHAR char118
ENCODING 121
SWIDTH 540 0
DWIDTH 6 0
BBX 6 9 0 -3
BITMAP
84
84
48
48
30
30
20
20
40
ENDCHAR
STARTCHAR char122
ENCODING 122
SWIDTH 450 0
DWIDTH 5 0
BBX 5 6 0 0
BITMAP
F8
08
10
20
40
F8
ENDCHAR
STARTCHAR char123
ENCODING 123
SWIDTH 270 0
DWIDTH 3 0
BBX 3 13 0 -3
BITMAP
20
40
40
20
20
40
80
40
20
20
40
40
20
ENDCHAR
STARTCHAR char124
ENCODING 124
SWIDTH 270 0
DWIDTH 3 0
BBX 1 10 1 -1
BITMAP
80
80
80
80
80
80
80
80
80
80
ENDCHAR
STARTCHAR char125
ENCODING 125
SWIDTH 360 0
DWIDTH 4 0
BBX 3 13 0 -3
BITMAP
80
40
40
80
80
40
20
40
80
80
40
40
80
ENDCHAR
STARTCHAR char126
ENCODING 126
SWIDTH 630 0
DWIDTH 7 0
BBX 7 2 0 3
BITMAP
72
9C
ENDCHAR
STARTCHAR char161
ENCODING 161
SWIDTH 90 0
DWIDTH 1 0
BBX 1 8 0 0
BITMAP
80
00
00
80
80
80
80
80
ENDCHAR
STARTCHAR char103
ENCODING 164
SWIDTH 630 0
DWIDTH 7 0
BBX 7 9 0 0
BITMAP
1C
22
40
F8
40
F8
40
22
1C
ENDCHAR
STARTCHAR char99
ENCODING 169
SWIDTH 720 0
DWIDTH 8 0
BBX 8 8 0 0
BITMAP
3C
42
99
A1
A1
99
42
3C
ENDCHAR
STARTCHAR char191
ENCODING 191
SWIDTH 450 0
DWIDTH 5 0
BBX 5 8 0 0
BITMAP
20
00
20
20
40
80
88
70
ENDCHAR
STARTCHAR char101
ENCODING 192
SWIDTH 630 0
DWIDTH 7 0
BBX 7 12 0 0
BITMAP
40
20
10
00
10
10
28
28
44
7C
82
82
ENDCHAR
STARTCHAR char101
ENCODING 193
SWIDTH 630 0
DWIDTH 7 0
BBX 7 12 0 0
BITMAP
04
08
10
00
10
10
28
28
44
7C
82
82
ENDCHAR
STARTCHAR char101
ENCODING 194
SWIDTH 630 0
DWIDTH 7 0
BBX 7 11 0 0
BITMAP
10
28
44
10
10
28
28
44
7C
82
82
ENDCHAR
STARTCHAR char101
ENCODING 195
SWIDTH 630 0
DWIDTH 7 0
BBX 7 11 0 0
BITMAP
32
4C
00
10
10
28
28
44
7C
82
82
ENDCHAR
STARTCHAR char101
ENCODING 196
SWIDTH 630 0
DWIDTH 7 0
BBX 7 10 0 0
BITMAP
44
00
10
10
28
28
44
7C
82
82
ENDCHAR
STARTCHAR char101
ENCODING 197
SWIDTH 630 0
DWIDTH 7 0
BBX 7 12 0 0
BITMAP
10
28
10
00
10
10
28
28
44
7C
82
82
ENDCHAR
STARTCHAR char101
ENCODING 198
SWIDTH 720 0
DWIDTH 8 0
BBX 8 8 0 0
BITMAP
1F
18
28
2E
48
78
88
8F
ENDCHAR
STARTCHAR char103
ENCODING 199
SWIDTH 540 0
DWIDTH 6 0
BBX 6 11 0 -3
BITMAP
38
44
80
80
80
80
44
38
10
48
30
ENDCHAR
STARTCHAR char105
ENCODING 200
SWIDTH 450 0
DWIDTH 5 0
BBX 5 12 0 0
BITMAP
80
40
20
00
F8
80
80
F0
80
80
80
F8
ENDCHAR
STARTCHAR char105
ENCODING 201
SWIDTH 450 0
DWIDTH 5 0
BBX 5 12 0 0
BITMAP
08
10
20
00
F8
80
80
F0
80
80
80
F8
ENDCHAR
STARTCHAR char105
ENCODING 202
SWIDTH 450 0
DWIDTH 5 0
BBX 5 12 0 0
BITMAP
20
50
88
00
F8
80
80
F0
80
80
80
F8
ENDCHAR
STARTCHAR char105
ENCODING 203
SWIDTH 450 0
DWIDTH 5 0
BBX 5 10 0 0
BITMAP
50
00
F8
80
80
F0
80
80
80
F8
ENDCHAR
STARTCHAR char109
ENCODING 204
SWIDTH 270 0
DWIDTH 3 0
BBX 3 12 -1 0
BITMAP
80
40
20
00
20
20
20
20
20
20
20
20
ENDCHAR
STARTCHAR char109
ENCODING 205
SWIDTH 180 0
DWIDTH 2 0
BBX 3 12 1 0
BITMAP
20
40
80
00
80
80
80
80
80
80
80
80
ENDCHAR
STARTCHAR char109
ENCODING 206
SWIDTH 450 0
DWIDTH 5 0
BBX 5 12 0 0
BITMAP
20
50
88
00
20
20
20
20
20
20
20
20
ENDCHAR
STARTCHAR char109
ENCODING 207
SWIDTH 270 0
DWIDTH 3 0
BBX 3 11 0 0
BITMAP
A0
00
00
40
40
40
40
40
40
40
40
ENDCHAR
STARTCHAR char104
ENCODING 208
SWIDTH 630 0
DWIDTH 7 0
BBX 7 8 0 0
BITMAP
78
44
42
42
F2
42
44
78
ENDCHAR
STARTCHAR char78
ENCODING 209
SWIDTH 540 0
DWIDTH 6 0
BBX 6 11 0 0
BITMAP
64
98
00
84
C4
A4
A4
94
94
8C
84
ENDCHAR
STARTCHAR char79
ENCODING 210
SWIDTH 630 0
DWIDTH 7 0
BBX 7 12 0 0
BITMAP
40
20
10
00
38
44
82
82
82
82
44
38
ENDCHAR
STARTCHAR char79
ENCODING 211
SWIDTH 630 0
DWIDTH 7 0
BBX 7 12 0 0
BITMAP
04
08
10
00
38
44
82
82
82
82
44
38
ENDCHAR
STARTCHAR char79
ENCODING 212
SWIDTH 630 0
DWIDTH 7 0
BBX 7 12 0 0
BITMAP
10
28
44
00
38
44
82
82
82
82
44
38
ENDCHAR
STARTCHAR char79
ENCODING 213
SWIDTH 630 0
DWIDTH 7 0
BBX 7 11 0 0
BITMAP
32
4C
00
38
44
82
82
82
82
44
38
ENDCHAR
STARTCHAR char79
ENCODING 214
SWIDTH 630 0
DWIDTH 7 0
BBX 7 10 0 0
BITMAP
44
00
38
44
82
82
82
82
44
38
ENDCHAR
STARTCHAR char79
ENCODING 216
SWIDTH 630 0
DWIDTH 7 0
BBX 7 8 0 0
BITMAP
3A
44
8A
92
92
A2
44
B8
ENDCHAR
STARTCHAR char85
ENCODING 217
SWIDTH 540 0
DWIDTH 6 0
BBX 6 12 0 0
BITMAP
40
20
10
00
84
84
84
84
84
84
84
78
ENDCHAR
STARTCHAR char85
ENCODING 218
SWIDTH 540 0
DWIDTH 6 0
BBX 6 12 0 0
BITMAP
08
10
20
00
84
84
84
84
84
84
84
78
ENDCHAR
STARTCHAR char85
ENCODING 219
SWIDTH 540 0
DWIDTH 6 0
BBX 6 12 0 0
BITMAP
20
50
88
00
84
84
84
84
84
84
84
78
ENDCHAR
STARTCHAR char85
ENCODING 220
SWIDTH 540 0
DWIDTH 6 0
BBX 6 10 0 0
BITMAP
48
00
84
84
84
84
84
84
84
78
ENDCHAR
STARTCHAR char89
ENCODING 221
SWIDTH 540 0
DWIDTH 6 0
BBX 5 12 0 0
BITMAP
08
10
20
00
88
88
50
50
20
20
20
20
ENDCHAR
STARTCHAR char80
ENCODING 222
SWIDTH 540 0
DWIDTH 6 0
BBX 6 8 0 0
BITMAP
80
80
F8
84
84
F8
80
80
ENDCHAR
STARTCHAR char223
ENCODING 223
SWIDTH 540 0
DWIDTH 6 0
BBX 6 11 0 0
BITMAP
38
44
84
84
84
98
84
84
84
84
98
ENDCHAR
STARTCHAR char97
ENCODING 224
SWIDTH 450 0
DWIDTH 5 0
BBX 5 10 0 0
BITMAP
80
40
20
00
68
98
88
88
98
68
ENDCHAR
STARTCHAR char97
ENCODING 225
SWIDTH 450 0
DWIDTH 5 0
BBX 5 10 0 0
BITMAP
10
20
40
00
68
98
88
88
98
68
ENDCHAR
STARTCHAR char97
ENCODING 226
SWIDTH 450 0
DWIDTH 5 0
BBX 5 10 0 0
BITMAP
20
50
88
00
68
98
88
88
98
68
ENDCHAR
STARTCHAR char97
ENCODING 227
SWIDTH 540 0
DWIDTH 6 0
BBX 6 9 0 0
BITMAP
64
98
00
68
98
88
88
98
68
ENDCHAR
STARTCHAR char97
ENCODING 228
SWIDTH 450 0
DWIDTH 5 0
BBX 5 9 0 0
BITMAP
50
00
00
68
98
88
88
98
68
ENDCHAR
STARTCHAR char97
ENCODING 229
SWIDTH 450 0
DWIDTH 5 0
BBX 5 10 0 0
BITMAP
20
50
20
00
68
98
88
88
98
68
ENDCHAR
STARTCHAR char97
ENCODING 230
SWIDTH 810 0
DWIDTH 9 0
BBX 9 7 0 0
BITMAP
7700
8880
0880
7F80
8800
8880
7700
ENDCHAR
STARTCHAR char99
ENCODING 231
SWIDTH 450 0
DWIDTH 5 0
BBX 5 9 0 -3
BITMAP
70
88
80
80
88
70
20
90
60
ENDCHAR
STARTCHAR char99
ENCODING 232
SWIDTH 450 0
DWIDTH 5 0
BBX 5 10 0 0
BITMAP
80
40
20
00
70
88
F8
80
88
70
ENDCHAR
STARTCHAR char99
ENCODING 233
SWIDTH 450 0
DWIDTH 5 0
BBX 5 10 0 0
BITMAP
08
10
20
00
70
88
F8
80
88
70
ENDCHAR
STARTCHAR char99
ENCODING 234
SWIDTH 450 0
DWIDTH 5 0
BBX 5 10 0 0
BITMAP
20
50
88
00
70
88
F8
80
88
70
ENDCHAR
STARTCHAR char99
ENCODING 235
SWIDTH 450 0
DWIDTH 5 0
BBX 5 8 0 0
BITMAP
50
00
70
88
F8
80
88
70
ENDCHAR
STARTCHAR char105
ENCODING 236
SWIDTH 270 0
DWIDTH 3 0
BBX 3 10 -1 0
BITMAP
80
40
20
00
20
20
20
20
20
20
ENDCHAR
STARTCHAR char105
ENCODING 237
SWIDTH 360 0
DWIDTH 4 0
BBX 3 10 1 0
BITMAP
20
40
80
00
80
80
80
80
80
80
ENDCHAR
STARTCHAR char105
ENCODING 238
SWIDTH 450 0
DWIDTH 5 0
BBX 5 10 0 0
BITMAP
20
50
88
00
20
20
20
20
20
20
ENDCHAR
STARTCHAR char105
ENCODING 239
SWIDTH 270 0
DWIDTH 3 0
BBX 3 9 0 0
BITMAP
A0
00
00
40
40
40
40
40
40
ENDCHAR
STARTCHAR char100
ENCODING 240
SWIDTH 540 0
DWIDTH 6 0
BBX 6 8 0 0
BITMAP
08
3C
68
98
88
88
98
68
ENDCHAR
STARTCHAR char104
ENCODING 241
SWIDTH 540 0
DWIDTH 6 0
BBX 6 9 0 0
BITMAP
64
98
00
B0
C8
88
88
88
88
ENDCHAR
STARTCHAR char111
ENCODING 242
SWIDTH 450 0
DWIDTH 5 0
BBX 5 10 0 0
BITMAP
80
40
20
00
70
88
88
88
88
70
ENDCHAR
STARTCHAR char111
ENCODING 243
SWIDTH 450 0
DWIDTH 5 0
BBX 5 10 0 0
BITMAP
08
10
20
00
70
88
88
88
88
70
ENDCHAR
STARTCHAR char111
ENCODING 244
SWIDTH 450 0
DWIDTH 5 0
BBX 5 10 0 0
BITMAP
20
50
88
00
70
88
88
88
88
70
ENDCHAR
STARTCHAR char111
ENCODING 245
SWIDTH 540 0
DWIDTH 6 0
BBX 6 9 0 0
BITMAP
64
98
00
70
88
88
88
88
70
ENDCHAR
STARTCHAR char111
ENCODING 246
SWIDTH 450 0
DWIDTH 5 0
BBX 5 9 0 0
BITMAP
50
00
00
70
88
88
88
88
70
ENDCHAR
STARTCHAR char111
ENCODING 248
SWIDTH 540 0
DWIDTH 6 0
BBX 7 8 -1 -1
BITMAP
02
3C
4C
54
54
64
78
80
ENDCHAR
STARTCHAR char117
ENCODING 249
SWIDTH 450 0
DWIDTH 5 0
BBX 5 10 0 0
BITMAP
80
40
20
00
88
88
88
88
98
68
ENDCHAR
STARTCHAR char117
ENCODING 250
SWIDTH 450 0
DWIDTH 5 0
BBX 5 10 0 0
BITMAP
08
10
20
00
88
88
88
88
98
68
ENDCHAR
STARTCHAR char117
ENCODING 251
SWIDTH 450 0
DWIDTH 5 0
BBX 5 10 0 0
BITMAP
20
50
88
00
88
88
88
88
98
68
ENDCHAR
STARTCHAR char117
ENCODING 252
SWIDTH 450 0
DWIDTH 5 0
BBX 5 9 0 0
BITMAP
50
00
00
88
88
88
88
98
68
ENDCHAR
STARTCHAR char118
ENCODING 253
SWIDTH 540 0
DWIDTH 6 0
BBX 6 13 0 -3
BITMAP
08
10
20
00
84
84
48
48
30
30
20
20
40
ENDCHAR
STARTCHAR char112
ENCODING 254
SWIDTH 450 0
DWIDTH 5 0
BBX 5 11 0 -3
BITMAP
80
80
B0
C8
88
88
C8
B0
80
80
80
ENDCHAR
STARTCHAR char118
ENCODING 255
SWIDTH 540 0
DWIDTH 6 0
BBX 6 11 0 -3
BITMAP
48
00
84
84
48
48
30
30
20
20
40
ENDCHAR
STARTCHAR char101
ENCODING 258
SWIDTH 630 0
DWIDTH 7 0
BBX 7 11 0 0
BITMAP
44
38
00
10
10
28
28
44
7C
82
82
ENDCHAR
STARTCHAR char97
ENCODING 259
SWIDTH 450 0
DWIDTH 5 0
BBX 5 9 0 0
BITMAP
88
70
00
68
98
88
88
98
68
ENDCHAR
STARTCHAR char101
ENCODING 260
SWIDTH 630 0
DWIDTH 7 0
BBX 7 11 0 -3
BITMAP
10
10
28
28
44
7C
82
82
08
08
06
ENDCHAR
STARTCHAR char97
ENCODING 261
SWIDTH 450 0
DWIDTH 5 0
BBX 5 9 0 -3
BITMAP
68
98
88
88
98
68
20
20
18
ENDCHAR
STARTCHAR char103
ENCODING 262
SWIDTH 540 0
DWIDTH 6 0
BBX 6 12 0 0
BITMAP
04
08
10
00
38
44
80
80
80
80
44
38
ENDCHAR
STARTCHAR char99
ENCODING 263
SWIDTH 450 0
DWIDTH 5 0
BBX 5 10 0 0
BITMAP
08
10
20
00
70
88
80
80
88
70
ENDCHAR
STARTCHAR char103
ENCODING 264
SWIDTH 540 0
DWIDTH 6 0
BBX 6 12 0 0
BITMAP
10
28
44
00
38
44
80
80
80
80
44
38
ENDCHAR
STARTCHAR char99
ENCODING 265
SWIDTH 450 0
DWIDTH 5 0
BBX 5 10 0 0
BITMAP
20
50
88
00
70
88
80
80
88
70
ENDCHAR
STARTCHAR char103
ENCODING 266
SWIDTH 540 0
DWIDTH 6 0
BBX 6 10 0 0
BITMAP
10
00
38
44
80
80
80
80
44
38
ENDCHAR
STARTCHAR char99
ENCODING 267
SWIDTH 450 0
DWIDTH 5 0
BBX 5 8 0 0
BITMAP
20
00
70
88
80
80
88
70
ENDCHAR
STARTCHAR char103
ENCODING 268
SWIDTH 540 0
DWIDTH 6 0
BBX 6 12 0 0
BITMAP
44
28
10
00
38
44
80
80
80
80
44
38
ENDCHAR
STARTCHAR char99
ENCODING 269
SWIDTH 450 0
DWIDTH 5 0
BBX 5 10 0 0
BITMAP
88
50
20
00
70
88
80
80
88
70
ENDCHAR
STARTCHAR char104
ENCODING 270
SWIDTH 540 0
DWIDTH 6 0
BBX 6 12 0 0
BITMAP
88
50
20
00
F0
88
84
84
84
84
88
F0
ENDCHAR
STARTCHAR char100
ENCODING 271
SWIDTH 450 0
DWIDTH 5 0
BBX 5 11 0 0
BITMAP
88
50
20
08
08
68
98
88
88
98
68
ENDCHAR
STARTCHAR char104
ENCODING 272
SWIDTH 630 0
DWIDTH 7 0
BBX 7 8 0 0
BITMAP
78
44
42
42
F2
42
44
78
ENDCHAR
STARTCHAR char100
ENCODING 273
SWIDTH 540 0
DWIDTH 6 0
BBX 6 8 0 0
BITMAP
08
3C
68
98
88
88
98
68
ENDCHAR
STARTCHAR char105
ENCODING 280
SWIDTH 450 0
DWIDTH 5 0
BBX 5 11 0 -3
BITMAP
F8
80
80
F0
80
80
80
F8
20
20
18
ENDCHAR
STARTCHAR char99
ENCODING 281
SWIDTH 450 0
DWIDTH 5 0
BBX 5 9 0 -3
BITMAP
70
88
F8
80
88
70
20
20
18
ENDCHAR
STARTCHAR char105
ENCODING 282
SWIDTH 450 0
DWIDTH 5 0
BBX 5 12 0 0
BITMAP
88
50
20
00
F8
80
80
F0
80
80
80
F8
ENDCHAR
STARTCHAR char99
ENCODING 283
SWIDTH 450 0
DWIDTH 5 0
BBX 5 10 0 0
BITMAP
88
50
20
00
70
88
F8
80
88
70
ENDCHAR
STARTCHAR char103
ENCODING 284
SWIDTH 540 0
DWIDTH 6 0
BBX 6 12 0 0
BITMAP
10
28
44
00
38
44
80
80
9C
84
44
38
ENDCHAR
STARTCHAR char111
ENCODING 285
SWIDTH 450 0
DWIDTH 5 0
BBX 5 13 0 -3
BITMAP
20
50
88
00
68
98
88
88
98
68
08
08
70
ENDCHAR
STARTCHAR char103
ENCODING 286
SWIDTH 540 0
DWIDTH 6 0
BBX 6 11 0 0
BITMAP
44
38
00
38
44
80
80
9C
84
44
38
ENDCHAR
STARTCHAR char111
ENCODING 287
SWIDTH 450 0
DWIDTH 5 0
BBX 5 12 0 -3
BITMAP
88
70
00
68
98
88
88
98
68
08
08
70
ENDCHAR
STARTCHAR char103
ENCODING 288
SWIDTH 540 0
DWIDTH 6 0
BBX 6 10 0 0
BITMAP
10
00
38
44
80
80
9C
84
44
38
ENDCHAR
STARTCHAR char111
ENCODING 289
SWIDTH 450 0
DWIDTH 5 0
BBX 5 11 0 -3
BITMAP
20
00
68
98
88
88
98
68
08
08
70
ENDCHAR
STARTCHAR char108
ENCODING 292
SWIDTH 540 0
DWIDTH 6 0
BBX 6 12 0 0
BITMAP
30
48
84
00
84
84
84
FC
84
84
84
84
ENDCHAR
STARTCHAR char104
ENCODING 293
SWIDTH 450 0
DWIDTH 5 0
BBX 5 12 0 0
BITMAP
20
50
88
00
80
80
B0
C8
88
88
88
88
ENDCHAR
STARTCHAR char108
ENCODING 294
SWIDTH 540 0
DWIDTH 6 0
BBX 6 8 0 0
BITMAP
84
FC
84
FC
84
84
84
84
ENDCHAR
STARTCHAR char104
ENCODING 295
SWIDTH 450 0
DWIDTH 5 0
BBX 5 8 0 0
BITMAP
80
F0
80
B0
C8
88
88
88
ENDCHAR
STARTCHAR char109
ENCODING 304
SWIDTH 270 0
DWIDTH 3 0
BBX 1 10 1 0
BITMAP
80
00
80
80
80
80
80
80
80
80
ENDCHAR
STARTCHAR char105
ENCODING 305
SWIDTH 270 0
DWIDTH 3 0
BBX 1 6 1 0
BITMAP
80
80
80
80
80
80
ENDCHAR
STARTCHAR char74
ENCODING 308
SWIDTH 450 0
DWIDTH 5 0
BBX 5 12 0 0
BITMAP
20
50
88
00
10
10
10
10
10
10
90
60
ENDCHAR
STARTCHAR char106
ENCODING 309
SWIDTH 450 0
DWIDTH 5 0
BBX 5 13 0 -3
BITMAP
20
50
88
00
10
10
10
10
10
10
10
90
60
ENDCHAR
STARTCHAR char76
ENCODING 313
SWIDTH 450 0
DWIDTH 5 0
BBX 5 12 0 0
BITMAP
20
40
80
00
80
80
80
80
80
80
80
F8
ENDCHAR
STARTCHAR char108
ENCODING 314
SWIDTH 360 0
DWIDTH 4 0
BBX 3 12 1 0
BITMAP
20
40
80
00
80
80
80
80
80
80
80
80
ENDCHAR
STARTCHAR char76
ENCODING 317
SWIDTH 450 0
DWIDTH 5 0
BBX 5 8 0 0
BITMAP
90
90
A0
80
80
80
80
F8
ENDCHAR
STARTCHAR char108
ENCODING 318
SWIDTH 450 0
DWIDTH 5 0
BBX 4 8 1 0
BITMAP
90
90
A0
80
80
80
80
80
ENDCHAR
STARTCHAR char76
ENCODING 321
SWIDTH 540 0
DWIDTH 6 0
BBX 6 8 0 0
BITMAP
40
50
60
40
C0
40
40
7C
ENDCHAR
STARTCHAR char108
ENCODING 322
SWIDTH 360 0
DWIDTH 4 0
BBX 4 8 0 0
BITMAP
40
50
60
40
C0
40
40
40
ENDCHAR
STARTCHAR char78
ENCODING 323
SWIDTH 540 0
DWIDTH 6 0
BBX 6 12 0 0
BITMAP
08
10
20
00
84
C4
A4
A4
94
94
8C
84
ENDCHAR
STARTCHAR char104
ENCODING 324
SWIDTH 450 0
DWIDTH 5 0
BBX 5 10 0 0
BITMAP
10
20
40
00
B0
C8
88
88
88
88
ENDCHAR
STARTCHAR char78
ENCODING 327
SWIDTH 540 0
DWIDTH 6 0
BBX 6 12 0 0
BITMAP
88
50
20
00
84
C4
A4
A4
94
94
8C
84
ENDCHAR
STARTCHAR char104
ENCODING 328
SWIDTH 450 0
DWIDTH 5 0
BBX 5 10 0 0
BITMAP
88
50
20
00
B0
C8
88
88
88
88
ENDCHAR
STARTCHAR char79
ENCODING 336
SWIDTH 630 0
DWIDTH 7 0
BBX 7 12 0 0
BITMAP
12
24
48
00
38
44
82
82
82
82
44
38
ENDCHAR
STARTCHAR char111
ENCODING 337
SWIDTH 540 0
DWIDTH 6 0
BBX 6 10 0 0
BITMAP
24
48
90
00
70
88
88
88
88
70
ENDCHAR
STARTCHAR char80
ENCODING 340
SWIDTH 540 0
DWIDTH 6 0
BBX 6 12 0 0
BITMAP
08
10
20
00
F8
84
84
F8
A0
90
88
84
ENDCHAR
STARTCHAR char114
ENCODING 341
SWIDTH 360 0
DWIDTH 4 0
BBX 4 10 0 0
BITMAP
10
20
40
00
B0
C0
80
80
80
80
ENDCHAR
STARTCHAR char80
ENCODING 344
SWIDTH 540 0
DWIDTH 6 0
BBX 6 12 0 0
BITMAP
88
50
20
00
F8
84
84
F8
A0
90
88
84
ENDCHAR
STARTCHAR char114
ENCODING 345
SWIDTH 360 0
DWIDTH 4 0
BBX 5 10 -1 0
BITMAP
88
50
20
00
58
60
40
40
40
40
ENDCHAR
STARTCHAR char83
ENCODING 346
SWIDTH 450 0
DWIDTH 5 0
BBX 5 12 0 0
BITMAP
08
10
20
00
70
88
80
60
10
08
88
70
ENDCHAR
STARTCHAR char115
ENCODING 347
SWIDTH 450 0
DWIDTH 5 0
BBX 5 10 0 0
BITMAP
08
10
20
00
70
88
60
10
88
70
ENDCHAR
STARTCHAR char83
ENCODING 348
SWIDTH 450 0
DWIDTH 5 0
BBX 5 12 0 0
BITMAP
20
50
88
00
70
88
80
60
10
08
88
70
ENDCHAR
STARTCHAR char115
ENCODING 349
SWIDTH 450 0
DWIDTH 5 0
BBX 5 10 0 0
BITMAP
20
50
88
00
70
88
60
10
88
70
ENDCHAR
STARTCHAR char83
ENCODING 350
SWIDTH 450 0
DWIDTH 5 0
BBX 5 11 0 -3
BITMAP
70
88
80
60
10
08
88
70
20
90
60
ENDCHAR
STARTCHAR char115
ENCODING 351
SWIDTH 450 0
DWIDTH 5 0
BBX 5 9 0 -3
BITMAP
70
88
60
10
88
70
20
90
60
ENDCHAR
STARTCHAR char83
ENCODING 352
SWIDTH 450 0
DWIDTH 5 0
BBX 5 12 0 0
BITMAP
88
50
20
00
70
88
80
60
10
08
88
70
ENDCHAR
STARTCHAR char115
ENCODING 353
SWIDTH 450 0
DWIDTH 5 0
BBX 5 10 0 0
BITMAP
88
50
20
00
70
88
60
10
88
70
ENDCHAR
STARTCHAR char84
ENCODING 354
SWIDTH 540 0
DWIDTH 6 0
BBX 5 11 0 -3
BITMAP
F8
20
20
20
20
20
20
20
20
90
60
ENDCHAR
STARTCHAR char116
ENCODING 355
SWIDTH 450 0
DWIDTH 5 0
BBX 4 11 0 -3
BITMAP
40
40
E0
40
40
40
40
30
20
90
60
ENDCHAR
STARTCHAR char84
ENCODING 356
SWIDTH 540 0
DWIDTH 6 0
BBX 5 12 0 0
BITMAP
88
50
20
00
F8
20
20
20
20
20
20
20
ENDCHAR
STARTCHAR char116
ENCODING 357
SWIDTH 360 0
DWIDTH 4 0
BBX 5 12 -1 0
BITMAP
88
50
20
00
20
20
70
20
20
20
20
18
ENDCHAR
STARTCHAR char85
ENCODING 364
SWIDTH 540 0
DWIDTH 6 0
BBX 6 11 0 0
BITMAP
84
78
00
84
84
84
84
84
84
84
78
ENDCHAR
STARTCHAR char117
ENCODING 365
SWIDTH 450 0
DWIDTH 5 0
BBX 5 9 0 0
BITMAP
88
70
00
88
88
88
88
98
68
ENDCHAR
STARTCHAR char85
ENCODING 366
SWIDTH 540 0
DWIDTH 6 0
BBX 6 12 0 0
BITMAP
30
48
30
00
84
84
84
84
84
84
84
78
ENDCHAR
STARTCHAR char117
ENCODING 367
SWIDTH 450 0
DWIDTH 5 0
BBX 5 10 0 0
BITMAP
20
50
20
00
88
88
88
88
98
68
ENDCHAR
STARTCHAR char85
ENCODING 368
SWIDTH 540 0
DWIDTH 6 0
BBX 6 12 0 0
BITMAP
24
48
90
00
84
84
84
84
84
84
84
78
ENDCHAR
STARTCHAR char117
ENCODING 369
SWIDTH 540 0
DWIDTH 6 0
BBX 6 10 0 0
BITMAP
24
48
90
00
88
88
88
88
98
68
ENDCHAR
STARTCHAR char90
ENCODING 377
SWIDTH 540 0
DWIDTH 6 0
BBX 6 12 0 0
BITMAP
08
10
20
00
FC
04
08
10
20
40
80
FC
ENDCHAR
STARTCHAR char122
ENCODING 378
SWIDTH 450 0
DWIDTH 5 0
BBX 5 10 0 0
BITMAP
08
10
20
00
F8
08
10
20
40
F8
ENDCHAR
STARTCHAR char90
ENCODING 379
SWIDTH 540 0
DWIDTH 6 0
BBX 6 10 0 0
BITMAP
10
00
FC
04
08
10
20
40
80
FC
ENDCHAR
STARTCHAR char122
ENCODING 380
SWIDTH 450 0
DWIDTH 5 0
BBX 5 8 0 0
BITMAP
20
00
F8
08
10
20
40
F8
ENDCHAR
STARTCHAR char90
ENCODING 381
SWIDTH 540 0
DWIDTH 6 0
BBX 6 12 0 0
BITMAP
44
28
10
00
FC
04
08
10
20
40
80
FC
ENDCHAR
STARTCHAR char122
ENCODING 382
SWIDTH 450 0
DWIDTH 5 0
BBX 5 10 0 0
BITMAP
88
50
20
00
F8
08
10
20
40
F8
ENDCHAR
ENDFONT
